<svg width="256" height="86" viewBox="0 0 256 86" fill="none" xmlns="http://www.w3.org/2000/svg">
<path fill-rule="evenodd" clip-rule="evenodd" d="M64.7544 8.30084C64.7544 8.49038 66.7602 8.6017 70.1698 8.6017C73.5792 8.6017 75.585 8.49038 75.585 8.30084C75.585 8.11132 73.5792 8 70.1698 8C66.7602 8 64.7544 8.11132 64.7544 8.30084ZM61.746 8.90254C61.746 9.068 61.3398 9.20339 60.8435 9.20339C60.3471 9.20339 59.9409 9.33877 59.9409 9.50423C59.9409 9.6697 59.5348 9.80509 59.0384 9.80509C58.5419 9.80509 58.1358 9.94047 58.1358 10.1059C58.1358 10.2714 57.7296 10.4068 57.2333 10.4068C56.7369 10.4068 56.3307 10.5422 56.3307 10.7076C56.3307 10.8731 56.06 11.0085 55.7291 11.0085C55.3981 11.0085 55.1273 11.1439 55.1273 11.3093C55.1273 11.4748 54.8566 11.6102 54.5257 11.6102C54.1948 11.6102 53.9239 11.7455 53.9239 11.911C53.9239 12.0765 53.6532 12.2119 53.3223 12.2119C52.9914 12.2119 52.7205 12.3472 52.7205 12.5127C52.7205 12.6782 52.4796 12.8136 52.1854 12.8136C51.8909 12.8136 51.4549 13.0843 51.2164 13.4153C50.9778 13.7462 50.599 14.017 50.3743 14.017C50.1495 14.017 49.4456 14.5585 48.8096 15.2203C48.1736 15.8822 47.5048 16.4237 47.3234 16.4237C46.8893 16.4237 43.0935 20.2253 43.0935 20.6597C43.0935 20.8447 42.6873 21.3754 42.1909 21.839C41.6945 22.3026 41.2884 22.8687 41.2884 23.0966C41.2884 23.3246 41.0176 23.7063 40.6867 23.945C40.3557 24.1835 40.085 24.6195 40.085 24.9139C40.085 25.2081 39.9496 25.4491 39.7841 25.4491C39.6187 25.4491 39.4833 25.72 39.4833 26.0509C39.4833 26.3818 39.3479 26.6525 39.1824 26.6525C39.017 26.6525 38.8816 26.9234 38.8816 27.2543C38.8816 27.5852 38.7462 27.8559 38.5807 27.8559C38.4153 27.8559 38.2799 28.1266 38.2799 28.4577C38.2799 28.7886 38.1445 29.0593 37.9791 29.0593C37.8136 29.0593 37.6782 29.33 37.6782 29.661C37.6782 29.992 37.5428 30.2627 37.3774 30.2627C37.2119 30.2627 37.0765 30.6689 37.0765 31.1652C37.0765 31.6616 36.9411 32.0678 36.7757 32.0678C36.6102 32.0678 36.4748 32.4739 36.4748 32.9703C36.4748 33.4668 36.3394 33.8729 36.174 33.8729C36.0085 33.8729 35.8731 34.5498 35.8731 35.3771C35.8731 36.2045 35.7377 36.8814 35.5723 36.8814C35.405 36.8814 35.2714 37.6838 35.2714 38.6864C35.2714 39.6892 35.405 40.4916 35.5723 40.4916C35.7395 40.4916 35.8731 39.6892 35.8731 38.6864C35.8731 37.6838 36.0067 36.8814 36.174 36.8814C36.3394 36.8814 36.4748 36.2045 36.4748 35.3771C36.4748 34.5498 36.6102 33.8729 36.7757 33.8729C36.9411 33.8729 37.0765 33.4668 37.0765 32.9703C37.0765 32.4739 37.2119 32.0678 37.3774 32.0678C37.5428 32.0678 37.6782 31.6616 37.6782 31.1652C37.6782 30.6689 37.8136 30.2627 37.9791 30.2627C38.1445 30.2627 38.2799 29.992 38.2799 29.661C38.2799 29.33 38.4153 29.0593 38.5807 29.0593C38.7462 29.0593 38.8816 28.7886 38.8816 28.4577C38.8816 28.1266 39.017 27.8559 39.1824 27.8559C39.3479 27.8559 39.4833 27.5852 39.4833 27.2543C39.4833 26.9234 39.6187 26.6525 39.7841 26.6525C39.9496 26.6525 40.085 26.4115 40.085 26.1173C40.085 25.8229 40.3557 25.3869 40.6867 25.1484C41.0176 24.9097 41.2884 24.5036 41.2884 24.2457C41.2884 23.988 41.5591 23.5818 41.8901 23.3432C42.221 23.1047 42.4918 22.7349 42.4918 22.5216C42.4918 22.015 49.2864 15.2203 49.793 15.2203C50.0063 15.2203 50.3761 14.9496 50.6146 14.6186C50.8532 14.2877 51.2594 14.017 51.5171 14.017C51.775 14.017 52.1812 13.7462 52.4198 13.4153C52.6583 13.0843 53.0943 12.8136 53.3888 12.8136C53.683 12.8136 53.9239 12.6782 53.9239 12.5127C53.9239 12.3472 54.1948 12.2119 54.5257 12.2119C54.8566 12.2119 55.1273 12.0765 55.1273 11.911C55.1273 11.7455 55.3981 11.6102 55.7291 11.6102C56.06 11.6102 56.3307 11.4748 56.3307 11.3093C56.3307 11.1439 56.7369 11.0085 57.2333 11.0085C57.7296 11.0085 58.1358 10.8731 58.1358 10.7076C58.1358 10.5422 58.5419 10.4068 59.0384 10.4068C59.5348 10.4068 59.9409 10.2714 59.9409 10.1059C59.9409 9.94047 60.3471 9.80509 60.8435 9.80509C61.3398 9.80509 61.746 9.6697 61.746 9.50423C61.746 9.33877 62.2875 9.20339 62.9494 9.20339C63.6112 9.20339 64.1528 9.068 64.1528 8.90254C64.1528 8.73707 63.6112 8.6017 62.9494 8.6017C62.2875 8.6017 61.746 8.73707 61.746 8.90254ZM76.1867 8.90254C76.1867 9.068 76.7282 9.20339 77.3901 9.20339C78.0519 9.20339 78.5935 9.33877 78.5935 9.50423C78.5935 9.6697 79.135 9.80509 79.7969 9.80509C80.4587 9.80509 81.0003 9.94047 81.0003 10.1059C81.0003 10.2714 81.271 10.4068 81.6019 10.4068C81.9328 10.4068 82.2037 10.5422 82.2037 10.7076C82.2037 10.8731 82.6098 11.0085 83.1062 11.0085C83.6026 11.0085 84.0087 11.1439 84.0087 11.3093C84.0087 11.4748 84.2794 11.6102 84.6105 11.6102C84.9414 11.6102 85.2121 11.7455 85.2121 11.911C85.2121 12.0765 85.4828 12.2119 85.8137 12.2119C86.1448 12.2119 86.4155 12.3472 86.4155 12.5127C86.4155 12.6782 86.6565 12.8136 86.9507 12.8136C87.2453 12.8136 87.6812 13.0843 87.9198 13.4153C88.1583 13.7462 88.5644 14.017 88.8223 14.017C89.0801 14.017 89.4862 14.2877 89.7248 14.6186C89.9633 14.9496 90.3421 15.2203 90.5668 15.2203C90.7916 15.2203 91.4956 15.7619 92.1316 16.4237C92.7676 17.0856 93.4382 17.6271 93.6223 17.6271C94.0574 17.6271 96.0426 19.6124 96.0426 20.0475C96.0426 20.2316 96.5841 20.9021 97.246 21.5382C97.9078 22.1742 98.4494 22.8781 98.4494 23.1028C98.4494 23.3276 98.7201 23.7063 99.0511 23.945C99.3821 24.1835 99.6528 24.6195 99.6528 24.9139C99.6528 25.2081 99.7882 25.4491 99.9537 25.4491C100.119 25.4491 100.254 25.6901 100.254 25.9844C100.254 26.2789 100.525 26.7148 100.856 26.9534C101.187 27.1919 101.458 27.6279 101.458 27.9224C101.458 28.2167 101.593 28.4577 101.759 28.4577C101.924 28.4577 102.06 28.8638 102.06 29.3602C102.06 29.8566 102.195 30.2627 102.36 30.2627C102.526 30.2627 102.661 30.5334 102.661 30.8644C102.661 31.1953 102.797 31.4661 102.962 31.4661C103.128 31.4661 103.263 32.0077 103.263 32.6695C103.263 33.3314 103.398 33.8729 103.564 33.8729C103.729 33.8729 103.865 34.2791 103.865 34.7754C103.865 35.2718 104 35.678 104.166 35.678C104.331 35.678 104.466 35.2718 104.466 34.7754C104.466 34.2791 104.331 33.8729 104.166 33.8729C104 33.8729 103.865 33.3314 103.865 32.6695C103.865 32.0077 103.729 31.4661 103.564 31.4661C103.398 31.4661 103.263 31.1953 103.263 30.8644C103.263 30.5334 103.128 30.2627 102.962 30.2627C102.797 30.2627 102.661 29.8566 102.661 29.3602C102.661 28.8638 102.526 28.4577 102.36 28.4577C102.195 28.4577 102.06 28.1868 102.06 27.8559C102.06 27.525 101.924 27.2543 101.759 27.2543C101.593 27.2543 101.458 27.0133 101.458 26.719C101.458 26.4245 101.187 25.9886 100.856 25.75C100.525 25.5114 100.254 25.1052 100.254 24.8475C100.254 24.5896 99.9837 24.1835 99.6528 23.945C99.3219 23.7063 99.0511 23.3002 99.0511 23.0423C99.0511 22.7846 98.7803 22.3784 98.4494 22.1398C98.1185 21.9013 97.8477 21.531 97.8477 21.317C97.8477 20.8426 92.8768 15.822 92.4069 15.822C92.2228 15.822 91.6927 15.4159 91.2291 14.9195C90.7654 14.4231 90.1993 14.017 89.9715 14.017C89.7434 14.017 89.3617 13.7462 89.1231 13.4153C88.8846 13.0843 88.4486 12.8136 88.1541 12.8136C87.8599 12.8136 87.6189 12.6782 87.6189 12.5127C87.6189 12.3472 87.3481 12.2119 87.0172 12.2119C86.6862 12.2119 86.4155 12.0765 86.4155 11.911C86.4155 11.7455 86.1448 11.6102 85.8137 11.6102C85.4828 11.6102 85.2121 11.4748 85.2121 11.3093C85.2121 11.1439 84.9414 11.0085 84.6105 11.0085C84.2794 11.0085 84.0087 10.8731 84.0087 10.7076C84.0087 10.5422 83.6026 10.4068 83.1062 10.4068C82.6098 10.4068 82.2037 10.2714 82.2037 10.1059C82.2037 9.94047 81.9328 9.80509 81.6019 9.80509C81.271 9.80509 81.0003 9.6697 81.0003 9.50423C81.0003 9.33877 80.4587 9.20339 79.7969 9.20339C79.135 9.20339 78.5935 9.068 78.5935 8.90254C78.5935 8.73707 78.0519 8.6017 77.3901 8.6017C76.7282 8.6017 76.1867 8.73707 76.1867 8.90254ZM65.9578 10.7076C65.9578 10.8731 65.281 11.0085 64.4537 11.0085C63.6263 11.0085 62.9494 11.1439 62.9494 11.3093C62.9494 11.4748 62.4078 11.6102 61.746 11.6102C61.0841 11.6102 60.5426 11.7455 60.5426 11.911C60.5426 12.0765 60.1364 12.2119 59.6401 12.2119C59.1437 12.2119 58.7375 12.3472 58.7375 12.5127C58.7375 12.6782 58.4667 12.8136 58.1358 12.8136C57.8049 12.8136 57.5341 12.9489 57.5341 13.1144C57.5341 13.2799 57.1577 13.4153 56.6981 13.4153C56.2071 13.4153 55.683 13.6638 55.4282 14.017C55.1896 14.3479 54.7537 14.6186 54.4591 14.6186C54.1649 14.6186 53.9239 14.754 53.9239 14.9195C53.9239 15.085 53.683 15.2203 53.3888 15.2203C53.0943 15.2203 52.6583 15.4911 52.4198 15.822C52.1812 16.153 51.7994 16.4237 51.5714 16.4237C51.3436 16.4237 50.7774 16.8299 50.3138 17.3263C49.8502 17.8227 49.3195 18.2288 49.1344 18.2288C48.6964 18.2288 44.8985 22.0267 44.8985 22.4648C44.8985 22.6498 44.4924 23.1804 43.996 23.6441C43.4996 24.1076 43.0935 24.7036 43.0935 24.9681C43.0935 25.2328 42.9581 25.4491 42.7926 25.4491C42.6271 25.4491 42.4918 25.6901 42.4918 25.9844C42.4918 26.2789 42.221 26.7148 41.8901 26.9534C41.5591 27.1919 41.2884 27.6279 41.2884 27.9224C41.2884 28.2167 41.153 28.4577 40.9875 28.4577C40.8221 28.4577 40.6867 28.7284 40.6867 29.0593C40.6867 29.3902 40.5513 29.661 40.3858 29.661C40.2204 29.661 40.085 30.0672 40.085 30.5636C40.085 31.06 39.9496 31.4661 39.7841 31.4661C39.6187 31.4661 39.4833 31.8723 39.4833 32.3686C39.4833 32.865 39.3479 33.2712 39.1824 33.2712C39.017 33.2712 38.8816 33.6773 38.8816 34.1737C38.8816 34.6702 38.7462 35.0763 38.5807 35.0763C38.4153 35.0763 38.2799 35.7532 38.2799 36.5805C38.2799 37.4078 38.1445 38.0848 37.9791 38.0848C37.7895 38.0848 37.6782 40.0905 37.6782 43.5C37.6782 46.9095 37.7895 48.9152 37.9791 48.9152C38.1445 48.9152 38.2799 49.5922 38.2799 50.4195C38.2799 51.2468 38.4153 51.9237 38.5807 51.9237C38.7462 51.9237 38.8816 52.3298 38.8816 52.8263C38.8816 53.3227 39.017 53.7288 39.1824 53.7288C39.3479 53.7288 39.4833 54.135 39.4833 54.6314C39.4833 55.1277 39.6187 55.5339 39.7841 55.5339C39.9496 55.5339 40.085 55.8047 40.085 56.1356C40.085 56.4666 40.2204 56.7373 40.3858 56.7373C40.5513 56.7373 40.6867 57.008 40.6867 57.339C40.6867 57.67 40.8221 57.9407 40.9875 57.9407C41.153 57.9407 41.2884 58.2114 41.2884 58.5423C41.2884 58.8734 41.4238 59.1441 41.5892 59.1441C41.7547 59.1441 41.8901 59.4148 41.8901 59.7457C41.8901 60.0766 42.0254 60.3475 42.1909 60.3475C42.3564 60.3475 42.4918 60.5566 42.4918 60.8123C42.4918 61.4492 44.0649 62.9992 44.2243 62.5202C44.2917 62.318 44.7418 62.1525 45.2244 62.1525C45.7072 62.1525 46.1019 62.0172 46.1019 61.8516C46.1019 61.6862 46.508 61.5509 47.0044 61.5509C47.5009 61.5509 47.9071 61.4155 47.9071 61.25C47.9071 61.0845 48.5839 60.9491 49.4112 60.9491C50.2386 60.9491 50.9155 60.8138 50.9155 60.6484C50.9155 60.457 53.3223 60.3475 57.5341 60.3475C61.746 60.3475 64.1528 60.457 64.1528 60.6484C64.1528 60.8201 65.0553 60.9491 66.2587 60.9491C67.4621 60.9491 68.3646 61.0783 68.3646 61.25C68.3646 61.4217 69.2671 61.5509 70.4705 61.5509C71.6739 61.5509 72.5765 61.6799 72.5765 61.8516C72.5765 62.0235 73.4791 62.1525 74.6824 62.1525C75.8858 62.1525 76.7884 62.2816 76.7884 62.4534C76.7884 62.6339 77.9917 62.7543 79.7969 62.7543C81.6019 62.7543 82.8053 62.8746 82.8053 63.055C82.8053 63.2335 83.9085 63.3559 85.513 63.3559C87.1174 63.3559 88.2205 63.2335 88.2205 63.055C88.2205 62.8833 89.1231 62.7543 90.3265 62.7543C91.5299 62.7543 92.4324 62.6251 92.4324 62.4534C92.4324 62.2879 92.9739 62.1525 93.6358 62.1525C94.2977 62.1525 94.8392 62.0172 94.8392 61.8516C94.8392 61.6862 95.2453 61.5509 95.7417 61.5509C96.2382 61.5509 96.6443 61.4155 96.6443 61.25C96.6443 61.0845 96.8534 60.9491 97.1091 60.9491C97.7111 60.9491 99.0511 59.6092 99.0511 59.0072C99.0511 58.7514 99.1864 58.5423 99.3519 58.5423C99.5174 58.5423 99.6528 58.2716 99.6528 57.9407C99.6528 57.6098 99.7882 57.339 99.9537 57.339C100.119 57.339 100.254 56.9328 100.254 56.4364C100.254 55.94 100.39 55.5339 100.555 55.5339C100.721 55.5339 100.856 55.2632 100.856 54.9322C100.856 54.6013 100.992 54.3305 101.157 54.3305C101.323 54.3305 101.458 53.9243 101.458 53.428C101.458 52.9316 101.593 52.5254 101.759 52.5254C101.924 52.5254 102.06 51.8485 102.06 51.0212C102.06 50.1939 102.195 49.517 102.36 49.517C102.536 49.517 102.661 48.5142 102.661 47.1102C102.661 45.7061 102.787 44.7034 102.962 44.7034C103.128 44.7034 103.263 44.1618 103.263 43.5C103.263 42.8382 103.128 42.2966 102.962 42.2966C102.784 42.2966 102.661 41.1934 102.661 39.589C102.661 37.9845 102.539 36.8814 102.36 36.8814C102.195 36.8814 102.06 36.3398 102.06 35.678C102.06 35.0161 101.924 34.4746 101.759 34.4746C101.593 34.4746 101.458 34.0684 101.458 33.572C101.458 33.0757 101.323 32.6695 101.157 32.6695C100.992 32.6695 100.856 32.2634 100.856 31.767C100.856 31.2705 100.721 30.8644 100.555 30.8644C100.39 30.8644 100.254 30.5936 100.254 30.2627C100.254 29.9318 100.119 29.661 99.9537 29.661C99.7882 29.661 99.6528 29.3902 99.6528 29.0593C99.6528 28.7284 99.5174 28.4577 99.3519 28.4577C99.1864 28.4577 99.0511 28.1868 99.0511 27.8559C99.0511 27.525 98.9157 27.2543 98.7503 27.2543C98.5848 27.2543 98.4494 26.9834 98.4494 26.6525C98.4494 26.3216 98.314 26.0509 98.1485 26.0509C97.983 26.0509 97.8477 25.8346 97.8477 25.5698C97.8477 25.3054 97.4416 24.7094 96.9451 24.2457C96.4487 23.7822 96.0426 23.252 96.0426 23.0679C96.0426 22.6308 91.0389 17.6271 90.6018 17.6271C90.4176 17.6271 89.8876 17.221 89.4239 16.7246C88.9604 16.2282 88.3941 15.822 88.1664 15.822C87.9384 15.822 87.5566 15.5513 87.318 15.2203C87.0795 14.8894 86.6435 14.6186 86.349 14.6186C86.0547 14.6186 85.8137 14.4833 85.8137 14.3178C85.8137 14.1523 85.543 14.017 85.2121 14.017C84.8812 14.017 84.6105 13.8816 84.6105 13.7161C84.6105 13.5506 84.3396 13.4153 84.0087 13.4153C83.6778 13.4153 83.4071 13.2799 83.4071 13.1144C83.4071 12.9489 83.0009 12.8136 82.5044 12.8136C82.008 12.8136 81.6019 12.6782 81.6019 12.5127C81.6019 12.3472 81.1958 12.2119 80.6994 12.2119C80.203 12.2119 79.7969 12.0765 79.7969 11.911C79.7969 11.7455 79.2553 11.6102 78.5935 11.6102C77.9316 11.6102 77.3901 11.4748 77.3901 11.3093C77.3901 11.1439 76.7132 11.0085 75.8858 11.0085C75.0585 11.0085 74.3816 10.8731 74.3816 10.7076C74.3816 10.5214 72.7772 10.4068 70.1698 10.4068C67.5623 10.4068 65.9578 10.5214 65.9578 10.7076ZM70.7714 12.2119C70.7714 12.5428 70.9068 12.8136 71.0723 12.8136C71.2378 12.8136 71.3731 13.2197 71.3731 13.7161C71.3731 14.2125 71.5085 14.6186 71.6739 14.6186C71.8394 14.6186 71.9748 14.9667 71.9748 15.3921C71.9748 16.7673 72.566 17.0254 75.7141 17.0254C78.3928 17.0254 78.5935 17.0672 78.5935 17.6271C78.5935 17.9779 78.3928 18.2288 78.1124 18.2288C77.848 18.2288 77.252 18.635 76.7884 19.1314C76.3248 19.6277 75.7905 20.0339 75.601 20.0339C75.0946 20.0339 73.7799 21.4359 73.7799 21.9759C73.7799 22.2316 73.9153 22.4407 74.0807 22.4407C74.2462 22.4407 74.3816 22.8468 74.3816 23.3432C74.3816 23.8396 74.5169 24.2457 74.6824 24.2457C74.848 24.2457 74.9833 24.6519 74.9833 25.1484C74.9833 25.6447 75.1187 26.0509 75.2841 26.0509C75.4496 26.0509 75.585 26.3216 75.585 26.6525C75.585 27.0289 75.3844 27.2543 75.0497 27.2543C74.7552 27.2543 74.3194 26.9834 74.0807 26.6525C73.8422 26.3216 73.4604 26.0509 73.2323 26.0509C73.0046 26.0509 72.4384 25.6447 71.9748 25.1484C71.1592 24.2753 69.568 23.8776 69.568 24.5466C69.568 24.7121 69.3517 24.8475 69.087 24.8475C68.8225 24.8475 68.2265 25.2536 67.763 25.75C67.2993 26.2464 66.7033 26.6525 66.4389 26.6525C66.1741 26.6525 65.9578 26.7879 65.9578 26.9534C65.9578 27.1189 65.6871 27.2543 65.3562 27.2543C65.0253 27.2543 64.7544 27.1189 64.7544 26.9534C64.7544 26.7879 64.8898 26.6525 65.0553 26.6525C65.2208 26.6525 65.3562 26.2464 65.3562 25.75C65.3562 25.2536 65.4916 24.8475 65.6571 24.8475C65.8225 24.8475 65.9578 24.4413 65.9578 23.945C65.9578 23.4485 66.0932 23.0423 66.2587 23.0423C66.4242 23.0423 66.5596 22.6994 66.5596 22.2804C66.5596 21.4708 64.784 19.4322 64.0788 19.4322C63.8616 19.4322 63.4888 19.1614 63.2503 18.8305C63.0116 18.4996 62.5758 18.2288 62.2812 18.2288C61.9466 18.2288 61.746 18.0035 61.746 17.6271C61.746 17.0618 61.9466 17.0254 65.0553 17.0254H68.3646V16.1229C68.3646 15.6265 68.5 15.2203 68.6655 15.2203C68.831 15.2203 68.9664 14.8142 68.9664 14.3178C68.9664 13.8214 69.1017 13.4153 69.2672 13.4153C69.4326 13.4153 69.568 13.0091 69.568 12.5127C69.568 11.8108 69.7016 11.6102 70.1698 11.6102C70.5708 11.6102 70.7714 11.8108 70.7714 12.2119ZM58.1358 31.1652C58.1358 31.3307 58.4066 31.4661 58.7375 31.4661C59.0685 31.4661 59.3392 31.6015 59.3392 31.767C59.3392 31.9325 59.5483 32.0678 59.804 32.0678C60.3726 32.0678 61.746 33.3942 61.746 33.9433C61.746 34.1623 62.0167 34.5368 62.3477 34.7754C62.7009 35.0302 62.9494 35.5543 62.9494 36.0453C62.9494 36.505 63.0848 36.8814 63.2503 36.8814C63.4157 36.8814 63.5511 37.2875 63.5511 37.7839C63.5511 38.2803 63.4157 38.6864 63.2503 38.6864C63.0848 38.6864 62.9494 39.0381 62.9494 39.4683C62.9494 39.9491 62.6019 40.5749 62.0469 41.0932C61.5505 41.5569 61.1443 42.1032 61.1443 42.3068C61.1443 42.7578 62.2102 43.7166 62.9852 43.9627C63.2963 44.0614 63.5511 44.4038 63.5511 44.7236C63.5511 45.0434 63.6864 45.305 63.8519 45.305C64.0174 45.305 64.1528 45.5759 64.1528 45.9068C64.1528 46.2377 64.2882 46.5084 64.4537 46.5084C64.632 46.5084 64.7544 47.6117 64.7544 49.2161C64.7544 50.8205 64.632 51.9237 64.4537 51.9237C64.2882 51.9237 64.1528 52.1945 64.1528 52.5254C64.1528 52.8564 64.0174 53.1271 63.8519 53.1271C63.6864 53.1271 63.5511 53.3362 63.5511 53.5919C63.5511 54.1605 62.2247 55.5339 61.6756 55.5339C61.4566 55.5339 61.082 55.8047 60.8435 56.1356C60.5887 56.4888 60.0645 56.7373 59.5736 56.7373C59.1138 56.7373 58.7375 56.8727 58.7375 57.0382C58.7375 57.2252 57.0326 57.339 54.2248 57.339C51.417 57.339 49.7121 57.2252 49.7121 57.0382C49.7121 56.8727 49.306 56.7373 48.8096 56.7373C48.3132 56.7373 47.9071 56.6019 47.9071 56.4364C47.9071 56.2709 47.6362 56.1356 47.3053 56.1356C46.9744 56.1356 46.7037 56.0002 46.7037 55.8348C46.7037 55.6693 46.491 55.5339 46.231 55.5339C44.9454 55.5339 44.8985 55.1576 44.8985 44.8751C44.8985 38.5433 45.005 35.0763 45.1994 35.0763C45.3648 35.0763 45.5003 34.8687 45.5003 34.6151C45.5003 34.016 47.4485 32.0678 48.0475 32.0678C48.3012 32.0678 48.5087 31.9325 48.5087 31.767C48.5087 31.6015 48.9148 31.4661 49.4112 31.4661C49.9076 31.4661 50.3138 31.3307 50.3138 31.1652C50.3138 30.9802 51.818 30.8644 54.2248 30.8644C56.6316 30.8644 58.1358 30.9802 58.1358 31.1652ZM81.6019 31.0362C81.6019 31.3894 80.7255 32.0678 80.2695 32.0678C80.0096 32.0678 79.7969 32.2032 79.7969 32.3686C79.7969 32.5341 79.5892 32.6695 79.3357 32.6695C78.8077 32.6695 76.7884 34.5868 76.7884 35.0877C76.7884 35.5757 76.0013 36.2797 75.4559 36.2797C75.196 36.2797 74.9833 36.415 74.9833 36.5805C74.9833 36.7459 74.4417 36.8814 73.7799 36.8814H72.5765V47.1102V57.339H69.9979C68.164 57.339 67.2948 57.2147 66.9895 56.9091C66.6351 56.5549 66.5596 54.8118 66.5596 46.9811C66.5596 40.8495 66.6661 37.483 66.8605 37.483C67.0259 37.483 67.1612 37.3477 67.1612 37.1822C67.1612 37.0168 66.6198 36.8814 65.9578 36.8814C65.296 36.8814 64.7544 36.7459 64.7544 36.5805C64.7544 36.415 64.4837 36.2797 64.1528 36.2797C63.7518 36.2797 63.5511 36.079 63.5511 35.678C63.5511 35.347 63.4157 35.0763 63.2503 35.0763C63.0848 35.0763 62.9494 34.8644 62.9494 34.6055C62.9494 34.3465 62.2725 33.4754 61.4451 32.6695C60.6178 31.8635 59.9409 31.128 59.9409 31.0344C59.9409 30.9408 64.8146 30.8644 70.7714 30.8644C76.7282 30.8644 81.6019 30.9417 81.6019 31.0362ZM90.6273 31.1652C90.6273 31.3307 91.0335 31.4661 91.5299 31.4661C92.0262 31.4661 92.4324 31.6015 92.4324 31.767C92.4324 31.9325 92.6734 32.0678 92.9677 32.0678C93.2622 32.0678 93.6981 32.3386 93.9367 32.6695C94.1753 33.0004 94.6112 33.2712 94.9057 33.2712C95.6335 33.2712 95.5911 34.2336 94.8392 34.7754C94.5083 35.014 94.2375 35.4499 94.2375 35.7444C94.2375 36.0387 94.1021 36.2797 93.9367 36.2797C93.7712 36.2797 93.6358 36.4924 93.6358 36.7523C93.6358 37.0126 93.4423 37.4187 93.2059 37.6548C92.7131 38.1479 91.8307 38.2307 91.8307 37.7839C91.8307 37.6184 91.56 37.483 91.2291 37.483C90.8981 37.483 90.6273 37.3477 90.6273 37.1822C90.6273 37.0168 90.3566 36.8814 90.0257 36.8814C89.6948 36.8814 89.4239 36.7459 89.4239 36.5805C89.4239 36.4051 88.4212 36.2797 87.0172 36.2797C85.6131 36.2797 84.6105 36.4051 84.6105 36.5805C84.6105 36.7459 84.4028 36.8814 84.1492 36.8814C83.8953 36.8814 83.2183 37.3507 82.645 37.9244C82.0712 38.4978 81.6019 39.1748 81.6019 39.4286C81.6019 39.6823 81.4666 39.8898 81.3011 39.8898C81.1356 39.8898 81.0003 40.2959 81.0003 40.7923C81.0003 41.2888 80.8648 41.695 80.6994 41.695C80.521 41.695 80.3985 42.7981 80.3985 44.4025C80.3985 46.0069 80.521 47.1102 80.6994 47.1102C80.8648 47.1102 81.0003 47.5163 81.0003 48.0127C81.0003 48.5091 81.1356 48.9152 81.3011 48.9152C81.4666 48.9152 81.6019 49.1243 81.6019 49.38C81.6019 49.9821 82.942 51.322 83.5439 51.322C83.7996 51.322 84.0087 51.4575 84.0087 51.6229C84.0087 51.7884 84.2794 51.9237 84.6105 51.9237C84.9414 51.9237 85.2121 52.0591 85.2121 52.2246C85.2121 52.3919 86.0145 52.5254 87.0172 52.5254C88.0199 52.5254 88.8223 52.3919 88.8223 52.2246C88.8223 52.0591 89.035 51.9237 89.2949 51.9237C90.2498 51.9237 90.6273 51.1198 90.6273 49.0871V47.1102H88.8223H87.0172V44.8324C87.0172 43.2593 87.1502 42.4214 87.4471 42.1249C87.7772 41.7945 88.8223 41.695 91.9598 41.695H96.0426V48.1766C96.0426 54.6578 96.0426 54.6587 95.304 55.397C94.8978 55.8032 94.3564 56.1356 94.1007 56.1356C93.8449 56.1356 93.6358 56.2709 93.6358 56.4364C93.6358 56.6019 93.2296 56.7373 92.7333 56.7373C92.2369 56.7373 91.8307 56.8727 91.8307 57.0382C91.8307 57.2036 91.2892 57.339 90.6273 57.339C89.9655 57.339 89.4239 57.4743 89.4239 57.6398C89.4239 57.8182 88.3208 57.9407 86.7164 57.9407C85.1119 57.9407 84.0087 57.8182 84.0087 57.6398C84.0087 57.4743 83.4671 57.339 82.8053 57.339C82.1435 57.339 81.6019 57.2036 81.6019 57.0382C81.6019 56.8727 81.3609 56.7373 81.0667 56.7373C80.7722 56.7373 80.3363 56.4666 80.0977 56.1356C79.8591 55.8047 79.4864 55.5339 79.2692 55.5339C78.7559 55.5339 76.7884 53.5664 76.7884 53.0531C76.7884 52.8359 76.5176 52.4632 76.1867 52.2246C75.8335 51.9698 75.585 51.4457 75.585 50.9547C75.585 50.495 75.4496 50.1186 75.2841 50.1186C75.1187 50.1186 74.9833 49.7125 74.9833 49.2161C74.9833 48.7197 74.848 48.3136 74.6824 48.3136C74.4974 48.3136 74.3816 46.8093 74.3816 44.4025C74.3816 41.9957 74.4974 40.4916 74.6824 40.4916C74.848 40.4916 74.9833 40.0854 74.9833 39.589C74.9833 39.0925 75.1187 38.6864 75.2841 38.6864C75.4496 38.6864 75.585 38.4157 75.585 38.0848C75.585 37.7538 75.7203 37.483 75.8858 37.483C76.0512 37.483 76.1867 37.2776 76.1867 37.026C76.1867 36.7749 77.0643 35.6919 78.1365 34.6192C79.209 33.547 80.292 32.6695 80.5433 32.6695C80.7948 32.6695 81.0003 32.5341 81.0003 32.3686C81.0003 32.2032 81.271 32.0678 81.6019 32.0678C81.9328 32.0678 82.2037 31.9325 82.2037 31.767C82.2037 31.6015 82.4744 31.4661 82.8053 31.4661C83.1362 31.4661 83.4071 31.3307 83.4071 31.1652C83.4071 30.9815 84.8111 30.8644 87.0172 30.8644C89.2233 30.8644 90.6273 30.9815 90.6273 31.1652ZM52.7205 36.5805C52.7205 36.7459 52.4498 36.8814 52.1189 36.8814C51.5839 36.8814 51.5171 37.082 51.5171 38.6864V40.4916H53.9239C56.1301 40.4916 56.3307 40.4412 56.3307 39.8898C56.3307 39.5589 56.4662 39.2882 56.6316 39.2882C57.2186 39.2882 56.9213 37.7454 56.1939 37.0182C55.6265 36.4505 55.1388 36.2797 54.088 36.2797C53.3358 36.2797 52.7205 36.415 52.7205 36.5805ZM104.466 38.0848C104.466 39.0875 104.6 39.8898 104.767 39.8898C104.949 39.8898 105.068 41.1934 105.068 43.1991C105.068 45.2049 105.187 46.5084 105.369 46.5084C105.551 46.5084 105.67 45.2049 105.67 43.1991C105.67 41.1934 105.551 39.8898 105.369 39.8898C105.202 39.8898 105.068 39.0875 105.068 38.0848C105.068 37.082 104.934 36.2797 104.767 36.2797C104.6 36.2797 104.466 37.082 104.466 38.0848ZM51.5171 48.6144V51.9237H54.088C56.4165 51.9237 56.7284 51.8542 57.3973 51.1852C57.9881 50.5945 58.1358 50.1404 58.1358 48.9152C58.1358 46.9796 57.2287 45.9068 55.5921 45.9068C55.0055 45.9068 54.5257 45.7714 54.5257 45.6059C54.5257 45.4405 53.8487 45.305 53.0214 45.305H51.5171V48.6144ZM35.2714 47.7118C35.2714 48.7146 35.405 49.517 35.5723 49.517C35.7395 49.517 35.8731 48.7146 35.8731 47.7118C35.8731 46.7091 35.7395 45.9068 35.5723 45.9068C35.405 45.9068 35.2714 46.7091 35.2714 47.7118ZM104.466 48.9152C104.466 49.918 104.333 50.7203 104.166 50.7203C104 50.7203 103.865 51.2618 103.865 51.9237C103.865 52.5856 103.729 53.1271 103.564 53.1271C103.398 53.1271 103.263 53.5332 103.263 54.0297C103.263 54.5261 103.128 54.9322 102.962 54.9322C102.797 54.9322 102.661 55.3384 102.661 55.8348C102.661 56.3311 102.526 56.7373 102.36 56.7373C102.195 56.7373 102.06 57.008 102.06 57.339C102.06 57.67 101.924 57.9407 101.759 57.9407C101.593 57.9407 101.458 58.2114 101.458 58.5423C101.458 58.8734 101.323 59.1441 101.157 59.1441C100.992 59.1441 100.856 59.4148 100.856 59.7457C100.856 60.0766 100.721 60.3475 100.555 60.3475C100.39 60.3475 100.254 60.5885 100.254 60.8827C100.254 61.1771 99.9837 61.6131 99.6528 61.8516C99.3219 62.0903 99.0511 62.472 99.0511 62.7C99.0511 62.9279 98.6449 63.494 98.1485 63.9577C97.6521 64.4212 97.246 64.9514 97.246 65.1351C97.246 65.6048 91.6226 71.178 91.149 71.178C90.9351 71.178 90.5651 71.4487 90.3265 71.7797C90.088 72.1106 89.6818 72.3814 89.4239 72.3814C89.1662 72.3814 88.76 72.6521 88.5214 72.983C88.2828 73.314 87.8469 73.5848 87.5524 73.5848C87.2581 73.5848 87.0172 73.7202 87.0172 73.8856C87.0172 74.0511 86.7464 74.1864 86.4155 74.1864C86.0846 74.1864 85.8137 74.3218 85.8137 74.4873C85.8137 74.6527 85.543 74.7882 85.2121 74.7882C84.8812 74.7882 84.6105 74.9235 84.6105 75.089C84.6105 75.2545 84.3396 75.3898 84.0087 75.3898C83.6778 75.3898 83.4071 75.5252 83.4071 75.6907C83.4071 75.8561 83.0009 75.9916 82.5044 75.9916C82.008 75.9916 81.6019 76.1269 81.6019 76.2923C81.6019 76.4578 81.1958 76.5932 80.6994 76.5932C80.203 76.5932 79.7969 76.7286 79.7969 76.8941C79.7969 77.0595 79.2553 77.1949 78.5935 77.1949C77.9316 77.1949 77.3901 77.3303 77.3901 77.4957C77.3901 77.6676 76.4875 77.7966 75.2841 77.7966C74.0807 77.7966 73.1782 77.9256 73.1782 78.0975C73.1782 78.278 71.9748 78.3984 70.1698 78.3984C68.3646 78.3984 67.1612 78.278 67.1612 78.0975C67.1612 77.9256 66.2587 77.7966 65.0553 77.7966C63.8519 77.7966 62.9494 77.6676 62.9494 77.4957C62.9494 77.3303 62.4078 77.1949 61.746 77.1949C61.0841 77.1949 60.5426 77.0595 60.5426 76.8941C60.5426 76.7286 60.1364 76.5932 59.6401 76.5932C59.1437 76.5932 58.7375 76.4578 58.7375 76.2923C58.7375 76.1269 58.3314 75.9916 57.835 75.9916C57.3386 75.9916 56.9324 75.8561 56.9324 75.6907C56.9324 75.5252 56.6617 75.3898 56.3307 75.3898C55.9998 75.3898 55.7291 75.2545 55.7291 75.089C55.7291 74.9235 55.4583 74.7882 55.1273 74.7882C54.7964 74.7882 54.5257 74.6527 54.5257 74.4873C54.5257 74.3218 54.2847 74.1864 53.9904 74.1864C53.6959 74.1864 53.26 73.9157 53.0214 73.5848C52.7828 73.2538 52.3469 72.983 52.0524 72.983C51.7581 72.983 51.5171 72.8477 51.5171 72.6822C51.5171 72.5168 51.3009 72.3814 51.0361 72.3814C50.7716 72.3814 50.1757 71.9752 49.7121 71.4788C49.2485 70.9825 48.7184 70.5763 48.5343 70.5763C48.0644 70.5763 43.0935 65.5557 43.0935 65.0813C43.0935 64.8674 42.8227 64.4971 42.4918 64.2584C42.1608 64.0199 41.8901 63.6138 41.8901 63.3559C41.8901 63.0981 41.6193 62.6919 41.2884 62.4534C40.9574 62.2148 40.6867 61.8086 40.6867 61.5509C40.6867 61.293 40.4159 60.8869 40.085 60.6484C39.7541 60.4097 39.4833 59.9739 39.4833 59.6793C39.4833 59.3851 39.3479 59.1441 39.1824 59.1441C39.017 59.1441 38.8816 58.8734 38.8816 58.5423C38.8816 58.2114 38.7462 57.9407 38.5807 57.9407C38.4153 57.9407 38.2799 57.5345 38.2799 57.0382C38.2799 56.5418 38.1445 56.1356 37.9791 56.1356C37.8136 56.1356 37.6782 55.7295 37.6782 55.233C37.6782 54.7366 37.5428 54.3305 37.3774 54.3305C37.2119 54.3305 37.0765 53.9243 37.0765 53.428C37.0765 52.9316 36.9411 52.5254 36.7757 52.5254C36.6102 52.5254 36.4748 51.9839 36.4748 51.322C36.4748 50.6602 36.3394 50.1186 36.174 50.1186C36.0085 50.1186 35.8731 50.6602 35.8731 51.322C35.8731 51.9839 36.0085 52.5254 36.174 52.5254C36.3394 52.5254 36.4748 52.9316 36.4748 53.428C36.4748 53.9243 36.6102 54.3305 36.7757 54.3305C36.9411 54.3305 37.0765 54.7366 37.0765 55.233C37.0765 55.7295 37.2119 56.1356 37.3774 56.1356C37.5428 56.1356 37.6782 56.5418 37.6782 57.0382C37.6782 57.5345 37.8136 57.9407 37.9791 57.9407C38.1445 57.9407 38.2799 58.2114 38.2799 58.5423C38.2799 58.8734 38.4153 59.1441 38.5807 59.1441C38.7462 59.1441 38.8816 59.4148 38.8816 59.7457C38.8816 60.0766 39.017 60.3475 39.1824 60.3475C39.3479 60.3475 39.4833 60.5885 39.4833 60.8827C39.4833 61.1771 39.7541 61.6131 40.085 61.8516C40.4159 62.0903 40.6867 62.4964 40.6867 62.7543C40.6867 63.012 40.9574 63.4182 41.2884 63.6568C41.6193 63.8953 41.8901 64.2651 41.8901 64.4783C41.8901 64.985 48.6847 71.7797 49.1913 71.7797C49.4046 71.7797 49.7744 72.0504 50.013 72.3814C50.2515 72.7123 50.6576 72.983 50.9155 72.983C51.1734 72.983 51.5795 73.2538 51.818 73.5848C52.0566 73.9157 52.4925 74.1864 52.787 74.1864C53.0813 74.1864 53.3223 74.3218 53.3223 74.4873C53.3223 74.6527 53.593 74.7882 53.9239 74.7882C54.2549 74.7882 54.5257 74.9235 54.5257 75.089C54.5257 75.2545 54.7964 75.3898 55.1273 75.3898C55.4583 75.3898 55.7291 75.5252 55.7291 75.6907C55.7291 75.8561 55.9998 75.9916 56.3307 75.9916C56.6617 75.9916 56.9324 76.1269 56.9324 76.2923C56.9324 76.4578 57.3386 76.5932 57.835 76.5932C58.3314 76.5932 58.7375 76.7286 58.7375 76.8941C58.7375 77.0595 59.1437 77.1949 59.6401 77.1949C60.1364 77.1949 60.5426 77.3303 60.5426 77.4957C60.5426 77.6612 61.0841 77.7966 61.746 77.7966C62.4078 77.7966 62.9494 77.932 62.9494 78.0975C62.9494 78.2692 63.8519 78.3984 65.0553 78.3984C66.2587 78.3984 67.1612 78.5274 67.1612 78.6991C67.1612 78.8797 68.3646 79 70.1698 79C71.9748 79 73.1782 78.8797 73.1782 78.6991C73.1782 78.5274 74.0807 78.3984 75.2841 78.3984C76.4875 78.3984 77.3901 78.2692 77.3901 78.0975C77.3901 77.932 77.9316 77.7966 78.5935 77.7966C79.2553 77.7966 79.7969 77.6612 79.7969 77.4957C79.7969 77.3303 80.203 77.1949 80.6994 77.1949C81.1958 77.1949 81.6019 77.0595 81.6019 76.8941C81.6019 76.7286 82.008 76.5932 82.5044 76.5932C83.0009 76.5932 83.4071 76.4578 83.4071 76.2923C83.4071 76.1269 83.6778 75.9916 84.0087 75.9916C84.3396 75.9916 84.6105 75.8561 84.6105 75.6907C84.6105 75.5252 84.8812 75.3898 85.2121 75.3898C85.543 75.3898 85.8137 75.2545 85.8137 75.089C85.8137 74.9235 86.0846 74.7882 86.4155 74.7882C86.7464 74.7882 87.0172 74.6527 87.0172 74.4873C87.0172 74.3218 87.288 74.1864 87.6189 74.1864C87.9498 74.1864 88.2205 74.0511 88.2205 73.8856C88.2205 73.7202 88.4615 73.5848 88.7558 73.5848C89.0503 73.5848 89.4862 73.314 89.7248 72.983C89.9633 72.6521 90.3404 72.3814 90.5629 72.3814C90.7853 72.3814 91.6265 71.7045 92.4324 70.8771C93.2384 70.0498 94.0516 69.3729 94.2396 69.3729C94.6798 69.3729 95.4409 68.6135 95.4409 68.1744C95.4409 67.9878 96.2532 67.038 97.246 66.0636C98.2388 65.0891 99.0511 64.1111 99.0511 63.8903C99.0511 63.6695 99.3219 63.2937 99.6528 63.055C99.9837 62.8165 100.254 62.3805 100.254 62.0861C100.254 61.7919 100.39 61.5509 100.555 61.5509C100.721 61.5509 100.856 61.28 100.856 60.9491C100.856 60.6182 100.992 60.3475 101.157 60.3475C101.323 60.3475 101.458 60.0766 101.458 59.7457C101.458 59.4148 101.593 59.1441 101.759 59.1441C101.924 59.1441 102.06 58.8734 102.06 58.5423C102.06 58.2114 102.195 57.9407 102.36 57.9407C102.526 57.9407 102.661 57.67 102.661 57.339C102.661 57.008 102.797 56.7373 102.962 56.7373C103.128 56.7373 103.263 56.3311 103.263 55.8348C103.263 55.3384 103.398 54.9322 103.564 54.9322C103.729 54.9322 103.865 54.5261 103.865 54.0297C103.865 53.5332 104 53.1271 104.166 53.1271C104.331 53.1271 104.466 52.5856 104.466 51.9237C104.466 51.2618 104.602 50.7203 104.767 50.7203C104.934 50.7203 105.068 49.918 105.068 48.9152C105.068 47.9125 104.934 47.1102 104.767 47.1102C104.6 47.1102 104.466 47.9125 104.466 48.9152ZM65.9578 63.055C65.9578 63.2205 66.364 63.3559 66.8605 63.3559C67.3568 63.3559 67.763 63.4913 67.763 63.6568C67.763 63.8223 68.1691 63.9577 68.6655 63.9577C69.1619 63.9577 69.568 64.093 69.568 64.2584C69.568 64.4239 69.9742 64.5593 70.4705 64.5593C70.9669 64.5593 71.3731 64.6947 71.3731 64.8602C71.3731 65.0257 71.9146 65.161 72.5765 65.161C73.2384 65.161 73.7799 65.2964 73.7799 65.4618C73.7799 65.6273 74.186 65.7627 74.6824 65.7627C75.1789 65.7627 75.585 65.8981 75.585 66.0636C75.585 66.2291 75.9912 66.3644 76.4875 66.3644C76.9839 66.3644 77.3901 66.4998 77.3901 66.6652C77.3901 66.8307 77.9316 66.9661 78.5935 66.9661C79.2553 66.9661 79.7969 67.1015 79.7969 67.267C79.7969 67.4325 80.3384 67.5678 81.0003 67.5678C81.6621 67.5678 82.2037 67.7032 82.2037 67.8686C82.2037 68.036 83.006 68.1695 84.0087 68.1695C85.0114 68.1695 85.8137 68.3031 85.8137 68.4703C85.8137 68.6457 86.8165 68.7712 88.2205 68.7712C89.6246 68.7712 90.6273 68.6457 90.6273 68.4703C90.6273 68.3048 90.8981 68.1695 91.2291 68.1695C91.56 68.1695 91.8307 68.0341 91.8307 67.8686C91.8307 67.7032 92.0434 67.5678 92.3034 67.5678C92.8554 67.5678 93.6358 66.8617 93.6358 66.3623C93.6358 66.1722 94.1773 65.4962 94.8392 64.8602C96.2077 63.5452 96.2836 63.3559 95.4409 63.3559C95.11 63.3559 94.8392 63.4913 94.8392 63.6568C94.8392 63.8223 94.2977 63.9577 93.6358 63.9577C92.9739 63.9577 92.4324 64.093 92.4324 64.2584C92.4324 64.439 91.2291 64.5593 89.4239 64.5593C87.6189 64.5593 86.4155 64.6797 86.4155 64.8602C86.4155 65.0257 85.7386 65.161 84.9112 65.161C84.0839 65.161 83.4071 65.0257 83.4071 64.8602C83.4071 64.6763 82.003 64.5593 79.7969 64.5593C77.5907 64.5593 76.1867 64.4423 76.1867 64.2584C76.1867 64.0867 75.2841 63.9577 74.0807 63.9577C72.8773 63.9577 71.9748 63.8285 71.9748 63.6568C71.9748 63.4895 71.1724 63.3559 70.1698 63.3559C69.167 63.3559 68.3646 63.2224 68.3646 63.055C68.3646 62.8896 67.8231 62.7543 67.1612 62.7543C66.4994 62.7543 65.9578 62.8896 65.9578 63.055ZM58.7375 64.8602C58.7375 65.0257 59.0083 65.161 59.3392 65.161C59.6701 65.161 59.9409 65.2964 59.9409 65.4618C59.9409 65.6273 60.2117 65.7627 60.5426 65.7627C60.8735 65.7627 61.1443 65.8981 61.1443 66.0636C61.1443 66.2291 61.4151 66.3644 61.746 66.3644C62.0769 66.3644 62.3477 66.4998 62.3477 66.6652C62.3477 66.8307 62.6185 66.9661 62.9494 66.9661C63.2803 66.9661 63.5511 67.1015 63.5511 67.267C63.5511 67.4325 63.792 67.5678 64.0863 67.5678C64.3808 67.5678 64.8168 67.8386 65.0553 68.1695C65.2939 68.5004 65.7298 68.7712 66.0243 68.7712C66.3186 68.7712 66.5596 68.9066 66.5596 69.072C66.5596 69.2375 66.8006 69.3729 67.0948 69.3729C67.3893 69.3729 67.8252 69.6436 68.0637 69.9746C68.3024 70.3055 68.7382 70.5763 69.0328 70.5763C69.327 70.5763 69.568 70.7116 69.568 70.8771C69.568 71.0425 69.809 71.178 70.1032 71.178C70.3978 71.178 70.8337 71.4487 71.0723 71.7797C71.3108 72.1106 71.7468 72.3814 72.0413 72.3814C72.3355 72.3814 72.5765 72.5168 72.5765 72.6822C72.5765 72.8477 72.8473 72.983 73.1782 72.983C73.5091 72.983 73.7799 73.1019 73.7799 73.2475C73.7799 73.3929 74.186 73.6801 74.6824 73.8856C75.1789 74.0911 75.585 74.3784 75.585 74.5237C75.585 74.6693 75.8557 74.7882 76.1867 74.7882C76.5176 74.7882 76.7884 74.9235 76.7884 75.089C76.7884 75.2545 77.1946 75.3898 77.6909 75.3898C78.1873 75.3898 78.5935 75.2545 78.5935 75.089C78.5935 74.9235 79.135 74.7882 79.7969 74.7882C80.4587 74.7882 81.0003 74.6527 81.0003 74.4873C81.0003 74.3218 81.4064 74.1864 81.9028 74.1864C82.3992 74.1864 82.8053 74.0511 82.8053 73.8856C82.8053 73.7202 83.0761 73.5848 83.4071 73.5848C83.738 73.5848 84.0087 73.4493 84.0087 73.2839C84.0087 73.1184 84.2214 72.983 84.4813 72.983C84.9375 72.983 85.8137 72.3046 85.8137 71.9515C85.8137 71.857 85.0015 71.7797 84.0087 71.7797C83.006 71.7797 82.2037 71.646 82.2037 71.4788C82.2037 71.3134 81.6621 71.178 81.0003 71.178C80.3384 71.178 79.7969 71.0425 79.7969 70.8771C79.7969 70.7116 79.2553 70.5763 78.5935 70.5763C77.9316 70.5763 77.3901 70.4409 77.3901 70.2754C77.3901 70.11 76.9839 69.9746 76.4875 69.9746C75.9912 69.9746 75.585 69.8391 75.585 69.6737C75.585 69.5082 75.0435 69.3729 74.3816 69.3729C73.7198 69.3729 73.1782 69.2375 73.1782 69.072C73.1782 68.9066 72.7721 68.7712 72.2757 68.7712C71.7792 68.7712 71.3731 68.6359 71.3731 68.4703C71.3731 68.3048 70.9669 68.1695 70.4705 68.1695C69.9742 68.1695 69.568 68.0341 69.568 67.8686C69.568 67.7032 69.1619 67.5678 68.6655 67.5678C68.1691 67.5678 67.763 67.4325 67.763 67.267C67.763 67.1015 67.3568 66.9661 66.8605 66.9661C66.364 66.9661 65.9578 66.8307 65.9578 66.6652C65.9578 66.4998 65.5517 66.3644 65.0553 66.3644C64.5589 66.3644 64.1528 66.2291 64.1528 66.0636C64.1528 65.8981 63.7466 65.7627 63.2503 65.7627C62.7539 65.7627 62.3477 65.6273 62.3477 65.4618C62.3477 65.2964 61.8062 65.161 61.1443 65.161C60.4824 65.161 59.9409 65.0257 59.9409 64.8602C59.9409 64.6947 59.6701 64.5593 59.3392 64.5593C59.0083 64.5593 58.7375 64.6947 58.7375 64.8602ZM51.5171 70.1464C51.5171 70.4755 52.3794 71.178 52.7831 71.178C53.0067 71.178 53.3846 71.4487 53.6231 71.7797C53.878 72.1329 54.402 72.3814 54.893 72.3814C55.3527 72.3814 55.7291 72.5168 55.7291 72.6822C55.7291 72.8477 55.9998 72.983 56.3307 72.983C56.6617 72.983 56.9324 73.1184 56.9324 73.2839C56.9324 73.4493 57.2032 73.5848 57.5341 73.5848C57.8651 73.5848 58.1358 73.7202 58.1358 73.8856C58.1358 74.0511 58.5419 74.1864 59.0384 74.1864C59.5348 74.1864 59.9409 74.3218 59.9409 74.4873C59.9409 74.6527 60.2117 74.7882 60.5426 74.7882C60.8735 74.7882 61.1443 74.9235 61.1443 75.089C61.1443 75.2545 61.6858 75.3898 62.3477 75.3898C63.0096 75.3898 63.5511 75.5252 63.5511 75.6907C63.5511 75.8561 63.9573 75.9916 64.4537 75.9916C64.95 75.9916 65.3562 75.9178 65.3562 75.8275C65.3562 75.4614 63.8474 74.1864 63.4142 74.1864C63.1585 74.1864 62.9494 74.0511 62.9494 73.8856C62.9494 73.7202 62.7084 73.5848 62.4142 73.5848C62.1196 73.5848 61.6837 73.314 61.4451 72.983C61.2066 72.6521 60.7706 72.3814 60.4761 72.3814C60.1819 72.3814 59.9409 72.2459 59.9409 72.0805C59.9409 71.915 59.5348 71.7797 59.0384 71.7797C58.5419 71.7797 58.1358 71.6443 58.1358 71.4788C58.1358 71.3134 57.8651 71.178 57.5341 71.178C57.2032 71.178 56.9324 71.0425 56.9324 70.8771C56.9324 70.7116 56.5263 70.5763 56.0299 70.5763C55.5335 70.5763 55.1273 70.4409 55.1273 70.2754C55.1273 70.1081 54.325 69.9746 53.3223 69.9746C52.3294 69.9746 51.5171 70.0519 51.5171 70.1464Z" fill="#DF2D38"/>
<path d="M70.2727 78.7727C89.7533 78.7727 105.545 62.9806 105.545 43.5C105.545 24.0194 89.7533 8.22729 70.2727 8.22729C50.7921 8.22729 35 24.0194 35 43.5C35 62.9806 50.7921 78.7727 70.2727 78.7727Z" stroke="#DF2D38" stroke-width="1.41115"/>
<path d="M103.246 43.5C103.246 61.7109 88.4836 76.4736 70.2727 76.4736C59.0126 76.4736 49.0704 70.83 43.1206 62.2143C39.4492 56.8979 37.2991 50.451 37.2991 43.5C37.2991 25.2892 52.0619 10.5264 70.2727 10.5264C88.4836 10.5264 103.246 25.2892 103.246 43.5Z" stroke="#DF2D38" stroke-width="1.17596"/>
<path fill-rule="evenodd" clip-rule="evenodd" d="M115.297 29.7653C115.297 38.5107 115.331 40.1331 115.522 40.3236C115.776 40.5783 116.873 40.6329 116.873 40.3912C116.873 40.2902 118.343 40.2337 120.97 40.2337C123.596 40.2337 125.067 40.1771 125.067 40.076C125.067 39.9894 125.28 39.9185 125.54 39.9185C125.8 39.9185 126.013 39.8476 126.013 39.7609C126.013 39.6742 126.21 39.6033 126.451 39.6033C126.708 39.6033 126.982 39.4732 127.116 39.2881C127.241 39.1148 127.454 38.973 127.589 38.973C127.724 38.973 127.936 38.8312 128.061 38.6578C128.186 38.4844 128.415 38.3426 128.569 38.3426C128.723 38.3426 128.849 38.2293 128.849 38.0906C128.849 37.9521 129.062 37.6399 129.322 37.3971C129.613 37.1255 129.795 36.7978 129.795 36.546C129.795 36.3206 129.866 36.1364 129.952 36.1364C130.039 36.1364 130.11 35.9237 130.11 35.6636C130.11 35.4036 130.181 35.1908 130.267 35.1908C130.359 35.1908 130.425 34.6656 130.425 33.9302C130.425 33.1947 130.359 32.6695 130.267 32.6695C130.181 32.6695 130.11 32.4567 130.11 32.1967C130.11 31.9367 130.039 31.724 129.952 31.724C129.866 31.724 129.795 31.5977 129.795 31.4436C129.795 31.2893 129.653 31.061 129.48 30.9361C129.306 30.8111 129.164 30.5827 129.164 30.4285C129.164 30.2647 129.048 30.1481 128.884 30.1481C128.73 30.1481 128.501 30.0063 128.377 29.8329C128.252 29.6596 128.023 29.5177 127.869 29.5177C127.715 29.5177 127.589 29.4468 127.589 29.3602C127.589 29.2734 127.447 29.2025 127.273 29.2025C127.1 29.2025 126.958 29.1316 126.958 29.045C126.958 28.9583 126.816 28.8874 126.643 28.8874C126.47 28.8874 126.328 28.849 126.328 28.8019C126.328 28.7548 126.895 28.1551 127.589 27.4691C128.692 26.377 128.849 26.1525 128.849 25.6637C128.849 25.3565 128.92 25.1053 129.007 25.1053C129.094 25.1053 129.164 24.8216 129.164 24.475C129.164 24.1283 129.094 23.8446 129.007 23.8446C128.92 23.8446 128.849 23.7086 128.849 23.5425C128.849 23.3764 128.761 23.2045 128.652 23.1605C128.503 23.1 128.511 23.0417 128.687 22.9199C128.883 22.7834 128.865 22.7134 128.568 22.4561C128.376 22.2894 128.219 22.0703 128.219 21.9692C128.219 21.6996 127.167 20.6929 126.885 20.6929C126.752 20.6929 126.643 20.6219 126.643 20.5353C126.643 20.4487 126.501 20.3778 126.328 20.3778C126.155 20.3778 126.013 20.3068 126.013 20.2201C126.013 20.1335 125.871 20.0626 125.698 20.0626C125.524 20.0626 125.382 19.9916 125.382 19.9049C125.382 19.8183 125.099 19.7474 124.752 19.7474C124.405 19.7474 124.122 19.6764 124.122 19.5898C124.122 19.4884 122.546 19.4322 119.709 19.4322H115.297V29.7653ZM131.568 19.668C131.443 19.8097 131.371 20.3853 131.371 21.2378V22.5839H134.207H137.044V21.1656V19.7474H134.68C133.209 19.7474 132.316 19.6878 132.316 19.5898C132.316 19.3559 131.794 19.4103 131.568 19.668ZM154.89 19.668C154.765 19.8097 154.693 20.3853 154.693 21.2378V22.5839H158.318H161.943V31.3412C161.943 40.8413 161.915 40.5489 162.798 40.5489C163.021 40.5489 163.203 40.4779 163.203 40.3912C163.203 40.3046 163.558 40.2337 163.991 40.2337C164.425 40.2337 164.779 40.3046 164.779 40.3912C164.779 40.6252 165.242 40.5819 165.5 40.3236C165.689 40.1341 165.724 38.7208 165.724 31.3412V22.5839H168.089H170.452V21.008V19.4322L162.77 19.4382C156.337 19.4432 155.056 19.4806 154.89 19.668ZM172.659 19.5898C172.659 19.6764 172.517 19.7474 172.344 19.7474C172.051 19.7474 172.028 19.8525 172.028 21.1656V22.5839H174.865H177.702V21.1656C177.702 19.8525 177.678 19.7474 177.386 19.7474C177.213 19.7474 177.071 19.6764 177.071 19.5898C177.071 19.5031 176.929 19.4322 176.756 19.4322C176.582 19.4322 176.44 19.5031 176.44 19.5898C176.44 19.6843 175.81 19.7474 174.865 19.7474C173.919 19.7474 173.288 19.6843 173.288 19.5898C173.288 19.5031 173.147 19.4322 172.973 19.4322C172.801 19.4322 172.659 19.5031 172.659 19.5898ZM123.176 22.4264C123.176 22.513 123.389 22.5839 123.649 22.5839C123.909 22.5839 124.122 22.6548 124.122 22.7415C124.122 22.8282 124.263 22.8991 124.437 22.8991C124.647 22.8991 124.752 23.0042 124.752 23.2143C124.752 23.3876 124.823 23.5294 124.91 23.5294C124.996 23.5294 125.067 23.6712 125.067 23.8446C125.067 24.018 125.138 24.1598 125.225 24.1598C125.311 24.1598 125.382 24.4435 125.382 24.7901C125.382 25.1368 125.311 25.4205 125.225 25.4205C125.138 25.4205 125.067 25.6009 125.067 25.8215C125.067 26.2639 124.433 26.9964 124.05 26.9964C123.916 26.9964 123.806 27.0673 123.806 27.1539C123.806 27.2406 123.665 27.3116 123.491 27.3116C123.318 27.3116 123.176 27.3825 123.176 27.4691C123.176 27.7347 119.574 27.6718 119.304 27.4015C119.001 27.0988 118.977 22.8442 119.276 22.5045C119.513 22.2349 123.176 22.1614 123.176 22.4264ZM149.9 24.9956C149.445 25.4758 149.098 25.7324 149.06 25.617C149.024 25.5089 148.858 25.4205 148.692 25.4205C148.526 25.4205 148.39 25.3496 148.39 25.2629C148.39 25.1762 148.036 25.1053 147.602 25.1053C147.168 25.1053 146.815 25.0344 146.815 24.9477C146.815 24.8559 146.289 24.7901 145.553 24.7901C144.818 24.7901 144.292 24.8559 144.292 24.9477C144.292 25.0344 144.009 25.1053 143.663 25.1053C143.316 25.1053 143.032 25.1762 143.032 25.2629C143.032 25.3496 142.819 25.4205 142.56 25.4205C142.299 25.4205 142.086 25.4914 142.086 25.578C142.086 25.6648 141.979 25.7357 141.848 25.7357C141.536 25.7357 139.565 27.7061 139.565 28.0177C139.565 28.1494 139.494 28.257 139.408 28.257C139.32 28.257 139.25 28.3989 139.25 28.5722C139.25 28.7456 139.179 28.8874 139.092 28.8874C138.998 28.8874 138.935 29.5177 138.935 30.4633C138.935 31.4088 138.998 32.0391 139.092 32.0391C139.179 32.0391 139.25 32.2518 139.25 32.5119C139.25 32.7719 139.32 32.9847 139.408 32.9847C139.494 32.9847 139.565 33.095 139.565 33.2297C139.565 33.3646 139.995 33.8969 140.521 34.4129C141.368 35.2444 141.449 35.3775 141.242 35.586C141.112 35.7153 140.927 35.8212 140.83 35.8212C140.569 35.8212 139.88 36.5579 139.88 36.8384C139.88 36.9724 139.809 37.0819 139.723 37.0819C139.635 37.0819 139.565 37.5022 139.565 38.0274C139.565 38.5526 139.635 38.973 139.723 38.973C139.809 38.973 139.88 39.0844 139.88 39.2205C139.88 39.539 140.26 39.9185 140.578 39.9185C140.715 39.9185 140.826 39.9894 140.826 40.076C140.826 40.1628 141.11 40.2337 141.457 40.2337C141.803 40.2337 142.086 40.3046 142.086 40.3912C142.086 40.4846 142.665 40.5489 143.505 40.5489C144.345 40.5489 144.923 40.4846 144.923 40.3912C144.923 40.2949 145.659 40.2337 146.815 40.2337C147.97 40.2337 148.705 40.2949 148.705 40.3912C148.705 40.4779 148.817 40.5489 148.953 40.5489C149.089 40.5489 149.302 40.6501 149.425 40.774C149.68 41.0285 149.735 42.1246 149.493 42.1246C149.407 42.1246 149.336 42.2665 149.336 42.4398C149.336 42.6499 149.231 42.755 149.021 42.755C148.847 42.755 148.705 42.8259 148.705 42.9126C148.705 42.9993 148.493 43.0702 148.232 43.0702C147.972 43.0702 147.76 43.1411 147.76 43.2278C147.76 43.324 147.024 43.3854 145.869 43.3854C144.713 43.3854 143.978 43.324 143.978 43.2278C143.978 43.1411 143.78 43.0702 143.539 43.0702C143.282 43.0702 143.008 42.94 142.875 42.755C142.75 42.5817 142.522 42.4398 142.367 42.4398C142.213 42.4398 142.086 42.3689 142.086 42.2823C142.086 42.1956 141.95 42.1246 141.785 42.1246C141.618 42.1246 141.453 42.0391 141.419 41.9345C141.348 41.7205 139.88 43.1149 139.88 43.3967C139.88 43.4942 139.667 43.7729 139.408 44.0157C138.852 44.5348 138.824 44.6461 139.25 44.6461C139.423 44.6461 139.565 44.717 139.565 44.8037C139.565 44.8904 139.707 44.9613 139.88 44.9613C140.054 44.9613 140.195 45.0321 140.195 45.1188C140.195 45.2055 140.337 45.2764 140.511 45.2764C140.684 45.2764 140.826 45.3473 140.826 45.434C140.826 45.5207 140.968 45.5916 141.141 45.5916C141.315 45.5916 141.457 45.6625 141.457 45.7491C141.457 45.8359 141.74 45.9068 142.086 45.9068C142.433 45.9068 142.717 45.9777 142.717 46.0643C142.717 46.1511 143.071 46.222 143.505 46.222C143.938 46.222 144.292 46.2929 144.292 46.3795C144.292 46.4729 144.871 46.5371 145.711 46.5371C146.551 46.5371 147.129 46.4729 147.129 46.3795C147.129 46.2929 147.484 46.222 147.918 46.222C148.351 46.222 148.705 46.1511 148.705 46.0643C148.705 45.9777 148.989 45.9068 149.336 45.9068C149.682 45.9068 149.966 45.8359 149.966 45.7491C149.966 45.6625 150.107 45.5916 150.281 45.5916C150.454 45.5916 150.596 45.5207 150.596 45.434C150.596 45.3473 150.704 45.2764 150.836 45.2764C151.149 45.2764 152.802 43.622 152.802 43.31C152.802 43.1781 152.873 43.0702 152.96 43.0702C153.047 43.0702 153.118 42.7926 153.118 42.4529C153.118 42.1133 153.207 41.7943 153.315 41.7438C153.472 41.6703 153.472 41.6335 153.315 41.56C153.196 41.5048 153.118 41.159 153.118 40.6933C153.118 40.2672 153.047 39.9185 152.96 39.9185C152.873 39.9185 152.802 39.7766 152.802 39.6033C152.802 39.4299 152.731 39.2881 152.645 39.2881C152.558 39.2881 152.487 39.1462 152.487 38.973C152.487 38.7758 152.382 38.6578 152.207 38.6578C152.053 38.6578 151.825 38.516 151.699 38.3426C151.575 38.1692 151.346 38.0274 151.192 38.0274C151.037 38.0274 150.911 37.9565 150.911 37.8699C150.911 37.7831 150.628 37.7122 150.281 37.7122C149.934 37.7122 149.65 37.6414 149.65 37.5547C149.65 37.4601 149.021 37.3971 148.075 37.3971C147.129 37.3971 146.499 37.4601 146.499 37.5547C146.499 37.8244 143.525 37.7543 143.248 37.478C143.04 37.2705 143.059 37.1981 143.41 36.8476C143.628 36.6298 143.916 36.4515 144.05 36.4515C144.183 36.4515 144.292 36.3806 144.292 36.294C144.292 36.2063 144.713 36.1364 145.238 36.1364C145.764 36.1364 146.184 36.2063 146.184 36.294C146.184 36.3806 146.397 36.4515 146.657 36.4515C146.916 36.4515 147.129 36.3806 147.129 36.294C147.129 36.2073 147.484 36.1364 147.918 36.1364C148.351 36.1364 148.705 36.0655 148.705 35.9788C148.705 35.8921 148.847 35.8212 149.021 35.8212C149.194 35.8212 149.336 35.7503 149.336 35.6636C149.336 35.577 149.462 35.506 149.615 35.506C149.77 35.506 149.998 35.3642 150.124 35.1908C150.248 35.0175 150.447 34.8756 150.563 34.8756C150.838 34.8756 151.227 34.4869 151.227 34.2126C151.227 34.0955 151.369 33.8976 151.542 33.7726C151.716 33.6477 151.857 33.4193 151.857 33.265C151.857 33.1108 151.928 32.9847 152.015 32.9847C152.101 32.9847 152.172 32.701 152.172 32.3543C152.172 32.0077 152.243 31.724 152.33 31.724C152.419 31.724 152.487 31.2511 152.487 30.6209C152.487 29.9905 152.419 29.5177 152.33 29.5177C152.243 29.5177 152.172 29.2497 152.172 28.9222C152.172 28.5075 152.077 28.2577 151.857 28.0995C151.684 27.9744 151.542 27.7783 151.542 27.6636C151.542 27.41 152.247 26.6812 152.491 26.6812C152.588 26.6812 152.772 26.5766 152.9 26.4488C153.105 26.2439 153.029 26.1129 152.262 25.3456C151.782 24.8667 151.283 24.475 151.152 24.475C151.019 24.475 150.911 24.4041 150.911 24.3173C150.911 24.0198 150.674 24.1793 149.9 24.9956ZM187.787 24.9477C187.787 25.0344 187.432 25.1053 186.998 25.1053C186.565 25.1053 186.211 25.1762 186.211 25.2629C186.211 25.3496 186.069 25.4205 185.895 25.4205C185.722 25.4205 185.581 25.4914 185.581 25.578C185.581 25.6648 185.454 25.7357 185.301 25.7357C185.146 25.7357 184.918 25.8775 184.792 26.0509C184.668 26.2241 184.469 26.366 184.353 26.366C184.093 26.366 183.689 25.9824 183.689 25.7357C183.689 25.2839 183.224 25.1053 182.046 25.1053H180.853V32.827V40.5489H182.744H184.635V34.9493V29.3496L185.181 28.8034C185.482 28.5029 185.837 28.257 185.969 28.257C186.102 28.257 186.211 28.1861 186.211 28.0995C186.211 28.0128 186.423 27.9418 186.684 27.9418C186.944 27.9418 187.156 27.8709 187.156 27.7843C187.156 27.6976 187.369 27.6266 187.629 27.6266C187.89 27.6266 188.102 27.6976 188.102 27.7843C188.102 27.8709 188.315 27.9418 188.575 27.9418C188.834 27.9418 189.047 28.0128 189.047 28.0995C189.047 28.1861 189.159 28.257 189.295 28.257C189.613 28.257 189.993 28.6365 189.993 28.955C189.993 29.0912 190.064 29.2025 190.15 29.2025C190.252 29.2025 190.308 31.1236 190.308 34.6505C190.308 39.1621 190.347 40.1372 190.533 40.3236C190.7 40.4903 191.191 40.5489 192.424 40.5489H194.09V34.9493V29.3496L194.637 28.8034C194.937 28.5029 195.291 28.257 195.425 28.257C195.558 28.257 195.666 28.1861 195.666 28.0995C195.666 28.0128 195.879 27.9418 196.139 27.9418C196.399 27.9418 196.611 27.8709 196.611 27.7843C196.611 27.6976 196.824 27.6266 197.085 27.6266C197.344 27.6266 197.557 27.6976 197.557 27.7843C197.557 27.8709 197.77 27.9418 198.03 27.9418C198.289 27.9418 198.502 28.0128 198.502 28.0995C198.502 28.1861 198.614 28.257 198.75 28.257C199.068 28.257 199.448 28.6365 199.448 28.955C199.448 29.0912 199.519 29.2025 199.606 29.2025C199.692 29.2025 199.763 29.4153 199.763 29.6754C199.763 29.9354 199.834 30.1481 199.92 30.1481C200.022 30.1481 200.079 31.9867 200.079 35.3485V40.5489H201.812H203.546V34.4029C203.546 30.4108 203.49 28.257 203.388 28.257C203.301 28.257 203.231 28.1152 203.231 27.9418C203.231 27.7685 203.16 27.6266 203.072 27.6266C202.986 27.6266 202.915 27.5184 202.915 27.3862C202.915 27.0734 201.577 25.7357 201.264 25.7357C201.133 25.7357 201.024 25.6648 201.024 25.578C201.024 25.4914 200.883 25.4205 200.709 25.4205C200.536 25.4205 200.394 25.3496 200.394 25.2629C200.394 25.1762 200.039 25.1053 199.606 25.1053C199.172 25.1053 198.817 25.0344 198.817 24.9477C198.817 24.861 198.463 24.7901 198.03 24.7901C197.597 24.7901 197.242 24.861 197.242 24.9477C197.242 25.0344 196.887 25.1053 196.454 25.1053C196.021 25.1053 195.666 25.1762 195.666 25.2629C195.666 25.3496 195.454 25.4205 195.193 25.4205C194.933 25.4205 194.721 25.4914 194.721 25.578C194.721 25.6648 194.594 25.7357 194.44 25.7357C194.286 25.7357 194.057 25.8775 193.933 26.0509C193.807 26.2247 193.524 26.366 193.302 26.366C193.08 26.366 192.797 26.2247 192.672 26.0509C192.547 25.8775 192.318 25.7357 192.164 25.7357C192.011 25.7357 191.884 25.6648 191.884 25.578C191.884 25.4914 191.671 25.4205 191.411 25.4205C191.151 25.4205 190.938 25.3496 190.938 25.2629C190.938 25.1762 190.583 25.1053 190.15 25.1053C189.717 25.1053 189.363 25.0344 189.363 24.9477C189.363 24.861 189.008 24.7901 188.575 24.7901C188.142 24.7901 187.787 24.861 187.787 24.9477ZM212.685 24.9477C212.685 25.0354 212.265 25.1053 211.74 25.1053C211.215 25.1053 210.795 25.1753 210.795 25.2629C210.795 25.3496 210.653 25.4205 210.479 25.4205C210.306 25.4205 210.164 25.4914 210.164 25.578C210.164 25.6648 210.022 25.7357 209.849 25.7357C209.675 25.7357 209.533 25.8066 209.533 25.8932C209.533 25.98 209.408 26.0509 209.253 26.0509C209.099 26.0509 208.871 26.1927 208.746 26.366C208.621 26.5393 208.426 26.6812 208.313 26.6812C208.026 26.6812 206.697 28.0385 206.697 28.3317C206.697 28.4639 206.626 28.5722 206.54 28.5722C206.452 28.5722 206.381 28.7141 206.381 28.8874C206.381 29.0607 206.311 29.2025 206.224 29.2025C206.138 29.2025 206.067 29.3444 206.067 29.5177C206.067 29.6911 205.996 29.8329 205.909 29.8329C205.823 29.8329 205.752 30.0457 205.752 30.3057C205.752 30.5657 205.681 30.7784 205.594 30.7784C205.497 30.7784 205.437 31.6188 205.437 32.9847C205.437 34.3505 205.497 35.1908 205.594 35.1908C205.681 35.1908 205.752 35.4745 205.752 35.8212C205.752 36.1679 205.823 36.4515 205.909 36.4515C205.996 36.4515 206.067 36.5778 206.067 36.7319C206.067 36.8862 206.209 37.1145 206.381 37.2395C206.555 37.3645 206.697 37.5592 206.697 37.6724C206.697 37.9593 208.055 39.2881 208.348 39.2881C208.48 39.2881 208.589 39.359 208.589 39.4457C208.589 39.5324 208.73 39.6033 208.903 39.6033C209.076 39.6033 209.218 39.6742 209.218 39.7609C209.218 39.8476 209.36 39.9185 209.533 39.9185C209.707 39.9185 209.849 39.9894 209.849 40.076C209.849 40.1628 210.061 40.2337 210.321 40.2337C210.582 40.2337 210.795 40.3046 210.795 40.3912C210.795 40.4905 211.845 40.5489 213.631 40.5489C215.417 40.5489 216.468 40.4905 216.468 40.3912C216.468 40.3046 216.752 40.2337 217.098 40.2337C217.444 40.2337 217.728 40.1628 217.728 40.076C217.728 39.9894 217.87 39.9185 218.043 39.9185C218.217 39.9185 218.359 39.8476 218.359 39.7609C218.359 39.6742 218.47 39.6033 218.606 39.6033C218.952 39.6033 219.444 39.0987 219.184 39.0119C219.077 38.9759 218.989 38.8108 218.989 38.6447C218.989 38.4784 218.918 38.3426 218.831 38.3426C218.745 38.3426 218.674 38.2008 218.674 38.0274C218.674 37.854 218.603 37.7122 218.516 37.7122C218.43 37.7122 218.359 37.6008 218.359 37.4647C218.359 37.1608 217.984 36.7667 217.695 36.7667C217.578 36.7667 217.38 36.9086 217.256 37.0819C217.122 37.2669 216.847 37.3971 216.59 37.3971C216.349 37.3971 216.153 37.468 216.153 37.5547C216.153 37.6423 215.732 37.7122 215.207 37.7122C214.681 37.7122 214.261 37.7822 214.261 37.8699C214.261 37.9565 214.119 38.0274 213.947 38.0274C213.773 38.0274 213.631 37.9565 213.631 37.8699C213.631 37.7831 213.277 37.7122 212.843 37.7122C212.409 37.7122 212.055 37.6414 212.055 37.5547C212.055 37.468 211.858 37.3971 211.617 37.3971C211.36 37.3971 211.085 37.2669 210.952 37.0819C210.827 36.9086 210.598 36.7667 210.444 36.7667C210.28 36.7667 210.164 36.6501 210.164 36.4864C210.164 36.3321 210.022 36.1037 209.849 35.9788C209.664 35.8454 209.533 35.5708 209.533 35.3136C209.533 35.0728 209.463 34.8756 209.376 34.8756C209.289 34.8756 209.218 34.663 209.218 34.4029V33.9302H215.05C220.775 33.9302 220.88 33.9245 220.88 33.615C220.88 33.4417 220.951 33.2999 221.037 33.2999C221.133 33.2999 221.195 32.617 221.195 31.5663C221.195 30.5157 221.133 29.8329 221.037 29.8329C220.951 29.8329 220.88 29.6911 220.88 29.5177C220.88 29.3444 220.809 29.2025 220.722 29.2025C220.636 29.2025 220.565 29.0607 220.565 28.8874C220.565 28.7141 220.494 28.5722 220.408 28.5722C220.32 28.5722 220.249 28.4646 220.249 28.3328C220.249 28.0213 218.28 26.0509 217.968 26.0509C217.836 26.0509 217.728 25.98 217.728 25.8932C217.728 25.8066 217.586 25.7357 217.413 25.7357C217.239 25.7357 217.098 25.6648 217.098 25.578C217.098 25.4914 216.885 25.4205 216.625 25.4205C216.365 25.4205 216.153 25.3496 216.153 25.2629C216.153 25.1753 215.732 25.1053 215.207 25.1053C214.681 25.1053 214.261 25.0354 214.261 24.9477C214.261 24.861 213.906 24.7901 213.473 24.7901C213.04 24.7901 212.685 24.861 212.685 24.9477ZM131.371 26.5236V27.9418H132.316H133.262V34.0201C133.262 39.078 133.299 40.1364 133.487 40.3236C133.653 40.4903 134.144 40.5489 135.378 40.5489H137.044V32.827V25.1053H134.207H131.371V26.5236ZM172.028 26.5236V27.9418H172.973H173.919V33.2999C173.919 36.7667 173.975 38.6578 174.076 38.6578C174.163 38.6578 174.234 38.7996 174.234 38.973C174.234 39.1462 174.163 39.2881 174.076 39.2881C173.838 39.2881 173.888 40.0679 174.144 40.3236C174.311 40.4903 174.802 40.5489 176.036 40.5489H177.702V32.827V25.1053H174.865H172.028V26.5236ZM146.499 27.7843C146.499 27.8709 146.679 27.9418 146.898 27.9418C147.431 27.9418 148.39 28.9015 148.39 29.4338C148.39 29.6532 148.461 29.8329 148.547 29.8329C148.635 29.8329 148.705 30.1875 148.705 30.6209C148.705 31.0542 148.635 31.4088 148.547 31.4088C148.461 31.4088 148.39 31.5884 148.39 31.8079C148.39 32.2518 147.452 33.2999 147.055 33.2999C146.923 33.2999 146.815 33.3708 146.815 33.4574C146.815 33.5474 146.341 33.615 145.711 33.615C145.081 33.615 144.608 33.5474 144.608 33.4574C144.608 33.3708 144.499 33.2999 144.368 33.2999C144.235 33.2999 143.81 32.9826 143.422 32.5948L142.717 31.8899V30.6209V29.3518L143.422 28.6469C143.81 28.2591 144.235 27.9418 144.368 27.9418C144.499 27.9418 144.608 27.8709 144.608 27.7843C144.608 27.6966 145.028 27.6266 145.553 27.6266C146.079 27.6266 146.499 27.6966 146.499 27.7843ZM214.261 27.7843C214.261 27.8709 214.545 27.9418 214.891 27.9418C215.238 27.9418 215.522 28.0128 215.522 28.0995C215.522 28.1861 215.631 28.257 215.764 28.257C216.078 28.257 217.098 29.2776 217.098 29.5913C217.098 29.7241 217.168 29.8329 217.256 29.8329C217.342 29.8329 217.413 30.1875 217.413 30.6209V31.4088H213.473H209.533V30.7784C209.533 30.4318 209.604 30.1481 209.692 30.1481C209.778 30.1481 209.849 30.0218 209.849 29.8678C209.849 29.7134 209.991 29.4851 210.164 29.3602C210.337 29.2352 210.479 29.0068 210.479 28.8526C210.479 28.6889 210.596 28.5722 210.76 28.5722C210.914 28.5722 211.143 28.4304 211.267 28.257C211.44 28.0176 211.676 27.9418 212.248 27.9418C212.661 27.9418 213.001 27.8709 213.001 27.7843C213.001 27.6976 213.284 27.6266 213.631 27.6266C213.977 27.6266 214.261 27.6976 214.261 27.7843ZM122.231 30.3057C122.231 30.3933 122.651 30.4633 123.176 30.4633C123.701 30.4633 124.122 30.5332 124.122 30.6209C124.122 30.7075 124.319 30.7784 124.56 30.7784C124.817 30.7784 125.091 30.9086 125.225 31.0936C125.35 31.267 125.578 31.4088 125.732 31.4088C125.908 31.4088 126.013 31.5268 126.013 31.724C126.013 31.8974 126.084 32.0391 126.17 32.0391C126.266 32.0391 126.328 32.722 126.328 33.7726C126.328 34.8232 126.266 35.506 126.17 35.506C126.084 35.506 126.013 35.6156 126.013 35.7495C126.013 36.0648 125.311 36.7667 124.995 36.7667C124.862 36.7667 124.752 36.8376 124.752 36.9244C124.752 37.011 124.61 37.0819 124.437 37.0819C124.263 37.0819 124.122 37.1528 124.122 37.2395C124.122 37.3271 123.701 37.3971 123.176 37.3971C122.651 37.3971 122.231 37.467 122.231 37.5547C122.231 37.7852 121.011 37.7487 120.916 37.5153C120.856 37.3665 120.792 37.3761 120.655 37.5547C120.518 37.7332 120.454 37.7428 120.393 37.594C120.348 37.4836 120.042 37.3971 119.696 37.3971H119.079V34.0023C119.079 31.5109 119.131 30.548 119.276 30.3838C119.51 30.1173 122.231 30.0455 122.231 30.3057Z" fill="white"/>
<path fill-rule="evenodd" clip-rule="evenodd" d="M125.698 48.9009C125.698 48.9928 125.172 49.0585 124.437 49.0585C123.701 49.0585 123.176 49.1242 123.176 49.2161C123.176 49.3028 122.963 49.3737 122.703 49.3737C122.443 49.3737 122.231 49.4447 122.231 49.5313C122.231 49.6179 122.033 49.6888 121.793 49.6888C121.536 49.6888 121.261 49.819 121.128 50.004C121.003 50.1774 120.774 50.3192 120.62 50.3192C120.466 50.3192 120.34 50.3901 120.34 50.4768C120.34 50.5635 120.213 50.6344 120.059 50.6344C119.905 50.6344 119.677 50.7763 119.552 50.9496C119.427 51.1229 119.229 51.2647 119.112 51.2647C118.823 51.2647 118.449 51.6588 118.449 51.9627C118.449 52.1051 118.315 52.2103 118.133 52.2103C117.95 52.2103 117.818 52.3153 117.818 52.4623C117.818 52.6008 117.605 52.913 117.345 53.1558C117.085 53.3986 116.873 53.7108 116.873 53.8493C116.873 53.988 116.802 54.1013 116.715 54.1013C116.628 54.1013 116.557 54.2431 116.557 54.4165C116.557 54.5898 116.487 54.7317 116.4 54.7317C116.313 54.7317 116.242 54.8735 116.242 55.0469C116.242 55.2202 116.171 55.3619 116.085 55.3619C115.998 55.3619 115.927 55.6456 115.927 55.9923C115.927 56.3391 115.856 56.6227 115.77 56.6227C115.683 56.6227 115.612 56.9064 115.612 57.253C115.612 57.5997 115.541 57.8834 115.454 57.8834C115.359 57.8834 115.297 58.5662 115.297 59.6168C115.297 60.6675 115.359 61.3503 115.454 61.3503C115.541 61.3503 115.612 61.7048 115.612 62.1382C115.612 62.5716 115.683 62.9261 115.77 62.9261C115.856 62.9261 115.927 63.2098 115.927 63.5565C115.927 63.9032 115.998 64.1868 116.085 64.1868C116.171 64.1868 116.242 64.3287 116.242 64.502C116.242 64.6754 116.313 64.8172 116.4 64.8172C116.487 64.8172 116.557 64.959 116.557 65.1324C116.557 65.3058 116.628 65.4475 116.715 65.4475C116.802 65.4475 116.873 65.5608 116.873 65.6995C116.873 65.838 117.085 66.1502 117.345 66.3931C117.605 66.6359 117.818 66.9158 117.818 67.0151C117.818 67.2634 118.545 67.969 118.801 67.969C118.915 67.969 119.112 68.1108 119.236 68.2842C119.361 68.4574 119.574 68.5993 119.709 68.5993C119.844 68.5993 120.057 68.7411 120.182 68.9145C120.307 69.0878 120.535 69.2296 120.69 69.2296C120.844 69.2296 120.97 69.3006 120.97 69.3872C120.97 69.4739 121.112 69.5448 121.285 69.5448C121.458 69.5448 121.6 69.6158 121.6 69.7024C121.6 69.789 121.955 69.8599 122.388 69.8599C122.822 69.8599 123.176 69.9309 123.176 70.0176C123.176 70.1042 123.531 70.1751 123.964 70.1751C124.397 70.1751 124.752 70.2461 124.752 70.3328C124.752 70.4227 125.225 70.4903 125.855 70.4903C126.485 70.4903 126.958 70.4227 126.958 70.3328C126.958 70.2451 127.379 70.1751 127.904 70.1751C128.429 70.1751 128.849 70.1051 128.849 70.0176C128.849 69.9309 129.204 69.8599 129.637 69.8599C130.071 69.8599 130.425 69.789 130.425 69.7024C130.425 69.6158 130.638 69.5448 130.898 69.5448C131.158 69.5448 131.371 69.4739 131.371 69.3872C131.371 69.3006 131.583 69.2296 131.843 69.2296C132.211 69.2296 132.316 69.1597 132.316 68.9145C132.316 68.6693 132.421 68.5993 132.789 68.5993C133.049 68.5993 133.262 68.5331 133.262 68.4523C133.262 68.3714 133.404 68.2603 133.577 68.2053C133.882 68.1084 133.892 67.9669 133.892 63.6922C133.892 60.0776 133.851 59.2384 133.667 59.054C133.486 58.8735 132.8 58.8289 130.2 58.8289H126.958V60.2472V61.6655H128.534H130.11V64.0293C130.11 66.2879 130.096 66.3931 129.795 66.3931C129.621 66.3931 129.48 66.464 129.48 66.5506C129.48 66.6374 129.338 66.7083 129.164 66.7083C128.991 66.7083 128.849 66.7792 128.849 66.8658C128.849 66.9525 128.566 67.0234 128.219 67.0234C127.872 67.0234 127.589 67.0943 127.589 67.181C127.589 67.2744 127.011 67.3386 126.17 67.3386C125.33 67.3386 124.752 67.2744 124.752 67.181C124.752 67.0943 124.539 67.0234 124.279 67.0234C124.019 67.0234 123.806 66.9525 123.806 66.8658C123.806 66.7792 123.609 66.7083 123.369 66.7083C123.111 66.7083 122.837 66.5781 122.703 66.3931C122.578 66.2197 122.366 66.0779 122.231 66.0779C122.096 66.0779 121.883 65.9361 121.758 65.7627C121.633 65.5893 121.405 65.4475 121.25 65.4475C121.087 65.4475 120.97 65.331 120.97 65.1673C120.97 65.0129 120.828 64.7846 120.655 64.6597C120.481 64.5346 120.34 64.3063 120.34 64.1521C120.34 63.9979 120.269 63.8717 120.182 63.8717C120.095 63.8717 120.024 63.7299 120.024 63.5565C120.024 63.3832 119.953 63.2413 119.867 63.2413C119.78 63.2413 119.709 63.0286 119.709 62.7686C119.709 62.5086 119.638 62.2958 119.552 62.2958C119.453 62.2958 119.394 61.3503 119.394 59.7744C119.394 58.1986 119.453 57.253 119.552 57.253C119.638 57.253 119.709 56.9694 119.709 56.6227C119.709 56.276 119.78 55.9923 119.867 55.9923C119.953 55.9923 120.024 55.879 120.024 55.7404C120.024 55.6018 120.237 55.2897 120.497 55.0469C120.757 54.804 120.97 54.5241 120.97 54.4248C120.97 54.1765 121.696 53.471 121.952 53.471C122.067 53.471 122.263 53.3291 122.388 53.1558C122.513 52.9824 122.726 52.8406 122.861 52.8406C122.996 52.8406 123.209 52.6988 123.334 52.5254C123.506 52.2859 123.742 52.2103 124.314 52.2103C124.728 52.2103 125.067 52.1394 125.067 52.0526C125.067 51.9592 125.645 51.8951 126.485 51.8951C127.326 51.8951 127.904 51.9592 127.904 52.0526C127.904 52.1394 128.116 52.2103 128.377 52.2103C128.637 52.2103 128.849 52.2812 128.849 52.3678C128.849 52.4545 128.991 52.5254 129.164 52.5254C129.338 52.5254 129.48 52.5963 129.48 52.683C129.48 52.7697 129.621 52.8406 129.795 52.8406C129.968 52.8406 130.11 52.9115 130.11 52.9982C130.11 53.0849 130.252 53.1558 130.425 53.1558C130.599 53.1558 130.74 53.2267 130.74 53.3133C130.74 53.5474 131.203 53.504 131.461 53.2457C131.584 53.122 131.686 52.854 131.686 52.6503C131.686 52.4465 131.828 52.1776 132.001 52.0526C132.174 51.9277 132.316 51.6994 132.316 51.5451C132.316 51.391 132.387 51.2647 132.474 51.2647C132.708 51.2647 132.664 50.8025 132.406 50.5444C132.282 50.4206 132.085 50.3192 131.968 50.3192C131.851 50.3192 131.653 50.1774 131.528 50.004C131.403 49.8307 131.175 49.6888 131.021 49.6888C130.867 49.6888 130.74 49.6179 130.74 49.5313C130.74 49.4447 130.528 49.3737 130.268 49.3737C130.008 49.3737 129.795 49.3028 129.795 49.2161C129.795 49.1263 129.326 49.0585 128.705 49.0585C127.98 49.0585 127.588 48.9925 127.535 48.8615C127.475 48.7127 127.411 48.7224 127.273 48.9009C127.136 49.0795 127.072 49.0891 127.012 48.9404C126.917 48.707 125.698 48.6703 125.698 48.9009ZM180.537 49.2161C180.537 49.3146 179.592 49.3737 178.016 49.3737H175.495V50.792V52.2103H178.331H181.168V50.8596C181.168 49.899 181.103 49.4436 180.943 49.2837C180.678 49.0196 180.537 48.9961 180.537 49.2161ZM211.044 54.622C210.589 55.1021 210.242 55.3587 210.203 55.2433C210.167 55.1353 210.001 55.0469 209.836 55.0469C209.669 55.0469 209.533 54.9759 209.533 54.8892C209.533 54.8026 209.179 54.7317 208.746 54.7317C208.313 54.7317 207.958 54.6607 207.958 54.5741C207.958 54.4822 207.433 54.4165 206.697 54.4165C205.962 54.4165 205.437 54.4822 205.437 54.5741C205.437 54.6607 205.153 54.7317 204.806 54.7317C204.459 54.7317 204.175 54.8026 204.175 54.8892C204.175 54.9759 203.979 55.0469 203.738 55.0469C203.481 55.0469 203.206 55.177 203.072 55.3619C202.948 55.5353 202.753 55.6771 202.64 55.6771C202.354 55.6771 200.709 57.3515 200.709 57.6435C200.709 57.7754 200.638 57.8834 200.551 57.8834C200.465 57.8834 200.394 58.0962 200.394 58.3562C200.394 58.6161 200.323 58.8289 200.236 58.8289C200.143 58.8289 200.079 59.4068 200.079 60.2472C200.079 61.0876 200.143 61.6655 200.236 61.6655C200.323 61.6655 200.394 61.8626 200.394 62.1034C200.394 62.3606 200.523 62.6351 200.709 62.7686C200.883 62.8935 201.024 63.0888 201.024 63.2026C201.024 63.4898 202.063 64.502 202.358 64.502C202.491 64.502 202.6 64.6116 202.6 64.7455C202.6 65.0609 201.898 65.7627 201.582 65.7627C201.448 65.7627 201.339 65.889 201.339 66.043C201.339 66.1974 201.197 66.4257 201.024 66.5506C200.771 66.7326 200.709 66.9586 200.709 67.6886C200.709 68.1906 200.78 68.5993 200.866 68.5993C200.954 68.5993 201.024 68.7411 201.024 68.9145C201.024 69.1116 201.13 69.2296 201.304 69.2296C201.459 69.2296 201.687 69.3715 201.812 69.5448C201.97 69.7643 202.22 69.8599 202.635 69.8599C202.962 69.8599 203.231 69.9309 203.231 70.0176C203.231 70.111 203.808 70.1751 204.649 70.1751C205.489 70.1751 206.067 70.111 206.067 70.0176C206.067 69.9213 206.802 69.8599 207.958 69.8599C209.113 69.8599 209.849 69.9213 209.849 70.0176C209.849 70.1042 209.96 70.1751 210.096 70.1751C210.524 70.1751 210.795 70.6016 210.795 71.2783C210.795 71.955 210.524 72.3814 210.096 72.3814C209.96 72.3814 209.849 72.4523 209.849 72.539C209.849 72.6256 209.636 72.6965 209.376 72.6965C209.116 72.6965 208.903 72.7674 208.903 72.8541C208.903 72.9504 208.168 73.0117 207.012 73.0117C205.857 73.0117 205.121 72.9504 205.121 72.8541C205.121 72.7674 204.909 72.6965 204.649 72.6965C204.388 72.6965 204.175 72.6256 204.175 72.539C204.175 72.4523 204.05 72.3814 203.895 72.3814C203.741 72.3814 203.513 72.2396 203.388 72.0662C203.263 71.8928 203.04 71.751 202.893 71.751C202.746 71.751 202.598 71.665 202.563 71.5598C202.49 71.343 201.339 72.4222 201.339 72.7068C201.339 72.805 201.126 73.0841 200.866 73.3269C200.607 73.5697 200.394 73.8515 200.394 73.9529C200.394 74.2173 200.801 74.5876 201.091 74.5876C201.227 74.5876 201.339 74.6585 201.339 74.7452C201.339 74.8318 201.481 74.9028 201.654 74.9028C201.828 74.9028 201.969 74.9737 201.969 75.0603C201.969 75.147 202.182 75.218 202.442 75.218C202.702 75.218 202.915 75.2889 202.915 75.3755C202.915 75.4621 203.128 75.5331 203.388 75.5331C203.647 75.5331 203.86 75.604 203.86 75.6907C203.86 75.7773 204.215 75.8483 204.649 75.8483C205.082 75.8483 205.437 75.9192 205.437 76.0059C205.437 76.0993 206.014 76.1634 206.855 76.1634C207.695 76.1634 208.273 76.0993 208.273 76.0059C208.273 75.9182 208.694 75.8483 209.218 75.8483C209.744 75.8483 210.164 75.7784 210.164 75.6907C210.164 75.604 210.377 75.5331 210.636 75.5331C210.897 75.5331 211.11 75.4621 211.11 75.3755C211.11 75.2889 211.252 75.218 211.424 75.218C211.598 75.218 211.74 75.147 211.74 75.0603C211.74 74.9737 211.866 74.9028 212.02 74.9028C212.175 74.9028 212.403 74.7609 212.528 74.5876C212.653 74.4142 212.851 74.2724 212.968 74.2724C213.242 74.2724 213.631 73.8837 213.631 73.6093C213.631 73.4922 213.773 73.2943 213.947 73.1693C214.166 73.0111 214.261 72.7613 214.261 72.3466C214.261 72.0191 214.332 71.751 214.419 71.751C214.505 71.751 214.576 71.4673 214.576 71.1207C214.576 70.774 214.505 70.4903 214.419 70.4903C214.332 70.4903 214.261 70.2222 214.261 69.8948C214.261 69.48 214.166 69.2303 213.947 69.072C213.773 68.9471 213.631 68.7491 213.631 68.6321C213.631 68.3435 213.237 67.969 212.933 67.969C212.797 67.969 212.685 67.898 212.685 67.8113C212.685 67.7247 212.544 67.6538 212.37 67.6538C212.197 67.6538 212.055 67.5829 212.055 67.4962C212.055 67.4095 211.771 67.3386 211.424 67.3386C211.078 67.3386 210.795 67.2677 210.795 67.181C210.795 67.0864 210.164 67.0234 209.218 67.0234C208.273 67.0234 207.643 67.0864 207.643 67.181C207.643 67.4508 204.668 67.3807 204.391 67.1042C204.185 66.8969 204.203 66.8244 204.553 66.474C204.771 66.2561 205.059 66.0779 205.193 66.0779C205.327 66.0779 205.437 66.007 205.437 65.9203C205.437 65.8327 205.857 65.7627 206.381 65.7627C206.907 65.7627 207.327 65.8327 207.327 65.9203C207.327 66.007 207.469 66.0779 207.643 66.0779C207.816 66.0779 207.958 66.007 207.958 65.9203C207.958 65.8327 208.378 65.7627 208.903 65.7627C209.428 65.7627 209.849 65.6928 209.849 65.6052C209.849 65.5184 209.991 65.4475 210.164 65.4475C210.338 65.4475 210.479 65.3767 210.479 65.29C210.479 65.2033 210.621 65.1324 210.795 65.1324C210.968 65.1324 211.11 65.0615 211.11 64.9748C211.11 64.8881 211.219 64.8172 211.351 64.8172C211.665 64.8172 212.685 63.7966 212.685 63.4829C212.685 63.3501 212.756 63.2413 212.843 63.2413C212.93 63.2413 213.001 63.0995 213.001 62.9261C213.001 62.7528 213.072 62.6109 213.158 62.6109C213.245 62.6109 213.316 62.3983 213.316 62.1382C213.316 61.8782 213.387 61.6655 213.473 61.6655C213.567 61.6655 213.631 61.0876 213.631 60.2472C213.631 59.4068 213.567 58.8289 213.473 58.8289C213.387 58.8289 213.316 58.6161 213.316 58.3562C213.316 58.0962 213.245 57.8834 213.158 57.8834C213.072 57.8834 213.001 57.7475 213.001 57.5813C213.001 57.4152 212.912 57.25 212.805 57.2141C212.577 57.138 213.018 56.6227 213.312 56.6227C213.573 56.6227 214.261 55.886 214.261 55.6055C214.261 55.4715 214.15 55.3619 214.014 55.3619C213.879 55.3619 213.423 55.0075 213.001 54.5741C212.578 54.1407 212.14 53.7903 212.025 53.7953C211.912 53.8002 211.47 54.1722 211.044 54.622ZM140.195 54.5741C140.195 54.6641 139.723 54.7317 139.092 54.7317C138.462 54.7317 137.989 54.7993 137.989 54.8892C137.989 54.9759 137.736 55.0469 137.427 55.0469C137.117 55.0469 136.762 55.1481 136.639 55.272C136.38 55.5302 136.337 55.9923 136.571 55.9923C136.658 55.9923 136.729 56.2051 136.729 56.4651C136.729 56.7251 136.799 56.9378 136.886 56.9378C136.973 56.9378 137.044 57.1506 137.044 57.4107C137.044 57.8309 137.096 57.8834 137.517 57.8834C137.777 57.8834 137.989 57.8125 137.989 57.7258C137.989 57.6382 138.41 57.5682 138.935 57.5682C139.46 57.5682 139.88 57.4982 139.88 57.4107C139.88 57.323 140.301 57.253 140.826 57.253C141.351 57.253 141.771 57.323 141.771 57.4107C141.771 57.4973 142.039 57.5682 142.367 57.5682C142.782 57.5682 143.032 57.6639 143.189 57.8834C143.315 58.0568 143.512 58.1986 143.63 58.1986C143.97 58.1986 144.292 58.6149 144.292 59.054C144.292 59.2769 144.363 59.4593 144.45 59.4593C144.537 59.4593 144.608 59.6011 144.608 59.7744C144.608 60.0746 144.502 60.0896 142.402 60.0896C141.036 60.0896 140.195 60.1496 140.195 60.2472C140.195 60.3339 139.912 60.4048 139.565 60.4048C139.219 60.4048 138.935 60.4757 138.935 60.5623C138.935 60.6491 138.723 60.72 138.462 60.72C138.202 60.72 137.989 60.7909 137.989 60.8775C137.989 60.9642 137.848 61.0352 137.674 61.0352C137.501 61.0352 137.359 61.1061 137.359 61.1927C137.359 61.2793 137.251 61.3503 137.119 61.3503C136.707 61.3503 135.153 63.0286 135.153 63.4743C135.153 63.6928 135.082 63.8717 134.995 63.8717C134.909 63.8717 134.838 64.2204 134.838 64.6466C134.838 65.1122 134.759 65.4579 134.641 65.5133C134.483 65.5867 134.483 65.6236 134.641 65.697C134.759 65.7523 134.838 66.0981 134.838 66.5637C134.838 66.9899 134.909 67.3386 134.995 67.3386C135.082 67.3386 135.153 67.5178 135.153 67.7366C135.153 68.1819 136.397 69.5448 136.803 69.5448C136.936 69.5448 137.044 69.6158 137.044 69.7024C137.044 69.789 137.256 69.8599 137.517 69.8599C137.777 69.8599 137.989 69.9309 137.989 70.0176C137.989 70.1151 138.83 70.1751 140.195 70.1751C141.562 70.1751 142.402 70.1151 142.402 70.0176C142.402 69.9309 142.614 69.8599 142.875 69.8599C143.135 69.8599 143.347 69.789 143.347 69.7024C143.347 69.6158 143.461 69.5448 143.599 69.5448C143.738 69.5448 144.056 69.3258 144.306 69.0582C144.712 68.6232 144.785 68.597 144.999 68.8106C145.131 68.9421 145.238 69.1305 145.238 69.2296C145.238 69.4903 145.648 69.8599 145.936 69.8599C146.073 69.8599 146.184 69.9309 146.184 70.0176C146.184 70.1095 146.71 70.1751 147.444 70.1751C148.18 70.1751 148.705 70.1095 148.705 70.0176C148.705 69.9309 148.847 69.8599 149.021 69.8599C149.26 69.8599 149.336 69.7549 149.336 69.422C149.336 69.1649 149.206 68.8903 149.021 68.7569C148.847 68.6319 148.705 68.4035 148.705 68.2493C148.705 68.0951 148.635 67.969 148.547 67.969C148.449 67.969 148.39 66.9183 148.39 65.1324C148.39 63.3465 148.331 62.2958 148.232 62.2958C148.137 62.2958 148.075 61.613 148.075 60.5623C148.075 59.5117 148.013 58.8289 147.918 58.8289C147.83 58.8289 147.76 58.6161 147.76 58.3562C147.76 58.0962 147.689 57.8834 147.602 57.8834C147.515 57.8834 147.444 57.7416 147.444 57.5682C147.444 57.3949 147.373 57.253 147.287 57.253C147.2 57.253 147.129 57.1442 147.129 57.0114C147.129 56.6977 146.109 55.6771 145.795 55.6771C145.662 55.6771 145.553 55.6062 145.553 55.5196C145.553 55.4329 145.412 55.3619 145.238 55.3619C145.065 55.3619 144.923 55.291 144.923 55.2044C144.923 55.1178 144.781 55.0469 144.608 55.0469C144.434 55.0469 144.292 54.9759 144.292 54.8892C144.292 54.7993 143.82 54.7317 143.189 54.7317C142.56 54.7317 142.086 54.6641 142.086 54.5741C142.086 54.4865 141.666 54.4165 141.141 54.4165C140.616 54.4165 140.195 54.4865 140.195 54.5741ZM157.845 54.5741C157.845 54.6607 157.49 54.7317 157.057 54.7317C156.624 54.7317 156.27 54.8026 156.27 54.8892C156.27 54.9759 156.128 55.0469 155.954 55.0469C155.781 55.0469 155.639 55.1178 155.639 55.2044C155.639 55.291 155.513 55.3619 155.358 55.3619C155.205 55.3619 154.976 55.5038 154.851 55.6771C154.726 55.8505 154.528 55.9923 154.411 55.9923C154.151 55.9923 153.748 55.6088 153.748 55.3619C153.748 54.9102 153.283 54.7317 152.105 54.7317H150.912V62.4534V70.1751H152.802H154.693V64.5756V58.9759L155.24 58.4298C155.54 58.1292 155.894 57.8834 156.028 57.8834C156.161 57.8834 156.27 57.8125 156.27 57.7258C156.27 57.6391 156.482 57.5682 156.742 57.5682C157.002 57.5682 157.214 57.4973 157.214 57.4107C157.214 57.3239 157.427 57.253 157.688 57.253C157.948 57.253 158.16 57.3239 158.16 57.4107C158.16 57.4973 158.373 57.5682 158.633 57.5682C158.893 57.5682 159.106 57.6391 159.106 57.7258C159.106 57.8125 159.216 57.8834 159.35 57.8834C159.483 57.8834 159.767 58.0575 159.979 58.2703C160.275 58.5653 160.366 58.8237 160.366 59.3602C160.366 59.7686 160.45 60.1019 160.564 60.1553C160.721 60.2287 160.721 60.2656 160.564 60.339C160.414 60.409 160.366 61.3678 160.366 64.3445C160.366 67.3274 160.414 68.2768 160.564 68.3379C160.712 68.3979 160.702 68.4597 160.525 68.5873C160.314 68.7379 160.314 68.7758 160.525 68.9264C160.702 69.054 160.712 69.1159 160.564 69.1759C160.3 69.2829 160.314 69.6723 160.592 69.95C160.758 70.1167 161.249 70.1751 162.483 70.1751H164.149V64.5756V58.9759L164.695 58.4298C164.996 58.1292 165.35 57.8834 165.483 57.8834C165.616 57.8834 165.724 57.8125 165.724 57.7258C165.724 57.6391 165.937 57.5682 166.198 57.5682C166.458 57.5682 166.67 57.4973 166.67 57.4107C166.67 57.3239 166.883 57.253 167.143 57.253C167.402 57.253 167.615 57.3239 167.615 57.4107C167.615 57.4973 167.867 57.5682 168.172 57.5682C168.863 57.5682 169.822 58.4358 169.822 59.0601C169.822 59.2796 169.893 59.4593 169.979 59.4593C170.081 59.4593 170.137 61.3503 170.137 64.8172V70.1751H171.87H173.604V64.0293C173.604 60.0371 173.549 57.8834 173.447 57.8834C173.359 57.8834 173.288 57.7416 173.288 57.5682C173.288 57.3949 173.218 57.253 173.131 57.253C173.044 57.253 172.973 57.1448 172.973 57.0125C172.973 56.8802 172.656 56.4547 172.269 56.067C171.881 55.6792 171.456 55.3619 171.323 55.3619C171.191 55.3619 171.082 55.291 171.082 55.2044C171.082 55.1178 170.941 55.0469 170.767 55.0469C170.594 55.0469 170.452 54.9759 170.452 54.8892C170.452 54.8026 170.097 54.7317 169.664 54.7317C169.231 54.7317 168.876 54.6607 168.876 54.5741C168.876 54.4874 168.522 54.4165 168.089 54.4165C167.655 54.4165 167.301 54.4874 167.301 54.5741C167.301 54.6607 166.946 54.7317 166.512 54.7317C166.079 54.7317 165.724 54.8026 165.724 54.8892C165.724 54.9759 165.512 55.0469 165.252 55.0469C164.992 55.0469 164.779 55.1178 164.779 55.2044C164.779 55.291 164.653 55.3619 164.499 55.3619C164.344 55.3619 164.116 55.5038 163.991 55.6771C163.866 55.851 163.583 55.9923 163.361 55.9923C163.138 55.9923 162.855 55.851 162.731 55.6771C162.605 55.5038 162.377 55.3619 162.223 55.3619C162.069 55.3619 161.943 55.291 161.943 55.2044C161.943 55.1178 161.73 55.0469 161.469 55.0469C161.21 55.0469 160.997 54.9759 160.997 54.8892C160.997 54.8026 160.642 54.7317 160.209 54.7317C159.776 54.7317 159.421 54.6607 159.421 54.5741C159.421 54.4874 159.067 54.4165 158.633 54.4165C158.2 54.4165 157.845 54.4874 157.845 54.5741ZM191.569 54.5741C191.569 54.6607 191.214 54.7317 190.781 54.7317C190.348 54.7317 189.993 54.8026 189.993 54.8892C189.993 54.9759 189.796 55.0469 189.555 55.0469C189.298 55.0469 189.023 55.177 188.89 55.3619C188.765 55.5353 188.537 55.6771 188.382 55.6771C188.228 55.6771 188.102 55.7481 188.102 55.8348C188.102 55.9214 187.961 55.9923 187.787 55.9923C187.608 55.9923 187.472 55.8872 187.472 55.7488C187.472 55.615 187.298 55.3313 187.085 55.1185C186.742 54.776 186.561 54.7317 185.508 54.7317H184.32V62.4534V70.1751H186.211H188.102V64.5756V58.9759L188.648 58.4298C188.984 58.0939 189.349 57.8834 189.594 57.8834C189.814 57.8834 189.993 57.8125 189.993 57.7258C189.993 57.6391 190.206 57.5682 190.466 57.5682C190.725 57.5682 190.938 57.4973 190.938 57.4107C190.938 57.3239 191.222 57.253 191.569 57.253C191.916 57.253 192.199 57.3239 192.199 57.4107C192.199 57.4973 192.45 57.5682 192.756 57.5682C193.182 57.5682 193.442 57.6972 193.859 58.1146C194.159 58.4149 194.405 58.7695 194.405 58.9025C194.405 59.0353 194.476 59.1441 194.563 59.1441C194.65 59.1441 194.721 59.3568 194.721 59.6168C194.721 59.8768 194.791 60.0896 194.878 60.0896C194.98 60.0896 195.036 61.8755 195.036 65.1324V70.1751H196.769H198.502V64.3445C198.502 60.5623 198.447 58.5137 198.345 58.5137C198.259 58.5137 198.188 58.3166 198.188 58.0758C198.188 57.8186 198.057 57.5441 197.873 57.4107C197.699 57.2856 197.557 57.0908 197.557 56.9778C197.557 56.6908 196.2 55.3619 195.906 55.3619C195.775 55.3619 195.666 55.291 195.666 55.2044C195.666 55.1178 195.454 55.0469 195.193 55.0469C194.933 55.0469 194.721 54.9759 194.721 54.8892C194.721 54.8026 194.366 54.7317 193.933 54.7317C193.5 54.7317 193.145 54.6607 193.145 54.5741C193.145 54.4874 192.791 54.4165 192.356 54.4165C191.923 54.4165 191.569 54.4874 191.569 54.5741ZM175.495 56.1499V57.5682H176.44H177.386V62.9261C177.386 66.3931 177.441 68.2842 177.543 68.2842C177.772 68.2842 177.738 68.8734 177.504 68.9682C177.356 69.0282 177.366 69.0901 177.543 69.2176C177.746 69.3625 177.748 69.4082 177.558 69.5305C177.368 69.6523 177.372 69.7114 177.585 69.9245C177.783 70.122 178.189 70.1751 179.502 70.1751H181.168V62.4534V54.7317H178.331H175.495V56.1499ZM207.643 57.4107C207.643 57.4973 207.822 57.5682 208.042 57.5682C208.574 57.5682 209.533 58.5277 209.533 59.0601C209.533 59.2796 209.604 59.4593 209.692 59.4593C209.778 59.4593 209.849 59.8138 209.849 60.2472C209.849 60.6806 209.778 61.0352 209.692 61.0352C209.604 61.0352 209.533 61.2148 209.533 61.4343C209.533 61.8782 208.597 62.9261 208.2 62.9261C208.067 62.9261 207.958 62.9971 207.958 63.0838C207.958 63.1737 207.486 63.2413 206.855 63.2413C206.224 63.2413 205.752 63.1737 205.752 63.0838C205.752 62.9971 205.643 62.9261 205.51 62.9261C205.196 62.9261 204.175 61.9057 204.175 61.5918C204.175 61.459 204.105 61.3503 204.018 61.3503C203.928 61.3503 203.86 60.8775 203.86 60.2472C203.86 59.6168 203.928 59.1441 204.018 59.1441C204.105 59.1441 204.175 59.0353 204.175 58.9025C204.175 58.5054 205.224 57.5682 205.667 57.5682C205.888 57.5682 206.067 57.4973 206.067 57.4107C206.067 57.3239 206.422 57.253 206.855 57.253C207.288 57.253 207.643 57.3239 207.643 57.4107ZM144.383 62.8362C144.647 63.1009 144.708 65.4475 144.45 65.4475C144.363 65.4475 144.292 65.5893 144.292 65.7627C144.292 65.9361 144.221 66.0779 144.135 66.0779C144.049 66.0779 143.978 66.1893 143.978 66.3255C143.978 66.6439 143.598 67.0234 143.28 67.0234C143.143 67.0234 143.032 67.0943 143.032 67.181C143.032 67.2677 142.89 67.3386 142.717 67.3386C142.543 67.3386 142.402 67.4095 142.402 67.4962C142.402 67.588 141.876 67.6538 141.141 67.6538C140.406 67.6538 139.88 67.588 139.88 67.4962C139.88 67.4095 139.771 67.3386 139.637 67.3386C139.321 67.3386 138.62 66.6367 138.62 66.3214C138.62 66.1874 138.549 66.0779 138.462 66.0779C138.376 66.0779 138.305 65.7942 138.305 65.4475C138.305 65.1009 138.376 64.8172 138.462 64.8172C138.549 64.8172 138.62 64.7089 138.62 64.5767C138.62 64.4444 138.937 64.0189 139.325 63.6312C139.893 63.0628 140.137 62.9261 140.585 62.9261C140.891 62.9261 141.141 62.8552 141.141 62.7686C141.141 62.506 144.114 62.5679 144.383 62.8362Z" fill="white"/>
</svg>
