<?xml version="1.0" encoding="UTF-8"?>
<svg id="Layer_1" data-name="Layer 1" xmlns="http://www.w3.org/2000/svg" xmlns:xlink="http://www.w3.org/1999/xlink" viewBox="0 0 255.12 85.04"><defs><linearGradient id="linear-gradient" x1="101.96" y1="1395.08" x2="70.52" y2="1340.64" gradientTransform="matrix(1, 0, 0, -1, 0, 1410.96)" gradientUnits="userSpaceOnUse"><stop offset="0" stop-color="#00a48b"/><stop offset="1" stop-color="#a5cd39"/></linearGradient><clipPath id="clip-path"><path d="M79.42,53.59A12.57,12.57,0,1,0,66.85,41,12.74,12.74,0,0,0,79.42,53.59Z" fill="none"/></clipPath><linearGradient id="linear-gradient-2" x1="59.12" y1="1378.12" x2="88.51" y2="1378.12" gradientTransform="matrix(1, 0, 0, -1, 0, 1410.96)" gradientUnits="userSpaceOnUse"><stop offset="0" stop-color="#0092c0"/><stop offset="1" stop-color="#a5cd39"/></linearGradient><linearGradient id="linear-gradient-3" x1="88.72" y1="1364.4" x2="77.13" y2="1384.48" gradientTransform="matrix(1, 0, 0, -1, 0, 1410.96)" gradientUnits="userSpaceOnUse"><stop offset="0" stop-color="#91c73e"/><stop offset="1" stop-color="#0092c0"/></linearGradient><clipPath id="clip-path-4"><path d="M147.58,20.42v6.06h-15v6.21h13.48v5.76H132.59v6.21H148v5.91H125.77V20.42Zm28.18,14.69h6.82V45.87c-3,3.33-7.12,5-12.42,5a15.8,15.8,0,0,1-11.21-4.39,14.73,14.73,0,0,1-4.54-11.06A15.52,15.52,0,0,1,170,19.66a15.93,15.93,0,0,1,11.21,4.24l-3.48,5a12.12,12.12,0,0,0-3.79-2.42,9.66,9.66,0,0,0-3.64-.61,9.29,9.29,0,0,0-6.51,2.58,8.91,8.91,0,0,0-2.58,6.82,9.5,9.5,0,0,0,2.58,6.82,8.24,8.24,0,0,0,6.06,2.58,11.17,11.17,0,0,0,5.76-1.36V35.11Zm27.11-8.94V50.56h-6.67V26.17h-8.48V20.42h23.78v5.76Z" fill="none"/></clipPath><linearGradient id="linear-gradient-4" x1="123.2" y1="1369.11" x2="178.94" y2="1369.11" xlink:href="#linear-gradient-2"/><linearGradient id="linear-gradient-5" x1="215.49" y1="1362.7" x2="192.08" y2="1392.65" xlink:href="#linear-gradient-2"/><linearGradient id="linear-gradient-6" x1="157.77" y1="1370.96" x2="180.47" y2="1389.35" xlink:href="#linear-gradient-2"/><linearGradient id="linear-gradient-7" x1="192.33" y1="1362.14" x2="216.16" y2="1381.44" xlink:href="#linear-gradient-2"/><linearGradient id="linear-gradient-8" x1="118.5" y1="1392.15" x2="150.76" y2="1366.03" xlink:href="#linear-gradient-2"/></defs><title>EGT_game_provider_footer</title><path d="M58.06,43.14c0-6.51,6.21-15,16.81-19.54C93.35,15.57,104,23,106.69,30c2.58,6.51-2.58,18.18-11.21,26.66,6.21-4.54,11.36-9.24,14.84-13.94,4.7-6.21,6.67-12.12,4.85-16.81-2.58-6.82-13-9.09-26.05-7.27s-23,5.15-31.05,9.39C49,32.54,44.43,37.84,43.67,44,42.76,53,52.46,65.11,74.42,66.62c11.51.76,22.72,1.06,44.08-4.24C115.93,62.53,57.91,69.8,58.06,43.14Z" fill="url(#linear-gradient)"/><path d="M147.58,20.42v6.06h-15v6.21h13.48v5.76H132.59v6.21H148v5.91H125.77V20.42Z" fill="#a5cd39"/><path d="M175.76,35.11h6.82V45.87c-3,3.33-7.12,5-12.42,5a15.8,15.8,0,0,1-11.21-4.39,14.73,14.73,0,0,1-4.54-11.06A15.52,15.52,0,0,1,170,19.66a15.93,15.93,0,0,1,11.21,4.24l-3.48,5a12.12,12.12,0,0,0-3.79-2.42,9.66,9.66,0,0,0-3.64-.61,9.29,9.29,0,0,0-6.51,2.58,8.91,8.91,0,0,0-2.58,6.82,9.5,9.5,0,0,0,2.58,6.82,8.24,8.24,0,0,0,6.06,2.58,11.17,11.17,0,0,0,5.76-1.36V35.11Z" fill="#a5cd39"/><path d="M202.87,26.17V50.56h-6.67V26.17h-8.48V20.42h23.78v5.76Z" fill="#a5cd39"/><path d="M125.92,58h1.21v7.57h-1.21Z" fill="#40aa8b"/><path d="M136.07,58h1.21v7.57h-1.36l-4.24-5.45v5.45h-1.21V58h1.21l4.39,5.6Z" fill="#40aa8b"/><path d="M143.34,59.2v6.36h-1.21V59.2h-2.27V58h5.91V59.2Z" fill="#40aa8b"/><path d="M153.34,58V59.2h-4.09v2h3.64v1.06h-3.64v2h4.24v1.21H148V57.83h5.3Z" fill="#40aa8b"/><path d="M162.28,60.56A2.46,2.46,0,0,1,160.61,63l2,2.73h-1.67l-1.82-2.58h-1.67v2.58h-1.21V58.14h2.88a3.34,3.34,0,0,1,2.42.61A2.07,2.07,0,0,1,162.28,60.56Zm-1.67,1.06a1.18,1.18,0,0,0,.45-1.06,1.38,1.38,0,0,0-.45-1.06,3,3,0,0,0-1.36-.3h-1.67v2.73h1.51A3.26,3.26,0,0,0,160.61,61.62Z" fill="#40aa8b"/><path d="M166.22,63.89l-.76,1.67H164.1L167.43,58h1.36l3.33,7.57h-1.36L170,63.89Zm3.33-1.21-1.36-3.18-1.36,3.18Z" fill="#40aa8b"/><path d="M177.73,64.5a2.25,2.25,0,0,0,1.06-.15c.3-.15.61-.45,1.06-.76l.76.91a3.73,3.73,0,0,1-2.88,1.36,3.77,3.77,0,0,1-2.88-1.06,3.65,3.65,0,0,1-1.06-2.73A4.14,4.14,0,0,1,175,59.2a3.77,3.77,0,0,1,2.88-1.06,3.52,3.52,0,0,1,2.88,1.36l-.76.91a4.6,4.6,0,0,0-1.06-.76,2.58,2.58,0,0,0-1.06-.15,3.19,3.19,0,0,0-2,.76,2.51,2.51,0,0,0-.76,1.82,3.19,3.19,0,0,0,.76,2A5.29,5.29,0,0,0,177.73,64.5Z" fill="#40aa8b"/><path d="M186.21,59.2v6.36H185V59.2h-2.27V58h5.91V59.2Z" fill="#40aa8b"/><path d="M190.91,58h1.21v7.57h-1.21Z" fill="#40aa8b"/><path d="M198.78,65.56h-1.36l-3-7.57h1.36l2.27,5.6L200.3,58h1.36Z" fill="#40aa8b"/><path d="M209.39,58V59.2H205.3v2h3.64v1.06H205.3v2h4.09v1.21h-5.45V57.83h5.45Z" fill="#40aa8b"/><path d="M79.42,53.59A12.57,12.57,0,1,0,66.85,41,12.64,12.64,0,0,0,79.42,53.59Z" fill="#a5cd39"/><g clip-path="url(#clip-path)"><path d="M79.42,53.29A12.57,12.57,0,1,0,66.85,40.72,12.74,12.74,0,0,0,79.42,53.29Z" fill="#a5cd39"/></g><g clip-path="url(#clip-path)"><path d="M73.81,47.53A14.69,14.69,0,1,0,59.12,32.84,14.81,14.81,0,0,0,73.81,47.53Z" opacity="0.36" fill="url(#linear-gradient-2)" style="isolation:isolate"/></g><g clip-path="url(#clip-path)"><path d="M82.9,48.14A11.66,11.66,0,1,0,71.39,36.48,11.54,11.54,0,0,0,82.9,48.14Z" opacity="0.71" fill="url(#linear-gradient-3)" style="isolation:isolate"/></g><g clip-path="url(#clip-path-4)"><path d="M178.94,51c-1.51-10.3-13.48-18.33-27.87-18.33s-26.36,8-27.87,18.33Z" opacity="0.79" fill="url(#linear-gradient-4)" style="isolation:isolate"/></g><g clip-path="url(#clip-path-4)"><path d="M189.7,20.12c-3.33,6.21-2.27,15.15,3.18,22.27,5,6.36,12.27,9.54,18.63,8.94V20.12Z" opacity="0.47" fill="url(#linear-gradient-5)" style="isolation:isolate"/></g><g clip-path="url(#clip-path-4)"><path d="M178.79,19.51H160.31c-5.91,5.6-8,13.63-2.58,20.3,5,6.21,14.24,7,20.6,2,6.51-5.15,6.06-15.3,1.06-21.51C179.24,20,178.94,19.81,178.79,19.51Z" opacity="0.61" fill="url(#linear-gradient-6)" style="isolation:isolate"/></g><g clip-path="url(#clip-path-4)"><path d="M211.66,23.9c-4.54-.91-10,.45-14.54,4.09-7.27,5.76-9.39,15-4.85,20.75,4.09,5.15,12.42,5.6,19.39,1.36Z" opacity="0.66" fill="url(#linear-gradient-7)" style="isolation:isolate"/></g><g clip-path="url(#clip-path-4)"><path d="M117.44,20.12c-4.54,7.42-2,18.18,6.21,25,8.79,7.27,20.9,7.27,27,0,5.6-6.82,4.09-17.57-3.18-25Z" opacity="0.39" fill="url(#linear-gradient-8)" style="isolation:isolate"/></g></svg>