<svg width="256" height="86" viewBox="0 0 256 86" fill="none" xmlns="http://www.w3.org/2000/svg">
<path fill-rule="evenodd" clip-rule="evenodd" d="M136.901 21.8536C136.901 22.248 137.008 22.5708 137.139 22.5708C137.279 22.5708 137.379 23.3676 137.379 24.4834C137.379 25.5991 137.478 26.3959 137.618 26.3959C137.757 26.3959 137.857 27.1927 137.857 28.3085C137.857 29.4243 137.957 30.2211 138.096 30.2211C138.235 30.2211 138.335 31.0178 138.335 32.1336C138.335 33.2494 138.434 34.0462 138.574 34.0462C138.713 34.0462 138.813 34.843 138.813 35.9588C138.813 37.0745 138.912 37.8713 139.052 37.8713C139.191 37.8713 139.291 38.6681 139.291 39.7839C139.291 40.8996 139.391 41.6965 139.53 41.6965C139.67 41.6965 139.769 42.4933 139.769 43.609C139.769 44.7247 139.869 45.5216 140.008 45.5216C140.148 45.5216 140.248 46.3184 140.248 47.4342C140.248 48.5499 140.347 49.3468 140.486 49.3468C140.628 49.3468 140.726 50.2234 140.726 51.4983C140.726 52.7733 140.823 53.6499 140.965 53.6499C141.104 53.6499 141.203 54.4468 141.203 55.5625C141.203 56.6783 141.304 57.4751 141.443 57.4751C141.582 57.4751 141.682 58.272 141.682 59.3876V61.3002H147.419H153.157V58.9095C153.157 57.4751 153.253 56.5188 153.396 56.5188C153.538 56.5188 153.635 55.6421 153.635 54.3672C153.635 53.0923 153.733 52.2155 153.875 52.2155C154.018 52.2155 154.113 51.2593 154.113 49.8249C154.113 48.3905 154.209 47.4342 154.353 47.4342C154.494 47.4342 154.592 46.5575 154.592 45.2825C154.592 44.0076 154.689 43.1309 154.83 43.1309C154.972 43.1309 155.07 42.2542 155.07 40.9792C155.07 39.7043 155.167 38.8276 155.309 38.8276C155.452 38.8276 155.548 37.8713 155.548 36.4369C155.548 35.0025 155.643 34.0462 155.787 34.0462C155.929 34.0462 156.027 33.1695 156.027 31.8945C156.027 30.6196 156.123 29.7429 156.265 29.7429C156.397 29.7429 156.504 29.205 156.504 28.5476V27.3522H152.679H148.854V29.5038C148.854 30.7788 148.756 31.6555 148.614 31.6555C148.468 31.6555 148.376 32.8508 148.376 34.7634C148.376 36.6759 148.284 37.8713 148.137 37.8713C147.99 37.8713 147.897 39.0666 147.897 40.9792C147.897 42.8918 147.805 44.0872 147.659 44.0872C147.517 44.0872 147.419 44.9639 147.419 46.2388C147.419 47.5137 147.322 48.3905 147.181 48.3905C147.037 48.3905 146.942 47.4342 146.942 45.9998C146.942 44.5653 146.846 43.609 146.702 43.609C146.557 43.609 146.464 42.4933 146.464 40.7402C146.464 38.987 146.371 37.8713 146.224 37.8713C146.077 37.8713 145.985 36.6759 145.985 34.7634C145.985 32.8508 145.893 31.6555 145.746 31.6555C145.605 31.6555 145.507 30.7788 145.507 29.5038V27.3522H144.55C144.025 27.3522 143.595 27.2446 143.595 27.1132C143.595 26.9817 143.295 26.8741 142.93 26.8741C142.54 26.8741 142.123 26.6766 141.921 26.3959C141.731 26.133 141.436 25.9178 141.265 25.9178C140.83 25.9178 138.335 23.3777 138.335 22.9347C138.335 22.7346 138.227 22.5708 138.096 22.5708C137.964 22.5708 137.857 22.4018 137.857 22.1952C137.857 21.8328 137.318 21.1364 137.037 21.1364C136.962 21.1364 136.901 21.4591 136.901 21.8536ZM157.46 44.0872V61.3002H165.111H172.761V57.9532V54.6062H168.697H164.633V50.7812V46.956H165.589C166.385 46.956 166.545 46.8764 166.545 46.4779C166.545 46.2148 166.653 45.9998 166.784 45.9998C166.915 45.9998 167.023 45.677 167.023 45.2825C167.023 44.888 167.131 44.5653 167.262 44.5653C167.394 44.5653 167.502 44.4016 167.502 44.2014C167.502 43.7881 169.982 41.2183 170.383 41.2183C170.655 41.2183 171.326 40.6355 171.326 40.3985C171.326 40.3234 169.821 40.262 167.98 40.262H164.633V37.1541V34.0462H168.697H172.761V30.8017C172.761 28.3085 172.682 27.4779 172.419 27.2157C172.139 26.9345 170.785 26.8741 164.769 26.8741H157.46V44.0872ZM203.84 27.1132C203.84 27.2446 203.625 27.3522 203.362 27.3522C203.099 27.3522 202.884 27.4598 202.884 27.5913C202.884 27.7228 202.719 27.8303 202.519 27.8303C202.045 27.8303 200.015 29.8598 200.015 30.3344C200.015 30.5349 199.908 30.6992 199.776 30.6992C199.645 30.6992 199.537 31.022 199.537 31.4164C199.537 31.8109 199.43 32.1336 199.298 32.1336C199.167 32.1336 199.058 32.6716 199.058 33.3289C199.058 33.9864 198.951 34.5243 198.82 34.5243C198.665 34.5243 198.581 37.951 198.581 44.3262C198.581 50.7016 198.665 54.1281 198.82 54.1281C198.952 54.1281 199.058 54.7657 199.058 55.5625C199.058 56.3594 199.165 56.9969 199.298 56.9969C199.43 56.9969 199.537 57.2121 199.537 57.4751C199.537 57.7381 199.645 57.9532 199.776 57.9532C199.908 57.9532 200.015 58.1175 200.015 58.3181C200.015 58.7926 202.045 60.8221 202.519 60.8221C202.719 60.8221 202.884 60.9297 202.884 61.0612C202.884 61.1926 203.099 61.3002 203.362 61.3002C203.625 61.3002 203.84 61.4078 203.84 61.5393C203.84 61.6708 204.378 61.7784 205.036 61.7784C205.693 61.7784 206.231 61.8859 206.231 62.0175C206.231 62.1489 206.553 62.2565 206.948 62.2565C207.343 62.2565 207.666 62.1489 207.666 62.0175C207.666 61.8859 208.203 61.7784 208.861 61.7784C209.518 61.7784 210.056 61.6708 210.056 61.5393C210.056 61.4078 210.272 61.3002 210.535 61.3002C210.797 61.3002 211.012 61.1926 211.012 61.0612C211.012 60.9297 211.176 60.8221 211.377 60.8221C212.002 60.8221 214.359 58.276 214.359 57.5999C214.359 57.2683 214.467 56.9969 214.599 56.9969C214.73 56.9969 214.837 56.6743 214.837 56.2798C214.837 55.8853 214.945 55.5625 215.077 55.5625C215.228 55.5625 215.316 53.6499 215.316 50.303C215.316 46.956 215.228 45.0435 215.077 45.0435C214.945 45.0435 214.837 45.2586 214.837 45.5216C214.837 45.7846 214.73 45.9998 214.599 45.9998C214.467 45.9998 214.359 46.1913 214.359 46.4251C214.359 46.6591 214.144 47.0055 213.881 47.1951C213.619 47.3846 213.403 47.685 213.403 47.8626C213.403 48.3003 212.805 48.8686 212.344 48.8686C212.138 48.8686 211.969 48.9761 211.969 49.1076C211.969 49.2392 211.753 49.3468 211.49 49.3468C211.227 49.3468 211.012 49.4543 211.012 49.5858C211.012 49.7173 210.69 49.8249 210.295 49.8249C209.9 49.8249 209.578 49.9324 209.578 50.0639C209.578 50.1954 209.255 50.303 208.861 50.303H208.143V53.0692C208.143 55.1482 208.059 55.9206 207.802 56.1772C207.322 56.6575 207.013 56.6056 206.34 55.9319L205.753 55.3452V44.3262V33.3072L206.35 32.7095L206.948 32.1119L207.546 32.7095C208.12 33.2836 208.143 33.426 208.143 36.3066V39.3058H211.73H215.316V36.9151C215.316 35.4806 215.22 34.5243 215.077 34.5243C214.944 34.5243 214.837 33.8867 214.837 33.0899C214.837 32.2931 214.731 31.6555 214.599 31.6555C214.467 31.6555 214.359 31.464 214.359 31.2302C214.359 30.9961 214.144 30.6497 213.881 30.4601C213.619 30.2705 213.403 29.9729 213.403 29.7989C213.403 29.3884 212.323 28.3085 211.913 28.3085C211.738 28.3085 211.441 28.0933 211.252 27.8303C211.049 27.5497 210.632 27.3522 210.242 27.3522C209.877 27.3522 209.578 27.2446 209.578 27.1132C209.578 26.967 208.462 26.8741 206.709 26.8741C204.956 26.8741 203.84 26.967 203.84 27.1132ZM97.6929 44.2237C97.6929 58.527 97.7447 61.1473 98.0344 61.4368C98.2896 61.6921 99.0498 61.7784 101.04 61.7784C103.03 61.7784 103.79 61.6921 104.045 61.4368C104.325 61.1568 104.387 59.8658 104.387 54.2647C104.387 49.8702 104.301 47.4342 104.148 47.4342C104.016 47.4342 103.909 46.8962 103.909 46.2388C103.909 45.2029 103.973 45.0435 104.387 45.0435C104.825 45.0435 104.865 45.2029 104.865 46.956C104.865 48.0717 104.965 48.8686 105.104 48.8686C105.241 48.8686 105.343 49.5858 105.343 50.5421C105.343 51.4983 105.446 52.2155 105.582 52.2155C105.719 52.2155 105.821 52.9328 105.821 53.8891C105.821 54.8453 105.924 55.5625 106.06 55.5625C106.2 55.5625 106.299 56.3594 106.299 57.4751C106.299 58.5909 106.399 59.3876 106.538 59.3876C106.67 59.3876 106.778 59.7719 106.778 60.2414C106.778 61.5133 107.19 61.7784 109.168 61.7784C111.395 61.7784 111.559 61.6077 111.559 59.2851C111.559 58.2378 111.66 57.4751 111.798 57.4751C111.935 57.4751 112.037 56.7579 112.037 55.8016C112.037 54.8453 112.14 54.1281 112.276 54.1281C112.416 54.1281 112.515 53.3313 112.515 52.2155C112.515 51.0998 112.615 50.303 112.754 50.303C112.894 50.303 112.993 49.5062 112.993 48.3905C112.993 47.2747 113.093 46.4779 113.232 46.4779C113.364 46.4779 113.472 46.0475 113.472 45.5216C113.472 44.9956 113.579 44.5653 113.711 44.5653C113.865 44.5653 113.95 47.4795 113.95 52.8302C113.95 61.5102 113.981 61.7784 115.008 61.7784C115.215 61.7784 115.384 61.8859 115.384 62.0175C115.384 62.1489 115.549 62.2565 115.751 62.2565C116.174 62.2565 117.775 63.7816 117.775 64.1846C117.775 64.3336 118.098 64.757 118.492 65.1254C118.886 65.4938 119.21 65.9674 119.21 66.1776C119.21 66.388 119.317 66.5598 119.448 66.5598C119.58 66.5598 119.688 66.775 119.688 67.0379C119.688 67.3009 119.795 67.5161 119.926 67.5161C120.084 67.5161 120.165 60.6627 120.165 47.4342V27.3522H115.384H110.603V28.7866C110.603 29.5834 110.496 30.2211 110.364 30.2211C110.224 30.2211 110.125 31.0178 110.125 32.1336C110.125 33.2494 110.025 34.0462 109.885 34.0462C109.746 34.0462 109.646 34.843 109.646 35.9588C109.646 37.0745 109.547 37.8713 109.407 37.8713C109.276 37.8713 109.168 38.0865 109.168 38.3495C109.168 38.6124 109.061 38.8276 108.929 38.8276C108.793 38.8276 108.69 38.1104 108.69 37.1541C108.69 36.1978 108.588 35.4806 108.451 35.4806C108.318 35.4806 108.212 34.843 108.212 34.0462C108.212 33.2494 108.106 32.6118 107.973 32.6118C107.836 32.6118 107.734 31.8945 107.734 30.9382C107.734 29.9819 107.631 29.2648 107.495 29.2648C107.363 29.2648 107.256 28.8344 107.256 28.3085V27.3522H102.474H97.6929V44.2237ZM125.903 27.8303C125.903 28.0933 125.796 28.3085 125.664 28.3085C125.525 28.3085 125.425 29.1053 125.425 30.2211C125.425 31.3368 125.326 32.1336 125.186 32.1336C125.047 32.1336 124.947 32.9304 124.947 34.0462C124.947 35.1619 124.847 35.9588 124.707 35.9588C124.566 35.9588 124.469 36.8354 124.469 38.1104C124.469 39.3854 124.371 40.262 124.23 40.262C124.09 40.262 123.991 41.0588 123.991 42.1746C123.991 43.2903 123.891 44.0872 123.752 44.0872C123.612 44.0872 123.512 44.884 123.512 45.9998C123.512 47.1154 123.413 47.9123 123.274 47.9123C123.132 47.9123 123.034 48.789 123.034 50.0639C123.034 51.3388 122.937 52.2155 122.795 52.2155C122.656 52.2155 122.557 53.0124 122.557 54.1281C122.557 55.2439 122.456 56.0406 122.317 56.0406C122.178 56.0406 122.078 56.8375 122.078 57.9532C122.078 59.069 121.979 59.8658 121.839 59.8658C121.7 59.8658 121.6 60.6627 121.6 61.7784C121.6 62.8941 121.5 63.6909 121.36 63.6909C121.228 63.6909 121.122 64.3286 121.122 65.1254C121.122 65.9222 121.228 66.5598 121.36 66.5598C121.492 66.5598 121.6 66.3446 121.6 66.0816C121.6 65.8187 121.707 65.6035 121.839 65.6035C121.97 65.6035 122.078 65.4397 122.078 65.2397C122.078 64.7663 124.588 62.2565 125.061 62.2565C125.261 62.2565 125.425 62.1489 125.425 62.0175C125.425 61.8859 125.641 61.7784 125.903 61.7784C126.166 61.7784 126.381 61.6708 126.381 61.5393C126.381 61.4078 126.873 61.3002 127.474 61.3002C129.107 61.3002 129.25 61.0411 129.25 58.0898V55.5625H130.685H132.119V58.4314V61.3002H135.944H139.769V60.3439C139.769 59.818 139.661 59.3876 139.53 59.3876C139.387 59.3876 139.291 58.4314 139.291 56.9969C139.291 55.5625 139.195 54.6062 139.052 54.6062C138.911 54.6062 138.813 53.7296 138.813 52.4546C138.813 51.1797 138.716 50.303 138.574 50.303C138.432 50.303 138.335 49.4263 138.335 48.1513C138.335 46.968 138.235 45.9998 138.113 45.9998C137.99 45.9998 137.828 44.9777 137.754 43.7286C137.679 42.4794 137.556 40.4353 137.481 39.1863C137.407 37.9371 137.245 36.9151 137.123 36.9151C137 36.9151 136.901 35.9468 136.901 34.7634C136.901 33.4884 136.803 32.6118 136.661 32.6118C136.52 32.6118 136.422 31.7351 136.422 30.4601C136.422 29.1852 136.325 28.3085 136.184 28.3085C136.052 28.3085 135.944 28.0933 135.944 27.8303C135.944 27.3672 135.784 27.3522 130.923 27.3522C126.062 27.3522 125.903 27.3672 125.903 27.8303ZM173.718 44.5653V61.7784H176.961C179.455 61.7784 180.286 61.6992 180.548 61.4368C180.829 61.1558 180.889 59.802 180.889 53.7865V46.4779H181.504C182.784 46.4779 182.802 46.5807 182.802 54.1281C182.802 61.8515 182.787 61.7784 184.339 61.7784C184.808 61.7784 185.193 61.8859 185.193 62.0175C185.193 62.1489 185.408 62.2565 185.671 62.2565C185.934 62.2565 186.149 62.3641 186.149 62.4956C186.149 62.6271 186.315 62.7346 186.519 62.7346C186.971 62.7346 188.062 63.7887 188.062 64.225C188.062 64.3991 188.277 64.6967 188.54 64.8863C188.803 65.0759 189.018 65.4223 189.018 65.6563C189.018 65.8901 189.125 66.0816 189.257 66.0816C189.412 66.0816 189.496 62.7346 189.496 56.5188C189.496 50.303 189.412 46.956 189.257 46.956C189.125 46.956 189.018 46.7911 189.018 46.5895C189.018 46.1699 187.494 44.5653 187.097 44.5653C186.821 44.5653 186.149 43.9836 186.149 43.7455C186.149 43.6704 186.422 43.609 186.755 43.609C187.562 43.609 189.018 42.1533 189.018 41.3457C189.018 41.0127 189.125 40.7402 189.257 40.7402C189.407 40.7402 189.496 39.2261 189.496 36.6759C189.496 34.1258 189.407 32.6118 189.257 32.6118C189.125 32.6118 189.018 32.289 189.018 31.8945C189.018 31.5001 188.91 31.1773 188.779 31.1773C188.647 31.1773 188.54 30.9622 188.54 30.6992C188.54 30.4362 188.432 30.2211 188.3 30.2211C188.169 30.2211 188.062 30.0549 188.062 29.8517C188.062 29.3733 186.997 28.3085 186.519 28.3085C186.315 28.3085 186.149 28.2009 186.149 28.0694C186.149 27.9379 185.826 27.8303 185.431 27.8303C185.038 27.8303 184.714 27.7228 184.714 27.5913C184.714 27.4387 182.722 27.3522 179.216 27.3522H173.718V44.5653ZM190.452 47.6732C190.452 61.0612 190.534 67.9942 190.692 67.9942C190.823 67.9942 190.93 67.779 190.93 67.5161C190.93 67.2531 191.038 67.0379 191.169 67.0379C191.301 67.0379 191.409 66.8227 191.409 66.5598C191.409 66.2968 191.516 66.0816 191.647 66.0816C191.779 66.0816 191.887 65.8665 191.887 65.6035C191.887 65.3405 191.994 65.1254 192.126 65.1254C192.257 65.1254 192.365 64.9612 192.365 64.7605C192.365 64.286 194.394 62.2565 194.869 62.2565C195.07 62.2565 195.234 62.1489 195.234 62.0175C195.234 61.8859 195.449 61.7784 195.711 61.7784C195.974 61.7784 196.19 61.6708 196.19 61.5393C196.19 61.4078 196.513 61.3002 196.908 61.3002H197.625V44.3262V27.3522H194.039H190.452V47.6732ZM216.272 44.3262C216.272 61.1408 216.277 61.3002 216.75 61.3002C217.013 61.3002 217.228 61.4078 217.228 61.5393C217.228 61.6708 217.508 61.7784 217.85 61.7784C218.231 61.7784 218.728 62.0545 219.141 62.4956C219.509 62.89 219.983 63.2128 220.192 63.2128C220.403 63.2128 220.575 63.3847 220.575 63.5951C220.575 63.8052 220.898 64.2788 221.293 64.6472C221.687 65.0157 222.01 65.4893 222.01 65.6994C222.01 65.9098 222.117 66.0816 222.248 66.0816C222.38 66.0816 222.488 66.2968 222.488 66.5598C222.488 66.8227 222.595 67.0379 222.727 67.0379C222.858 67.0379 222.965 67.2531 222.965 67.5161C222.965 67.779 223.073 67.9942 223.205 67.9942C223.361 67.9942 223.444 64.4878 223.444 57.9532C223.444 51.4187 223.527 47.9123 223.683 47.9123C223.815 47.9123 223.922 48.4502 223.922 49.1076C223.922 49.7651 224.03 50.303 224.162 50.303C224.293 50.303 224.4 50.8409 224.4 51.4983C224.4 52.1558 224.507 52.6937 224.639 52.6937C224.771 52.6937 224.879 53.2316 224.879 53.8891C224.879 54.5465 224.986 55.0844 225.117 55.0844C225.249 55.0844 225.357 55.6223 225.357 56.2798C225.357 56.9372 225.464 57.4751 225.596 57.4751C225.729 57.4751 225.835 58.1127 225.835 58.9095C225.835 59.7064 225.94 60.3439 226.074 60.3439C226.205 60.3439 226.313 60.5591 226.313 60.8221C226.313 61.279 226.472 61.3002 229.899 61.3002H233.485V60.3439C233.485 59.818 233.378 59.3876 233.246 59.3876C233.115 59.3876 233.007 58.9574 233.007 58.4314C233.007 57.9054 232.9 57.4751 232.768 57.4751C232.636 57.4751 232.528 57.0448 232.528 56.5188C232.528 55.9929 232.421 55.5625 232.29 55.5625C232.158 55.5625 232.05 55.0247 232.05 54.3672C232.05 53.7097 231.943 53.1718 231.811 53.1718C231.68 53.1718 231.573 52.7415 231.573 52.2155C231.573 51.6896 231.465 51.2593 231.333 51.2593C231.202 51.2593 231.094 50.829 231.094 50.303C231.094 49.777 230.986 49.3468 230.855 49.3468C230.723 49.3468 230.616 48.9164 230.616 48.3905C230.616 47.8644 230.508 47.4342 230.378 47.4342C230.246 47.4342 230.138 47.0038 230.138 46.4779C230.138 45.9519 230.031 45.5216 229.899 45.5216C229.768 45.5216 229.66 45.0913 229.66 44.5653C229.66 44.0393 229.552 43.609 229.421 43.609C229.289 43.609 229.181 43.1787 229.181 42.6528C229.181 42.1267 229.289 41.6965 229.421 41.6965C229.552 41.6965 229.66 41.2661 229.66 40.7402C229.66 40.2142 229.768 39.7839 229.899 39.7839C230.031 39.7839 230.138 39.4611 230.138 39.0666C230.138 38.6722 230.246 38.3495 230.378 38.3495C230.508 38.3495 230.616 37.9191 230.616 37.3932C230.616 36.8672 230.723 36.4369 230.855 36.4369C230.986 36.4369 231.094 36.0066 231.094 35.4806C231.094 34.9547 231.19 34.5243 231.307 34.5243C231.424 34.5243 231.586 34.1478 231.666 33.6876C231.746 33.2274 231.877 32.4743 231.957 32.0141C232.037 31.5539 232.199 31.1773 232.316 31.1773C232.433 31.1773 232.528 30.747 232.528 30.2211C232.528 29.6951 232.636 29.2648 232.768 29.2648C232.9 29.2648 233.007 28.942 233.007 28.5476C233.007 28.1531 233.115 27.8303 233.246 27.8303C233.378 27.8303 233.485 27.7228 233.485 27.5913C233.485 27.4426 232.13 27.3522 229.899 27.3522H226.313V28.3085C226.313 28.8344 226.205 29.2648 226.074 29.2648C225.942 29.2648 225.835 29.6951 225.835 30.2211C225.835 30.747 225.727 31.1773 225.596 31.1773C225.464 31.1773 225.357 31.7153 225.357 32.3727C225.357 33.0301 225.249 33.5681 225.117 33.5681C224.986 33.5681 224.879 33.9984 224.879 34.5243C224.879 35.0503 224.771 35.4806 224.639 35.4806C224.507 35.4806 224.4 35.911 224.4 36.4369C224.4 36.9628 224.293 37.3932 224.162 37.3932C224.03 37.3932 223.922 37.8235 223.922 38.3495C223.922 38.8754 223.815 39.3058 223.683 39.3058C223.53 39.3058 223.444 37.1541 223.444 33.3289V27.3522H219.858H216.272V44.3262ZM182.46 33.4316C182.721 33.6929 182.802 34.5107 182.802 36.9151C182.802 40.3297 182.662 40.7402 181.504 40.7402H180.889V36.9151V33.0899H181.504C181.842 33.0899 182.272 33.2436 182.46 33.4316ZM131.163 39.5448C131.163 41.1387 131.257 42.1746 131.402 42.1746C131.545 42.1746 131.641 43.1309 131.641 44.5653C131.641 45.9998 131.736 46.956 131.88 46.956C132.012 46.956 132.119 47.4939 132.119 48.1513V49.3468H130.923H129.728V46.7169C129.728 45.1231 129.822 44.0872 129.968 44.0872C130.116 44.0872 130.206 42.7324 130.206 40.5011C130.206 37.0745 130.228 36.9151 130.685 36.9151C131.134 36.9151 131.163 37.0745 131.163 39.5448Z" fill="white"/>
<path d="M88.674 42.837C88.674 60.97 73.9701 75.674 55.837 75.674C37.704 75.674 23 60.97 23 42.837C23 24.7039 37.704 10 55.837 10C73.9701 10 88.674 24.7039 88.674 42.837Z" fill="#AC2216"/>
<path d="M78.9902 26.7339C66.3437 28.3525 55.8369 44.4555 55.8369 44.4555C55.8369 44.4555 45.3577 28.3525 32.6837 26.7339C32.6837 26.7339 20.0372 44.2635 39.6517 67.4167C34.8509 48.7899 39.6517 42.0962 39.6517 42.0962C39.6517 42.0962 38.8286 39.2159 37.4844 38.3928C39.734 38.8318 51.3106 45.9094 55.8369 59.3789C60.3634 45.9094 71.94 38.8592 74.1895 38.3928C72.8453 39.2159 72.0223 42.0962 72.0223 42.0962C72.0223 42.0962 76.823 48.7899 72.0223 67.4167C91.6368 44.2635 78.9902 26.7339 78.9902 26.7339Z" fill="white"/>
</svg>
