<?xml version="1.0" encoding="UTF-8"?>
<svg id="Layer_1" data-name="Layer 1" xmlns="http://www.w3.org/2000/svg" xmlns:xlink="http://www.w3.org/1999/xlink" viewBox="0 0 255.12 85.04"><defs><linearGradient id="linear-gradient" x1="1928.06" y1="2034.56" x2="2011.9" y2="2179.77" gradientTransform="matrix(0.3, 0, 0, -0.3, -553.7, 674.66)" gradientUnits="userSpaceOnUse"><stop offset="0" stop-color="#3fa860"/><stop offset="0.9" stop-color="#00a4e1"/></linearGradient><linearGradient id="linear-gradient-2" x1="79.53" y1="1777.24" x2="93.47" y2="1801.39" gradientTransform="matrix(1, 0, 0, -1, 0, 1832.96)" xlink:href="#linear-gradient"/><linearGradient id="linear-gradient-3" x1="119.2" y1="1780.45" x2="128.46" y2="1796.47" gradientTransform="matrix(1, 0, 0, -1, 0, 1832.96)" xlink:href="#linear-gradient"/><linearGradient id="linear-gradient-4" x1="134.22" y1="1779.43" x2="142.92" y2="1794.51" gradientTransform="matrix(1, 0, 0, -1, 0, 1832.96)" xlink:href="#linear-gradient"/><linearGradient id="linear-gradient-5" x1="107.98" y1="1779.4" x2="116.65" y2="1794.41" gradientTransform="matrix(1, 0, 0, -1, 0, 1832.96)" xlink:href="#linear-gradient"/><linearGradient id="linear-gradient-6" x1="186.41" y1="1776.11" x2="198.34" y2="1796.78" gradientTransform="matrix(1, 0, 0, -1, 0, 1832.96)" xlink:href="#linear-gradient"/><linearGradient id="linear-gradient-7" x1="207.62" y1="1797.01" x2="209.38" y2="1800.06" gradientTransform="matrix(1, 0, 0, -1, 0, 1832.96)" xlink:href="#linear-gradient"/><linearGradient id="linear-gradient-8" x1="204.75" y1="1780.4" x2="212.33" y2="1793.53" gradientTransform="matrix(1, 0, 0, -1, 0, 1832.96)" xlink:href="#linear-gradient"/><linearGradient id="linear-gradient-9" x1="100.46" y1="1796.84" x2="102.22" y2="1799.89" gradientTransform="matrix(1, 0, 0, -1, 0, 1832.96)" xlink:href="#linear-gradient"/><linearGradient id="linear-gradient-10" x1="97.59" y1="1780.24" x2="105.17" y2="1793.36" gradientTransform="matrix(1, 0, 0, -1, 0, 1832.96)" xlink:href="#linear-gradient"/><linearGradient id="linear-gradient-11" x1="214.9" y1="1778.09" x2="224.46" y2="1794.65" gradientTransform="matrix(1, 0, 0, -1, 0, 1832.96)" xlink:href="#linear-gradient"/><linearGradient id="linear-gradient-12" x1="230.52" y1="1774.19" x2="242.66" y2="1795.21" gradientTransform="matrix(1, 0, 0, -1, 0, 1832.96)" xlink:href="#linear-gradient"/><linearGradient id="linear-gradient-13" x1="149.07" y1="1774.19" x2="161.21" y2="1795.21" gradientTransform="matrix(1, 0, 0, -1, 0, 1832.96)" xlink:href="#linear-gradient"/><linearGradient id="linear-gradient-14" x1="167.83" y1="1778.85" x2="177.28" y2="1795.2" gradientTransform="matrix(1, 0, 0, -1, 0, 1832.96)" xlink:href="#linear-gradient"/><linearGradient id="linear-gradient-15" x1="176.01" y1="1794.83" x2="176.1" y2="1794.99" gradientTransform="matrix(1, 0, 0, -1, 0, 1832.96)" xlink:href="#linear-gradient"/></defs><title>Microgaming_game_provider_footer</title><path id="_Path_" data-name="&lt;Path&gt;" d="M37.33,17.39A25.25,25.25,0,0,0,12.12,42.6a23.48,23.48,0,0,0,1.08,7.24C19.86,40.94,27.43,27.21,28.26,25c.83-1.91,1.5-2.83,3.74-2.41.58.17,1.58,1.16,1.33,3.24-1.5,11.9-.25,30.37,2.58,28,2.58-2.08,8.4-13.48,10.23-17.89.92-2.33,1.41-3.66,3.49-3.49,1.66.17,1.91,2,1.91,2.58A32.61,32.61,0,0,0,56,49.76c.83,1.41-.58,1.5-2.58-.67A27.13,27.13,0,0,1,49,41.36c-.33-1-7.24,19.88-15.14,17.39-6.07-1.83-6.07-15.64-5.74-22.3.08-.67-6.32,12.48-11.81,19.88a25.15,25.15,0,1,0,21-38.94Z" fill="url(#linear-gradient)"/><polygon points="93.32 35.03 87 54.17 85.83 54.17 79.51 35.03 79.18 35.03 79.18 54.17 76.85 54.17 76.85 33.12 81.09 33.12 86.5 49.51 86.5 49.51 91.83 33.12 96.15 33.12 96.15 54.17 93.82 54.17 93.74 35.03 93.32 35.03" fill="url(#linear-gradient-2)"/><path d="M130.43,39.52a8.05,8.05,0,0,0-4,.5,9.19,9.19,0,0,0-2.08,1.25V53.92h-2.66V37.86h1.91l.33,1.66a6.19,6.19,0,0,1,2.25-1.33c2.41-.83,4-.75,4.41-.5Z" fill="url(#linear-gradient-3)"/><path d="M145.16,41.52a5.24,5.24,0,0,0-1.25-2.33,4.65,4.65,0,0,0-2.16-1.25,16.76,16.76,0,0,0-3.16-.33,11.89,11.89,0,0,0-3.16.33,4.65,4.65,0,0,0-2.16,1.25A4.83,4.83,0,0,0,132,41.52,13.86,13.86,0,0,0,131.6,45v1.75a14.79,14.79,0,0,0,.42,3.66,5.24,5.24,0,0,0,1.25,2.33A4.65,4.65,0,0,0,135.42,54a16.76,16.76,0,0,0,3.16.33,11.89,11.89,0,0,0,3.16-.33,4.65,4.65,0,0,0,2.16-1.25,4.83,4.83,0,0,0,1.25-2.33,14.79,14.79,0,0,0,.42-3.66V45A13.38,13.38,0,0,0,145.16,41.52ZM143,46.68a16.67,16.67,0,0,1-.17,3.08,3.87,3.87,0,0,1-.75,1.66,2.45,2.45,0,0,1-1.33.83,7.09,7.09,0,0,1-2.08.25,7.49,7.49,0,0,1-2.08-.25,2.45,2.45,0,0,1-1.33-.83,4.36,4.36,0,0,1-.67-1.66,29.74,29.74,0,0,1-.17-3.08V44.93a14.81,14.81,0,0,1,.17-2.91,3.06,3.06,0,0,1,.67-1.66,2.45,2.45,0,0,1,1.33-.83,7.09,7.09,0,0,1,2.08-.25,7.49,7.49,0,0,1,2.08.25,2.8,2.8,0,0,1,1.33.83,3.42,3.42,0,0,1,.75,1.66,21.5,21.5,0,0,1,.17,2.66Z" fill="url(#linear-gradient-4)"/><path d="M118.78,48.76a9.55,9.55,0,0,1-.08,1.58,3.83,3.83,0,0,1-1.08,2.41A4.65,4.65,0,0,1,115.45,54a11.89,11.89,0,0,1-3.16.33,16.76,16.76,0,0,1-3.16-.33,4,4,0,0,1-2-1.16,5.24,5.24,0,0,1-1.25-2.33,14.79,14.79,0,0,1-.42-3.66V45a13.86,13.86,0,0,1,.42-3.49,4.83,4.83,0,0,1,1.25-2.33,4.39,4.39,0,0,1,2-1.16,11.89,11.89,0,0,1,3.16-.33,16.76,16.76,0,0,1,3.16.33,4.65,4.65,0,0,1,2.16,1.25,4,4,0,0,1,1,2.33,4.92,4.92,0,0,1,.08,1.58h-2.25a6.14,6.14,0,0,0-.67-2.83,2.8,2.8,0,0,0-1.33-.83,7.49,7.49,0,0,0-2.08-.25,7.09,7.09,0,0,0-2.08.25,2.45,2.45,0,0,0-1.33.83A3.06,3.06,0,0,0,108.3,42a14.81,14.81,0,0,0-.17,2.91v1.75a29.74,29.74,0,0,0,.17,3.08,4.36,4.36,0,0,0,.67,1.66,2.45,2.45,0,0,0,1.33.83,7.49,7.49,0,0,0,2.08.25,7.09,7.09,0,0,0,2.08-.25,2.45,2.45,0,0,0,1.33-.83,4.7,4.7,0,0,0,.67-2.66" fill="url(#linear-gradient-5)"/><path d="M183.68,39.36a11.24,11.24,0,0,1,2.83-1.41,10.67,10.67,0,0,1,2.5-.33,6.08,6.08,0,0,1,2.66.5,4.58,4.58,0,0,1,1.58,1.25,17.46,17.46,0,0,1,2.5-1.25,9.12,9.12,0,0,1,3-.58,8,8,0,0,1,2.66.5,2.8,2.8,0,0,1,1.41.92,6.33,6.33,0,0,1,.92,2,5.86,5.86,0,0,1,.08,1.75V54l-2.41.08V42.77a3.68,3.68,0,0,0-.83-2.5,3.22,3.22,0,0,0-2.33-1,6.9,6.9,0,0,0-2.5.33,5.9,5.9,0,0,0-1.83,1.08l.08,13.4h-2.33V42.77a4.13,4.13,0,0,0-.17-1.5,3,3,0,0,0-.83-1.25,2.27,2.27,0,0,0-1.08-.58,5.21,5.21,0,0,0-1.33-.17,6.44,6.44,0,0,0-4.33,1.5L183.84,54h-2.33V38h1.91Z" fill="url(#linear-gradient-6)"/><rect x="207.22" y="33.12" width="2.58" height="2.58" fill="url(#linear-gradient-7)"/><rect x="207.31" y="37.94" width="2.5" height="16.06" fill="url(#linear-gradient-8)"/><rect x="100.06" y="33.28" width="2.58" height="2.58" fill="url(#linear-gradient-9)"/><rect x="100.15" y="38.11" width="2.5" height="16.06" fill="url(#linear-gradient-10)"/><path d="M215.13,38l.33,1.58a13.77,13.77,0,0,1,2.66-1.41,8.7,8.7,0,0,1,3-.5,8.09,8.09,0,0,1,2.58.33,4.4,4.4,0,0,1,1.75.92,5.07,5.07,0,0,1,1,1.75,11,11,0,0,1,.33,2.66V54h-2.66V43.35a10,10,0,0,0-.25-2.33,2,2,0,0,0-.67-1.08,4.48,4.48,0,0,0-1.08-.58,9.22,9.22,0,0,0-1.58-.17,8.71,8.71,0,0,0-2.5.42,7,7,0,0,0-2.25,1.08V53.92h-2.5v-16A12.88,12.88,0,0,0,215.13,38Z" fill="url(#linear-gradient-11)"/><path d="M240.92,37.94l-.08,1.58a9.23,9.23,0,0,0-2.5-1.41,7.21,7.21,0,0,0-2.66-.5,11.43,11.43,0,0,0-2.58.33A4,4,0,0,0,231.19,39a4.94,4.94,0,0,0-1.25,2.25,14.3,14.3,0,0,0-.42,3.66v1.91a14.3,14.3,0,0,0,.42,3.66,5.69,5.69,0,0,0,1.25,2.25,4,4,0,0,0,1.91,1.08,8.42,8.42,0,0,0,2.58.33,6.68,6.68,0,0,0,2.5-.5,11.23,11.23,0,0,0,2.16-1.25l.08,1.75a5.53,5.53,0,0,1-.25,1.75,2.27,2.27,0,0,1-.67,1.16,5.77,5.77,0,0,1-1.41.83,28.78,28.78,0,0,1-6,0l-.33,1.58a10.56,10.56,0,0,0,2.41.33c.92.08,1.75-.08,2.58-.08,2.25,0,3.58-.25,4.58-1.16A6.09,6.09,0,0,0,243,54.17V37.94Zm-.42,12.9a6.2,6.2,0,0,1-2.08,1.08,6.83,6.83,0,0,1-2.5.42,5.53,5.53,0,0,1-1.75-.25,2.56,2.56,0,0,1-1.25-.83,9.33,9.33,0,0,1-.67-2,10.78,10.78,0,0,1-.25-2.58V44.85a10.5,10.5,0,0,1,.25-2.5,6.28,6.28,0,0,1,.83-2,2.56,2.56,0,0,1,1.25-.83,5.53,5.53,0,0,1,1.75-.25,5.1,5.1,0,0,1,2.16.33A6.41,6.41,0,0,1,240.5,41v9.82Z" fill="url(#linear-gradient-12)"/><path d="M159.47,37.94l-.08,1.58a10.67,10.67,0,0,0-2.5-1.41,7.21,7.21,0,0,0-2.66-.5,11.43,11.43,0,0,0-2.58.33A4,4,0,0,0,149.73,39a4.94,4.94,0,0,0-1.25,2.25,14.3,14.3,0,0,0-.42,3.66v1.91a14.3,14.3,0,0,0,.42,3.66,5.69,5.69,0,0,0,1.25,2.25,4,4,0,0,0,1.91,1.08,8.42,8.42,0,0,0,2.58.33,6.68,6.68,0,0,0,2.5-.5,11.23,11.23,0,0,0,2.16-1.25H159v1.75a5.53,5.53,0,0,1-.25,1.75,2.27,2.27,0,0,1-.67,1.16,4,4,0,0,1-1.41.83,28.78,28.78,0,0,1-6,0l-.33,1.58a10.56,10.56,0,0,0,2.41.33c.92.08,1.75-.08,2.58-.08,2.25,0,3.58-.25,4.58-1.16a6.09,6.09,0,0,0,1.66-4.41V37.94Zm-.42,12.9A6.2,6.2,0,0,1,157,51.92a6.83,6.83,0,0,1-2.5.42,5.53,5.53,0,0,1-1.75-.25,2.56,2.56,0,0,1-1.25-.83,9.33,9.33,0,0,1-.67-2,10.78,10.78,0,0,1-.25-2.58V44.85a10.5,10.5,0,0,1,.25-2.5,6.28,6.28,0,0,1,.83-2,2.56,2.56,0,0,1,1.25-.83,5.53,5.53,0,0,1,1.75-.25,5.1,5.1,0,0,1,2.16.33A6.41,6.41,0,0,1,159.05,41Z" fill="url(#linear-gradient-13)"/><path d="M176.11,38.11l-.25,1.16a19.15,19.15,0,0,0-2.75-1.41,8.4,8.4,0,0,0-3.74-.17,10,10,0,0,0-2.58,1.08,6.36,6.36,0,0,0-1.41,1.91,9.43,9.43,0,0,0-.5,2.66,30.45,30.45,0,0,0,0,6.16,8.91,8.91,0,0,0,1.25,3.33,6.2,6.2,0,0,0,2.58,1.5,10.3,10.3,0,0,0,3.91,0,15.47,15.47,0,0,0,3.16-1.58l.33,1.41H178V38.11Zm-.5,13a15.79,15.79,0,0,1-2.91,1.41,7.16,7.16,0,0,1-2.66,0,3.88,3.88,0,0,1-2-1.25,3.62,3.62,0,0,1-.58-1.91,22.87,22.87,0,0,1,0-6.74,4.29,4.29,0,0,1,.42-1.75,3.17,3.17,0,0,1,1.5-1.33,7.62,7.62,0,0,1,3.08-.25,24.72,24.72,0,0,1,3.16,1.25V51.09Z" fill="url(#linear-gradient-14)"/><polygon points="176.02 37.94 176.02 38.11 176.11 38.11 176.11 37.94 176.02 37.94" fill="url(#linear-gradient-15)"/></svg>