<?xml version="1.0" encoding="UTF-8"?>
<svg id="Layer_1" data-name="Layer 1" xmlns="http://www.w3.org/2000/svg" viewBox="0 0 255.12 85.04"><title>Netend_game_provider_footer</title><path d="M190.65,23.65H216V31h-8.84V62.27h-7.66V31h-8.84Zm-32.72,0h6.78l15,23.58V23.65h7.66V62.27h-6.78l-15-23.58V62.27h-7.66Zm-24.17,0h20V31H136.11v8.25h15v7.37h-15V54.9H153.8v7.37h-20v13h-1.47V9.8h1.47Z" fill="#5fbf00"/><path d="M72.73,23.65H98.08V31H80.69v8.25h15v7.37h-15V54.9H98.08v7.37H72.73Zm-33.61,0H46.2L60.94,47.24V23.65H68.6V62.27H61.82l-15-23.58V62.27H39.12Zm62.5,0H127V31h-8.84V62.27h-7.66V31h-8.84Z" fill="#fff"/></svg>