<?xml version="1.0" encoding="UTF-8"?>
<svg id="Layer_1" data-name="Layer 1" xmlns="http://www.w3.org/2000/svg" viewBox="0 0 255.12 85.04"><title>Novomatic_game_provider_footer</title><path d="M27.58,52.71h6.67v-.57c-.29,0-.67,0-.67-.48V32L52,51.47c.29.67-.48.57-.86.57v.67h7v-.57c-.29,0-.67,0-.76-.67V24.81c0-.38.38-.48.76-.48v-.57h-7v.57c.67,0,.86.09.86.76V43L35.1,24.81c-.19-.38-.19-.57.57-.48v-.57H27.58v.57c.48-.09.76-.09.76.38l-.09,26.95c0,.38-.19.38-.67.48Zm195.49-2.86c1.52-1,1-.76,2.19-1.52.29-.19,1.33-1,1.81-.19l.48-.29-4.09-5.9-.48.29a2.3,2.3,0,0,1-1.14,2.48c-10.28,8.86-25.14,1.14-20.76-10.76,3.62-8.28,14.66-7.52,20.47-3.71a1.54,1.54,0,0,1,.57,1.43l.67.19,3.71-6-.38-.29c-1.43.86-1.24.57-2.67-.09a23.48,23.48,0,0,0-15.24-2c-9.52,2-14.28,8.76-12.57,18,3.43,11.33,17.71,14.76,27.43,8.38ZM88.9,49.19h5.33v-.47c-.48,0-.57-.29-.48-.67l8.09-18.47c.19-.67.48-.67.67-.67v-.38H97.28v.38c.38,0,.67.19.57.57l-5.9,14.28L85.38,29.67c-.09-.29-.19-.76.48-.76v-.38H80.24v.38c.76.09.67.38.86.67l8.19,18.57a.41.41,0,0,1-.38.57v.47ZM169.36,48,164,36.62l-3.14-6.86c-.19-.29-.29-.86.48-.86v-.38h-5.9v.38c.67,0,.67.48.57.76q-1.71,3.43-3.24,7c-.38.86-.86,1.71-1.24,2.57l-4.09,9c-.1.29-.1.48-.48.48v.47h4.86v-.47c-.67,0-.38-.57-.29-1l2-4.38h9.52l2.09,4.38c.09.48.19,1-.57,1v.47H170v-.47c-.48,0-.48-.19-.67-.67ZM161,39.95h-5.81c-.09,0-.09-.09-.09-.19l1.43-3.14L158,33.19l1.62,3.43,1.43,3.14c0,.19-.1.19-.1.19Z" fill="#fff"/><path d="M147.37,48.71c-.38,0-.67-.1-.67-.57V29.38c0-.29.29-.38.57-.48v-.38h-6v.38c.29,0,.67.38.57.57l-6.28,11.62-6-11.43a.53.53,0,0,1,.57-.76v-.38h-5.9v.38a.62.62,0,0,1,.67.76V48.23c0,.29-.29.48-.67.48v.47h4.57v-.47c-.38,0-.67-.1-.67-.48V35.38l7.24,13.81,7.52-14.09v13a.56.56,0,0,1-.57.57v.47h5v-.47Zm30.95.47v-.47c-.29-.1-.67,0-.76-.48l.1-15.81h7c.57,0,.67.19.67.57h.48V28.52h-.48c0,.38-.1.38-.86.48H166.89c-.29-.09-.57-.09-.67-.38l-.29-.09V33h.38c0-.38,0-.57.57-.57h6.67V48.23c0,.38-.38.48-.67.48v.47h5.43Zm14.76,0v-.47a.68.68,0,0,1-.76-.67V29.57c0-.48.19-.67.67-.67v-.38h-5.43v.38c.76,0,.67.29.67.67l.09,18.57a.72.72,0,0,1-.76.57v.47h5.52ZM82.62,38.71c-.38-5.62-5-10.19-11.62-10.19-6.76,0-11.71,4.38-11.9,10.19V39c0,5.9,4.76,10.19,11.52,10.19,7,0,12.09-3.9,12.09-9.81A1.61,1.61,0,0,0,82.62,38.71Zm-3.43.38c0,4.1-3.62,6.86-8.38,6.86s-8.19-3-8.19-7.24,3.62-7.24,8.38-7.24,8,3.24,8.19,7.24v.38Zm44.66-.38c-.38-5.62-5-10.19-11.62-10.19-6.86,0-11.71,4.38-11.9,10.19V39c0,5.9,4.67,10.19,11.52,10.19s12-3.9,12-9.81Zm-3.43.38c0,4.1-3.62,6.86-8.47,6.86s-8.09-3-8.09-7.24,3.52-7.24,8.38-7.24c4.67,0,8,3.24,8.19,7.24ZM63.29,59.76H62a.21.21,0,0,0-.19.19h-.09V58.52h.09a.2.2,0,0,0,.19.19H65.1v.1a.2.2,0,0,0-.19.19V60.8c0,.1,0,.19.09.19h.1v.09a7.57,7.57,0,0,1-3.43.76c-1.71,0-3.43-1-3.43-2.86s1.71-2.86,3.43-2.86a5.24,5.24,0,0,1,1.71.19,4.4,4.4,0,0,1,.76.29c.09,0,.19,0,.19-.1l.1.1L63.76,58l-.09-.1v-.09c0-.19-1-.57-1.9-.57a1.78,1.78,0,0,0-2,1.71,1.92,1.92,0,0,0,2.09,1.71,5.74,5.74,0,0,0,1.43-.19v-.76ZM69,57.38h1.81c.67,0,.86.29.86.57s-.19.57-.86.57H69Zm0,2.28h1c.19.29,1.33,1.71,1.33,1.81s-.1.19-.29.19v.19h2.19v-.19c-.1,0-.19,0-.29-.19l-1.24-1.71a1.92,1.92,0,0,0,1.52-1.81c0-1.24-.67-1.81-2.29-1.81H67.19v.19c.19,0,.29.1.29.19v5c0,.1-.09.19-.29.19v.19h2.19v-.19c-.29,0-.38-.09-.38-.19Zm9.62-2.28A1.62,1.62,0,1,1,76.9,59,1.57,1.57,0,0,1,78.62,57.38Zm0-1.24c-1.81,0-3.33,1-3.33,2.86s1.52,2.86,3.33,2.86,3.33-1,3.33-2.86S80.43,56.14,78.62,56.14Zm10.09.38c0-.09,0-.19-.29-.19v-.19h2.19v.19c-.29,0-.29.1-.29.19v2.86c0,1.91-1.33,2.48-3,2.48s-2.86-.57-2.86-2.48V56.52c0-.09-.09-.19-.29-.19v-.19h2.09v.19c-.19,0-.29.1-.29.19v2.86c0,.86.48,1.14,1.33,1.14s1.33-.29,1.33-1.14V56.52Zm6.38.86h1.62q.86,0,.86.57c0,.48-.29.67-.86.67H95.09Zm0,2.38H97a1.83,1.83,0,1,0,0-3.62H93.28v.19c.19,0,.29.1.29.19v5c0,.1-.09.19-.29.19v.19h2.19v-.19c-.29,0-.38-.09-.38-.19V59.76Zm13.14-2.38a1.62,1.62,0,1,1,0,3.24,1.62,1.62,0,1,1,0-3.24Zm0-1.24c-1.81,0-3.33,1-3.33,2.86s1.52,2.86,3.33,2.86,3.33-1,3.33-2.86S110,56.14,108.23,56.14Zm11.24,1.62h-.09c0-.19-.09-.29-.19-.29h-3.52v1H118c.1,0,.19,0,.19-.19h.1V60h-.1c0-.29-.09-.38-.19-.38h-2.38v1.81c0,.1,0,.19.29.19v.19h-2.19v-.19c.29,0,.29-.09.29-.19v-5c0-.09,0-.19-.29-.19v-.19h5.43c.09,0,.19,0,.19-.29h.09v1.91h0Zm11.43.47-.1-.09V58c0-.19-.76-.48-1.71-.48s-1.9.38-1.9,1.43,1,1.43,1.9,1.43c.38,0,1.81-.29,1.81-.57,0-.1,0-.1-.1-.19H131l1,1.62-.1.09c-.1-.09-.1-.09-.19-.09a8,8,0,0,1-2.76.57c-1.71,0-3.52-1-3.52-2.86s1.81-2.86,3.52-2.86a9,9,0,0,1,1.91.19c.38.1.57.19.67.19s.19,0,.19-.09l.09.09Zm6.28-.86a1.63,1.63,0,1,1,0,3.24,1.62,1.62,0,1,1,0-3.24Zm0-1.24c-1.81,0-3.24,1-3.24,2.86s1.43,2.86,3.24,2.86,3.33-1,3.33-2.86S139,56.14,137.18,56.14Zm10.57,5.71v-.19c.29,0,.29-.09.29-.19v-3.9l-1.91,4.09-1.81-4.19h-.1v4c0,.1.1.19.38.19v.19H142.7v-.19c.29,0,.29-.09.29-.19v-5c0-.09,0-.19-.29-.19v-.19h2.76v.19c-.19,0-.29,0-.29.19s1,2,1,2.29c.48-1,1-2.19,1-2.29s-.1-.19-.29-.19v-.19h2.86v.19c-.19,0-.29.1-.29.19v5c0,.1.09.19.29.19v.19h-2.09Zm6.57-4.48h1.62q.86,0,.86.57c0,.48-.29.67-.86.67h-1.62Zm0,2.38h1.9a1.82,1.82,0,1,0,0-3.62h-3.81v.19c.29,0,.29.1.29.19v5c0,.1,0,.19-.29.19v.19h2.19v-.19c-.29,0-.29-.09-.29-.19V59.76Zm8.28-2.57,1,2.57h-1.9Zm1.24,3.43a4,4,0,0,1,.38,1c0,.09-.09.09-.19.09v.19h2.09v-.19c-.1,0-.19,0-.29-.29-.67-1.62-2-4.86-2-4.95s.09-.1.19-.1v-.19h-2.76v.19c.1,0,.19,0,.19.1s-1.81,4.76-1.81,5c-.1.1-.19.19-.29.19v.19h1.81v-.19c-.09,0-.19,0-.19-.09s.1-.19.38-1Zm4.66-4.1c0-.09,0-.19-.29-.19v-.19h2.57v.19a.42.42,0,0,0-.29.1c0,.09,1.81,2.09,2.57,3V56.52c0-.19-.1-.19-.19-.19v-.19h1.9v.19c-.29,0-.29.1-.29.19v5c0,.1,0,.19.29.19v.19h-2v-.19c.19,0,.29,0,.29-.09s-.29-.29-3.14-3.43v3.33c0,.1.1.19.29.19v.19h-2v-.19c.29,0,.29-.09.29-.19v-5Zm9,5.33v-.19c.29,0,.29-.09.29-.19v-5c0-.09,0-.19-.29-.19v-.19h2.19v.19c-.29,0-.29.1-.29.19v5c0,.1,0,.19.29.19v.19h-2.19Zm9.14-2.09h-.09a.3.3,0,0,0-.29-.29h-2v1h3.43c.1,0,.1-.1.19-.29h.1V62h-.1c-.1-.19-.1-.19-.19-.19h-5.33v-.19c.29,0,.29-.09.29-.19v-5c0-.09,0-.19-.29-.19v-.19h5.33c.1,0,.1,0,.19-.29h.1v1.91h-.1c-.1-.29-.1-.29-.19-.29h-3.43v.86h2a.25.25,0,0,0,.29-.29h.09v1.71Zm4-.19.1.09v.19c0,.29,1.14.76,2.19.76s1.52-.19,1.52-.67c0-.86-4.29.1-4.29-2,0-1,1-1.81,2.57-1.81a15.07,15.07,0,0,1,2.76.38.35.35,0,0,0,.29-.09h.1l-.76,1.52-.1-.09v-.1c0-.29-1.24-.57-2.19-.57s-1.24.29-1.24.48c0,1,4.38-.19,4.38,2.28,0,1-.67,1.91-3,1.91a9.52,9.52,0,0,1-2.86-.48c-.1,0-.1.1-.19.19l-.1-.1ZM56.62,59a.9.9,0,0,1-1,1H28.25a1,1,0,1,1,0-1.9H55.67A.9.9,0,0,1,56.62,59Zm171.21,0a1,1,0,0,1-1,1H199.45a1,1,0,0,1,0-1.9h27.42A1,1,0,0,1,227.83,59Z" fill="#fff"/></svg>