<?xml version="1.0" encoding="UTF-8"?>
<svg id="Layer_1" data-name="Layer 1" xmlns="http://www.w3.org/2000/svg" viewBox="0 0 255.12 85.04"><title>Playngo_game_provider_footer</title><path id="_Path_" data-name="&lt;Path&gt;" d="M207.79,56.71H40.58c-4.13,0-6.22-2.1-7.06-4.51a7.75,7.75,0,0,1-.1-4.61l3.1-11.16c.87-3,3.45-8,9.77-8H214.4c5.8,0,8.35,4,7.42,8.45-.64,3.22-3.29,11.77-3.29,11.77C217.49,53.42,213.49,56.71,207.79,56.71Z" fill="#007cba"/><path id="_Path_2" data-name="&lt;Path&gt;" d="M184,68.47H139.47c-6.71,0-13.15-6.16-12.25-12.8,1-7.09,5-18.22,7.19-25C137,22.53,145,16.57,151.72,16.57h46.11a12.16,12.16,0,0,1,11.83,15.51c-2.13,6.87-5.55,17.7-7.64,24C200,61.93,190.63,68.47,184,68.47Z"/><path id="_Compound_Path_" data-name="&lt;Compound Path&gt;" d="M198.56,20.47s-7.35,0-10,0a15.92,15.92,0,0,0-15.19,10.64l-5.13,16.22c-5.71,14.09,1.58,16.48,6.61,16.44h8.38c6.19,0,13-4.48,14.8-10.22l7-22.18C206.85,26.21,203.79,20.47,198.56,20.47ZM187.31,53.19h-9.74l6.77-21.54h9.74Z" fill="#dd2027"/><path id="_Path_3" data-name="&lt;Path&gt;" d="M149.94,47.71h5.38l-1.74,5.45H143.08l1.45-4.58h0l.26-.81h0l3.45-10.7,1.71-5.38h20.12l.1-.32,2.93-10.25s-16.7,0-19.38,0c-7.29-.1-13.25,5.45-14.54,10L134,47.32c-6.42,15.09,2,16.44,6.61,16.44H149a15.19,15.19,0,0,0,14.8-10.54L168.52,37H153.36Z" fill="#dd2027"/><path id="_Path_4" data-name="&lt;Path&gt;" d="M118.41,50.29l2.22-7.77-4.09,0-2.26,7.77-4.55,0,2.48-8.09a6.23,6.23,0,0,1,5.87-4.09h4.22c2.35,0,3.55,2,3,4.26l-2.45,7.9Z" fill="#fff"/><polygon id="_Path_5" data-name="&lt;Path&gt;" points="112.96 38.65 107 38.65 108.84 33.49 114.7 33.49 112.96 38.65" fill="#fff"/><path id="_Path_6" data-name="&lt;Path&gt;" d="M99.13,41.68h-4l2.68-8.61H93.3L90.52,42c-.52,2.29.64,4.26,3,4.26h0L92.3,50.29h4.45L98,46.23a6.23,6.23,0,0,0,5.61-4.06l2.87-9.09h-4.45Z" fill="#fff"/><path id="_Compound_Path_2" data-name="&lt;Compound Path&gt;" d="M87.27,33.07H83a6.16,6.16,0,0,0-5.87,4.09L72.89,50.32H77.4l1.39-4.26,4,0-1.19,4.22h4.35l4.35-13C90.81,35,89.65,33.07,87.27,33.07ZM84.2,41.68H79.95l1.45-4.26h4.19Z" fill="#fff"/><polygon id="_Path_7" data-name="&lt;Path&gt;" points="63.44 33.07 57.96 50.29 71.11 50.29 73.92 41.68 69.5 41.68 68.15 45.94 64.05 45.94 68.05 33.07 63.44 33.07" fill="#fff"/><path id="_Compound_Path_3" data-name="&lt;Compound Path&gt;" d="M57.31,33.07H48.8L43.26,50.32h4.51l1.39-4.26h4a6.13,6.13,0,0,0,5.77-4c.52-1.32,1.52-4.61,1.52-4.61C61.18,34.81,59.7,33.07,57.31,33.07Zm-2.74,8.61H50.35l1.45-4.26H56Z" fill="#fff"/></svg>