<?xml version="1.0" encoding="UTF-8"?>
<svg id="Layer_1" data-name="Layer 1" xmlns="http://www.w3.org/2000/svg" viewBox="0 0 255.12 85.04"><title>Pragmatic_play_game_provider_footer</title><path d="M191.4,33.56c-8.79.55-4.84,12,4.87,11.39C205.77,44.35,200.76,33,191.4,33.56Z" fill="#f19021"/><path d="M187.69,26.49A28.31,28.31,0,1,0,216,54.8h0A28.31,28.31,0,0,0,187.69,26.49Zm0,53.66A25.34,25.34,0,1,1,213,54.8h0A25.34,25.34,0,0,1,187.69,80.15Zm-.85-73.43a14.38,14.38,0,0,0-5.55,12.87s-4.22-11-9.71-17.67c-.74,8.63,2,20.07,2,20.07a14.38,14.38,0,0,0-11.85-7.49c7,4,9.69,11.24,10.31,13.18a28.14,28.14,0,0,1,13.81-4.18C185.24,21.7,183.29,14.09,186.83,6.72Z" fill="#f19021"/><path d="M41.59,57.58V63.5H39.12V48.24h5.19a5.58,5.58,0,0,1,4,1.26,4.53,4.53,0,0,1,1.34,3.44,4.38,4.38,0,0,1-1.36,3.41,5.65,5.65,0,0,1-3.94,1.24Zm5.51-4.65a2.59,2.59,0,0,0-.72-2,3.31,3.31,0,0,0-2.32-.68H41.59v5.3h2.47q3,0,3-2.64ZM59.79,63.5,56,57.41H54.24v6.1H51.77V48.24h5.39a5.58,5.58,0,0,1,4,1.28,4.41,4.41,0,0,1,1.35,3.38,4.32,4.32,0,0,1-1,2.94,4.7,4.7,0,0,1-2.9,1.47l4,6.21Zm-5.56-7.85H57q3,0,3-2.64a2.6,2.6,0,0,0-.72-2,3.15,3.15,0,0,0-2.26-.7H54.24ZM73.81,60.2H67.36L66.2,63.5H63.56l5.62-15H72l5.6,15H75Zm-.69-1.9-2.53-7.13-2.53,7.13Zm17-8.85a6.32,6.32,0,0,1,2.4,3.66h-2.6a4.14,4.14,0,0,0-1.63-2,4.84,4.84,0,0,0-2.69-.74,4.94,4.94,0,0,0-2.56.67A4.61,4.61,0,0,0,81.22,53a6.22,6.22,0,0,0-.63,2.91,6.47,6.47,0,0,0,.65,3,4.51,4.51,0,0,0,1.83,1.91,5.52,5.52,0,0,0,2.74.67,4.82,4.82,0,0,0,3.26-1.2A5,5,0,0,0,90.7,57H85.1V55.22h7.68v2.36a7.3,7.3,0,0,1-1.2,3.06,6.86,6.86,0,0,1-2.49,2.2,7.44,7.44,0,0,1-3.54.82,7.67,7.67,0,0,1-3.94-1A6.79,6.79,0,0,1,79,59.9a9.21,9.21,0,0,1,0-8.07,6.76,6.76,0,0,1,2.63-2.75,7.7,7.7,0,0,1,3.93-1,7.44,7.44,0,0,1,4.54,1.34Zm20.11-1v15H107.7V52.24L103.35,63.5h-2.16L96.82,52.24V63.5H94.35v-15h3l5,12,4.89-12ZM122.25,60.2h-6.43l-1.17,3.31H112l5.62-15h2.83l5.6,15h-2.64Zm-.69-1.9L119,51.16l-2.53,7.13Zm15.05-10.06v2h-4.26V63.5h-2.49V50.23h-4.24v-2Zm3.78,0V63.5h-2.46V48.24Zm14,1.28a7,7,0,0,1,2.51,3.87h-2.62a4.64,4.64,0,0,0-1.72-2.2,5,5,0,0,0-2.89-.81,4.5,4.5,0,0,0-2.43.67A4.64,4.64,0,0,0,145.51,53a7.13,7.13,0,0,0,0,5.8,4.63,4.63,0,0,0,1.69,1.92,4.49,4.49,0,0,0,2.43.67,5,5,0,0,0,2.89-.81,4.66,4.66,0,0,0,1.72-2.17h2.62a6.91,6.91,0,0,1-2.51,3.86,7.48,7.48,0,0,1-4.67,1.42,7.39,7.39,0,0,1-3.83-1,6.65,6.65,0,0,1-2.57-2.75,9.4,9.4,0,0,1,0-8.07,6.74,6.74,0,0,1,2.57-2.76,7.33,7.33,0,0,1,3.83-1,7.46,7.46,0,0,1,4.67,1.43Zm14.14,8.07V63.5H166V48.24h5.19a5.59,5.59,0,0,1,4,1.26,4.51,4.51,0,0,1,1.34,3.44,4.38,4.38,0,0,1-1.36,3.41,5.65,5.65,0,0,1-3.94,1.24ZM174,52.93a2.59,2.59,0,0,0-.72-2,3.31,3.31,0,0,0-2.33-.68h-2.47v5.3h2.47q3.06,0,3.06-2.64Zm6.74,8.65H186V63.5h-7.74V48.24h2.47Zm16.57-1.38h-6.44L189.7,63.5h-2.64l5.63-15h2.83l5.6,15h-2.64Zm-.69-1.9-2.53-7.13-2.53,7.13ZM211,48.24l-5.08,9.71V63.5h-2.48V57.95l-5.1-9.71h2.86l3.5,7.07,3.5-7.07Z" fill="#fff"/></svg>