<?xml version="1.0" encoding="UTF-8"?>
<svg id="Layer_1" data-name="Layer 1" xmlns="http://www.w3.org/2000/svg" xmlns:xlink="http://www.w3.org/1999/xlink" viewBox="0 0 255.12 85.04"><defs><clipPath id="clip-path"><path d="M41.71,21.39a29.65,29.65,0,0,0-.14,41.93,5.54,5.54,0,0,1,7.85-7.81A18.57,18.57,0,0,1,75.78,29.34h0a5.54,5.54,0,0,0,7.86-7.8,29.65,29.65,0,0,0-41.93-.14" fill="none"/></clipPath><linearGradient id="linear-gradient" x1="689.06" y1="800.05" x2="689.45" y2="800.05" gradientTransform="matrix(-126.79, 79.23, 79.23, 126.79, 24064.69, -156012.4)" gradientUnits="userSpaceOnUse"><stop offset="0" stop-color="#c7e3f8"/><stop offset="0.28" stop-color="#26b1e7"/><stop offset="1" stop-color="#223b86"/></linearGradient><clipPath id="clip-path-2"><path d="M83.61,29.37a5.54,5.54,0,0,1-7.83,0A18.58,18.58,0,0,1,49.43,55.52h0l-.06-.05c-.12-.12-.24-.23-.37-.33h0q-.21-.17-.44-.32l0,0-.44-.26,0,0a5.55,5.55,0,0,0-5.11,0l-.16.09a5.51,5.51,0,0,0-.76.51q-.22.18-.42.38a5.54,5.54,0,0,0,0,7.83A29.65,29.65,0,0,0,83.64,21.54a5.54,5.54,0,0,1,0,7.83" fill="none"/></clipPath><linearGradient id="linear-gradient-2" x1="687.54" y1="815.3" x2="687.93" y2="815.3" gradientTransform="matrix(126.79, -79.23, -79.23, -126.79, -22537.69, 157911.34)" xlink:href="#linear-gradient"/></defs><title>Tomhorn_game_provider_footer</title><path d="M107,46.43a3.15,3.15,0,0,0,3.15,3.19,4.91,4.91,0,0,0,1.7-.43l1.32,3.28a7.69,7.69,0,0,1-3,.68,6.71,6.71,0,0,1-6.72-6.72V24.69H107v5.45h6.17v3.53H107Z" fill="#fff"/><path d="M115.54,46.43V35.54a6.72,6.72,0,1,1,13.45,0V46.43a6.72,6.72,0,1,1-13.45,0m6.72-14.09a3.21,3.21,0,0,0-3.15,3.19V46.43a3.21,3.21,0,0,0,3.15,3.19,3.15,3.15,0,0,0,3.15-3.19V35.54a3.15,3.15,0,0,0-3.15-3.19" fill="#fff"/><path d="M149.21,34.82a2.5,2.5,0,0,0-2.47-2.47,2.53,2.53,0,0,0-2.47,2.47V52.69h-3.53V34.82a2.5,2.5,0,0,0-2.47-2.47,2.53,2.53,0,0,0-2.47,2.47V52.69h-3.53V34.82a6,6,0,0,1,10.26-4.26,5.78,5.78,0,0,1,4.21-1.74,6,6,0,0,1,6,6V52.69h-3.57V34.82Z" fill="#fff"/><path d="M171.81,35.54a3.15,3.15,0,1,0-6.3,0V52.69h-3.58V20.26h3.58v9.36a6.54,6.54,0,0,1,3.15-.81,6.71,6.71,0,0,1,6.72,6.72V52.69h-3.57V35.54Z" fill="#fff"/><path d="M178.55,46.43V35.54a6.72,6.72,0,1,1,13.45,0V46.43a6.72,6.72,0,1,1-13.45,0m6.72-14.09a3.21,3.21,0,0,0-3.15,3.19V46.43a3.21,3.21,0,0,0,3.15,3.19,3.15,3.15,0,0,0,3.15-3.19V35.54a3.15,3.15,0,0,0-3.15-3.19" fill="#fff"/><path d="M201.89,32.35a3.21,3.21,0,0,0-3.15,3.19V52.69h-3.53V35.54a6.67,6.67,0,0,1,6.68-6.72,6.91,6.91,0,0,1,6,3.7l-3,1.79a3.47,3.47,0,0,0-3-2" fill="#fff"/><path d="M218.63,35.54a3.21,3.21,0,0,0-3.15-3.19,3.15,3.15,0,0,0-3.15,3.19V52.69h-3.57V35.54a6.7,6.7,0,1,1,13.41,0V52.69h-3.53Z" fill="#fff"/><path d="M133.2,69.64v-6.2a2.61,2.61,0,0,1,2.62-2.62,2.71,2.71,0,0,1,2.48,1.75l-1.15.49a1.44,1.44,0,0,0-1.33-1,1.37,1.37,0,0,0-1.38,1.36v6.2a1.38,1.38,0,1,0,2.75,0V68.3h-2V67h3.23v2.6a2.62,2.62,0,0,1-5.23,0" fill="#21b3e8"/><path d="M148,68.61h-2.74v3.5H144V63.47a2.62,2.62,0,1,1,5.23,0v8.64H148v-3.5Zm-1.36-6.52a1.38,1.38,0,0,0-1.38,1.38v3.9H148v-3.9a1.37,1.37,0,0,0-1.36-1.38" fill="#21b3e8"/><polygon points="160.42 64.75 158.69 69.75 158 69.75 156.28 64.75 156.28 72.11 155.04 72.11 155.04 60.96 156.3 60.96 158.34 66.94 160.41 60.96 161.66 60.96 161.66 72.11 160.42 72.11 160.42 64.75" fill="#21b3e8"/><rect x="168.37" y="60.96" width="1.24" height="11.15" fill="#21b3e8"/><polygon points="177.48 64.62 177.48 72.11 176.22 72.11 176.22 60.96 177.45 60.96 180.21 68.48 180.21 60.96 181.45 60.96 181.45 72.11 180.23 72.11 177.48 64.62" fill="#21b3e8"/><path d="M187.19,69.64v-6.2a2.61,2.61,0,0,1,2.62-2.62,2.71,2.71,0,0,1,2.48,1.75l-1.15.49a1.44,1.44,0,0,0-1.33-1,1.37,1.37,0,0,0-1.38,1.36v6.2a1.38,1.38,0,1,0,2.75,0V68.3h-2V67h3.23v2.6a2.62,2.62,0,1,1-5.23,0" fill="#21b3e8"/><g clip-path="url(#clip-path)"><polygon points="70.13 -12.28 7.32 26.98 45.69 88.38 108.51 49.13 70.13 -12.28" fill="url(#linear-gradient)"/></g><g clip-path="url(#clip-path-2)"><polygon points="55.07 100.06 119.21 59.99 79.52 -3.52 15.38 36.55 55.07 100.06" fill="url(#linear-gradient-2)"/></g></svg>