<svg xmlns="http://www.w3.org/2000/svg" width="40" height="41" viewBox="0 0 40 41">
    <g fill="#333942" fill-rule="nonzero">
        <path d="M31.893 10.56c.6 0 .768-.806.228-1.049L11.033.221a2.553 2.553 0 0 0-3.368 1.283L.282 17.954a2.524 2.524 0 0 0 1.29 3.346l4.254 1.827c.531.235 1.14-.15 1.14-.73v-6.983c0-2.675 2.185-4.847 4.877-4.847h20.05v-.008z"/>
        <path d="M37.412 12.84H11.834a2.574 2.574 0 0 0-2.582 2.565v17.951a2.574 2.574 0 0 0 2.582 2.566h3.435a9.259 9.259 0 0 1 .034-3.253h-2.768v-8.594H36.72v8.585h-2.776c.101.562.16 1.132.16 1.72 0 .52-.042 1.03-.126 1.534h3.434a2.574 2.574 0 0 0 2.583-2.566V15.405a2.574 2.574 0 0 0-2.583-2.565zm-.692 5.944H12.535v-2.691H36.72v2.691z"/>
        <path d="M24.628 27.79c-3.663 0-6.633 2.95-6.633 6.59 0 3.638 2.97 6.59 6.633 6.59 3.662 0 6.632-2.952 6.632-6.59 0-3.64-2.97-6.59-6.632-6.59zm1.907 9.188a2.1 2.1 0 0 1-1.106.705c-.194.05-.278.15-.27.352.009.193 0 .386 0 .587 0 .176-.093.268-.261.268a7.966 7.966 0 0 1-.633 0c-.186 0-.27-.109-.27-.285v-.428c0-.31-.017-.327-.321-.377a3.999 3.999 0 0 1-1.122-.318c-.279-.135-.313-.202-.228-.495.059-.218.118-.436.185-.646.076-.251.144-.276.38-.159.397.201.81.319 1.25.369.278.033.556.008.818-.11.49-.209.565-.77.152-1.106a1.714 1.714 0 0 0-.465-.268c-.43-.185-.877-.327-1.274-.57-.658-.386-1.072-.923-1.021-1.72.05-.896.565-1.45 1.392-1.751.338-.126.346-.118.346-.47v-.36c.009-.269.051-.31.321-.32h.245c.574 0 .574 0 .574.571 0 .402 0 .402.405.461.304.05.599.134.886.26.16.067.22.176.169.344-.068.243-.135.494-.22.73-.076.226-.152.26-.371.159a2.801 2.801 0 0 0-1.401-.277 1.127 1.127 0 0 0-.371.075c-.422.185-.498.654-.135.94a2.7 2.7 0 0 0 .607.343c.38.151.751.302 1.114.503 1.114.612 1.426 2.03.625 2.993z"/>
    </g>
</svg>
