<svg xmlns="http://www.w3.org/2000/svg" fill="none" viewBox="0 0 139 43"><path fill="#fff" d="M83.295 16.143a10.776 10.776 0 0 1-1.28 2.906 13.457 13.457 0 0 1-2.053 2.513c.382.748.614 1.586.697 2.514.082.921-.015 1.895-.285 2.906a10.758 10.758 0 0 1-1.58 3.375 13.055 13.055 0 0 1-2.569 2.732 12.596 12.596 0 0 1-3.205 1.85 9.634 9.634 0 0 1-3.527.679H56.626l7.557-28.11h12.866c1.198 0 2.247.226 3.16.678a5.915 5.915 0 0 1 2.21 1.85c.562.777.928 1.683 1.1 2.732.173 1.042.098 2.167-.224 3.375ZM71.23 29.149c.614 0 1.176-.212 1.707-.642.525-.43.87-.936 1.026-1.525.165-.611.098-1.132-.202-1.547-.3-.415-.756-.62-1.37-.62h-6.456l-1.168 4.334h6.463Zm-2.382-15.135-1.153 4.295h6.456c.614 0 1.176-.211 1.7-.619a2.876 2.876 0 0 0 1.033-1.547c.158-.59.09-1.095-.21-1.51-.299-.415-.756-.62-1.37-.62h-6.456Zm23.48.619c-.525.415-.862.92-1.02 1.51l-.584 2.166h15.016l-1.752 6.507H88.972l-.584 2.166c-.157.589-.09 1.102.21 1.525.299.43.748.642 1.362.642h12.86l-1.738 6.461H88.216c-1.199 0-2.247-.226-3.16-.68a5.915 5.915 0 0 1-2.21-1.849c-.562-.777-.929-1.683-1.101-2.732-.172-1.042-.098-2.166.232-3.374l2.913-10.84a10.758 10.758 0 0 1 1.58-3.374 13.055 13.055 0 0 1 2.57-2.733 12.594 12.594 0 0 1 3.205-1.85 9.634 9.634 0 0 1 3.527-.678h12.867l-1.753 6.506H94.02c-.607.008-1.176.212-1.693.627Zm35.633-.62h-6.456l-5.804 21.605h-6.411l5.812-21.604h-6.456l1.753-6.507h19.322l-1.76 6.507Z"/><path fill="#FDD700" d="M60.393.155H17.57c-4.06 0-7.61 2.77-8.613 6.74L0 42.149h.27s-.008 0-.008.007H117.29c7.032 0 13.053-4.816 14.649-11.7L139 .163H60.393V.155ZM24.198 37.339h-7.152l6.47-24.08H11.833l1.947-7.254h29.538L41.37 13.26H30.675l-6.478 24.08Zm22.684-13.172a9.253 9.253 0 0 0-2.47 1.472c-1.461 1.223-2.517 2.883-3.109 4.688-.007.015-2.426 7.382-2.426 7.382H30.75l3.063-9.572c.554-1.736 1.28-3.427 2.27-4.966.171-.272.359-.537.546-.793.33-.445.681-.868 1.048-1.276 2.577-2.815 6.149-4.891 9.939-5.518a14.117 14.117 0 0 1 2.71-.196c.135 0 2.038.143 2 .272-.007.015-2.18 7.677-2.18 7.677-1.145-.106-2.23.407-3.264.83Zm81.281 5.39c-1.198 5.117-5.669 8.688-10.882 8.688H50.163a9.05 9.05 0 0 0 1.273-2.83l7.961-31.342h74.698l-5.932 25.483Z"/></svg>