<svg xmlns="http://www.w3.org/2000/svg" width="32" height="43" viewBox="0 0 32 43">
    <g fill="none" fill-rule="nonzero">
        <path fill="#BB4919" d="M14.171 21.5L16 37.941 26.971 42.5v-21z"/>
        <path fill="#FA6121" d="M5.029 21.5v21L16 37.935V21.5z"/>
        <path fill="#FB992D" d="M13.257 14.652L32 16.478c0 8.81-7.178 15.979-16 15.979l-2.743-17.805z"/>
        <path fill="#FFB739" d="M32 16.478H13.257L16 .5c8.822 0 16 7.168 16 15.978z"/>
        <path fill="#FFB739" d="M16 16.478v15.979c-8.822 0-16-7.169-16-15.979l8-2.739 8 2.74z"/>
        <path fill="#FFD488" d="M16 .5v15.978H0C0 7.668 7.178.5 16 .5z"/>
        <path fill="#FFEAC3" d="M16 5.065c-6.302 0-11.429 5.12-11.429 11.413L16 26.065c8.411 0 11.429-9.587 11.429-9.587 0-6.293-5.127-11.413-11.429-11.413z"/>
        <path fill="#FFF" d="M24.686 16.478c0 4.783-3.897 8.674-8.686 8.674V7.804c-4.789 0-8.686 3.892-8.686 8.674H4.571c0 6.294 5.127 11.413 11.429 11.413 6.302 0 11.429-5.12 11.429-11.413h-2.743z"/>
    </g>
</svg>
