<svg width="56" height="48" viewBox="0 0 56 48" fill="none" xmlns="http://www.w3.org/2000/svg">
<path d="M45.9102 24.4922V13.7461C45.9102 11.776 44.2982 10.1641 42.3281 10.1641H13.6719C11.7018 10.1641 10.0898 11.776 10.0898 13.7461V35.2383C10.0898 37.2084 11.7018 38.8203 13.6719 38.8203H42.3281C44.2982 38.8203 45.9102 37.2084 45.9102 35.2383V31.9387" stroke="#8170EE" stroke-width="3.58203" stroke-linecap="round" stroke-linejoin="round"/>
<path d="M45.9102 13.7461L28 26.2832L10.0898 13.7461" stroke="#8170EE" stroke-width="3.58203" stroke-linecap="round" stroke-linejoin="round"/>
<circle cx="46" cy="10" r="9" fill="#FD3232"/>
<path d="M46.8471 7.13449V13.3003H45.4201V8.27957H44.187V7.13449H46.8471Z" fill="white"/>
<circle cx="46" cy="10" r="9" fill="#FD3232"/>
<path d="M46.8471 7.13449V13.3003H45.4201V8.27957H44.187V7.13449H46.8471Z" fill="white"/>
</svg>
