<svg width="83" height="83" viewBox="0 0 83 83" fill="none" xmlns="http://www.w3.org/2000/svg">
<g clip-path="url(#clip0_982_515)">
<path d="M73.9772 20.6632H81.5649C81.9549 20.6632 82.3289 20.5083 82.6047 20.2325C82.8805 19.9568 83.0354 19.5827 83.0354 19.1927V7.20538C83.0338 5.29487 82.2742 3.46303 80.9232 2.1121C79.5723 0.761167 77.7405 0.00155769 75.83 0H7.21126C5.30021 0.00155496 3.46779 0.760976 2.11592 2.11174C0.764055 3.46251 0.00311436 5.29433 0 7.20538V19.1927C0 19.5827 0.154925 19.9568 0.430694 20.2325C0.706464 20.5083 1.08049 20.6632 1.47049 20.6632H9.05819V54.4256L1.78811 62.8485C0.643238 64.1872 0.0170607 65.8926 0.0235238 67.6541V75.6476C0.0250816 77.5971 0.800212 79.4663 2.17872 80.8448C3.55723 82.2233 5.42644 82.9984 7.37595 83H75.7065C77.656 82.9984 79.5252 82.2233 80.9037 80.8448C82.2822 79.4663 83.0573 77.5971 83.0589 75.6476V67.9188C83.0617 66.9528 82.8728 65.9958 82.5033 65.1033C82.1338 64.2108 81.5909 63.4004 80.9061 62.7191L73.8478 55.6607C73.9446 55.4468 73.9889 55.213 73.9772 54.9785V20.6632ZM2.94097 7.20538C2.94253 6.07385 3.39312 4.98915 4.19379 4.18959C4.99445 3.39003 6.07972 2.94097 7.21126 2.94097H75.8535C76.984 2.94253 78.0678 3.39228 78.8672 4.19167C79.6666 4.99107 80.1164 6.07487 80.1179 7.20538V17.7222H2.94097V7.20538ZM71.0362 20.6632V53.5021H27.0805V52.4433C28.7209 52.081 30.1697 51.1257 31.149 49.7607C32.1284 48.3957 32.5692 46.7172 32.3869 45.0471C32.2046 43.3771 31.4121 41.8331 30.1614 40.7115C28.9107 39.5899 27.2899 38.9696 25.61 38.9696C23.93 38.9696 22.3092 39.5899 21.0585 40.7115C19.8078 41.8331 19.0153 43.3771 18.833 45.0471C18.6508 46.7172 19.0916 48.3957 20.0709 49.7607C21.0502 51.1257 22.4991 52.081 24.1395 52.4433V53.5021H11.9992V20.6632H71.0362ZM25.61 49.6847C24.8428 49.6859 24.0926 49.4594 23.4543 49.0339C22.8159 48.6085 22.3182 48.0032 22.0241 47.2946C21.73 46.5861 21.6527 45.8062 21.8021 45.0537C21.9515 44.3013 22.3208 43.6102 22.8632 43.0677C23.4057 42.5253 24.0969 42.1559 24.8493 42.0065C25.6018 41.8571 26.3816 41.9344 27.0902 42.2285C27.7987 42.5226 28.404 43.0204 28.8295 43.6588C29.255 44.2971 29.4815 45.0472 29.4803 45.8144C29.4787 46.8404 29.0705 47.8239 28.345 48.5494C27.6195 49.2749 26.636 49.6832 25.61 49.6847V49.6847ZM80.1179 67.9188V75.6652C80.1179 76.8352 79.6532 77.9574 78.8258 78.7847C77.9985 79.612 76.8765 80.0767 75.7065 80.0767H7.35243C6.18291 80.0751 5.06174 79.61 4.23477 78.783C3.4078 77.956 2.94253 76.8348 2.94097 75.6652V67.6718C2.94169 66.614 3.32149 65.5913 4.01148 64.7895L11.1992 56.4608H24.1395V65.2837C24.1395 65.6737 24.2944 66.0477 24.5702 66.3235C24.846 66.5993 25.22 66.7542 25.61 66.7542C26 66.7542 26.374 66.5993 26.6498 66.3235C26.9255 66.0477 27.0805 65.6737 27.0805 65.2837V56.4608H70.5598C70.6184 56.5666 70.6916 56.6636 70.7774 56.749L78.8239 64.8013C79.2355 65.2092 79.5619 65.695 79.784 66.2301C80.0062 66.7653 80.1197 67.3393 80.1179 67.9188Z" fill="white"/>
<path d="M53.0692 72.5432C55.0931 72.5432 56.7337 70.9026 56.7337 68.8787C56.7337 66.8549 55.0931 65.2143 53.0692 65.2143C51.0454 65.2143 49.4048 66.8549 49.4048 68.8787C49.4048 70.9026 51.0454 72.5432 53.0692 72.5432Z" fill="white"/>
<path d="M64.9264 61.2619C64.2016 61.2619 63.4931 61.4767 62.8905 61.8794C62.2879 62.282 61.8182 62.8543 61.5408 63.5239C61.2635 64.1935 61.1909 64.9304 61.3323 65.6412C61.4737 66.352 61.8227 67.005 62.3352 67.5175C62.8477 68.03 63.5006 68.3789 64.2115 68.5203C64.9223 68.6617 65.6591 68.5891 66.3287 68.3118C66.9983 68.0344 67.5706 67.5648 67.9732 66.9622C68.3759 66.3596 68.5908 65.6511 68.5908 64.9263C68.5892 63.9549 68.2027 63.0238 67.5158 62.3369C66.8289 61.65 65.8977 61.2635 64.9264 61.2619Z" fill="white"/>
</g>
<defs>
<clipPath id="clip0_982_515">
<rect width="83" height="83" fill="white"/>
</clipPath>
</defs>
</svg>
