<svg xmlns="http://www.w3.org/2000/svg"><symbol id="icon-all-platforms" viewBox="0 0 25 25"><title>all-platforms</title><rect fill-opacity="0" x="2" y="2" width="8.69" height="8.69" rx="2.172" stroke-width="2.172"/><path fill-opacity="0" d="M22.876 10.69h-6.393c-1.2 0-2.173-.973-2.173-2.173V4.172c0-1.2.973-2.172 2.173-2.172h4.345C22.028 2 23 2.973 23 4.172v2.173" stroke-width="2.172" stroke-linecap="round"/><rect fill-opacity="0" x="2" y="14.31" width="8.69" height="8.69" rx="2.172" stroke-width="2.172"/><rect fill-opacity="0" x="14.31" y="14.31" width="8.69" height="8.69" rx="2.172" stroke-width="2.172"/></symbol><symbol id="icon-arrow-down" viewBox="0 0 8 6"><title>arrow-down</title><path d="M4.754 5.153a.993.993 0 01-1.508 0l-3-3.49C-.315 1.013.144 0 1 0h6c.855 0 1.314 1.012.755 1.663l-3 3.49z"/></symbol><symbol id="icon-arrow-left" viewBox="0 0 24 24"><title>arrow-left</title><path d="M10.5 21l1.06-1.06-7.189-7.19H22.5v-1.5H4.371l7.19-7.19L10.5 3l-9 9 9 9z"/></symbol><symbol id="icon-arrow-right" viewBox="0 0 24 24"><title>arrow-right</title><path fill-rule="evenodd" clip-rule="evenodd" d="M12 3l-1.06 1.06 7.189 7.19H3v1.5h15.129l-7.19 7.19L12 21l9-9-9-9z"/></symbol><symbol id="icon-arrow-up" viewBox="0 0 8 6"><title>arrow-up</title><path d="M4.754.347a.993.993 0 00-1.508 0l-3 3.49C-.315 4.487.144 5.5 1 5.5h6c.855 0 1.314-1.012.755-1.663l-3-3.49z"/></symbol><symbol id="icon-badge-pending" viewBox="0 0 16 16"><title>badge-pending</title><path fill-opacity="#000" opacity=".3" d="M8 15A7 7 0 108 1a7 7 0 000 14z"/><path d="M8 11a3 3 0 100-6 3 3 0 000 6z"/></symbol><symbol id="icon-bars" viewBox="0 0 16 9"><title>bars</title><path fill-rule="evenodd" clip-rule="evenodd" d="M0 0h16v1H0V0zm0 4h16v1H0V4zm16 4H0v1h16V8z"/></symbol><symbol id="icon-bonuses" viewBox="0 0 40 40"><title>bonuses</title><g clip-path="url(#clip0)"><path d="M29.69 30.655a.985.985 0 00.319-.835 1.019 1.019 0 00-.487-.78l-9.325-5.692a3.395 3.395 0 01-1.638-2.919c0-1.202.612-2.293 1.638-2.919l9.325-5.692-.016-.028.016.028a1.02 1.02 0 00.487-.78.983.983 0 00-.319-.834 13.787 13.787 0 00-9.523-3.613c-7.665.106-13.658 6.198-13.642 13.868.016 7.615 6.225 13.81 13.84 13.81 1.676 0 3.313-.296 4.867-.88a1.246 1.246 0 11.877 2.333l.011.03-.011-.03a16.267 16.267 0 01-5.744 1.04 16.227 16.227 0 01-11.538-4.773 16.226 16.226 0 01-4.795-11.525c-.01-4.339 1.653-8.423 4.68-11.5 3.027-3.078 7.083-4.805 11.421-4.866A16.274 16.274 0 0131.37 8.362l.022-.023-.022.024a3.462 3.462 0 011.12 2.914 3.49 3.49 0 01-1.669 2.668l-9.325 5.693.017.027-.017-.027a.914.914 0 00-.444.791c0 .156.043.547.444.791l9.325 5.693a3.49 3.49 0 011.67 2.668 3.465 3.465 0 01-1.121 2.916 1.247 1.247 0 01-1.68-1.842zM19.63 11.288a1.246 1.246 0 112.492 0 1.246 1.246 0 01-2.492 0zm10.1 9.141a1.246 1.246 0 112.492 0 1.246 1.246 0 01-2.492 0zm-4.475 0a1.246 1.246 0 112.493 0 1.246 1.246 0 01-2.493 0zm9.013 0a1.246 1.246 0 112.493 0 1.246 1.246 0 01-2.493 0z" stroke-width=".064"/></g><defs><clipPath id="clip0"><path transform="translate(4 4)" d="M0 0h32.793v32.793H0z"/></clipPath></defs></symbol><symbol id="icon-cash" viewBox="0 0 407.534 407.534"><title>cash</title><path d="M406.962 226.838l-.002-.005-76.944-193.2a8 8 0 00-10.391-4.476l-.009.004L7.464 153.457a7.84 7.84 0 00-3.2 2.544A7.91 7.91 0 000 162.945v208a8 8 0 008 8h336a8 8 0 008-8v-113.6l50.496-20.112a8 8 0 004.466-10.395zM336 362.945H16v-192h320v192zm-202.52-207.96l133.952-53.376a63.648 63.648 0 0045.864 19.776l13.36 33.6H133.48zM352 240.161v-77.216a8 8 0 00-8-8h-.128l-16.952-42.576a6.623 6.623 0 00-.656-1.008 7.904 7.904 0 00-8.36-6.16 47.84 47.84 0 01-41.944-18.064 7.929 7.929 0 00-10.264-1.792 8.99 8.99 0 00-1.128.208l-163.536 65.12a7.903 7.903 0 00-4.392 4.272H46.976l271.136-107.96 71.032 178.36L352 240.161z"/><path d="M37.712 308.937a47.834 47.834 0 0132.296 32.256 8 8 0 007.664 5.712 7.328 7.328 0 001.232-.184c.359.102.726.177 1.096.224h192c.33-.043.656-.11.976-.2a7.449 7.449 0 008.998-5.476l.01-.044a47.83 47.83 0 0132.296-32.296 7.897 7.897 0 005.488-8.8 8.07 8.07 0 00.232-1.184v-64a7.223 7.223 0 00-.24-1.184 7.887 7.887 0 00-5.488-8.8 47.784 47.784 0 01-32.28-32.304 7.904 7.904 0 00-8.864-5.488 7.605 7.605 0 00-1.128-.224H80a7.558 7.558 0 00-1.192.24 7.904 7.904 0 00-8.8 5.488 47.832 47.832 0 01-32.296 32.288 7.897 7.897 0 00-5.488 8.8 8.076 8.076 0 00-.224 1.184v64c.046.376.121.748.224 1.112a7.92 7.92 0 005.488 8.88zM48 238.193a63.481 63.481 0 0035.248-35.248h185.496A63.498 63.498 0 00304 238.193v57.504a63.554 63.554 0 00-35.248 35.248H83.248A63.554 63.554 0 0048 295.697v-57.504z"/><path d="M176 314.945c26.51 0 48-21.49 48-48s-21.49-48-48-48-48 21.49-48 48c.026 26.499 21.501 47.974 48 48zm0-80c17.673 0 32 14.327 32 32s-14.327 32-32 32-32-14.327-32-32 14.327-32 32-32zm-88 44c6.627 0 12-5.373 12-12s-5.373-12-12-12-12 5.373-12 12c0 6.628 5.373 12 12 12zm0-16a4 4 0 110 8 4 4 0 010-8zm176 16c6.627 0 12-5.373 12-12s-5.373-12-12-12-12 5.373-12 12c0 6.628 5.373 12 12 12zm0-16a4 4 0 110 8 4 4 0 010-8z"/></symbol><symbol id="icon-casino" viewBox="0 0 40 40"><title>casino</title><path d="M32.09 8.008A16.986 16.986 0 0020 3c-4.567 0-8.86 1.778-12.09 5.008a16.986 16.986 0 00-5.007 12.09 16.99 16.99 0 005.007 12.09A16.986 16.986 0 0020 37.194a17.07 17.07 0 008.847-2.464 1.335 1.335 0 10-1.384-2.285c-.21.127-.422.248-.638.364l-1.048-2.479a11.841 11.841 0 004.462-4.466l2.464 1.037c-.221.41-.462.81-.723 1.202a1.336 1.336 0 002.22 1.485 17.029 17.029 0 002.897-9.492 16.99 16.99 0 00-5.007-12.09zm-.411 10.761a11.69 11.69 0 00-.4-1.985l2.473-1.046c.308.97.516 1.985.612 3.031H31.68zm-5.915-8.913l1.042-2.475c.857.46 1.663 1.005 2.406 1.623l-1.898 1.898a11.819 11.819 0 00-1.55-1.046zm-7.1 24.605a14.34 14.34 0 01-3.004-.605l1.042-2.476c.634.186 1.29.319 1.962.395v2.686zM13.2 32.817a14.506 14.506 0 01-2.402-1.62l1.898-1.898c.486.387 1.003.736 1.546 1.042L13.2 32.817zm-5.902-5.888l2.474-1.046a11.84 11.84 0 001.034 1.528l-1.898 1.898a14.482 14.482 0 01-1.61-2.38zM8.9 10.894l1.898 1.898a11.781 11.781 0 00-1.044 1.55L7.28 13.3a14.49 14.49 0 011.62-2.406zm-.184 5.91a11.687 11.687 0 00-.395 1.965H5.636c.095-1.038.3-2.045.604-3.008l2.476 1.042zM5.637 21.44h2.686c.077.68.213 1.343.403 1.983L6.252 24.47a14.337 14.337 0 01-.615-3.03zm7.05-10.539l-1.899-1.898a14.5 14.5 0 012.384-1.611l1.046 2.473c-.538.306-1.05.652-1.531 1.036zm3.99-2.08l-1.046-2.474c.97-.309 1.986-.517 3.034-.614v2.685a11.67 11.67 0 00-1.988.403zm4.659-3.088c1.039.096 2.046.302 3.01.607l-1.043 2.475a11.678 11.678 0 00-1.967-.397V5.734zm9.764 5.16a14.496 14.496 0 011.61 2.384l-2.474 1.046a11.882 11.882 0 00-1.034-1.532l1.898-1.898zM24.365 33.85c-.982.31-1.997.516-3.029.611v-2.686c.68-.077 1.342-.212 1.981-.4l1.048 2.475zM20 29.18c-5.008 0-9.083-4.074-9.083-9.083 0-5.008 4.075-9.083 9.083-9.083a9.05 9.05 0 016.277 2.525 1.303 1.303 0 00.288.288 9.052 9.052 0 012.518 6.27c0 5.009-4.075 9.083-9.083 9.083zm11.28-5.776c.186-.634.32-1.29.397-1.963h2.685a14.263 14.263 0 01-.614 3.003l-2.468-1.04zm-9.391-3.3l1.4 1.4a2.003 2.003 0 11-1.883 1.895L20 21.992l-1.405 1.405.003.105a2.004 2.004 0 11-1.886-2l1.399-1.399-1.477-1.477-.04.001a2.004 2.004 0 111.995-1.824L20 18.215l1.41-1.411a2.004 2.004 0 111.995 1.824l-.04-.001-1.476 1.477z"/></symbol><symbol id="icon-check-circle" viewBox="0 0 16 16"><title>check-circle</title><path d="M8 14.667A6.667 6.667 0 108 1.334a6.667 6.667 0 000 13.333z" fill-opacity="0" stroke-width="1.406" stroke-linecap="round" stroke-linejoin="round"/><path d="M10.932 6.355l-4.031 3.91-1.833-1.778" fill-opacity="0" stroke-width="1.737" stroke-linecap="round" stroke-linejoin="round"/></symbol><symbol id="icon-check-mark" viewBox="0 0 10 8"><title>check-mark</title><path d="M8.375 1.75l-4.64 4.5-2.11-2.045" fill-opacity="0" stroke-width="2" stroke-linecap="round" stroke-linejoin="round"/></symbol><symbol id="icon-chevron-bottom" viewBox="0 0 1294 1487"><title>chevron-bottom</title><path d="M722.676 1442.61L1288.56 84.506c10.61-24.521 4.13-46.213-19.45-65.076-2.95-2.358-7.96-5.423-15.03-9.195-15.92-8.017-33.01-11.082-51.29-9.196-18.27 1.887-33.89 8.017-46.86 18.391 0 0-405.058 407.43-509.294 407.43C542.4 426.86 137.34 19.43 137.34 19.43 124.371 9.056 108.751 2.925 90.477 1.04 72.204-.848 55.11 2.217 39.194 10.234c-15.916 8.016-27.115 18.862-33.6 32.537C-.89 56.448-1.183 70.36 4.71 84.506L570.595 1442.61c3.537 9.43 10.021 17.91 19.452 25.46 15.916 12.73 34.778 18.86 56.589 18.39 17.094.47 32.715-3.3 46.862-11.32 14.147-8.01 23.873-18.86 29.178-32.53z"/></symbol><symbol id="icon-chevron-left" viewBox="0 0 1486 1293"><title>chevron-left</title><path d="M43.895 722.176L1401.99 1288.06c24.53 10.61 46.22 4.13 65.08-19.45 2.36-2.95 5.42-7.96 9.2-15.03 8.01-15.92 11.08-33.01 9.19-51.29-1.89-18.27-8.02-33.89-18.39-46.86 0 0-407.43-405.058-407.43-509.294 0-104.236 407.43-509.296 407.43-509.296 10.37-12.969 16.5-28.589 18.39-46.863 1.89-18.273-1.18-35.368-9.19-51.283-8.02-15.916-18.87-27.115-32.54-33.6-13.68-6.483-27.59-6.778-41.74-.884L43.895 570.095c-9.432 3.537-17.92 10.021-25.465 19.452C5.698 605.463-.432 624.326.04 646.136c-.472 17.094 3.3 32.715 11.317 46.862 8.016 14.147 18.862 23.873 32.538 29.178z"/></symbol><symbol id="icon-chevron-right" viewBox="0 0 1486 1293"><title>chevron-right</title><path d="M1442.11 722.176L84.006 1288.06c-24.522 10.61-46.214 4.13-65.076-19.45-2.358-2.95-5.423-7.96-9.196-15.03-8.016-15.92-11.081-33.01-9.195-51.29 1.886-18.27 8.017-33.89 18.39-46.86 0 0 407.431-405.058 407.431-509.294C426.36 541.9 18.93 136.84 18.93 136.84 8.555 123.871 2.425 108.251.539 89.977-1.347 71.704 1.718 54.61 9.734 38.694c8.017-15.916 18.863-27.115 32.538-33.6C55.947-1.388 69.86-1.683 84.005 4.21L1442.11 570.095c9.43 3.537 17.91 10.021 25.46 19.452 12.73 15.916 18.86 34.779 18.39 56.589.47 17.094-3.3 32.715-11.32 46.862-8.01 14.147-18.86 23.873-32.53 29.178z"/></symbol><symbol id="icon-chevron-top" viewBox="0 0 1294 1487"><title>chevron-top</title><path d="M722.676 44.395L1288.56 1402.49c10.61 24.53 4.13 46.22-19.45 65.08-2.95 2.36-7.96 5.42-15.03 9.2-15.92 8.01-33.01 11.08-51.29 9.19-18.27-1.89-33.89-8.02-46.86-18.39 0 0-405.058-407.43-509.294-407.43-104.236 0-509.296 407.43-509.296 407.43-12.969 10.37-28.589 16.5-46.863 18.39-18.273 1.89-35.368-1.18-51.283-9.19-15.916-8.02-27.115-18.87-33.6-32.54-6.484-13.68-6.778-27.59-.884-41.74L570.595 44.395c3.537-9.431 10.021-17.92 19.452-25.465C605.963 6.198 624.825.069 646.636.54c17.094-.472 32.715 3.3 46.862 11.317 14.147 8.017 23.873 18.863 29.178 32.538z"/></symbol><symbol id="icon-credit-card" viewBox="0 0 40 37"><title>credit-card</title><g opacity=".1"><path d="M36.64 0H3.36A3.33 3.33 0 00.988.984 3.404 3.404 0 000 3.374v23.611a3.418 3.418 0 00.988 2.391 3.32 3.32 0 002.371.984h4.47a12.31 12.31 0 01.044-4.279H4.272V14.778h31.467V26.07h-3.612c.131.739.208 1.489.208 2.262 0 .684-.054 1.355-.164 2.018h4.468a3.317 3.317 0 002.372-.984A3.388 3.388 0 0040 26.975V3.374a3.417 3.417 0 00-.99-2.39A3.318 3.318 0 0036.639 0zm-.901 7.818H4.272v-3.54h31.467v3.54z"/><path d="M20.007 19.664c-4.766 0-8.63 3.88-8.63 8.668 0 4.785 3.864 8.668 8.63 8.668 4.765 0 8.63-3.883 8.63-8.668 0-4.788-3.865-8.668-8.63-8.668zm2.481 12.085a2.716 2.716 0 01-1.439.927c-.252.066-.361.198-.35.463.01.254 0 .508 0 .773 0 .231-.122.352-.34.352-.275.011-.55.011-.824 0-.242 0-.351-.143-.351-.375v-.563c0-.407-.023-.43-.418-.496a5.157 5.157 0 01-1.46-.418c-.363-.177-.407-.265-.297-.65.077-.288.154-.574.241-.85.099-.33.188-.364.495-.21.516.265 1.053.42 1.626.486.362.043.723.01 1.064-.145.638-.275.735-1.013.198-1.455a2.221 2.221 0 00-.605-.352c-.56-.244-1.141-.43-1.658-.75-.856-.508-1.394-1.214-1.328-2.262.065-1.179.735-1.908 1.811-2.304.44-.165.45-.155.45-.618v-.473c.012-.354.067-.408.418-.421h.319c.747 0 .747 0 .747.75 0 .53 0 .53.527.607.395.066.779.177 1.152.342.208.088.287.232.22.453-.088.32-.175.65-.286.96-.099.297-.198.342-.483.209a3.61 3.61 0 00-1.823-.364 1.452 1.452 0 00-.482.098c-.55.244-.648.86-.176 1.237.243.184.508.336.79.45.494.2.977.398 1.45.663 1.449.804 1.855 2.67.812 3.936z"/></g></symbol><symbol id="icon-crown" viewBox="0 0 25 16"><title>crown</title><path fill-rule="evenodd" clip-rule="evenodd" d="M13.636 4.545a2.424 2.424 0 001.25-2.112C14.885 1.089 13.773 0 12.403 0s-2.48 1.09-2.48 2.433c0 .904.502 1.692 1.248 2.112l-2.4 3.203a1 1 0 01-1.475.137L3.28 4.202a1.85 1.85 0 00.537-1.301c0-1.034-.855-1.872-1.909-1.872S0 1.867 0 2.901c0 1.033.854 1.871 1.908 1.871.032 0 .064 0 .096-.002l.788 10.306a1 1 0 00.997.924h17.227a1 1 0 00.998-.927l.75-10.306c.045.003.09.005.136.005 1.054 0 1.909-.838 1.909-1.871 0-1.034-.855-1.872-1.909-1.872s-1.908.838-1.908 1.872c0 .496.197.948.52 1.283l-4 3.695a1 1 0 01-1.479-.135l-2.397-3.2z"/></symbol><symbol id="icon-cup" viewBox="0 0 30.928 30.928"><title>cup</title><path d="M24.791 4.451c.02-.948-.016-1.547-.016-1.547l-9.264-.007h-.094l-9.265.007s-.035.599-.015 1.547H0v1.012c0 .231.039 5.68 3.402 8.665C4.805 15.373 6.555 15.999 8.618 16c.312 0 .633-.021.958-.049 1.172 1.605 2.526 2.729 4.049 3.289v4.445H9.154v2.784H7.677v1.561h15.574v-1.56h-1.478v-2.784h-4.471v-4.445c1.522-.56 2.877-1.684 4.049-3.289.327.028.648.048.96.048 2.062-.002 3.812-.627 5.215-1.873 3.363-2.985 3.402-8.434 3.402-8.665V4.451h-6.137zM4.752 12.619c-1.921-1.7-2.489-4.61-2.657-6.144h4.158c.176 1.911.59 4.292 1.545 6.385.175.384.359.748.547 1.104-1.433-.055-2.639-.502-3.593-1.345zm21.424 0c-.953.844-2.16 1.29-3.592 1.345.188-.355.372-.72.547-1.104.955-2.093 1.369-4.474 1.544-6.385h4.158c-.168 1.533-.735 4.443-2.657 6.144z"/></symbol><symbol id="icon-exclamation-circle" viewBox="0 0 16 16"><title>exclamation-circle</title><path d="M8 14.667A6.667 6.667 0 108 1.333a6.667 6.667 0 000 13.334z" fill-opacity="0" stroke-width="1.406" stroke-linecap="round" stroke-linejoin="round"/><path fill-rule="evenodd" clip-rule="evenodd" d="M8 11.604A.938.938 0 018 9.73h.006a.938.938 0 010 1.875H8zM8.938 8a.938.938 0 01-1.876 0V5.333a.937.937 0 111.875 0V8z"/></symbol><symbol id="icon-expand-arrows-alt" viewBox="0 0 32 32"><title>expand-arrows-alt</title><path d="M18 10h4v4m-8 8h-4v-4m12-8l-4.666 4.667M10 22l4.667-4.666" stroke-width="2.24" stroke-linecap="round" stroke-linejoin="round"/></symbol><symbol id="icon-expand-arrows" viewBox="0 0 16 16"><title>expand-arrows</title><path d="M10 2h4v4m-8 8H2v-4m12-8L9.334 6.667M2 14l4.667-4.666" stroke-width="2.24" stroke-linecap="round" stroke-linejoin="round"/></symbol><symbol id="icon-eye" viewBox="0 0 1024 1024"><title>eye</title><path d="M512 128C128 128 0 512 0 512s122 320 512 320 512-320 512-320-128-384-512-384zm0 640c-320 0-384-256-384-256s66-256 384-256 384 256 384 256-64 256-384 256zm0-448c-19.531 0-37.938 3.781-55.688 9.219C489.156 344.438 512 377.469 512 416c0 53-43 96-96 96-38.531 0-71.562-22.844-86.781-55.688C323.781 474.062 320 492.469 320 512c0 106.062 86 192 192 192 106.062 0 192-85.938 192-192 0-106-85.938-192-192-192z"/></symbol><symbol id="icon-filter" viewBox="0 0 26 26"><title>filter</title><path d="M1.75 7.75h6.68c.336 1.295 1.504 2.259 2.903 2.259s2.567-.964 2.903-2.259H24.25a.75.75 0 000-1.5H14.236c-.336-1.295-1.504-2.259-2.903-2.259S8.766 4.955 8.43 6.25H1.75a.75.75 0 000 1.5zm9.583-2.259c.832 0 1.509.677 1.509 1.509s-.677 1.509-1.509 1.509S9.824 7.832 9.824 7s.677-1.509 1.509-1.509zM24.25 12.25h-1.606c-.336-1.295-1.504-2.259-2.903-2.259s-2.567.964-2.902 2.259H1.75a.75.75 0 000 1.5h15.089c.335 1.295 1.503 2.259 2.902 2.259s2.567-.964 2.903-2.259h1.606a.75.75 0 000-1.5zm-4.509 2.259c-.832 0-1.509-.677-1.509-1.509s.677-1.509 1.51-1.509a1.51 1.51 0 010 3.018zm4.509 3.741H9.718a3.005 3.005 0 00-2.902-2.259 3.006 3.006 0 00-2.902 2.259H1.75a.75.75 0 000 1.5h2.164a3.006 3.006 0 002.902 2.259 3.005 3.005 0 002.902-2.259H24.25a.75.75 0 000-1.5zM6.816 20.509a1.51 1.51 0 010-3.018c.831 0 1.508.677 1.508 1.509s-.677 1.509-1.508 1.509z"/></symbol><symbol id="icon-gamepad" viewBox="0 0 180 121"><title>gamepad</title><path d="M74.51 47.48c-.21-3.99-2.58-7.12-2.85-7.46l-1.03-1.31h-9.34l.04-10.21-1.87-.97c-.33-.17-3.36-1.67-7.51-1.81h-.02c-4.28-.11-7.31 1.44-7.64 1.61l-1.82.97v10.4H32.23l-1.01 1.61c-.26.41-2.52 4.17-2.05 8.95.44 4.6 2.2 6.72 2.72 7.26l1.01 1.04h9.14v8.95l.83.97c.28.33 2.9 3.2 8.14 3.28h.2c4.81 0 7.95-2.29 8.3-2.55l1.36-1.03v-9.64H71.2l1-1.71c.27-.44 2.51-4.42 2.31-8.35zm-7.46 3.18H54V63.4c-.72.26-1.7.5-2.87.48-.97-.02-1.69-.21-2.2-.43V50.67H36.42c-.16-.51-.31-1.19-.4-2.07v-.01c-.11-1.12.09-2.18.35-3h12.98V32.83c.66-.14 1.48-.24 2.38-.22 1.02.03 1.95.2 2.7.39l-.05 12.59h12.63c.31.66.58 1.46.62 2.25.05.83-.23 1.88-.58 2.82zm56.24-31.37c-3.42 0-6.63 1.33-9.03 3.74-2.4 2.41-3.73 5.62-3.73 9.04 0 3.41 1.32 6.62 3.73 9.02 2.41 2.41 5.62 3.74 9.03 3.74 7.04 0 12.77-5.72 12.77-12.76.01-7.05-5.72-12.78-12.77-12.78zm0 18.65a5.89 5.89 0 01-5.88-5.88c0-3.25 2.64-5.9 5.88-5.9 3.25 0 5.89 2.64 5.89 5.9.01 3.24-2.64 5.88-5.89 5.88zm0-18.65c-3.42 0-6.63 1.33-9.03 3.74-2.4 2.41-3.73 5.62-3.73 9.04 0 3.41 1.32 6.62 3.73 9.02 2.41 2.41 5.62 3.74 9.03 3.74 7.04 0 12.77-5.72 12.77-12.76.01-7.05-5.72-12.78-12.77-12.78zm0 18.65a5.89 5.89 0 01-5.88-5.88c0-3.25 2.64-5.9 5.88-5.9 3.25 0 5.89 2.64 5.89 5.9.01 3.24-2.64 5.88-5.89 5.88zm-48.78 9.54c-.21-3.99-2.58-7.12-2.85-7.46l-1.03-1.31h-9.34l.04-10.21-1.87-.97c-.33-.17-3.36-1.67-7.51-1.81h-.02c-4.28-.11-7.31 1.44-7.64 1.61l-1.82.97v10.4H32.23l-1.01 1.61c-.26.41-2.52 4.17-2.05 8.95.44 4.6 2.2 6.72 2.72 7.26l1.01 1.04h9.14v8.95l.83.97c.28.33 2.9 3.2 8.14 3.28h.2c4.81 0 7.95-2.29 8.3-2.55l1.36-1.03v-9.64H71.2l1-1.71c.27-.44 2.51-4.42 2.31-8.35zm-7.46 3.18H54V63.4c-.72.26-1.7.5-2.87.48-.97-.02-1.69-.21-2.2-.43V50.67H36.42c-.16-.51-.31-1.19-.4-2.07v-.01c-.11-1.12.09-2.18.35-3h12.98V32.83c.66-.14 1.48-.24 2.38-.22 1.02.03 1.95.2 2.7.39l-.05 12.59h12.63c.31.66.58 1.46.62 2.25.05.83-.23 1.88-.58 2.82zm7.46-3.18c-.21-3.99-2.58-7.12-2.85-7.46l-1.03-1.31h-9.34l.04-10.21-1.87-.97c-.33-.17-3.36-1.67-7.51-1.81h-.02c-4.28-.11-7.31 1.44-7.64 1.61l-1.82.97v10.4H32.23l-1.01 1.61c-.26.41-2.52 4.17-2.05 8.95.44 4.6 2.2 6.72 2.72 7.26l1.01 1.04h9.14v8.95l.83.97c.28.33 2.9 3.2 8.14 3.28h.2c4.81 0 7.95-2.29 8.3-2.55l1.36-1.03v-9.64H71.2l1-1.71c.27-.44 2.51-4.42 2.31-8.35zm-7.46 3.18H54V63.4c-.72.26-1.7.5-2.87.48-.97-.02-1.69-.21-2.2-.43V50.67H36.42c-.16-.51-.31-1.19-.4-2.07v-.01c-.11-1.12.09-2.18.35-3h12.98V32.83c.66-.14 1.48-.24 2.38-.22 1.02.03 1.95.2 2.7.39l-.05 12.59h12.63c.31.66.58 1.46.62 2.25.05.83-.23 1.88-.58 2.82zm53.94-2.88c-3.42 0-6.63 1.33-9.03 3.74-2.4 2.41-3.73 5.61-3.73 9.02 0 3.42 1.32 6.63 3.73 9.04 2.41 2.41 5.61 3.74 9.03 3.74 7.04 0 12.77-5.73 12.77-12.78 0-7.04-5.73-12.76-12.77-12.76zm0 18.65c-3.24 0-5.88-2.64-5.88-5.89a5.89 5.89 0 015.88-5.88c3.25 0 5.89 2.64 5.89 5.88 0 3.25-2.64 5.89-5.89 5.89zm2.3-47.14c-3.42 0-6.63 1.33-9.03 3.74-2.4 2.41-3.73 5.62-3.73 9.04 0 3.41 1.32 6.62 3.73 9.02 2.41 2.41 5.62 3.74 9.03 3.74 7.04 0 12.77-5.72 12.77-12.76.01-7.05-5.72-12.78-12.77-12.78zm0 18.65a5.89 5.89 0 01-5.88-5.88c0-3.25 2.64-5.9 5.88-5.9 3.25 0 5.89 2.64 5.89 5.9.01 3.24-2.64 5.88-5.89 5.88zm25.54-2.93c-7.03 0-12.76 5.72-12.76 12.76 0 7.05 5.72 12.78 12.76 12.78 7.05 0 12.78-5.73 12.78-12.78-.01-7.04-5.74-12.76-12.78-12.76zm0 18.66c-3.24 0-5.88-2.65-5.88-5.9a5.89 5.89 0 015.88-5.88c3.25 0 5.9 2.64 5.9 5.88-.01 3.25-2.65 5.9-5.9 5.9zm0-18.66c-7.03 0-12.76 5.72-12.76 12.76 0 7.05 5.72 12.78 12.76 12.78 7.05 0 12.78-5.73 12.78-12.78-.01-7.04-5.74-12.76-12.78-12.76zm0 18.66c-3.24 0-5.88-2.65-5.88-5.9a5.89 5.89 0 015.88-5.88c3.25 0 5.9 2.64 5.9 5.88-.01 3.25-2.65 5.9-5.9 5.9zm-25.54-8.85c7.04 0 12.77-5.72 12.77-12.76s-5.73-12.78-12.77-12.78c-3.42 0-6.63 1.33-9.03 3.74-2.4 2.41-3.73 5.62-3.73 9.04 0 3.41 1.32 6.62 3.73 9.02 2.41 2.41 5.62 3.74 9.03 3.74zm0-18.65c3.25 0 5.89 2.64 5.89 5.9 0 3.24-2.64 5.88-5.89 5.88a5.89 5.89 0 01-5.88-5.88c.01-3.26 2.64-5.9 5.88-5.9zm-2.3 21.61c-3.42 0-6.63 1.33-9.03 3.74-2.4 2.41-3.73 5.61-3.73 9.02 0 3.42 1.32 6.63 3.73 9.04 2.41 2.41 5.61 3.74 9.03 3.74 7.04 0 12.77-5.73 12.77-12.78 0-7.04-5.73-12.76-12.77-12.76zm0 18.65c-3.24 0-5.88-2.64-5.88-5.89a5.89 5.89 0 015.88-5.88c3.25 0 5.89 2.64 5.89 5.88 0 3.25-2.64 5.89-5.89 5.89zM71.66 40.02l-1.03-1.31h-9.34l.04-10.21-1.87-.97c-.33-.17-3.36-1.67-7.51-1.81h-.02c-4.28-.11-7.31 1.44-7.64 1.61l-1.82.97v10.4H32.23l-1.01 1.61c-.26.41-2.52 4.17-2.05 8.95.44 4.6 2.2 6.72 2.72 7.26l1.01 1.04h9.14v8.95l.83.97c.28.33 2.9 3.2 8.14 3.28h.2c4.81 0 7.95-2.29 8.3-2.55l1.36-1.03v-9.64H71.2l1-1.71c.26-.44 2.5-4.42 2.3-8.35-.2-3.99-2.57-7.12-2.84-7.46zm-4.61 10.64H54V63.4c-.72.26-1.7.5-2.87.48-.97-.02-1.69-.21-2.2-.43V50.67H36.42c-.16-.51-.31-1.19-.4-2.07v-.01c-.11-1.12.09-2.18.35-3h12.98V32.83c.66-.14 1.48-.24 2.38-.22 1.02.03 1.95.2 2.7.39l-.05 12.59h12.63c.31.66.58 1.46.62 2.25.05.83-.23 1.88-.58 2.82zm112.2 25.91c-.33-8.85-1.57-17.53-3.7-25.78-2.67-10.35-6.73-20.05-12.09-28.85C156.16 9.95 146.92 2.82 136 .75c-4.22-.8-8.68-.82-13.24-.07-3.6.59-7.27 1.67-10.91 3.2-6.19 2.59-10.19 5.61-10.35 5.73-1.63 1.23-4.98 2.36-7.04 2.37h-9.17c-2.02.01-5.35-1.11-6.99-2.35-.17-.13-4.18-3.15-10.37-5.74-3.65-1.53-7.32-2.61-10.92-3.2-4.57-.76-9.02-.73-13.25.07-10.92 2.07-20.16 9.2-27.45 21.18-5.36 8.8-9.42 18.51-12.09 28.86C2.09 59.05.84 67.73.51 76.58c-.54 14.45 1.53 24.54 1.79 25.76 1.96 11.94 8.69 18.62 18.6 18.62.63 0 1.28-.03 1.93-.08 2.96-.25 6.53-1.95 10.9-5.21 3.16-2.35 6.77-5.55 10.75-9.49 6.64-6.59 11.97-12.98 12.26-13.33 1.15-1.36 3.89-2.65 5.65-2.65l54.98-.01c1.76 0 4.5 1.29 5.64 2.66.23.27 5.58 6.69 12.27 13.32 3.97 3.94 7.59 7.14 10.75 9.49 4.37 3.26 7.94 4.96 10.9 5.21 5.74.48 10.69-1.2 14.3-4.85 3.17-3.21 5.26-7.81 6.22-13.69.27-1.22 2.34-11.31 1.8-25.76zm-8.53 24.36l-.02.1-.02.11c-.71 4.41-2.21 7.89-4.34 10.04-2.19 2.22-5.08 3.15-8.83 2.83-1.17-.1-5.87-1.31-17.35-12.7-6.46-6.41-11.81-12.81-11.86-12.88-2.44-2.93-7.14-5.14-10.93-5.14l-54.98.01c-3.78 0-8.47 2.2-10.92 5.11l-.01.01c-.05.06-5.4 6.48-11.86 12.88-11.48 11.39-16.17 12.59-17.33 12.69-3.76.31-6.65-.61-8.84-2.83-2.13-2.15-3.63-5.63-4.35-10.05l-.02-.1-.02-.1c-.02-.1-2.2-10.06-1.65-24.32.51-13.06 3.49-32.52 14.79-51.09 6.23-10.23 13.9-16.28 22.81-17.99 7.76-1.49 15.21.61 20.08 2.63 5.44 2.25 9.03 4.93 9.06 4.96 2.83 2.14 7.59 3.75 11.12 3.75h9.23c3.54-.02 8.33-1.64 11.15-3.76.04-.03 3.62-2.7 9.06-4.96 4.87-2.02 12.31-4.11 20.07-2.63 8.91 1.71 16.58 7.76 22.81 18 11.3 18.56 14.28 38.03 14.78 51.09.57 14.27-1.61 24.24-1.63 24.34zm-21.89-65.92c-7.03 0-12.76 5.72-12.76 12.76 0 7.05 5.72 12.78 12.76 12.78 7.05 0 12.78-5.73 12.78-12.78-.01-7.04-5.74-12.76-12.78-12.76zm0 18.66c-3.24 0-5.88-2.65-5.88-5.9a5.89 5.89 0 015.88-5.88c3.25 0 5.9 2.64 5.9 5.88-.01 3.25-2.65 5.9-5.9 5.9zm-25.54-8.85c7.04 0 12.77-5.72 12.77-12.76s-5.73-12.78-12.77-12.78c-3.42 0-6.63 1.33-9.03 3.74-2.4 2.41-3.73 5.62-3.73 9.04 0 3.41 1.32 6.62 3.73 9.02 2.41 2.41 5.62 3.74 9.03 3.74zm0-18.65c3.25 0 5.89 2.64 5.89 5.9 0 3.24-2.64 5.88-5.89 5.88a5.89 5.89 0 01-5.88-5.88c.01-3.26 2.64-5.9 5.88-5.9zm-2.3 21.61c-3.42 0-6.63 1.33-9.03 3.74-2.4 2.41-3.73 5.61-3.73 9.02 0 3.42 1.32 6.63 3.73 9.04 2.41 2.41 5.61 3.74 9.03 3.74 7.04 0 12.77-5.73 12.77-12.78 0-7.04-5.73-12.76-12.77-12.76zm0 18.65c-3.24 0-5.88-2.64-5.88-5.89a5.89 5.89 0 015.88-5.88c3.25 0 5.89 2.64 5.89 5.88 0 3.25-2.64 5.89-5.89 5.89zM71.66 40.02l-1.03-1.31h-9.34l.04-10.21-1.87-.97c-.33-.17-3.36-1.67-7.51-1.81h-.02c-4.28-.11-7.31 1.44-7.64 1.61l-1.82.97v10.4H32.23l-1.01 1.61c-.26.41-2.52 4.17-2.05 8.95.44 4.6 2.2 6.72 2.72 7.26l1.01 1.04h9.14v8.95l.83.97c.28.33 2.9 3.2 8.14 3.28h.2c4.81 0 7.95-2.29 8.3-2.55l1.36-1.03v-9.64H71.2l1-1.71c.26-.44 2.5-4.42 2.3-8.35-.2-3.99-2.57-7.12-2.84-7.46zm-4.61 10.64H54V63.4c-.72.26-1.7.5-2.87.48-.97-.02-1.69-.21-2.2-.43V50.67H36.42c-.16-.51-.31-1.19-.4-2.07v-.01c-.11-1.12.09-2.18.35-3h12.98V32.83c.66-.14 1.48-.24 2.38-.22 1.02.03 1.95.2 2.7.39l-.05 12.59h12.63c.31.66.58 1.46.62 2.25.05.83-.23 1.88-.58 2.82zm7.46-3.18c-.21-3.99-2.58-7.12-2.85-7.46l-1.03-1.31h-9.34l.04-10.21-1.87-.97c-.33-.17-3.36-1.67-7.51-1.81h-.02c-4.28-.11-7.31 1.44-7.64 1.61l-1.82.97v10.4H32.23l-1.01 1.61c-.26.41-2.52 4.17-2.05 8.95.44 4.6 2.2 6.72 2.72 7.26l1.01 1.04h9.14v8.95l.83.97c.28.33 2.9 3.2 8.14 3.28h.2c4.81 0 7.95-2.29 8.3-2.55l1.36-1.03v-9.64H71.2l1-1.71c.27-.44 2.51-4.42 2.31-8.35zm-7.46 3.18H54V63.4c-.72.26-1.7.5-2.87.48-.97-.02-1.69-.21-2.2-.43V50.67H36.42c-.16-.51-.31-1.19-.4-2.07v-.01c-.11-1.12.09-2.18.35-3h12.98V32.83c.66-.14 1.48-.24 2.38-.22 1.02.03 1.95.2 2.7.39l-.05 12.59h12.63c.31.66.58 1.46.62 2.25.05.83-.23 1.88-.58 2.82zm53.94-2.88c-3.42 0-6.63 1.33-9.03 3.74-2.4 2.41-3.73 5.61-3.73 9.02 0 3.42 1.32 6.63 3.73 9.04 2.41 2.41 5.61 3.74 9.03 3.74 7.04 0 12.77-5.73 12.77-12.78 0-7.04-5.73-12.76-12.77-12.76zm0 18.65c-3.24 0-5.88-2.64-5.88-5.89a5.89 5.89 0 015.88-5.88c3.25 0 5.89 2.64 5.89 5.88 0 3.25-2.64 5.89-5.89 5.89zm2.3-47.14c-3.42 0-6.63 1.33-9.03 3.74-2.4 2.41-3.73 5.62-3.73 9.04 0 3.41 1.32 6.62 3.73 9.02 2.41 2.41 5.62 3.74 9.03 3.74 7.04 0 12.77-5.72 12.77-12.76.01-7.05-5.72-12.78-12.77-12.78zm0 18.65a5.89 5.89 0 01-5.88-5.88c0-3.25 2.64-5.9 5.88-5.9 3.25 0 5.89 2.64 5.89 5.9.01 3.24-2.64 5.88-5.89 5.88zm25.54-2.93c-7.03 0-12.76 5.72-12.76 12.76 0 7.05 5.72 12.78 12.76 12.78 7.05 0 12.78-5.73 12.78-12.78-.01-7.04-5.74-12.76-12.78-12.76zm0 18.66c-3.24 0-5.88-2.65-5.88-5.9a5.89 5.89 0 015.88-5.88c3.25 0 5.9 2.64 5.9 5.88-.01 3.25-2.65 5.9-5.9 5.9zm-25.54-34.38c-3.42 0-6.63 1.33-9.03 3.74-2.4 2.41-3.73 5.62-3.73 9.04 0 3.41 1.32 6.62 3.73 9.02 2.41 2.41 5.62 3.74 9.03 3.74 7.04 0 12.77-5.72 12.77-12.76.01-7.05-5.72-12.78-12.77-12.78zm0 18.65a5.89 5.89 0 01-5.88-5.88c0-3.25 2.64-5.9 5.88-5.9 3.25 0 5.89 2.64 5.89 5.9.01 3.24-2.64 5.88-5.89 5.88zm-48.78 9.54c-.21-3.99-2.58-7.12-2.85-7.46l-1.03-1.31h-9.34l.04-10.21-1.87-.97c-.33-.17-3.36-1.67-7.51-1.81h-.02c-4.28-.11-7.31 1.44-7.64 1.61l-1.82.97v10.4H32.23l-1.01 1.61c-.26.41-2.52 4.17-2.05 8.95.44 4.6 2.2 6.72 2.72 7.26l1.01 1.04h9.14v8.95l.83.97c.28.33 2.9 3.2 8.14 3.28h.2c4.81 0 7.95-2.29 8.3-2.55l1.36-1.03v-9.64H71.2l1-1.71c.27-.44 2.51-4.42 2.31-8.35zm-7.46 3.18H54V63.4c-.72.26-1.7.5-2.87.48-.97-.02-1.69-.21-2.2-.43V50.67H36.42c-.16-.51-.31-1.19-.4-2.07v-.01c-.11-1.12.09-2.18.35-3h12.98V32.83c.66-.14 1.48-.24 2.38-.22 1.02.03 1.95.2 2.7.39l-.05 12.59h12.63c.31.66.58 1.46.62 2.25.05.83-.23 1.88-.58 2.82zm7.46-3.18c-.21-3.99-2.58-7.12-2.85-7.46l-1.03-1.31h-9.34l.04-10.21-1.87-.97c-.33-.17-3.36-1.67-7.51-1.81h-.02c-4.28-.11-7.31 1.44-7.64 1.61l-1.82.97v10.4H32.23l-1.01 1.61c-.26.41-2.52 4.17-2.05 8.95.44 4.6 2.2 6.72 2.72 7.26l1.01 1.04h9.14v8.95l.83.97c.28.33 2.9 3.2 8.14 3.28h.2c4.81 0 7.95-2.29 8.3-2.55l1.36-1.03v-9.64H71.2l1-1.71c.27-.44 2.51-4.42 2.31-8.35zm-7.46 3.18H54V63.4c-.72.26-1.7.5-2.87.48-.97-.02-1.69-.21-2.2-.43V50.67H36.42c-.16-.51-.31-1.19-.4-2.07v-.01c-.11-1.12.09-2.18.35-3h12.98V32.83c.66-.14 1.48-.24 2.38-.22 1.02.03 1.95.2 2.7.39l-.05 12.59h12.63c.31.66.58 1.46.62 2.25.05.83-.23 1.88-.58 2.82zm56.24-31.37c-3.42 0-6.63 1.33-9.03 3.74-2.4 2.41-3.73 5.62-3.73 9.04 0 3.41 1.32 6.62 3.73 9.02 2.41 2.41 5.62 3.74 9.03 3.74 7.04 0 12.77-5.72 12.77-12.76.01-7.05-5.72-12.78-12.77-12.78zm0 18.65a5.89 5.89 0 01-5.88-5.88c0-3.25 2.64-5.9 5.88-5.9 3.25 0 5.89 2.64 5.89 5.9.01 3.24-2.64 5.88-5.89 5.88zm-48.78 9.54c-.21-3.99-2.58-7.12-2.85-7.46l-1.03-1.31h-9.34l.04-10.21-1.87-.97c-.33-.17-3.36-1.67-7.51-1.81h-.02c-4.28-.11-7.31 1.44-7.64 1.61l-1.82.97v10.4H32.23l-1.01 1.61c-.26.41-2.52 4.17-2.05 8.95.44 4.6 2.2 6.72 2.72 7.26l1.01 1.04h9.14v8.95l.83.97c.28.33 2.9 3.2 8.14 3.28h.2c4.81 0 7.95-2.29 8.3-2.55l1.36-1.03v-9.64H71.2l1-1.71c.27-.44 2.51-4.42 2.31-8.35zm-7.46 3.18H54V63.4c-.72.26-1.7.5-2.87.48-.97-.02-1.69-.21-2.2-.43V50.67H36.42c-.16-.51-.31-1.19-.4-2.07v-.01c-.11-1.12.09-2.18.35-3h12.98V32.83c.66-.14 1.48-.24 2.38-.22 1.02.03 1.95.2 2.7.39l-.05 12.59h12.63c.31.66.58 1.46.62 2.25.05.83-.23 1.88-.58 2.82zm56.24-31.37c-3.42 0-6.63 1.33-9.03 3.74-2.4 2.41-3.73 5.62-3.73 9.04 0 3.41 1.32 6.62 3.73 9.02 2.41 2.41 5.62 3.74 9.03 3.74 7.04 0 12.77-5.72 12.77-12.76.01-7.05-5.72-12.78-12.77-12.78zm0 18.65a5.89 5.89 0 01-5.88-5.88c0-3.25 2.64-5.9 5.88-5.9 3.25 0 5.89 2.64 5.89 5.9.01 3.24-2.64 5.88-5.89 5.88zm25.54-2.93c-7.03 0-12.76 5.72-12.76 12.76 0 7.05 5.72 12.78 12.76 12.78 7.05 0 12.78-5.73 12.78-12.78-.01-7.04-5.74-12.76-12.78-12.76zm0 18.66c-3.24 0-5.88-2.65-5.88-5.9a5.89 5.89 0 015.88-5.88c3.25 0 5.9 2.64 5.9 5.88-.01 3.25-2.65 5.9-5.9 5.9zm-27.84-5.89c-3.42 0-6.63 1.33-9.03 3.74-2.4 2.41-3.73 5.61-3.73 9.02 0 3.42 1.32 6.63 3.73 9.04 2.41 2.41 5.61 3.74 9.03 3.74 7.04 0 12.77-5.73 12.77-12.78 0-7.04-5.73-12.76-12.77-12.76zm0 18.65c-3.24 0-5.88-2.64-5.88-5.89a5.89 5.89 0 015.88-5.88c3.25 0 5.89 2.64 5.89 5.88 0 3.25-2.64 5.89-5.89 5.89z"/></symbol><symbol id="icon-gift" viewBox="0 0 134 147"><title>gift</title><path d="M48.03 105.47c0 12.39.02 24.78-.02 37.17-.01 1.68.63 4.12-2.19 4.12-10.46.01-20.93.55-31.39-.27-5-.39-6.46-3.38-6.43-8.08.14-20.98.06-41.96.06-62.94 0-10.95 0-10.95 10.89-10.95 8.15 0 16.3.19 24.44-.08 3.86-.13 4.77 1.26 4.71 4.86-.19 12.05-.07 24.11-.07 36.17zm37.94-.28c0-12.06.1-24.11-.06-36.17-.05-3.38.9-4.64 4.47-4.57 10.47.2 20.95.18 31.42.01 3.37-.06 4.2 1.2 4.19 4.34-.1 23.12-.03 46.24-.08 69.37-.01 5.69-2.16 8.21-8.61 8.52-9.45.45-18.95.12-28.42.18-3.5.02-2.9-2.46-2.9-4.51-.03-12.4-.01-24.78-.01-37.17zm-6.96-14.14c0 16.69-.09 33.38.07 50.07.04 3.58-.83 5.11-4.71 4.86-4.8-.3-9.66-.33-14.46.01-4.09.29-5.01-1.28-4.99-5.09.14-26.93.08-53.87.08-80.8 0-6.61.15-13.22-.06-19.83-.11-3.35.81-4.81 4.45-4.61 4.98.27 9.99.29 14.96-.01 3.83-.23 4.78 1.21 4.74 4.83-.18 16.86-.08 33.71-.08 50.57zm-53.95-32.5c-6.31 0-12.62-.14-18.92.05-4.55.14-6.35-1.85-6.1-6.24.17-3.12.01-6.26.04-9.39.05-5.01 2.78-8.09 7.81-8.15 12.11-.14 24.23 0 36.34-.09 2.72-.02 3.91.8 3.84 3.66-.15 5.6-.13 11.21-.01 16.81.06 2.65-1.12 3.42-3.59 3.38-6.47-.09-12.94-.03-19.41-.03zm84.4 0c-6.48 0-12.96-.1-19.43.05-2.92.07-4.23-.77-4.12-3.9.2-5.44.16-10.89.01-16.33-.08-2.88 1.16-3.67 3.86-3.64 11.29.1 22.59-.08 33.88.08 7.77.11 10.14 2.39 10.21 10.08.12 14.7 1.56 13.75-12.95 13.66-3.82-.01-7.64.01-11.46 0zM64.31 28.81c-10.59 0-19.73.04-28.86-.02-3.4-.02-12.36-9.11-12.25-12.27.06-1.6 1.01-2.41 2.51-2.52 1.65-.12 3.34-.23 4.98-.06 4.2.45 5.84-1.39 5.37-5.44-.13-1.14-.01-2.31-.02-3.46-.02-1.54.06-3.15 1.76-3.73 1.59-.55 3.45-.71 4.65.75 7.09 8.58 14.09 17.23 21.86 26.75zm22.14 0c-4.49 0-8.97-.07-13.46.03-2.9.06-2.72-1.34-1.42-2.93C78.04 18.02 84.6 10.2 91.15 2.38 92.35.95 94.01.7 95.69 1.26c1.7.57 1.12 2.16 1.25 3.4.04.33 0 .66.01.99.12 8.18.12 8.15 8.45 8.28 1.76.03 3.86-.62 5.01 1.3 1.39 2.31-1.05 3.55-1.84 5.2-4.67 9.71-13.39 9.09-22.12 8.38z"/></symbol><symbol id="icon-home" viewBox="0 0 150 141"><title>home</title><path fill-rule="evenodd" clip-rule="evenodd" d="M3.737 68.752c-.98 1.07-1.973 2.154-3.677 2.138 0 2.33 0 4.66-.01 7.01 4.27 1.92 7.25.42 10.46-2.83 9.888-10.02 19.845-19.968 29.803-29.916 10.295-10.285 20.59-20.57 30.807-30.934 3.16-3.2 4.79-3.03 7.81.08 10.1 10.396 20.268 20.722 30.437 31.048 9.784 9.936 19.569 19.873 29.293 29.872 3.32 3.42 6.57 5.35 11.28 3.69v-6.99c-1.454.049-2.364-.862-3.284-1.784l-.086-.086-6.583-6.586c-7.671-7.68-15.343-15.358-23.057-22.994-1.57-1.55-2.03-3.25-2-5.36.041-3.687.034-7.37.027-11.052-.005-2.63-.01-5.259.003-7.888.02-3.5-1.61-5.16-5.15-5.19-3.62-.03-3.91 2.23-3.86 4.98.049 2.847.039 5.699.029 8.618-.005 1.234-.009 2.48-.009 3.742-1.854-.471-2.783-1.517-3.644-2.487a16.004 16.004 0 00-.706-.763c-1.566-1.552-3.136-3.1-4.706-4.647C91.028 14.618 85.142 8.814 79.45 2.83c-3.35-3.53-5.67-3.22-9 .09C52.1 21.169 33.646 39.306 15.192 57.441L4.48 67.97c-.254.248-.498.514-.743.782zm126.214 44.288a2536.8 2536.8 0 01-.002-14.259c.01-4.933.02-9.864-.029-14.791a121.99 121.99 0 01.007-2.42c.03-3.162.059-6.32-.857-9.46-.61-2.1-1.45-3.23-3.67-3.2-2.32.03-3.82 1.19-4.3 3.38-.21.96-.184 1.972-.157 2.978.008.335.017.67.017 1.002-.002 3.687-.007 7.374-.011 11.062-.017 13.285-.033 26.575.061 39.858.02 3.3-.71 4.82-4.4 4.69-7.15-.25-14.32-.22-21.48-.01-3.35.09-4.33-1.17-4.22-4.36.2-5.65.17-11.32.01-16.97-.13-4.28-1.51-7.18-6.88-6.81-5.136.357-10.303.254-15.461.152a676.15 676.15 0 00-4.019-.072c-2.73-.04-4.09.8-4.78 3.74-1.183 5.064-.963 10.156-.744 15.213.046 1.054.091 2.107.124 3.157.15 4.94-1.5 6.27-6.22 5.98-6.3-.39-12.66-.34-18.97-.01-4.06.21-5.05-1.24-5.01-5.11.124-10.867.112-21.733.1-32.6a4761.63 4761.63 0 010-17.32c.01-3.16-.6-5.77-4.39-5.91-3.61-.13-4.53 2.59-4.54 5.34-.11 19.14-.17 38.27.06 57.41.04 3.38.98 7.12 5.92 7.1 8.96-.036 17.925-.03 26.888-.024 3.361.002 6.722.004 10.082.004 3.27-.01 4.92-1.64 4.93-4.91.003-1.548-.005-3.098-.014-4.647-.015-2.945-.032-5.891.034-8.833.12-5.477-.425-7.806.486-8.803.92-1.005 3.319-.656 9.374-.817 3.44-.09 4.25 1.31 4.15 4.42-.095 2.91-.073 5.823-.05 8.735.023 2.912.045 5.825-.05 8.735-.15 4.54 1.82 6.23 6.27 6.17 7.85-.107 15.7-.087 23.55-.066 3.14.008 6.28.016 9.42.016 7.02 0 8.67-1.61 8.74-8.87.056-6.293.043-12.58.031-18.87z"/></symbol><symbol id="icon-in-play" viewBox="0 0 133 151"><title>in-play</title><path d="M67.36 150.82c-6.73 0-13.5-.69-19.93-2.7-.01 0-.03-.01-.04-.01-20.21-6.55-34.59-19.74-42.16-39.36C-1.68 90.82-.53 72.9 8.6 55.52c8.34-15.87 21.35-25.75 37.8-31.74.62-.23 1.22-.54 1.86-.7 6.55-1.61 8.31-4.56 6.75-11.05-.33-1.39-1.02-1.81-2.32-2.08-7.33-1.5-7.55-1.9-5.66-9h38.96c1.87 7.1 1.66 7.46-5.67 9.01-.83.18-1.6.28-2.08 1.1-2.36 4-1.61 9.82 2.93 10.91 27.93 6.7 50.33 33.79 51 62.98.68 30.05-22.22 58.16-50.35 63.88-.15.03-.29.07-.42.11-3.1 1.02-4.04 1.33-9.53 1.87l-4.51.01zm-2.19-5.99c33.04.35 59.63-25.93 59.66-58.54.03-33.51-25.56-58.92-58.86-59.27-32.59-.34-58.05 26.9-59.01 57.26-1.07 33.47 28.23 61.1 58.21 60.55z"/><path d="M27.18 19.04c1.16 0 2.42-.28 3.47.06 1.98.64 4.8.91 5.08 3.31.24 2.1-2.49 2.33-4.02 3.13-5.48 2.9-10.36 6.55-14.74 10.93-.97.97-1.81 2.8-3.62 1.88-1.6-.81-1.23-2.57-1.28-4.04-.31-8.97 6.01-15.4 15.11-15.27zm39.83 40.07c0 6.65-.06 13.3.03 19.95.04 2.6-.61 4.09-3.38 5.17-14.63 5.72-29.17 11.68-43.68 17.73-2.71 1.13-3.69-.37-3.7-2.2-.1-10.52-.76-20.88 3.14-31.28 7.51-20.04 23.52-28.34 42.43-33.32 3.23-.85 5.41-.29 5.23 4.01-.28 6.63-.07 13.29-.07 19.94z"/></symbol><symbol id="icon-info-alt" viewBox="0 0 32 32"><title>info-alt</title><path d="M16 21v-6m0-4.667h.013" stroke-width="3.267" stroke-linecap="round" stroke-linejoin="round"/></symbol><symbol id="icon-info" viewBox="0 0 28 28"><title>info</title><path d="M14 19v-6m0-4.667h.013" stroke-width="3.267" stroke-linecap="round" stroke-linejoin="round"/></symbol><symbol id="icon-live-backgammon" viewBox="0 0 150 151"><title>live-backgammon</title><circle cx="75" cy="74.826" r="72.5" stroke-width="5"/><path fill-rule="evenodd" clip-rule="evenodd" d="M57.928 5.253l-.415-3.174-2.98 1.172L39.74 9.07l-1.345.53-.213 1.429-5.223 35.09a51.853 51.853 0 016.114-7.114l3.842-25.81 10.47-4.12 2.49 19.03a51.175 51.175 0 014.827-1.653l-2.774-21.2zm16.006 122.331l.221 1.695.234-1.688.594.003c1.51 0 3.004-.065 4.48-.192l-2.903 20.945-4.955-.019-2.76-21.095c1.673.198 3.37.317 5.089.351zM29.847 100.99a51.29 51.29 0 01-3.778-8.58l-5.024 33.748 4.946.736 3.856-25.904zM93.27 27.786a51.185 51.185 0 00-4.83-1.563l2.909-20.989.427-3.085 2.92 1.085 15.672 5.82 1.36.505.236 1.432 6.032 36.568a51.847 51.847 0 00-6.356-7.813l-4.373-26.51-11.393-4.231-2.603 18.781zm28.082 70.838l4.427 26.844 4.934-.814-5.852-35.474a51.232 51.232 0 01-3.509 9.444z"/><circle cx="74.983" cy="76.022" r="49.072" stroke-width="5"/><path fill-rule="evenodd" clip-rule="evenodd" d="M72.453 45.193l-9.956-.856v-.002c-1.69-.138-4.58.368-5.907 1.594-.378.35-.721.886-1.036 1.376-.107.168-.211.33-.312.477L39.095 71.475a7.97 7.97 0 00.528 9.65l19.688 23.026a7.955 7.955 0 006.028 2.785l21.763.054h.019a7.946 7.946 0 006.574-3.475l12.635-18.54c.039.003.054-.029.068-.062.015-.033.029-.066.069-.066l3.535-5.32c1.914-3.109 1.484-7.154-1.113-9.766l-3.999-4.02-9.352-9.405-7.906-7.95a7.965 7.965 0 00-4.96-2.315l-4.728-.407-5.49-.471zm-8.378 4.79l20.487 22.178 19.745.781L83.74 52.26a2.474 2.474 0 00-1.537-.717l-18.128-1.56zm-20.44 24.584a2.468 2.468 0 00.163 2.987l19.12 22.362 16.899-24.799L58.78 52.345 43.635 74.567zm45.524 25.855a2.464 2.464 0 01-2.037 1.075h-.006l-18.6-.046 16.212-23.788 19.416.768-14.985 21.991z"/><path d="M62.2 64.662a2.5 2.5 0 10-5 0 2.5 2.5 0 005 0zm24.485-2.114a2.5 2.5 0 10-5 0 2.5 2.5 0 005 0zm5.722 22.505a2.5 2.5 0 10-5 0 2.5 2.5 0 005 0zm-6.92 10.144a2.5 2.5 0 10-5 0 2.5 2.5 0 005 0zM63.629 76.524a2.5 2.5 0 10-5 0 2.5 2.5 0 005 0zM62.29 90.619a2.5 2.5 0 100-5 2.5 2.5 0 000 5z"/></symbol><symbol id="icon-live-casino" viewBox="0 0 150 151"><title>live-casino</title><path d="M.07 78.78V72c0-4.88.7-9.73 2.07-14.41l.01-.04c1.07-3.64 2.04-7.37 3.57-10.82C15.69 24.31 32.5 9.72 56.17 3.11c.39-.11.79-.18 1.16-.29C62.28 1.47 67.41.95 72.54.95h6.34c4.88 0 9.73.7 14.41 2.07l.04.01c3.64 1.07 7.37 2.04 10.82 3.57 22.42 9.97 37.01 26.78 43.62 50.45.08.29.14.58.21.86 1.24 5.18 1.95 10.47 1.95 15.8v6.06c0 4.88-.7 9.73-2.07 14.41l-.01.04c-1.07 3.64-2.04 7.37-3.57 10.82-9.97 22.42-26.78 37.01-50.45 43.62-.39.11-.79.18-1.16.29-4.95 1.35-10.08 1.87-15.21 1.87H70.9c-4.81 0-9.58-.72-14.19-2.07-.01 0-.02-.01-.04-.01-3.64-1.07-7.37-2.04-10.82-3.57-22.42-9.97-37.01-26.78-43.62-50.45A59.599 59.599 0 01.07 78.78zm75.05-53.84c-27.53-1.46-51.96 22.34-51.76 50.7.2 29.54 22.4 51.47 51.13 51.86 29.73.4 50.11-23.95 51.72-48.47 2.07-31.6-26.26-56.23-51.09-54.09zM77 13.06c1.09 1.95-2.27 6.28 2.71 6.77 6.33.62 12.36 2.08 18.18 4.54 1.88.79 3.38.75 4.48-1.17 1.15-2.01 2.24-4.07 3.5-6.02 1.64-2.55.98-4.06-1.72-5.07-6.35-2.37-12.68-4.59-19.49-5.55C77.03 5.49 77 5.21 77 13.06zm0 124.77c0 8.02.41 8.7 5.26 7.89 6.02-1.01 12.04-2.07 17.75-4.41 8.1-3.31 7.84-3.14 3.49-10.87-2.09-3.7-3.92-3.8-7.49-2.3-4.07 1.72-8.55 3.39-12.86 3.41-5.6.04-7.16 2.06-6.15 6.28zM12.2 73.89c2.22-.63 6.26 1.66 6.75-3.14.62-6.16 2.1-12.05 4.52-17.72.81-1.91.77-3.44-1.26-4.55-2.01-1.1-4.01-2.22-5.94-3.45-2.55-1.64-4.05-.95-5.06 1.74-2.39 6.36-4.59 12.71-5.56 19.53-1.06 7.5-1.28 7.59 6.55 7.59zm124.55 0c7.65 0 8.85-.8 8.06-5.43-1-5.87-2.04-11.74-4.27-17.31-3.36-8.4-3.21-8.18-11.18-3.63-3.49 2-3.57 3.75-2.21 7.14 1.71 4.27 3.41 8.87 3.53 13.36.15 5.36 2.13 6.77 6.07 5.87zM43.76 27.4c-.99-1.92-2.25-4.07-3.22-6.34-2.02-4.75-4.7-3.86-7.87-1.22-4.71 3.92-9.2 7.98-13.01 12.86-4.3 5.53-4.42 5.91 1.73 9.35.87.49 1.83.83 2.64 1.38 2.63 1.77 4.27 1.07 6.1-1.49 3.08-4.31 6.92-8.01 11.2-11.18 1.07-.78 2.25-1.45 2.43-3.36zm89.97 10.28c-.97-1.43-1.91-2.98-3-4.41-3.62-4.75-7.77-8.94-12.5-12.66-5.58-4.39-5.92-4.51-9.37 1.6-.49.87-.83 1.83-1.38 2.65-1.73 2.57-1.17 4.22 1.37 6.15 3.53 2.69 6.74 5.89 9.76 9.17 4.68 5.1 4.61 5.29 10.69 1.46 1.58-.99 3.71-1.57 4.43-3.96zM43.8 123.95c-.29-1.26-1.11-2.06-2.1-2.68-4-2.5-6.97-6.13-10.14-9.49-4.97-5.28-4.84-5.4-11.1-1.56-.7.43-1.31 1.04-2.05 1.41-2.06 1.04-2.5 2.14-1.03 4.26 4.86 7.03 10.72 12.97 17.83 17.71.83.55 1.79 1.49 2.63.59 2.75-2.93 4.46-6.51 5.96-10.24zm69.35 10.67c.76-.49 1.62-.96 2.39-1.56 4.83-3.74 9.63-7.39 13.37-12.44 5.96-8.05 6.14-7.79-2.8-12.27-2.7-1.36-4.24-1.24-6.19 1.34-2.69 3.54-5.88 6.74-9.16 9.76-5.13 4.72-5.31 4.65-1.54 10.68.99 1.6 1.6 3.7 3.93 4.49zM71.92 13.26c-.79-2.67 2.49-8.21-4.39-7.15-5.7.88-11.39 1.98-16.82 4.06-8.96 3.44-8.84 3.34-3.8 11.77 1.58 2.65 3.01 3.64 5.9 2.13 4.15-2.16 8.81-3.36 13.3-3.75 4.98-.42 6.98-1.97 5.81-7.06zM12.03 78.98c-2.65.62-7.83-2.2-6.83 4.24 1.02 6.52 2.31 12.99 5.03 19.11 2.88 6.48 2.97 6.59 9.01 2.77.56-.35 1.05-.87 1.65-1.1 3.24-1.24 3.48-3.15 2.22-6.26-1.66-4.12-3.41-8.47-3.65-12.8-.3-5.39-2.27-7.15-7.43-5.96zm132.83 3.39c.27-2.48-.62-3.96-4.21-3.35-1.62.28-3.29.36-4.91.06-3.39-.62-4.57.16-4.82 2.74-.57 5.78-1.93 11.39-4.29 16.73-.62 1.4-1.29 3.01.26 4.05 2.6 1.74 5.38 3.24 8.14 4.75 1.44.79 2.56.24 3.21-1.22 3.39-7.59 5.72-15.48 6.62-23.76zM72 138.3c.79-3.97-.04-6.91-6.13-6.89-3.82.02-7.94-1.33-11.4-3.09-4.26-2.18-6.59-1.21-8.32 2.67-.43.95-1.32 2.41-1.88 3.29-1.75 2.75-1.23 4.38 2.02 5.55 6.07 2.18 12.04 4.44 18.54 5.25 7.2.91 7.17 1.21 7.17-6.78z"/><path d="M75.52 108.86c-3 0-5.99.01-8.99-.01-1.66-.01-3.46.15-4.23-1.83-.62-1.59.05-2.87 1.12-4.08 1.08-1.22 2.76-2.6 1.88-4.24-.89-1.66-3.03-.73-4.61-.8-10.23-.45-18.32-11.43-16.02-21.49 3.09-13.55 13.07-21.59 23.27-29.37 6.85-5.22 7.14-5.11 14.09-.05 7.96 5.79 15.2 12.33 20.34 20.92 6.53 10.92 2.68 24.21-8.47 29.02-1.4.61-2.82.84-4.33.99-1.7.17-4.21-1.08-4.91 1-.53 1.59 1.44 3.16 2.52 4.59.9 1.19 2.24 2.22 1.31 3.91-.86 1.58-2.49 1.43-3.99 1.44-2.99.01-5.98 0-8.98 0zm4.73-5.29c-1.17-2.61-2.33-4.96-3.27-7.4-.7-1.8-1.87-3.83.06-5.53 1.93-1.69 3.32.4 4.87 1.06 7.8 3.32 17.33-1.12 18.04-8.47.54-5.61-.38-10.82-3.72-15.59-5.13-7.35-12.05-12.71-19.11-17.96-1.35-1-2.82-1.06-4.16-.05-8.79 6.57-17.52 13.13-22.19 23.65-2.93 6.59-2.46 10.34 2.77 15.64 4.3 4.36 9.18 5.23 14.95 2.56 1.58-.73 3.1-2.61 4.77-.51 1.41 1.77.67 3.75-.14 5.64-3.2 7.5-3.18 7.51 5.06 7.23.62-.01 1.23-.15 2.07-.27z"/><path d="M122.09 77.43c-.91 16.35-8.12 30.56-24.1 39.36-17.42 9.59-34.43 7.81-50.81-2.87-1.65-1.08-3.96-2.23-2.59-4.58 1.63-2.8 3.85-.92 5.52.26 11.12 7.86 23.23 10.4 36.36 6.53 24.67-7.26 36.61-32.36 27.17-56.75-.3-.77-.7-1.51-1.03-2.27-.7-1.61-1.21-3.46.57-4.46 2.05-1.14 2.94.86 3.73 2.23 3.76 6.5 4.91 13.65 5.18 22.55zM28.01 75.7c.36-35.67 36.68-56.21 66.25-42.64.76.35 1.54.68 2.2 1.17 1.14.87 2.87 1.69 1.8 3.51-.91 1.55-2.57 1.36-4.02.74a61.149 61.149 0 00-12.32-3.84c-21.16-4.21-43.76 11-47.88 32.19-2.42 12.44-.24 23.75 7.41 33.87 1.42 1.88 2.18 3.48.06 5.08-2.59 1.95-3.47-.53-4.52-2.08-5.73-8.45-9.03-17.69-8.98-28zm81.87-30.36c.02 1.62-.56 2.6-2 2.45-2.57-.27-4.12-1.97-4.74-4.33-.41-1.57.51-2.69 2.16-2.41 2.5.41 3.89 2.19 4.58 4.29z"/></symbol><symbol id="icon-live-chat" viewBox="0 0 32 32"><title/><g data-name="Layer 25"><path d="M24 22a1 1 0 01-.64-.23L18.84 18H17a8 8 0 010-16h6a8 8 0 012 15.74V21a1 1 0 01-.58.91A1 1 0 0124 22zM17 4a6 6 0 000 12h2.2a1 1 0 01.64.23L23 18.86v-1.94a1 1 0 01.86-1A6 6 0 0023 4z"/><path d="M19 9h2v2h-2zm-5 0h2v2h-2zm10 0h2v2h-2zM8 30a1 1 0 01-.42-.09A1 1 0 017 29v-3.26a8 8 0 01-1.28-15 1 1 0 11.82 1.82 6 6 0 001.6 11.4 1 1 0 01.86 1v1.94l3.16-2.63a1 1 0 01.64-.27H15a5.94 5.94 0 004.29-1.82 1 1 0 011.44 1.4A8 8 0 0115 26h-1.84l-4.52 3.77A1 1 0 018 30z"/></g></symbol><symbol id="icon-lock" viewBox="0 0 500 500"><title>lock</title><path clip-rule="evenodd" d="M68.29 431.711c0 20.078 16.264 36.34 36.343 36.34h290.734c20.078 0 36.345-16.262 36.345-36.34V250c0-20.079-16.267-36.342-36.345-36.342h-218.05v-63.597c0-40.157 32.525-72.685 72.683-72.685 40.158 0 72.685 32.528 72.685 72.685v4.541c0 12.538 10.176 22.715 22.711 22.715 12.537 0 22.717-10.177 22.717-22.715v-4.541c0-65.232-52.882-118.111-118.112-118.111-65.24 0-118.111 52.879-118.111 118.111v63.597h-27.256c-20.079 0-36.343 16.263-36.343 36.342v181.711zm145.368-118.112c0-20.078 16.263-36.341 36.342-36.341s36.341 16.263 36.341 36.341c0 12.812-6.634 24.079-16.625 30.529 0 0 3.55 21.446 7.542 46.699a13.61 13.61 0 01-13.629 13.625h-27.258a13.608 13.608 0 01-13.627-13.625l7.542-46.699c-9.992-6.45-16.628-17.718-16.628-30.529z" fill-rule="evenodd"/></symbol><symbol id="icon-money-bill" viewBox="0 0 45 37"><title>money-bill</title><g opacity=".1"><path d="M12.386 7.732c-.901.014-1.405 0-1.405 0h1.405z" stroke-width="1.15" stroke-miterlimit="10" stroke-linecap="round" stroke-linejoin="round"/><path d="M22.26 31.634c8.314-1.18 15.333-3.463 20.864-6.784a.573.573 0 01.864.493v4.075a3.849 3.849 0 01-2.032 3.389c-5.714 3.077-12.797 4.18-19.37 4.18-11.175 0-18.399-3.128-20.82-4.366-.098-.05-.062-.197.048-.197 1.523 0 2.918.005 4.153.01h.105c1.069.004 2.055.008 2.98.008 5.008 0 8.244-.103 13.209-.808zm2.513-15.494a2.767 2.767 0 01-2.768 2.76 2.767 2.767 0 01-2.769-2.76 2.767 2.767 0 012.768-2.76 2.767 2.767 0 012.769 2.76z" stroke-width=".027"/><path d="M12.217 5.951zm.004 0l.003-.003.141-.004c3.554-.053 15.938-.61 26.079-5.539 2.552-1.24 5.54.616 5.54 3.462V19.81a.573.573 0 01-.284.494l-2.43 1.419-.02.011.008.012-.007-.012c-5.04 3.029-11.785 5.21-19.507 6.306-5.634.8-9 .788-15.707.764h-.06c-1.238-.005-2.637-.01-4.167-.01h-.777a1.017 1.017 0 01-1.019-1.015v-5.813c.001-2.959.003-6.905.003-12.174a3.853 3.853 0 013.858-3.848c5.492 0 7.394.004 8.033.006l.279.001h.034zm23.887-.684l-2.753.915a1.814 1.814 0 00.575 3.538c.191 0 .385-.03.576-.094l2.754-.915a1.814 1.814 0 001.15-2.296 1.822 1.822 0 00-2.302-1.148zM28.41 16.14c0-3.524-2.875-6.39-6.409-6.39s-6.409 2.866-6.409 6.39c0 3.524 2.875 6.39 6.41 6.39 3.533 0 6.408-2.866 6.408-6.39zm-18.34 4.59H7.317c-1.005 0-1.82.813-1.82 1.815 0 1.003.815 1.816 1.82 1.816h2.754c1.005 0 1.82-.813 1.82-1.816a1.818 1.818 0 00-1.82-1.815z" stroke-width=".027"/></g></symbol><symbol id="icon-plus" viewBox="0 0 16 16"><title>plus</title><path d="M8 3.333v9.334M3.333 8h9.334" stroke-width="3" stroke-linecap="round" stroke-linejoin="round"/></symbol><symbol id="icon-profile-user" viewBox="0 0 24 24"><title>profile-user</title><path d="M24 12c0-6.617-5.383-12-12-12S0 5.383 0 12a11.97 11.97 0 003.895 8.84l-.011.01.389.328c.025.021.053.039.078.06.207.171.421.334.64.492.07.05.14.102.213.151a12.22 12.22 0 001.697.978l.062.028a11.86 11.86 0 002.902.918l.08.015c.317.054.636.098.96.127l.118.01c.322.026.647.043.977.043.327 0 .65-.017.97-.043l.121-.009c.321-.03.638-.071.95-.125l.082-.015a11.891 11.891 0 002.862-.897l.1-.045a12.06 12.06 0 001.671-.955c.08-.055.16-.113.24-.17.191-.139.38-.281.562-.43.04-.033.084-.061.124-.095l.4-.333-.012-.01A11.969 11.969 0 0024 12zM.873 12C.873 5.864 5.864.873 12 .873 18.136.873 23.127 5.864 23.127 12a11.1 11.1 0 01-3.748 8.318 3.27 3.27 0 00-.39-.234l-3.694-1.847a.967.967 0 01-.538-.87v-1.29c.086-.106.176-.225.27-.357a8.892 8.892 0 001.141-2.235c.553-.263.91-.813.91-1.435v-1.547c0-.378-.139-.745-.387-1.034V7.433c.023-.227.103-1.505-.822-2.56-.804-.917-2.106-1.382-3.869-1.382-1.763 0-3.065.465-3.87 1.382-.924 1.055-.844 2.333-.82 2.56v2.036a1.59 1.59 0 00-.388 1.033v1.547c0 .48.216.929.585 1.231a8.2 8.2 0 001.35 2.788v1.263a.973.973 0 01-.508.854L4.9 20.067c-.11.06-.219.13-.328.208A11.1 11.1 0 01.873 12zm17.655 9.003c-.153.11-.309.218-.466.32a10.97 10.97 0 01-.847.502 11.119 11.119 0 01-1.664.717l-.056.02c-.274.09-.55.171-.831.24l-.003.001c-.282.07-.569.128-.857.175l-.023.005c-.271.044-.544.076-.818.1l-.146.01c-.271.021-.543.034-.817.034-.277 0-.552-.013-.827-.034l-.142-.01a11.285 11.285 0 01-.825-.102l-.037-.007a11.086 11.086 0 01-1.697-.424l-.051-.017a11.284 11.284 0 01-.813-.311l-.006-.003c-.252-.108-.5-.229-.744-.356-.032-.016-.064-.032-.095-.05a11.214 11.214 0 01-.846-.503c-.198-.13-.394-.265-.584-.407l-.058-.046.042-.023 3.45-1.882c.593-.324.962-.945.962-1.62v-1.573l-.1-.121c-.01-.01-.954-1.159-1.31-2.712l-.04-.173-.149-.097a.723.723 0 01-.335-.607v-1.547c0-.203.086-.392.243-.534l.144-.13v-2.43l-.004-.057c-.001-.01-.13-1.06.61-1.903.63-.72 1.711-1.084 3.212-1.084 1.495 0 2.573.362 3.206 1.076.738.834.617 1.903.616 1.911l-.004 2.488.144.13c.157.142.243.33.243.534v1.547a.729.729 0 01-.515.687l-.217.067-.07.216a8.073 8.073 0 01-1.089 2.196 5.359 5.359 0 01-.321.414l-.108.123v1.614c0 .704.39 1.336 1.02 1.65l3.695 1.848.07.036c-.047.035-.095.068-.142.102z"/></symbol><symbol id="icon-search" viewBox="0 0 20 20"><title>search</title><path d="M9.111 16.222A7.111 7.111 0 109.111 2a7.111 7.111 0 000 14.222zM18 18l-3.867-3.867" stroke-width="2.8" stroke-linecap="round" stroke-linejoin="round"/></symbol><symbol class="svg-inline--fa fa-sliders-h fa-w-16 fa-3x" id="icon-sliders-v" viewBox="0 0 512 512"><title>sliders-v</title><path d="M496 72H288V48c0-8.8-7.2-16-16-16h-32c-8.8 0-16 7.2-16 16v24H16C7.2 72 0 79.2 0 88v16c0 8.8 7.2 16 16 16h208v24c0 8.8 7.2 16 16 16h32c8.8 0 16-7.2 16-16v-24h208c8.8 0 16-7.2 16-16V88c0-8.8-7.2-16-16-16zm0 320H160v-24c0-8.8-7.2-16-16-16h-32c-8.8 0-16 7.2-16 16v24H16c-8.8 0-16 7.2-16 16v16c0 8.8 7.2 16 16 16h80v24c0 8.8 7.2 16 16 16h32c8.8 0 16-7.2 16-16v-24h336c8.8 0 16-7.2 16-16v-16c0-8.8-7.2-16-16-16zm0-160h-80v-24c0-8.8-7.2-16-16-16h-32c-8.8 0-16 7.2-16 16v24H16c-8.8 0-16 7.2-16 16v16c0 8.8 7.2 16 16 16h336v24c0 8.8 7.2 16 16 16h32c8.8 0 16-7.2 16-16v-24h80c8.8 0 16-7.2 16-16v-16c0-8.8-7.2-16-16-16z"/></symbol><symbol id="icon-slotmachine" viewBox="0 0 151 148"><title>slotmachine</title><path d="M58.6 0h.56c3.27 0 6.35 1.53 8.33 4.14 1.44 1.89 2.82 3.78 2.43 6.37-.76 4.97 2.18 6.02 5.95 6.4 5.83.59 11.55 1.93 16.86 4.23 20.64 8.91 29.86 17.53 29.31 39.92-.25 10.15.19 20.31-.15 30.45-.15 4.57 1.45 5.77 5.73 5.51 3.66-.22 6.65.38 6.53-5.22-.38-16.8-.16-33.62-.11-50.43.01-2.66-.44-4.35-3.28-5.86-4.88-2.58-7.33-7.23-6.69-12.92.59-5.16 3.4-9.13 8.19-11.08 5-2.04 9.75-1.18 13.68 2.87.26.27.52.56.78.84 2.13 2.26 3.29 5.25 3.29 8.35v.39c0 4.16-1.73 8.27-5.06 10.78-.35.27-.74.48-1.19.6-4 1.13-3.8 3.92-3.79 7 .05 15.8.02 31.59.02 47.39 0 14.21 1.24 13.38-13.15 13.11-3.61-.07-5.19.87-4.93 4.73.2 2.87-.43 6.53-4.12 6.12-6.82-.76-7.39 2.81-6.8 7.93.38 3.33-.62 5.62-4.58 5.26-2.65-.24-3.55 1.12-3.41 3.6.1 1.82.02 3.66.02 5.49-.02 8.43-3.34 11.86-11.7 11.88-19.47.03-38.95-.06-58.42.07-3.79.02-6.66-1.17-9.3-3.84-3.4-3.44-3.74-7.65-3.53-11.98.18-3.77-.62-5.99-5.39-5.18-2.49.42-4.74-1.66-4.34-4.16 1.35-8.37-3.92-9.52-10.34-9.85V52.13c0-3.41.72-6.81 2.32-9.82.3-.57.54-1.2.88-1.74 2.27-3.63 4.62-7.08 8.11-9.84 10.04-7.97 21.63-11.82 34.05-13.7 2.07-.31 3.85-.93 3.54-3.18-.5-3.67.48-6.72 2.11-9.54C52.58 1.61 55.5 0 58.6 0zm2.31 50.03c16.63 0 33.26.01 49.89-.01 5.34 0 5.81-.79 3.3-5.65-4.3-8.33-11.79-13.06-20.02-16.34-22.59-9.01-45.38-8.68-67.77.59-7.68 3.18-14.56 8.09-18.48 15.98-2.33 4.7-1.9 5.41 3.18 5.42 16.64.02 33.27.01 49.9.01zM39.05 81.99c0-7.32-.1-14.64.05-21.96.07-3.59-1.44-4.48-6.01-3.92-7.47.9-15.02.71-22.51-.06-4.77-.48-5.85.82-5.42 5.55 1.2 13.38 1.51 26.84.06 40.19-.59 5.49.52 6.76 6.15 6.04 7.02-.9 14.14-1 21.15-.04 5.01.69 6.66-.1 6.59-3.84-.16-7.32-.06-14.64-.06-21.96zm37.97-.01c0-7.32-.1-14.65.05-21.96.05-2.28-1.75-4.1-4.03-4.06-8.32.14-16.65.14-24.98 0-3.65-.06-4.4 1.54-3.92 6.11 1.42 13.45 1.09 27-.06 40.47-.42 4.86.87 5.96 6.13 5.31 6.73-.84 13.54-.98 20.26-.05 5 .69 6.67-.09 6.6-3.84-.15-7.33-.05-14.65-.05-21.98zm38.95.52c0-7.49-.1-14.98.05-22.47.08-4.07-1.88-4.67-8.02-3.62-5.61.96-11.35.91-16.97-.01-7.17-1.17-8.65-.29-7.89 6.04 1.57 13.11 1.32 26.36-.05 39.5-.56 5.4.61 6.64 6.33 5.87 6.79-.92 13.68-.78 20.48.05 4.59.56 6.2-.24 6.12-3.89-.15-7.16-.05-14.32-.05-21.47zm-53.81 44.44c-10.48 0-20.97-.01-31.45.02-1.45 0-3.65-.56-4.09.97-.99 3.51-1.22 7.31.11 10.75.96 2.47 3.35 3.32 6.16 3.31 19.8-.09 39.61-.1 59.41 0 3.85.02 5.28-1.94 5.63-5.24.05-.45.06-.91.05-1.36-.03-8.44.56-8.45-6.38-8.45-9.81-.01-19.62 0-29.44 0zm-1.63-5.98c13.65 0 27.3-.02 40.95.02 2.51.01 4.57.01 4.57-3.53 0-3.55-2.07-3.52-4.58-3.52-26.96.03-53.93.03-80.89 0-2.52 0-4.57 0-4.57 3.53 0 3.55 2.08 3.52 4.58 3.51 13.31-.03 26.63-.01 39.94-.01zm69.41-97.18c-.07 4.52 2.94 7.92 7.01 7.92 3.66 0 7.91-4.12 7.9-7.67-.01-3.36-4.31-7.85-7.65-7.96-4.02-.14-7.19 3.23-7.26 7.71zm-70.96-7.75c2.6-.18 6 .89 6-3.64 0-3.15-2.64-7.1-5.69-7.07-3.7.03-4.98 3.19-5.27 6.71-.32 3.96 1.93 4.34 4.96 4z"/><path d="M22.58 63.05c2.66 0 5.32-.07 7.98.02 3.19.11 4.01 1.93 3.05 4.73-.76 2.19-1.77 4.3-2.45 6.52-.6 1.98-3.15 4.67 1.57 5.26.97.12 1.39 1.4 1.09 2.48-.38 1.39-1.48 2.77-2.69 2.62-5.51-.68-5.87 3.72-7.38 7.03-1.03 2.26-1.92 4.59-3.06 6.8-.68 1.32-2.01 1.74-3.43 1.17-1.4-.56-1.38-1.95-1.06-2.99.77-2.53 1.74-5 2.79-7.43.96-2.22 1.88-4.14-1.9-4.34-2.19-.12-4.01-1.34-3.69-3.76.33-2.44 2.61-2.07 4.4-2.14 4.84-.2 8-3.38 8.43-8.08.22-2.36-1.27-1.88-2.48-1.9-2.99-.06-5.98-.02-8.97-.04-2.08-.01-3.65-.72-3.57-3.13.07-2.11 1.53-2.78 3.39-2.8 2.66-.04 5.32-.02 7.98-.02zm38.54 0c12.92-.18 13.5-.27 8.41 11.8-.88 2.08-2.27 4.03 1.6 4.44 1.21.13 1.96 1.31 1.64 2.65-.38 1.58-1.56 2.94-3.08 2.83-4.7-.34-5.69 2.89-6.87 6.3-.91 2.65-2.08 5.23-3.36 7.73-.57 1.1-1.6 2.39-3.19 1.57-1.39-.72-2.37-1.84-1.62-3.65.76-1.83 1.59-3.66 2.17-5.55.86-2.82 4.25-6.77-2.74-6.48-1.43.06-2.08-1.54-1.92-3.01.28-2.43 2.14-2.97 4.02-2.62 5.68 1.05 7.04-2.75 8.32-6.92.7-2.26-.1-3.12-2.28-3.12-2.99-.01-5.98.05-8.96-.06-1.97-.08-3.84-.92-3.73-3.12.09-1.84 1.81-2.69 3.61-2.75 2.67-.1 5.33-.04 7.98-.04zm36.31 22.54c-2.51-1.24-7.07.23-6.79-3.62.3-4.11 4.52-2.68 7.31-2.98 1.99-.21 6.2-6.83 5.56-8.83-.48-1.53-1.86-1.11-2.95-1.14-3.15-.07-6.31 0-9.46-.08-1.69-.04-2.87-.89-2.97-2.7-.11-2.05 1.04-3.14 3-3.16 5.48-.07 10.96-.06 16.44-.02 2.92.02 3.8 1.89 3.28 4.35-.44 2.09-1.29 4.11-2.14 6.08-1.02 2.36-2.99 4.4 1.07 6.29 2.35 1.1 1.26 5.06-1.43 4.95-4.53-.18-5.47 2.76-6.66 5.88-.83 2.17-1.85 4.27-2.55 6.47-.74 2.33-2.12 3.5-4.43 2.52-2.4-1.01-1.45-2.97-.81-4.69 1.14-3.08 2.32-6.15 3.53-9.32z"/></symbol><symbol id="icon-social-facebook" viewBox="0 0 10 18"><title>social-facebook</title><path d="M9.667.46h-2.5A4.167 4.167 0 003 4.627v2.5H.5v3.333H3v6.667h3.333V10.46h2.5l.834-3.333H6.333v-2.5a.833.833 0 01.834-.834h2.5V.46z"/></symbol><symbol id="icon-social-instagram" viewBox="0 0 18 18"><title>social-instagram</title><path fill-rule="evenodd" clip-rule="evenodd" d="M13.166.46H4.833A4.167 4.167 0 00.666 4.627v8.333a4.167 4.167 0 004.167 4.167h8.333a4.167 4.167 0 004.167-4.167V4.627A4.167 4.167 0 0013.166.46zM9.402 6.284a2.5 2.5 0 10-.733 4.946 2.5 2.5 0 00.733-4.946zM7.116 5.06a4.167 4.167 0 113.838 7.396A4.167 4.167 0 017.116 5.06zm6.467-1.682a.833.833 0 000 1.666h.009a.833.833 0 000-1.666h-.01z"/></symbol><symbol id="icon-social-pinterest" viewBox="0 0 56.693 56.693"><title>social-pinterest</title><path d="M30.374 4.622c-13.586 0-20.437 9.74-20.437 17.864 0 4.918 1.862 9.293 5.855 10.922.655.27 1.242.01 1.432-.715.132-.5.445-1.766.584-2.295.191-.717.117-.967-.412-1.594-1.151-1.357-1.888-3.115-1.888-5.607 0-7.226 5.407-13.695 14.079-13.695 7.679 0 11.898 4.692 11.898 10.957 0 8.246-3.649 15.205-9.065 15.205-2.992 0-5.23-2.473-4.514-5.508.859-3.623 2.524-7.531 2.524-10.148 0-2.34-1.257-4.292-3.856-4.292-3.058 0-5.515 3.164-5.515 7.401 0 2.699.912 4.525.912 4.525l-3.678 15.582c-1.092 4.625-.164 10.293-.085 10.865.046.34.482.422.68.166.281-.369 3.925-4.865 5.162-9.359.351-1.271 2.011-7.859 2.011-7.859.994 1.896 3.898 3.562 6.986 3.562 9.191 0 15.428-8.379 15.428-19.595.001-8.483-7.183-16.382-18.101-16.382z"/></symbol><symbol id="icon-social-telegram" viewBox="0 0 24 24"><title>social-telegram</title><path d="M9.417 15.181l-.397 5.584c.568 0 .814-.244 1.109-.537l2.663-2.545 5.518 4.041c1.012.564 1.725.267 1.998-.931L23.93 3.821l.001-.001c.321-1.496-.541-2.081-1.527-1.714l-21.29 8.151c-1.453.564-1.431 1.374-.247 1.741l5.443 1.693L18.953 5.78c.595-.394 1.136-.176.691.218z"/></symbol><symbol id="icon-social-twitter" viewBox="0 0 19 16"><title>social-twitter</title><path d="M18.5.301a9.083 9.083 0 01-2.616 1.275 3.733 3.733 0 00-6.55 2.5v.834a8.883 8.883 0 01-7.5-3.775S-1.5 8.635 6 11.968a9.7 9.7 0 01-5.833 1.667c7.5 4.166 16.667 0 16.667-9.584a3.728 3.728 0 00-.067-.691A6.433 6.433 0 0018.5.3z"/></symbol><symbol class="svg-inline--fa fa-spinner-third fa-w-16 fa-3x" id="icon-spinner-third" viewBox="0 0 512 512"><title>spinner-third</title><g class="fa-group"><path fill-opacity=".2" d="M478.71 364.58zm-22 6.11l-27.83-15.9a15.92 15.92 0 01-6.94-19.2A184 184 0 11256 72c5.89 0 11.71.29 17.46.83-.74-.07-1.48-.15-2.23-.21-8.49-.69-15.23-7.31-15.23-15.83v-32a16 16 0 0115.34-16C266.24 8.46 261.18 8 256 8 119 8 8 119 8 256s111 248 248 248c98 0 182.42-56.95 222.71-139.42-4.13 7.86-14.23 10.55-22 6.11z" class="fa-secondary"/><path d="M271.23 72.62c-8.49-.69-15.23-7.31-15.23-15.83V24.73c0-9.11 7.67-16.78 16.77-16.17C401.92 17.18 504 124.67 504 256a246 246 0 01-25 108.24c-4 8.17-14.37 11-22.26 6.45l-27.84-15.9c-7.41-4.23-9.83-13.35-6.2-21.07A182.53 182.53 0 00440 256c0-96.49-74.27-175.63-168.77-183.38z" class="fa-primary"/></g></symbol><symbol id="icon-sportsbook" viewBox="0 0 150 151"><title>sportsbook</title><path d="M149.93 72.85v6.87c0 5.39-.62 10.78-2.15 15.94 0 .01-.01.03-.01.04-1.59 5.22-3.27 10.45-5.93 15.23-10.54 18.94-26.08 31.73-47.02 37.74-.26.07-.52.13-.78.19-5.19 1.24-10.49 1.97-15.83 1.97h-7.02c-5.39 0-10.79-.62-15.96-2.15-.01 0-.03-.01-.04-.01-5.23-1.59-10.45-3.28-15.23-5.93C21.02 132.2 8.23 116.66 2.22 95.72c0-.01-.01-.03-.01-.04C.69 90.24.06 84.6.06 78.95v-6.86c0-5.39.62-10.79 2.15-15.96 0-.01.01-.03.01-.04 1.59-5.23 3.28-10.45 5.93-15.23C18.69 21.92 34.23 9.13 55.17 3.13c.01 0 .03-.01.04-.01C60.64 1.6 66.29.97 71.93.97h6.87c5.39 0 10.79.62 15.96 2.15.01 0 .03.01.04.01 5.23 1.59 10.45 3.27 15.23 5.93 18.94 10.54 31.73 26.08 37.74 47.02 0 .01.01.03.01.04 1.53 5.43 2.15 11.08 2.15 16.73zm-25.96-46.93c-.12-.4-.25-.8-.37-1.2-.12.08-.24.15-.35.23.23.33.46.67.7 1 1.95 8.95 7.11 15.48 14.99 19.99.12.4.24.8.36 1.21.12-.08.24-.15.35-.23-.23-.33-.46-.67-.69-1-3.13-8.07-7.13-15.49-14.99-20zM59.72 76.87c2.22-.42 3.85-.73 5.47-1.04 6.99-1.33 14.57-1.4 20.81-4.33 7.04-3.31 6.04-12.54 9.5-18.73.32-.57.3-1.33.65-1.87 6.65-10.27 3.14-17.47-5.37-25.28-6.12-5.62-11.99-7.51-19.55-6.63-1.97.23-3.95.52-5.87.99-19.95 4.91-26.44 9.07-31.47 28.46-.58 2.24-.23 3.67 1.4 5.26 7.12 6.99 14.13 14.1 21.18 21.16 1.07 1.08 2.14 2.15 3.25 2.01zm82.41-7.98c-.5-9.61-6.46-16.44-12.15-23.31-1.83-2.21-3.58-5.35-6.79-5.47-4.48-.18-8.9-.67-13.33-1.18-3.04-.35-4.54 1.21-5.29 4.95-1.76 8.84-4.77 17.34-9.02 25.29-2.12 3.96-1.26 6.37 1.55 9.87 3.35 4.17 6.15 8.77 7.93 13.82 1.96 5.57 4.57 5.78 10.12 4.22 4.72-1.33 9.65-1.63 14.53-1.19 2.79.25 3.96-.58 4.98-2.33 4.39-7.64 5.84-16.13 7.47-24.67zM10.1 83.57c-.89 13.22 5.47 22.84 15.06 30.92 1.59 1.34 3.28 1.7 5.09 1.11 6.32-2.04 12.61-4.18 18.89-6.35 1.96-.68 3.08-2.07 2.89-4.75-.45-6.45.25-12.89 1.75-19.17.73-3.03.04-5.2-1.96-7.22-6.2-6.24-12.73-12.16-18.23-19.08-1.2-1.51-2.53-3.06-4.85-3.13-4.52-.15-14.46 6.31-15.67 10.65-1.56 5.58-2.91 11.22-2.97 17.02zm19.94 42.1c-.02 5.47-.02 5.46 4.34 8.38 1.38.92 2.73 1.9 4.14 2.78 13.34 8.28 27.49 11.27 42.78 6.34 1.86-.6 5.09-.55 4.33-3.66-1.83-7.39-2.41-14.65-12.05-18.24-19.7-7.33-19.39-8.03-39.06-1.48-3.35 1.11-5.32 2.55-4.48 5.88zm103.91-15.2c-.02-8.68-.02-8.68-7.87-8.61h-1.5c-10.31.07-20.07 1.37-26.33 11.13-.96 1.5-2.4 2.8-3.86 3.88-5.79 4.26-7.31 9.19-4.79 16.33 1.67 4.72 2.48 6.68 8.34 5.88 13.29-1.8 23.82-7.62 32.07-17.92 2.65-3.28 4.91-6.8 3.94-10.69zM32.88 18.72c5.28 1.2 8.89 4.58 13.76 1.98 9.39-5.01 19.45-7.69 30.15-6.68 6.36.6 10.18-3.06 15.01-7.25-21.57-4.44-40.54-.86-58.92 11.95zM4.69 84.71c-.03-5.64.78-11.16 2.36-16.54 1.54-5.28 2.9-10.53 1.37-17.06-4.23 11.54-4.97 22.45-3.73 33.6z"/><path d="M123.94 25.94c-.23-.33-.46-.67-.7-1 .12-.08.24-.15.35-.23.12.4.25.8.37 1.2.01.01-.02.03-.02.03zm15.01 19.97c.23.33.46.67.69 1-.12.08-.24.15-.35.23-.12-.4-.24-.8-.36-1.21l.02-.02z"/></symbol><symbol id="icon-times-alt" viewBox="0 0 32 32"><title>times-alt</title><path d="M20.8 11.2l-9.6 9.6m0-9.6l9.6 9.6" stroke-width="3" stroke-linecap="round" stroke-linejoin="round"/></symbol><symbol id="icon-times" viewBox="0 0 24 24"><title>times</title><path d="M18 6L6 18M6 6l12 12" stroke-width="3" stroke-linecap="round" stroke-linejoin="round"/></symbol><symbol id="icon-user" viewBox="0 0 512 512"><title>user</title><path d="M471.387 325.012c-16.969-14.91-37.547-27.793-61.168-38.29-10.098-4.484-21.914.063-26.399 10.157-4.484 10.094.063 21.91 10.157 26.398 19.918 8.852 37.082 19.543 51.007 31.782C462.152 370.145 472 391.989 472 415v37c0 11.027-8.973 20-20 20H60c-11.027 0-20-8.973-20-20v-37c0-23.012 9.848-44.855 27.016-59.941C87.223 337.3 146.098 296 256 296c81.605 0 148-66.395 148-148S337.605 0 256 0 108 66.395 108 148c0 47.707 22.695 90.207 57.852 117.29-64.329 14.14-104.344 41.358-125.239 59.722C14.805 347.687 0 380.484 0 415v37c0 33.086 26.914 60 60 60h392c33.086 0 60-26.914 60-60v-37c0-34.516-14.805-67.313-40.613-89.988zM148 148c0-59.55 48.45-108 108-108s108 48.45 108 108-48.45 108-108 108-108-48.45-108-108zm0 0"/></symbol><symbol id="icon-virtual-games" viewBox="0 0 150 151"><title>virtual-games</title><path d="M78.73 150.82H69.8c-4.73 0-9.36-.99-13.9-2.31-.69-.2-1.43-.31-2.05-.55-3.87-1.49-8.06-2.31-11.69-4.21-20.09-10.5-33.63-26.51-39.81-48.48-.04-.13-.09-.34-.11-.47C1.01 88.66.08 82.46.08 76.2v-3.56c0-5.77.86-11.51 2.54-17.03 8.63-27.46 26.52-45.29 54.54-52.59.4-.11.81-.17 1.19-.26C62.71 1.7 67.13.96 71.62.96h2.8c5.46 0 10.96.43 16.24 1.85.23.06.47.11.73.15 8.13 1.24 15.63 4.19 22.55 8.59 18.03 11.46 30.09 27.13 34.06 48.46l.01.03c1.07 5.59 1.94 14.82 1.94 20.51v.14c0 4.38-.88 8.67-2.09 12.88-.24.84-.21 1.83-.45 2.6-8.63 27.46-26.52 45.29-54.54 52.59-.52.14-1.05.21-1.51.35-4.08 1.29-8.37 1.71-12.63 1.71zm47.22-74.9c1.47-27.58-23.38-50.39-48.55-51.15-31.99-.97-54.54 23.94-53.96 51.21.65 31.09 22.79 50.79 51.03 51.4 28.15.61 52.22-21.92 51.48-51.46zm-44.08 69.94c5.86-.74 11.69-2.02 17.26-4.15 9.49-3.63 9.45-4 3.69-12.67-1.4-2.11-2.43-3.02-5.02-1.68-5.16 2.65-10.78 4.22-16.57 4.44-3.3.12-4.5 1.57-4.2 4.85.13 1.38.15 2.78-.02 4.16-.49 3.89.84 5.74 4.86 5.05zM12.18 73.89c3.91.45 7.13-.19 7.17-6.39.03-4.15 1.44-8.58 3.32-12.34 2.35-4.71.61-6.88-3.63-8.71-1.21-.52-2.37-1.16-3.52-1.81-1.87-1.05-3.11-.53-3.99 1.35-3.18 6.77-5.42 13.9-6.35 21.27-.82 6.58-.39 6.64 7 6.63zM77 13.26c-.76 4.09.25 6.96 6.32 6.96 4 0 8.08 1.67 11.97 3.03 6.26 2.19 6.2 2.34 9.4-3.76.31-.59.54-1.23.91-1.77 2.02-2.96 1.15-4.75-2.09-6-6.35-2.46-12.72-4.5-19.65-4.92-6.88-.42-6.86-.77-6.86 6.46zm60.07 60.63c6.73.01 8.02-.47 7.7-3.21-.95-8.24-2.27-16.41-5.91-24.01-1.13-2.37-2.46-3.14-4.68-1.93-1.65.9-3.3 1.83-4.98 2.68-2.99 1.52-3.91 3.47-2.25 6.63 2.25 4.3 3.67 9.11 3.77 13.84.1 5.4 2.38 6.76 6.35 6zM26.53 44.56c1.16.22 1.94-.44 2.53-1.24 3.73-5.13 8.15-9.54 13.27-13.29.94-.69 1.9-1.64 1.2-2.94a183.13 183.13 0 00-5.14-9.05c-.6-.98-1.62-.95-2.59-.25-7.1 5.2-13.78 10.81-18.55 18.37-.65 1.04-1.44 2.06-.19 3.03 2.88 2.25 6.09 3.97 9.47 5.37zm86.9 89.91c.39-.28.93-.64 1.44-1.04 5.55-4.41 11.29-8.58 15.47-14.51 4.23-6 4.37-5.9-2.28-9.5-.44-.24-.93-.4-1.33-.68-3.01-2.13-4.92-1.64-7.25 1.57-2.78 3.83-6.36 7.26-10.15 10.14-2.83 2.16-3.72 3.85-1.67 6.84 1.21 1.77 2.21 3.69 3.29 5.54.52.89 1.07 1.72 2.48 1.64zM72 138.05c.87-3.92-.22-6.55-5.93-6.57-3.67-.02-7.41-1.57-10.99-2.81-6.71-2.32-6.67-2.43-10.03 4.13-.23.44-.4.92-.69 1.32-2.08 3.02-.94 4.63 2.16 5.98 5.8 2.53 11.92 4.05 18 5.51 6.53 1.57 7.48.41 7.48-7.56zM133.66 37.6c-.38-.51-.82-1.19-1.33-1.81-3.87-4.7-7.42-9.59-12.3-13.47-7.98-6.34-8.43-6.36-12.82 2.95-1.14 2.41-1.01 3.97 1.28 5.39 3.86 2.38 6.71 5.91 9.77 9.14 5.26 5.57 5.19 5.72 11.85 1.29 1.29-.84 3.19-1.22 3.55-3.49zM13.21 78.89c-8.35-.01-9.7 1.27-7.84 8.08 1.56 5.73 2.92 11.53 5.24 17.06 1.47 3.51 3.27 4.45 6.34 2.48 1.19-.76 2.4-1.49 3.67-2.1 3.07-1.47 4.16-3.33 2.54-6.42-2.17-4.14-3.59-8.74-3.77-13.29-.2-5.21-2.2-6.82-6.18-5.81zm23.82 55.89c2.8-2.2 3.98-5.29 5.63-8.08 1.48-2.51 1.13-4.19-1.37-5.75-3.84-2.39-6.7-5.92-9.74-9.18-4.93-5.29-4.82-5.4-11.09-1.55-.85.52-1.62 1.16-2.48 1.65-1.96 1.12-1.82 2.24-.53 3.97 4.98 6.65 10.45 12.76 17.43 17.38.68.45 1.31.95 2.15 1.56zM71.99 14.09c0-2.23-.03-3.72.01-5.22.05-2.11-.99-3.21-3.05-2.82-6.15 1.16-12.44 1.62-18.32 4.05-9.1 3.76-9.13 3.92-3.61 12.4 1.45 2.22 2.54 3.5 5.42 1.81 4.17-2.46 8.99-3.79 13.7-4.03 5.12-.25 6.9-2.08 5.85-6.19zm72.69 67.3c.27-2.04-1.01-2.49-2.71-2.49-2.32 0-4.65.12-6.96-.04-2.97-.22-4 .93-4.16 3.96-.25 4.79-1.22 9.65-3.49 13.85-2.49 4.6-.58 6.74 3.35 8.55 1.24.57 2.44 1.22 3.63 1.88 2.14 1.19 3.39.35 4.41-1.8 3.59-7.57 5.2-15.63 5.93-23.91z"/><path d="M59.01 50.8c11.09 6.36 21.14 12.11 31.17 17.88 3.02 1.74 5.94 3.64 9.01 5.27 2.42 1.29 3.16 2.1.19 3.79-12.24 6.97-24.37 14.15-36.6 21.16-1.39.8-3.78 3.09-3.78-1.23.02-15.25.01-30.51.01-46.87z"/><path d="M28.04 76.25c.07-35.32 36.66-57.37 66.31-43.15.9.43 1.8.88 2.6 1.46.93.68 2.02 1.53 1.49 2.85-.59 1.47-2.03 1.75-3.38 1.31-2.68-.87-5.26-2.03-7.95-2.89-15.86-5.09-35.57.92-44.82 13.61-11.9 16.33-12.51 35.48-1.58 50.5.49.67 1.14 1.23 1.58 1.92.99 1.59 1.08 3.24-.58 4.39-1.61 1.12-2.9.05-3.82-1.19-3.28-4.43-5.98-9.26-7.65-14.48-1.54-4.85-2.92-9.88-2.2-14.33zm94.04.15c-.93 18.04-8.71 32.03-24.84 40.78-17.37 9.43-34.14 7.24-50.24-3.37-1.43-.94-3.66-1.84-2.07-4.18 1.65-2.44 3.35-1.55 5.41-.04 17.25 12.68 40.67 10.88 55.13-4.92 12.02-13.13 14.76-28.52 8.14-45.3-.24-.62-.57-1.2-.81-1.82-.6-1.51-1.74-3.32.39-4.3 2.17-1 3.27.72 4.17 2.45 3.35 6.47 4.9 13.34 4.72 20.7zm-12.2-31.31c.02 1.87-.56 2.86-2 2.7-2.57-.27-4.12-1.97-4.74-4.34-.42-1.57.51-2.66 2.17-2.42 2.55.38 3.74 2.35 4.57 4.06z"/></symbol><symbol id="icon-virtual-sports" viewBox="0 0 150 150"><title>virtual-sports</title><path fill-rule="evenodd" clip-rule="evenodd" d="M150 75c0-41.351-33.649-75-75-75S0 33.649 0 75s33.649 75 75 75 75-33.649 75-75zm-75 65.625c-29.134 0-53.854-19.095-62.4-45.412l6.15-6.15V60.936l-6.15-6.15C21.146 28.468 45.866 9.38 75 9.38c3.806 0 7.515.39 11.145 1.02l2.921 13.039 18.75 9.378 13.302-4.436c12.037 11.902 19.511 28.402 19.511 46.62 0 18.218-7.478 34.725-19.511 46.62l-13.302-4.432-18.75 9.378-2.925 13.039A65.552 65.552 0 0175 140.625zm18.75-79.688l23.438-9.374L131.205 75l-14.021 23.438-23.438-9.376.004-28.124zm-23.438 60.938l-23.437 4.691-14.063-23.437 18.75-18.75L75 98.437l-4.688 23.438zM75 51.562L51.562 65.626l-18.75-18.75 14.063-23.441 23.438 4.687L75 51.563z"/></symbol><symbol id="icon-write" viewBox="0 0 24 24"><defs><style>.cls-1{fill:none;stroke:#1d1d1b;stroke-linecap:round;stroke-linejoin:round;stroke-width:2px}</style></defs><title/><path class="cls-1" d="M19.51 12v4.29a3.22 3.22 0 01-3.22 3.22H7.71a3.22 3.22 0 01-3.22-3.22V7.71a3.22 3.22 0 013.22-3.22H12" data-name="&lt;Path&gt;" id="_Path_"/><g data-name="&lt;Group&gt;" id="_Group_"><path class="cls-1" data-name="&lt;Rectangle&gt;" id="_Rectangle_" transform="rotate(-45 19.28 4.734)" d="M17.64 3.14h3.28v3.17h-3.28z"/><path class="cls-1" data-name="&lt;Path&gt;" id="_Path_2" d="M19.24 7.01l-4.43 4.43-2.27.03.03-2.28L17 4.77l2.24 2.24z"/></g></symbol></svg>