<?xml version="1.0" encoding="UTF-8"?>
<svg id="Layer_1" data-name="Layer 1" xmlns="http://www.w3.org/2000/svg" xmlns:xlink="http://www.w3.org/1999/xlink" viewBox="0 0 255.12 85.04"><defs><linearGradient id="linear-gradient" x1="78.33" y1="1332.03" x2="78.33" y2="1405.36" gradientTransform="matrix(1, 0, 0, -1, 0, 1410.96)" gradientUnits="userSpaceOnUse"><stop offset="0" stop-color="#4c4a49"/><stop offset="1" stop-color="#9b9a9c"/></linearGradient><linearGradient id="linear-gradient-2" x1="61.48" y1="1332.2" x2="61.48" y2="1404.86" gradientTransform="matrix(1, 0, 0, -1, 0, 1410.96)" gradientUnits="userSpaceOnUse"><stop offset="0" stop-color="#242e23"/><stop offset="1" stop-color="#568759"/></linearGradient><clipPath id="clip-path"><path d="M75.13,42.13l11-15.29H84.57l6.67-9.65a34.11,34.11,0,0,1,8.49,10.56,14.43,14.43,0,0,0-6.45-1.21c-7.79,0-9.43,4.25-9.43,7.85l0,5.43a1.12,1.12,0,0,0,.65,1,1.15,1.15,0,0,0,1.21-.11l6.34-4.62a1.16,1.16,0,0,0,.48-.91l0-2.5c0-.35-.05-.48.65-.48,1,0,.94.27.94.59v3.25s0,.75-2.34,2.66l-4.92,3.82a.28.28,0,0,1-.13.05c-2,1.85-3.09,3.71-3.09,5.54v1.29l-4.52-1.56Zm27.44,8.63a33.89,33.89,0,0,0,1-7.61,48.07,48.07,0,0,0-.48-6.29V37c0,1.77-1.13,3.55-3.2,5.27l-.08,0L94.89,46c-1.48,1.29-2.23,2.47-2.23,3.52v.78l9.06,0A1.33,1.33,0,0,1,102.58,50.76ZM41.83,31.94H40.19a1,1,0,0,1-1.08-1V29.47a18.05,18.05,0,0,0-1.64,4.22l5.67,2V33.13C43.12,32.4,43.2,31.94,41.83,31.94Zm20.8-5.3.11.11,6.59,9.33,6.93-9.54H78.2l9-12.18A33.41,33.41,0,0,0,69.76,9.53a34.09,34.09,0,0,0-29.24,17h5.94c4.57,0,7.15,2.42,7.15,7.12v5.46l10.86,3.74L53,26.54h.89C62.5,26.54,62.5,26.54,62.63,26.65Z" fill="none"/></clipPath><linearGradient id="linear-gradient-3" x1="78.33" y1="1324.33" x2="78.33" y2="1396.99" gradientTransform="matrix(1, 0, 0, -1, 0, 1410.96)" gradientUnits="userSpaceOnUse"><stop offset="0" stop-color="#fff" stop-opacity="0"/><stop offset="1" stop-color="#fff" stop-opacity="0.3"/></linearGradient><linearGradient id="linear-gradient-4" x1="61.48" y1="1332.2" x2="61.48" y2="1404.86" xlink:href="#linear-gradient-3"/><linearGradient id="linear-gradient-5" x1="178.29" y1="1384.57" x2="182.86" y2="1388.4" xlink:href="#linear-gradient-2"/></defs><title>1x2Gaming_game_provider_footer</title><path id="_" data-name="/)" d="M93.22,14.71l-.48-.43-.4-.32L82.79,27.78h1.59L74,42.1,84.84,57.56c-2.88,0-6.48,0-7.39,0l-7.2-10.19L62.79,57.56h-2L50.27,73.07l.35.27c4.46,3.28,12.53,5.59,19.57,5.59a36.24,36.24,0,0,0,36.21-36.21A37.21,37.21,0,0,0,93.22,14.71Z" fill="url(#linear-gradient)"/><path id="_2" data-name="(/" d="M89.46,12.08c-4.62-3.41-13.28-6-20.13-6A36.24,36.24,0,0,0,33.12,42.32a37.28,37.28,0,0,0,13.22,28l.48.43.4.32,9.54-13.84H55.19L65.56,42.94,54.7,27.48c2.88,0,6.48,0,7.39,0L69.3,37.7l7.45-10.21h1.94L89.84,12.35Z" fill="url(#linear-gradient-2)"/><path id="inset_shadow_" data-name="inset shadow /)" d="M84.57,27.08h1.16L74.94,42a.24.24,0,0,0,0,.27l11.24,16h-.46c-7,0-8.49,0-8.68-.05L77,58.15l-6.56-9.3a.27.27,0,0,0-.19-.11h0a.2.2,0,0,0-.19.11l-6.88,9.46H61.34a.18.18,0,0,0-.19.11L51.4,72.75a.22.22,0,0,0,.05.32c4.46,3.09,12,5.19,18.79,5.19a35.54,35.54,0,0,0,35.51-35.51,36.66,36.66,0,0,0-13-27.52l-.05-.05a.38.38,0,0,0-.16-.05h0a.22.22,0,0,0-.16.11l-8,11.5a.26.26,0,0,0,0,.24.23.23,0,0,0,.19.11m0-.22,8-11.53.05.05a36.5,36.5,0,0,1,12.93,27.36A35.32,35.32,0,0,1,70.24,78c-6.69,0-14.27-2.1-18.65-5.13l9.76-14.35h1.94l7-9.54,6.59,9.33.11.11c.13.11.13.11,8.82.11h.89l-11.5-16.4,11-15.29-1.61,0Zm1.61,0Z" fill="#20201e" opacity="0.2" style="isolation:isolate"/><path id="inset_shadow_2" data-name="inset shadow (/" d="M47,70h0a.22.22,0,0,0,.16-.11l8-11.5a.26.26,0,0,0,0-.24A.24.24,0,0,0,55,58H53.82L64.6,43a.24.24,0,0,0,0-.27l-11.24-16h.46c7,0,8.49,0,8.68.05l.05.08,6.59,9.3a.27.27,0,0,0,.19.11h0a.2.2,0,0,0,.19-.11l6.88-9.46h1.83a.2.2,0,0,0,.19-.11l10.32-14a.39.39,0,0,0,.05-.19c0-.05-.05-.11-.11-.16-4.57-3.17-12.9-5.54-19.35-5.54A35.57,35.57,0,0,0,33.82,42.32a36.66,36.66,0,0,0,13,27.52l.05.05A.38.38,0,0,0,47,70m0-.24L47,69.65a36.42,36.42,0,0,1-12.9-27.34A35.29,35.29,0,0,1,69.33,7.05c6.4,0,14.7,2.39,19.22,5.51l-10.32,14H76.29l-7,9.54-6.59-9.33-.11-.11c-.13-.11-.13-.11-8.82-.11h-.89l11.5,16.4-11,15.29H55L47,69.71Z" fill="#20201e" opacity="0.2" style="isolation:isolate"/><g id="shine"><g clip-path="url(#clip-path)"><path id="_3" data-name="/)" d="M93.22,14.71l-.48-.43-.4-.32L82.79,27.78h1.59L74,42.1,84.84,57.56c-2.88,0-6.48,0-7.39,0l-7.2-10.19L62.79,57.56h-2L50.27,73.07l.35.27c4.46,3.28,12.53,5.59,19.57,5.59a36.24,36.24,0,0,0,36.21-36.21A37.21,37.21,0,0,0,93.22,14.71Z" fill="url(#linear-gradient-3)"/></g><g clip-path="url(#clip-path)"><path id="_4" data-name="(/" d="M55.19,57.26,65.56,42.94,54.7,27.48c2.88,0,6.48,0,7.39,0L69.3,37.7l7.45-10.21h1.94L89.84,12.35l-.38-.27c-4.62-3.41-13.28-6-20.13-6A36.24,36.24,0,0,0,33.12,42.32a37.28,37.28,0,0,0,13.22,28l.48.43.4.32,9.54-13.84Z" fill="url(#linear-gradient-4)"/></g></g><path id="_1_shadow" data-name="1 shadow" d="M52.58,55.57H44.65V33.34c0-1.61-.86-2.42-2.61-2.42H40.35V27.86h6.32c3.92,0,5.91,2,5.91,6.07Z" fill="#0d0f0f" opacity="0.25" style="isolation:isolate"/><path id="_2_shadow" data-name="2 shadow" d="M102,55.6H85.27V48.42q0-2.26,2.66-4.68l4.92-3.82c1.88-1.56,2.82-2.77,2.82-3.57V33.07c0-1.16-.73-1.75-2.15-1.75-1.24,0-1.85.54-1.85,1.67l0,2.47-6.34,4.62,0-5.43C85.27,30.22,88,28,93.54,28S102,29.71,102,33.15v4.09c0,1.4-.89,2.88-2.69,4.38l-4.92,3.76c-1.77,1.53-2.66,3-2.66,4.41l0,2,10.21,0Z" fill="#0d0f0f" opacity="0.25" style="isolation:isolate"/><path id="_1" data-name="1" d="M52.37,55.35H44.44V33.13c0-1.61-.86-2.42-2.61-2.42H40.14V27.62h6.32c3.92,0,5.91,2,5.91,6.07Z" fill="#fff"/><path id="_2-2" data-name="2" d="M101.72,55.38H85V48.2q0-2.26,2.66-4.68l4.92-3.82c1.88-1.56,2.82-2.77,2.82-3.57V32.83c0-1.16-.73-1.75-2.15-1.75-1.24,0-1.85.54-1.85,1.67l0,2.47-6.34,4.62,0-5.43c0-4.44,2.77-6.67,8.28-6.67s8.41,1.72,8.41,5.16V37c0,1.4-.89,2.88-2.69,4.38l-4.92,3.76c-1.77,1.53-2.66,3-2.66,4.41l0,2,10.21,0Z" fill="#fff"/><path id="fill" d="M124.86,30.71a5.63,5.63,0,0,0-4.92-2.34c-4.89,0-8.44,4.14-8.44,9.81,0,5.32,3.31,9.06,8,9.06a6.15,6.15,0,0,0,4.87-2.1v.75c0,4-2.9,4.62-4.62,4.62a11.22,11.22,0,0,1-5.24-1.34l-.22-.11L113,53.74l.11.05a14.56,14.56,0,0,0,6.64,1.4c3.23,0,5.81-.78,7.53-2.28,1.94-1.69,2.9-4.35,2.9-8.33V34.44c0-2.69,0-4.22.11-5.46l0-.22H125Zm-3.76,12c-2.1,0-3.52-1.88-3.52-4.68,0-3,1.42-5,3.55-5a3,3,0,0,1,3,2.37,4.32,4.32,0,0,1,.19,1v2.69a4.85,4.85,0,0,1-.27,1.48A3.06,3.06,0,0,1,121.1,42.69Zm26,.11V36.43c0-5.3-2.88-8.09-8.2-8.09a15.07,15.07,0,0,0-7.2,1.67l-.13.08,1.13,4,.19-.13a10.52,10.52,0,0,1,5-1.34c2.61,0,3.23,1.21,3.23,2.2v.05c-7,.05-10.81,2.58-10.81,7.15a5.75,5.75,0,0,0,6,5.78,6.72,6.72,0,0,0,5.19-2l.3,1.8h5.48v-.3A30.06,30.06,0,0,1,147.14,42.8Zm-8.79.65a1.87,1.87,0,0,1-2.07-2c0-1.75,1.72-2.66,4.95-2.69v1.8a3.28,3.28,0,0,1-.11.91A3,3,0,0,1,138.35,43.45Zm38.09-7V47.53h-5.91V37.29c0-2.66-.83-4-2.5-4a2.64,2.64,0,0,0-2.47,1.85,5.88,5.88,0,0,0-.13,1.4v11h-5.91V36.94c0-1.37-.32-3.66-2.47-3.66a2.69,2.69,0,0,0-2.47,1.91,3.68,3.68,0,0,0-.16,1.4v11h-5.91V34.79c0-2.2-.11-4.14-.19-5.83l-.05-.22h5.16l.22,2.31a6.45,6.45,0,0,1,5.48-2.69,5.39,5.39,0,0,1,5.08,3,8,8,0,0,1,2.31-2.1,7.15,7.15,0,0,1,3.57-.91C174,28.34,176.44,31.38,176.44,36.46Zm1.34-7.74h5.91V47.53h-5.91Zm25,7.71V47.56h-5.91V37.1c0-2.5-.94-3.79-2.74-3.79a3,3,0,0,0-2.8,2,4.27,4.27,0,0,0-.13,1.34V47.53H185V34.77c0-2.2-.05-4.14-.11-5.83l0-.22h5.27l.24,2.39a6.75,6.75,0,0,1,5.62-2.74C200.25,28.39,202.78,31.38,202.78,36.43Zm13.87-7.71-.16,2a5.63,5.63,0,0,0-4.92-2.34c-4.89,0-8.44,4.14-8.44,9.81,0,5.32,3.31,9.06,8,9.06a6.21,6.21,0,0,0,4.89-2.1v.75c0,4-2.93,4.62-4.62,4.62a11.22,11.22,0,0,1-5.24-1.34l-.22-.11-1.21,4.68.11.05a14.56,14.56,0,0,0,6.64,1.4c3.23,0,5.81-.78,7.55-2.28,1.94-1.69,2.9-4.35,2.9-8.33V34.44c0-2.69,0-4.22.11-5.46l0-.22h-5.32Zm-3.92,14c-2.1,0-3.52-1.88-3.52-4.68,0-3,1.42-5,3.55-5a2.86,2.86,0,0,1,2.85,2.37,4.14,4.14,0,0,1,.08,1v2.69a5.52,5.52,0,0,1-.13,1.48A2.9,2.9,0,0,1,212.73,42.69Z" fill="#fff"/><circle cx="180.74" cy="24.61" r="2.98" fill="#0d0f0f" opacity="0.5" style="isolation:isolate"/><circle cx="180.58" cy="24.47" r="2.98" stroke="#2e3d2f" stroke-miterlimit="10" stroke-width="0.27" fill="url(#linear-gradient-5)"/></svg>