<?xml version="1.0" encoding="UTF-8"?>
<svg id="Layer_1" data-name="Layer 1" xmlns="http://www.w3.org/2000/svg" viewBox="0 0 255.12 85.04"><title>BetSoft_game_provider_footer</title><path d="M68.5,14H203.28L188.39,71H53.61l7.57-29.28-4.8,3.79-4.54,3.53,1.26-4.8,3.53-13.12,1.26-5,2.52,3.53,3,4Z"/><path d="M116,16.52h84.3l-11.11,42.4h-84l5-20.19h21.71l-4.54,17.41h59.56L196.71,19H136.9l-4.54,17.67H110.9Zm-22.72,0h21.71l-5.3,20.19H87.93Zm15.9,22.21-5.3,20.19H82.13l5.3-20.19ZM70.27,16.52H92l-5,20.19H65Zm15.9,22.21-5,20.19h-22l5.3-20.19Z" fill="#fff"/><path d="M181.32,26.11h3.79l-7.32,27.51h3.53l7.32-27.51h3.79l1-4.54H182.58Zm-6.56,0h5.8l1.26-4.54h-9.59L163.9,53.63h3.53L171,40.5h4.54L176.78,36h-4.54Zm-22,19.94c-1.26,5-.25,8.08,3.28,8.08s6.31-3,7.57-8.08l4.29-16.66c1.51-5,.25-8.08-3.28-8.08s-6.06,3-7.57,8.08Zm8.08-16.91c.5-2.52,1.51-3.28,2.78-3.28,1,0,1.51.76,1,3.28l-4.54,17.16c-.76,2.27-1.51,3.28-2.78,3.28-1,0-1.51-1-1-3.28ZM145,29.4c-2.52,9.09,4.29,10.35,2.52,16.91-.5,2.27-1.51,3-2.78,3-1,0-1.51-.76-1-3l.76-2.52h-3.28l-.76,2.27c-1.26,5-.25,8.08,3.28,8.08s6.06-3,7.32-8.08c2.52-9.09-4-10.35-2.52-16.91.76-2.52,1.51-3.28,2.78-3.28,1,0,1.51.76.76,3.28l-.25,1.51h3.28l.25-1.26c1.51-5,.5-8.08-3-8.08S146.24,24.35,145,29.4Z" fill="#ff0"/><path d="M118.73,25.61h4l-7.57,28.77H119l7.32-28.77h4l1.26-4.8H120Zm3,.5H118l.25-.76,1.26-4.8v-.5h12.87l-.25.76-1.26,4.8v.5h-4l-7.32,28.52v.5h-5.3l.25-1Z" fill="#fff"/><path d="M118.73,25.61h4l-7.57,28.77H119l7.32-28.77h4l1.26-4.8H120Z" fill="#2b2a29"/><path d="M100.55,25.61h6.56l1.26-4.8H98L89.45,54.38h10.1l1.26-4.8H94.24L97,39.74h5l1.26-4.8h-5Zm6.56.5h-6.06l-2,8.08h5l-.25.76-1.26,4.8v.5h-5l-2.27,8.58h6.31l-.25,1L100,54.63v.5H88.44l.25-1,8.83-33.57v-.5h11.61l-.25.76-1.26,4.8v.5Z" fill="#fff"/><path d="M100.55,25.61h6.56l1.26-4.8H98L89.45,54.38h10.1l1.26-4.8H94.24L97,39.74h5l1.26-4.8h-5Z" fill="#2b2a29"/><path d="M79.1,25.61c1.26,0,1.51,1,1,3.28l-.5,2c-.76,2.52-1.77,3.53-3.28,3.53H74.81l2.27-8.83ZM75.32,39.24c1.77,0,2,1,1.26,4l-.76,3c-.5,2.52-1.51,3.28-2.78,3.28H71l2.52-10.35Zm5-18.42H74.81L66,54.38h5.8c3.79,0,6.31-2.78,7.82-8.08l.76-2.78c.76-3.53.76-6.06-1-7.07,2-1.26,3.28-3.28,4.29-6.81l.25-1.26C85.16,23.34,84.15,20.81,80.36,20.81Zm-.76,5.8a.54.54,0,0,0-.5-.5H77.59l-1.77,7.57h.5c.5,0,1,0,1.26-.5a4.71,4.71,0,0,0,1.26-2.52l.5-1.77A11.1,11.1,0,0,0,79.61,26.62ZM76.32,40.25a1.31,1.31,0,0,0-1-.5H74.05l-2.27,9.09H73a1.39,1.39,0,0,0,1.26-.5,10.42,10.42,0,0,0,1-2.27l.76-3C76.32,41.76,76.58,40.75,76.32,40.25ZM74.81,20.06h5.55c2.27,0,3.53.76,4.29,2.27s.5,3.53-.25,6.31l-.25,1.26a13.73,13.73,0,0,1-1.77,4.29,6,6,0,0,1-2,2.27,3.24,3.24,0,0,1,1,2.52,11.11,11.11,0,0,1-.5,4.8l-.76,2.78a16.34,16.34,0,0,1-3,6.31,7.26,7.26,0,0,1-5.3,2.27H65l.25-1,8.83-33.57.25-.5Z" fill="#fff"/><path d="M79.1,25.61c1.26,0,1.51,1,1,3.28l-.5,2c-.76,2.52-1.77,3.53-3.28,3.53H74.81l2.27-8.83ZM75.32,39.24c1.77,0,2,1,1.26,4l-.76,3c-.5,2.52-1.51,3.28-2.78,3.28H71l2.52-10.35Zm5-18.42H74.81L66,54.38h5.8c3.79,0,6.31-2.78,7.82-8.08l.76-2.78c.76-3.53.76-6.06-1-7.07,2-1.26,3.28-3.28,4.29-6.81l.25-1.26C85.16,23.34,84.15,20.81,80.36,20.81Z" fill="#2b2a29"/><path d="M58.66,31.16l4.8,6.56-8.33,6.56Zm81.52,0-8.08,6.56,4.8,6.56Z" fill="#ff0"/><path d="M124.78,66l.25-.76h2.27l-.5,1.51a5.28,5.28,0,0,1-1.51,1,3.74,3.74,0,0,1-1.77.25,3.09,3.09,0,0,1-2.27-.76,2.5,2.5,0,0,1-.25-2,3.92,3.92,0,0,1,1.51-2,4.26,4.26,0,0,1,2.52-.76c.5,0,1,.25,1.51.25.5.25.76.76,1,1l-.76.5-.76-.76a10.93,10.93,0,0,0-1.26-.25A2.29,2.29,0,0,0,123,64a2.07,2.07,0,0,0-1.26,1.26,2.73,2.73,0,0,0,.25,1.51,2.13,2.13,0,0,0,1.77.5A2.28,2.28,0,0,0,125,67a1.31,1.31,0,0,0,1-.5l.25-.5Zm10.6,0h2l-.5-2Zm-2.52,2,4-5.3h.5l1.51,5.3h-1l-.25-1.51h-2.78l-1,1.51Zm12.62,0,1.51-5.3h.5l1.51,3,2.78-3h.76L151.28,68h-1l1-3.79L148.51,67l-1.26-2.78-1,3.79Zm13.38,0,1.51-5.3h.76L159.87,68Zm8.58,0,1.51-5.3h.5l2.27,3.53,1-3.53h.76L172.23,68h-.5l-2.52-3.79L168.45,68Zm16.41-2,.25-.76h2.27l-.5,1.51a2.32,2.32,0,0,1-1.51,1,3.74,3.74,0,0,1-1.77.25,2.48,2.48,0,0,1-2-.76,1.83,1.83,0,0,1-.5-2,3.92,3.92,0,0,1,1.51-2,4.26,4.26,0,0,1,2.52-.76,8.92,8.92,0,0,1,1.51.25c.5.25.76.76,1,1l-.76.5-.76-.76a10.93,10.93,0,0,0-1.26-.25,2.29,2.29,0,0,0-1.77.76,2.07,2.07,0,0,0-1.26,1.26c0,.76,0,1,.5,1.51.25.5.76.5,1.51.5A1.89,1.89,0,0,0,184.1,67a1.31,1.31,0,0,0,1-.5l.25-.5Z" fill="#fff"/><path d="M80.11,61.7a1.62,1.62,0,0,1,1.51,2V64a1.56,1.56,0,0,1,1.26,2,2.66,2.66,0,0,1-2.52,2,1.41,1.41,0,0,1-1.51-1.26A3,3,0,0,1,76.58,68a1.53,1.53,0,0,1-1.51-2,3.07,3.07,0,0,1,2.52-2v-.25A3,3,0,0,1,80.11,61.7Z" fill="#ff0"/><path d="M79.1,69.27l-.5-2-1.26,2Zm33.32-7.57c.5,0,3,2.52,2.52,4.29a2.46,2.46,0,0,1-2.52,2,1.6,1.6,0,0,1-1.51-1.26,2.57,2.57,0,0,1-2,1.26c-1.26,0-2-.76-1.51-2C107.87,64,111.66,61.7,112.42,61.7Z" fill="#ff0"/><path d="M111.15,69.27l-.25-2-1.51,2Zm-16.66-.5c-1,0-3.53-2.52-3-4.8a3,3,0,0,1,2.78-2c1,0,1.51.5,1.51,1.26A3.5,3.5,0,0,1,98.28,62a1.62,1.62,0,0,1,1.51,2C99.29,66.5,95.25,68.77,94.5,68.77ZM64.72,61.7a13.31,13.31,0,0,0,2.78,3.79A20.05,20.05,0,0,0,62.95,69a9.63,9.63,0,0,0-2.78-3.53A32.86,32.86,0,0,0,64.72,61.7Z" fill="#ff0"/></svg>