<?xml version="1.0" encoding="UTF-8"?>
<svg id="Layer_1" data-name="Layer 1" xmlns="http://www.w3.org/2000/svg" viewBox="0 0 255.12 85.04"><title>Booming_game_provider_footer</title><path d="M76.12,19.39c0-1.91.57-2.83,2.34-2.83s2.34.92,2.34,2.83v9.77h4.39V19.28c0-3.61-2.13-6.56-6.73-6.56s-6.73,2.94-6.73,6.56v9.88h4.39Z" fill="#e80f1f"/><path d="M80.79,32.62v3.2c0,1.91-.57,2.84-2.34,2.84s-2.34-.92-2.34-2.84v-3.2H71.72v3.31c0,3.62,2.13,6.56,6.73,6.56s6.73-2.94,6.73-6.56V32.62Z" fill="#e80f1f"/><path d="M98.51,32.62v3.2c0,1.91-.57,2.84-2.34,2.84s-2.34-.92-2.34-2.84v-3.2H89.44v3.31c0,3.62,2.13,6.56,6.73,6.56s6.73-2.94,6.73-6.56V32.62Z" fill="#e80f1f"/><path d="M93.84,19.39c0-1.91.57-2.83,2.34-2.83s2.34.92,2.34,2.83v9.77h4.39V19.28c0-3.61-2.13-6.56-6.73-6.56s-6.73,2.94-6.73,6.56v9.88h4.39Z" fill="#e80f1f"/><rect x="107.18" y="32.62" width="3.83" height="9.51" fill="#e80f1f"/><polygon points="115.05 42.13 117.17 42.13 119.06 32.62 113.16 32.62 115.05 42.13" fill="#e80f1f"/><polygon points="125.04 13.08 119.26 13.08 116.14 28.04 116.07 28.04 112.95 13.08 107.18 13.08 107.18 29.16 111.01 29.16 111.01 18.68 111.08 18.68 113.16 29.16 119.06 29.16 121.14 18.68 121.21 18.68 121.21 29.16 125.04 29.16 125.04 13.08" fill="#e80f1f"/><rect x="121.21" y="32.62" width="3.83" height="9.51" fill="#e80f1f"/><rect x="129.72" y="13.08" width="4.39" height="16.08" fill="#e80f1f"/><rect x="129.72" y="32.62" width="4.39" height="9.51" fill="#e80f1f"/><rect x="138.8" y="32.62" width="3.97" height="9.51" fill="#e80f1f"/><polygon points="145.11 32.62 148.44 42.13 152.27 42.13 152.27 32.62 145.11 32.62" fill="#e80f1f"/><polygon points="152.27 13.08 148.3 13.08 148.3 27.72 148.23 27.72 142.88 13.08 138.8 13.08 138.8 29.16 142.77 29.16 142.77 22.69 142.84 22.69 145.11 29.16 152.27 29.16 152.27 13.08" fill="#e80f1f"/><path d="M160.91,19.36c0-2.16.89-2.8,1.95-2.8,1.74,0,2.52,1,2.52,4.82h4.18V19.75c0-3.83-2.2-7-6.59-7s-6.45,2.94-6.45,6.56v9.88h4.39Z" fill="#e80f1f"/><path d="M162.58,29.16v3.46h2.8v2.48c0,2.55-.64,3.54-2.41,3.54-1.52,0-2.06-1.06-2.06-2.69V32.62h-4.39v3.31c0,4.08,2.41,6.56,5.88,6.56a5.1,5.1,0,0,0,4.43-2.27l.82,1.91h2.13v-13Z" fill="#e80f1f"/><path d="M60.19,62.45H63v2.48c0,2.55-.64,3.54-2.41,3.54-1.52,0-2.06-1.06-2.06-2.69V52.64c0-2.16.89-2.8,1.95-2.8,1.74,0,2.52,1,2.52,4.82h4.18V53c0-3.83-2.2-7-6.59-7S54.13,49,54.13,52.57V65.76c0,4.08,2.41,6.56,5.88,6.56A5.1,5.1,0,0,0,64.45,70L65.26,72h2.13V59H60.19Z" fill="#fff"/><path d="M80.53,46.37H75.07l-3,16.08L70.36,72h4.25l.78-5.67h4.82L81,72h4.25l-1.75-9.51ZM76,62.46h0l1.73-11h.07l1.74,11H76Z" fill="#fff"/><polygon points="97.04 61.33 96.97 61.33 93.85 46.37 88.08 46.37 88.08 62.45 88.08 71.96 91.91 71.96 91.91 62.45 91.91 51.97 91.98 51.97 94.06 62.45 95.94 71.96 98.07 71.96 99.96 62.45 102.04 51.97 102.11 51.97 102.11 62.45 102.11 71.96 105.94 71.96 105.94 62.45 105.94 46.37 100.16 46.37 97.04 61.33" fill="#fff"/><polygon points="113.96 62.45 113.96 60.62 119.63 60.62 119.63 56.79 113.96 56.79 113.96 50.2 121.33 50.2 121.33 46.37 109.57 46.37 109.57 62.45 109.57 71.96 121.83 71.96 121.83 68.13 113.96 68.13 113.96 62.45" fill="#fff"/><path d="M137,62.45c-2.16-4.46-8.17-6.51-8.17-10.09,0-1.6.78-2.52,2.2-2.52,1,0,2.16.64,2.34,2.83l4.18-.46c-.39-3.62-2.52-6.2-6.09-6.2-4.32,0-6.8,2.3-6.8,6.38,0,5.21,4.51,7.4,7.12,10.05a5.23,5.23,0,0,1,1.81,3.7,2.26,2.26,0,0,1-2.55,2.34c-1.42,0-2.44-1.28-2.62-3.86l-4.18.6c.18,3.83,2.52,7.09,6.59,7.09s6.95-2.34,6.95-6.56A7.47,7.47,0,0,0,137,62.45Z" fill="#fff"/><rect x="174" y="29.16" width="26.95" height="3.46" transform="translate(374.95 61.78) rotate(180)" fill="#fff"/><rect x="140.88" y="68.5" width="4.17" height="3.46" transform="translate(285.94 140.45) rotate(180)" fill="#fff"/><path d="M157.31,54.88v-2c0-2.15-1-3.07-2.12-3.07-1.77,0-2.33.92-2.33,2.82V65.58c0,1.91.57,2.83,2.33,2.83,1.59,0,2.12-.92,2.12-2.58V62.76h4.38v2.93c0,3.6-2.12,6.53-6.5,6.53-4.59,0-6.71-2.93-6.71-6.53V52.55c0-3.6,2.12-6.53,6.71-6.53,4.38,0,6.5,3.18,6.5,7v1.87Z" fill="#fff"/><path d="M165.74,52.55c0-3.6,2.12-6.53,6.71-6.53s6.71,2.93,6.71,6.53V65.69c0,3.6-2.12,6.53-6.71,6.53s-6.71-2.93-6.71-6.53Zm4.38,13c0,1.91.57,2.83,2.33,2.83s2.33-.92,2.33-2.83V52.66c0-1.91-.57-2.82-2.33-2.82s-2.33.92-2.33,2.82Z" fill="#fff"/><path d="M201,46.46V72h-3.81V52h-.07l-4,19.92H191l-4-19.92H187V72h-3.81V46.46h5.76L192,61.36h.07l3.11-14.9Z" fill="#fff"/><path d="M58.53,27.19h1.42c1.85,0,2.88.67,3.33,2h4.46a5.43,5.43,0,0,0-3.32-4c2.13-.85,3-3.15,3-5.35,0-4.36-2.09-6.77-6.8-6.77H54.13V29.16h4.39Zm0-10.49h1.67c1.95,0,2.87,1.24,2.87,3.62,0,2.13-1.28,3.26-2.94,3.26H58.53Z" fill="#e80f1f"/><path d="M68,32.62H63.56v1.94h0v0c0,2.59-.85,3.93-3.19,3.93H58.53V32.62H54.13v9.51h6.95c5,0,6.87-3.19,6.87-7.41,0-.06,0-.1,0-.16h0Z" fill="#e80f1f"/></svg>