<?xml version="1.0" encoding="UTF-8"?>
<svg id="Layer_1" data-name="Layer 1" xmlns="http://www.w3.org/2000/svg" xmlns:xlink="http://www.w3.org/1999/xlink" viewBox="0 0 255.12 85.04"><defs><linearGradient id="linear-gradient" x1="288.34" y1="1326.04" x2="284.94" y2="1294.32" gradientTransform="matrix(1, 0, 0, -1, -233.17, 1354.7)" gradientUnits="userSpaceOnUse"><stop offset="0" stop-color="#dadcdf"/><stop offset="1" stop-color="#a8a8a8"/></linearGradient><linearGradient id="linear-gradient-2" x1="291.08" y1="1325.74" x2="287.69" y2="1294.02" xlink:href="#linear-gradient"/><radialGradient id="radial-gradient" cx="278.83" cy="1322.14" r="32.39" gradientTransform="matrix(1, 0, 0, -1, -233.17, 1354.7)" gradientUnits="userSpaceOnUse"><stop offset="0" stop-color="#c2c2c2"/><stop offset="0.22" stop-color="#bdbdbd"/><stop offset="0.46" stop-color="#b0b0b0"/><stop offset="0.72" stop-color="#999"/><stop offset="0.99" stop-color="#7a7a7a"/><stop offset="1" stop-color="#787878"/></radialGradient></defs><title>Evolution_game_provider_footer</title><path d="M83.55,13.59h19.9l.49,6.74h-1.18c-.46-2.77-.52-3.34-1.54-4.42s-3-1-4.64-1H91.49a1.22,1.22,0,0,0-.93.34,1.47,1.47,0,0,0-.32,1v8.54h2.21a3.69,3.69,0,0,0,2.9-1.28,6.23,6.23,0,0,0,1.2-3.94h1.22V31.66H96.56a6.8,6.8,0,0,0-1.22-4.28,3.88,3.88,0,0,0-3.08-1.29h-2v9.66a1,1,0,0,0,.38.86,2,2,0,0,0,1.25.3h4c4.37,0,6.88-1.43,7.56-7h1.27l-.44,8.33H83.55V36.92h1.1a2.26,2.26,0,0,0,1.47-.36,1.3,1.3,0,0,0,.42-1V16.26a1.3,1.3,0,0,0-.37-1A1.69,1.69,0,0,0,85,14.9H83.54Z" fill="#fff"/><path d="M103.09,21.76h9V23a5.35,5.35,0,0,0-2.06.29.8.8,0,0,0-.45.74,1.84,1.84,0,0,0,.18.74l4.37,9.73,4-9.44a1.47,1.47,0,0,0,.09-.49q0-1.28-2.53-1.6V21.72h6.83v1.19a3.29,3.29,0,0,0-1.65.56,3,3,0,0,0-1,1.23l-6,14h-1l-6.49-14.37a2.37,2.37,0,0,0-.86-1.08,8.52,8.52,0,0,0-2.46-.32Z" fill="#fff"/><path d="M128.84,21.27a7.37,7.37,0,0,1,5.59,2.4A8.85,8.85,0,0,1,136.69,30a9.76,9.76,0,0,1-1,4.61,7.56,7.56,0,0,1-2.88,3,7.78,7.78,0,0,1-4,1.11,7.08,7.08,0,0,1-5.43-2.43,10,10,0,0,1,0-12.61A7.19,7.19,0,0,1,128.84,21.27Zm0,1.25a3.83,3.83,0,0,0-3.24,1.78q-1.27,1.78-1.27,5.64a10.42,10.42,0,0,0,1.26,5.73,3.8,3.8,0,0,0,3.24,1.81,3.9,3.9,0,0,0,3.33-1.81q1.28-1.81,1.28-5.9,0-3.82-1.26-5.52a4,4,0,0,0-3.35-1.75Z" fill="#fff"/><path d="M142.17,13.29V35.82a1,1,0,0,0,.3.74,1.67,1.67,0,0,0,1.08.35h1.06v1.32h-8v-1.3h1a1.66,1.66,0,0,0,1.2-.39,1.47,1.47,0,0,0,.4-1.09V16.72a1.6,1.6,0,0,0-.47-1.28,2.36,2.36,0,0,0-1.6-.56h-1.47V13.56Z" fill="#fff"/><path d="M150.52,21.46V32.39a4.42,4.42,0,0,0,1,3.1,3.39,3.39,0,0,0,2.61,1.09A4.27,4.27,0,0,0,157.48,35a5.9,5.9,0,0,0,1.38-4V24.83a1.56,1.56,0,0,0-.6-1.31,4.31,4.31,0,0,0-2.33-.52V21.77l5.79-.29V35a1.88,1.88,0,0,0,.53,1.44,2.06,2.06,0,0,0,1.47.5h1V38.1l-5.54.13L158.86,35a12,12,0,0,1-2.95,2.62,5.9,5.9,0,0,1-3,.88A5.11,5.11,0,0,1,149.15,37q-1.53-1.47-1.53-5V24.83a1.61,1.61,0,0,0-.74-1.47,4.57,4.57,0,0,0-2.17-.38V21.74Z" fill="#fff"/><path d="M168.09,15h1.18v6.72h10v1.59h-10V33.93a3.05,3.05,0,0,0,.65,2.1,2.12,2.12,0,0,0,1.65.74,2.5,2.5,0,0,0,2-1.11,6.75,6.75,0,0,0,1-3.69h1.18a7.73,7.73,0,0,1-1.47,4.88,4.57,4.57,0,0,1-3.6,1.59,4.42,4.42,0,0,1-3.19-1.11,3.89,3.89,0,0,1-1.15-2.95v-11h-2.87V22.13a4.61,4.61,0,0,0,2.95-1.64A9.28,9.28,0,0,0,168.09,15Z" fill="#fff"/><path d="M175.76,21.76l6.56-.19V35.74a1.05,1.05,0,0,0,.28.83,1.47,1.47,0,0,0,1,.35h1.19v1.32h-8V36.92h1.06a1.47,1.47,0,0,0,1.14-.38,1.53,1.53,0,0,0,.36-1.1V25.39a1.89,1.89,0,0,0-.56-1.47,2.45,2.45,0,0,0-1.67-.5h-1.36ZM180.33,14a1.91,1.91,0,0,1,1.39.6,1.93,1.93,0,0,1,.6,1.42,1.88,1.88,0,0,1-.58,1.37A2,2,0,1,1,180.33,14Z" fill="#fff"/><path d="M193.09,21.27a7.37,7.37,0,0,1,5.59,2.4A8.85,8.85,0,0,1,200.94,30a9.75,9.75,0,0,1-1,4.61,7.56,7.56,0,0,1-2.88,3,7.78,7.78,0,0,1-4,1.11,7.08,7.08,0,0,1-5.43-2.43,10,10,0,0,1,0-12.61A7.19,7.19,0,0,1,193.09,21.27Zm0,1.25a3.82,3.82,0,0,0-3.24,1.78q-1.27,1.78-1.27,5.64a10.42,10.42,0,0,0,1.26,5.73,3.8,3.8,0,0,0,3.24,1.81,3.91,3.91,0,0,0,3.33-1.81q1.28-1.81,1.28-5.9,0-3.82-1.26-5.52a4,4,0,0,0-3.35-1.75Z" fill="#fff"/><path d="M200.59,21.76l5.47-.33a27,27,0,0,1,.49,3.63,7.82,7.82,0,0,1,2.61-2.69,6.5,6.5,0,0,1,3.41-.9,5.4,5.4,0,0,1,2.74.64,4.51,4.51,0,0,1,1.78,2,7.08,7.08,0,0,1,.67,3.11v8a1.69,1.69,0,0,0,.41,1.28,2,2,0,0,0,1.36.38H220v1.32h-7.33V36.92h.15a2.65,2.65,0,0,0,1.62-.37,1.34,1.34,0,0,0,.46-1.11V28.39a6.5,6.5,0,0,0-.74-3.41,3.28,3.28,0,0,0-3-1.58,4.13,4.13,0,0,0-3.32,1.6,6.31,6.31,0,0,0-1.33,4.17v6.1a1.67,1.67,0,0,0,.41,1.28,2,2,0,0,0,1.36.38h.46v1.32h-7.37V36.92h.46a2.09,2.09,0,0,0,1.31-.35,1.08,1.08,0,0,0,.45-.88V25.05a2.11,2.11,0,0,0-.57-1.6,2.29,2.29,0,0,0-1.64-.55h-.84Z" fill="#fff"/><path d="M112.3,44.4l1.47-2.6H115l.65,10.38h-1.14a17.14,17.14,0,0,0-3.11-6.48,6.88,6.88,0,0,0-5.23-2.55A6.8,6.8,0,0,0,102,44.44a8,8,0,0,0-2.75,3.85,17.29,17.29,0,0,0-1,6.55,16.67,16.67,0,0,0,1,6.38A7.83,7.83,0,0,0,101.87,65a6.63,6.63,0,0,0,4,1.2,6.32,6.32,0,0,0,4.75-1.72A6.1,6.1,0,0,0,112.26,60V57.58a1,1,0,0,0-.45-.9,2.61,2.61,0,0,0-1.47-.32h-2.21V55.13h10.22v1.23h-.8a2.25,2.25,0,0,0-1.41.34,1.21,1.21,0,0,0-.42,1v9.89h-1.16q-.63-2.32-1.32-4.42a9.3,9.3,0,0,1-3.14,3.24A7.92,7.92,0,0,1,106,67.49a11.62,11.62,0,0,1-6.1-1.69,13,13,0,0,1-4.42-17.3,12.83,12.83,0,0,1,4.47-4.89,10.59,10.59,0,0,1,5.74-1.81,9,9,0,0,1,3.15.55A13.27,13.27,0,0,1,112.3,44.4Z" fill="#fff"/><path d="M135.89,65.69l.27.49c0,.93-1.12.83-2.17.83a6.74,6.74,0,0,1-2.95-.46,3.79,3.79,0,0,1-1.19-2,10.56,10.56,0,0,1-2.95,2.35,7.16,7.16,0,0,1-3,.59A5.9,5.9,0,0,1,120,66.41a3.47,3.47,0,0,1-1.32-2.79q0-2.57,3-4.27a21.32,21.32,0,0,1,8-2.26v-2.5a3,3,0,0,0-1.08-2.29,4,4,0,0,0-2.73-1,5.24,5.24,0,0,0-2.64.63q-.79.48-.79.94a1.72,1.72,0,0,0,.42.83,2.21,2.21,0,0,1,.51,1.25,1.73,1.73,0,0,1-.51,1.29,1.82,1.82,0,0,1-1.33.5,2,2,0,0,1-1.47-.6,2.09,2.09,0,0,1-.59-1.53,4,4,0,0,1,2-3.18A8.48,8.48,0,0,1,126.64,50a6.94,6.94,0,0,1,4.49,1.27,3.91,3.91,0,0,1,1.55,3.11v9a2.7,2.7,0,0,0,.39,1.55,1.47,1.47,0,0,0,.92.65A13.13,13.13,0,0,0,135.89,65.69Zm-6.13-7.45q-4.47.62-6.33,2a3.53,3.53,0,0,0-1.39,3,3,3,0,0,0,.74,2.12,2.46,2.46,0,0,0,1.88.74,4.84,4.84,0,0,0,3.6-1.57,5.45,5.45,0,0,0,1.53-4Z" fill="#fff"/><path d="M135.3,50.52l4.72-.3a26.82,26.82,0,0,1,.51,3.5A9.09,9.09,0,0,1,143.2,51a5.69,5.69,0,0,1,2.95-.79,4.36,4.36,0,0,1,2.82.89A5.71,5.71,0,0,1,150.67,54a8.93,8.93,0,0,1,2.62-2.85,5.62,5.62,0,0,1,3.15-.94,4.16,4.16,0,0,1,3.37,1.33,6.94,6.94,0,0,1,1.47,4.54v8.17a1.16,1.16,0,0,0,.37,1,2.26,2.26,0,0,0,1.47.41h.77V67h-8.29V65.69h.83a2.35,2.35,0,0,0,1.47-.35,1.3,1.3,0,0,0,.42-1.06V56.09a4.12,4.12,0,0,0-.89-2.84,3,3,0,0,0-2.35-1,3.55,3.55,0,0,0-2,.59,3.94,3.94,0,0,0-1.4,1.68,6.39,6.39,0,0,0-.74,2.66v7.1a1.36,1.36,0,0,0,.39,1.07,1.76,1.76,0,0,0,1.19.34h1.13V67h-8.43V65.69h1a2.12,2.12,0,0,0,1.33-.35,1.1,1.1,0,0,0,.44-.9V56.84a5.71,5.71,0,0,0-.86-3.5,2.76,2.76,0,0,0-2.3-1.09A3.44,3.44,0,0,0,142,53.52a6.54,6.54,0,0,0-1.42,4.19v6.58a1.3,1.3,0,0,0,.33,1,2.4,2.4,0,0,0,1.47.37h.85V67h-8.31V65.69h1.25a1.53,1.53,0,0,0,1.08-.35,1.17,1.17,0,0,0,.38-.9V53.63a1.78,1.78,0,0,0-.46-1.33,3.15,3.15,0,0,0-1.83-.56Z" fill="#fff"/><path d="M164.26,50.52l5.9-.19V64.51a1,1,0,0,0,.28.83,1.47,1.47,0,0,0,1,.35h1.86V67H163.25V65.69h2.43a1.47,1.47,0,0,0,1.14-.38,1.53,1.53,0,0,0,.36-1.1V53.83a1.89,1.89,0,0,0-.56-1.47,2.45,2.45,0,0,0-1.67-.5h-.67Zm3.89-7.79a1.9,1.9,0,0,1,1.39.6,1.92,1.92,0,0,1,.6,1.41,1.88,1.88,0,0,1-.58,1.37,2,2,0,1,1-1.41-3.38Z" fill="#fff"/><path d="M172.83,50.52l5.47-.33a27.21,27.21,0,0,1,.49,3.62,7.84,7.84,0,0,1,2.61-2.69,6.52,6.52,0,0,1,3.41-.9,5.38,5.38,0,0,1,2.74.64,4.52,4.52,0,0,1,1.78,2A7.11,7.11,0,0,1,190,56v8a1.68,1.68,0,0,0,.41,1.28,2,2,0,0,0,1.36.38h.48V67H184.9V65.68h.15a2.65,2.65,0,0,0,1.62-.37,1.33,1.33,0,0,0,.46-1.11V57.15a6.52,6.52,0,0,0-.74-3.41,3.29,3.29,0,0,0-3-1.58,4.14,4.14,0,0,0-3.32,1.6,6.31,6.31,0,0,0-1.33,4.17V64a1.66,1.66,0,0,0,.41,1.28,2,2,0,0,0,1.36.38H181V67h-8V65.68h1.14a2.09,2.09,0,0,0,1.31-.35,1.08,1.08,0,0,0,.45-.88V53.81a2.11,2.11,0,0,0-.57-1.6,2.29,2.29,0,0,0-1.64-.55h-.85Z" fill="#fff"/><path d="M204.72,51.44c1.17-1.19,4.42-2.95,5.5-2.95a2.21,2.21,0,0,1,1.67.46c.39.38-.31,1.22-.31,1.76a1.54,1.54,0,0,1-.4,1.08,1.22,1.22,0,0,1-.92.43q-1,0-1.36-1.23c-.1-.35-.25-.52-.47-.52a8.89,8.89,0,0,0-2.89,1.68,7.78,7.78,0,0,1,1,1.81,4.73,4.73,0,0,1,.28,1.64,5,5,0,0,1-.74,2.7,6.22,6.22,0,0,1-2.45,2.06,7.09,7.09,0,0,1-3.28.9h-1.92a5.74,5.74,0,0,0-2.71.42A1.47,1.47,0,0,0,195.1,63a1.2,1.2,0,0,0,.55,1.05,4,4,0,0,0,2.06.37l4.34-.09a8,8,0,0,1,4.74,1.1,3.58,3.58,0,0,1,1.47,3A4.53,4.53,0,0,1,206.61,72q-2.31,2-6.88,2-3.78,0-5.61-1.39a3.07,3.07,0,0,1-1.47-2.45,2.57,2.57,0,0,1,.92-1.9,6.32,6.32,0,0,1,3.1-1.28A5.82,5.82,0,0,1,194,65.75a2.66,2.66,0,0,1-.88-2,3,3,0,0,1,.74-2,5.57,5.57,0,0,1,2.47-1.44,6.13,6.13,0,0,1-2.25-2,4.84,4.84,0,0,1-.74-2.68,5.09,5.09,0,0,1,1.88-4A7.24,7.24,0,0,1,200.16,50a8,8,0,0,1,2.37.35A8.39,8.39,0,0,1,204.72,51.44ZM201.13,67a8.82,8.82,0,0,0-4.61.9,2.57,2.57,0,0,0-1.38,2.17,2.15,2.15,0,0,0,1,1.88,7,7,0,0,0,3.91.91,8.37,8.37,0,0,0,4.56-1,2.76,2.76,0,0,0,1.53-2.21,2.21,2.21,0,0,0-.47-1.34,3,3,0,0,0-1.51-1,10.77,10.77,0,0,0-3.05-.35Zm-1-15.87a3.31,3.31,0,0,0-2.59,1.15,4.71,4.71,0,0,0-1,3.23,5.23,5.23,0,0,0,1,3.44,3.41,3.41,0,0,0,5.2,0,5.11,5.11,0,0,0,1-3.41,4.83,4.83,0,0,0-1-3.26,3.29,3.29,0,0,0-2.59-1.16Z" fill="#fff"/><path d="M210.84,48.59a1.9,1.9,0,0,1,1.39.6,1.92,1.92,0,0,1,.6,1.41,1.87,1.87,0,0,1-.58,1.37,2,2,0,1,1-1.41-3.38Z" fill="#fff"/><path d="M72.7,64H72V62.87h.31a1.7,1.7,0,0,1,.73.07.51.51,0,0,1,.29.48.57.57,0,0,1-.57.57h-.08M74,63.44a1.1,1.1,0,0,0-.41-.9,1.6,1.6,0,0,0-1.13-.26H71.26v3.65H72V64.58h.61l.73,1.35h.78l-.81-1.43a1,1,0,0,0,.73-1m-1.43,3.54a2.85,2.85,0,1,1,2.85-2.85,2.85,2.85,0,0,1-2.85,2.85m0-6.35a3.54,3.54,0,1,0,3.54,3.54,3.54,3.54,0,0,0-3.54-3.54h0" fill="#a3a3a3"/><path d="M35.18,14.41c17-9.06,38.85.5,40.51,23.55C44.23,40.42,40.44,26.26,35.18,14.41Z" fill="url(#linear-gradient)"/><path d="M35.18,63.83c17,9.06,38.85-.5,40.51-23.55C44.23,37.74,40.44,52,35.18,63.83Z" fill="url(#linear-gradient-2)"/><path d="M69.79,21.6a27.1,27.1,0,0,0-34.67-7.13c4.72,10.61,8.26,23.06,31.52,23.79a26.59,26.59,0,0,0,3.15-16.62Zm-29,30.54c.67,0,1.34.1,2,.1A27.1,27.1,0,0,0,65.49,40.11c-14,.67-20.54,5.75-24.65,12Z" fill="url(#radial-gradient)"/></svg>