<?xml version="1.0" encoding="UTF-8"?>
<svg id="Layer_1" data-name="Layer 1" xmlns="http://www.w3.org/2000/svg" xmlns:xlink="http://www.w3.org/1999/xlink" viewBox="0 0 255.12 85.04"><defs><linearGradient id="linear-gradient" x1="97.75" y1="1611.48" x2="70.37" y2="1552.76" gradientTransform="matrix(1, 0, 0, -1, 0, 1622.96)" gradientUnits="userSpaceOnUse"><stop offset="0" stop-color="#70abdc"/><stop offset="0.17" stop-color="#67a6da"/><stop offset="0.46" stop-color="#4d9ad4"/><stop offset="0.6" stop-color="#3e93d0"/><stop offset="0.99" stop-color="#1b7cc1"/></linearGradient><linearGradient id="linear-gradient-2" x1="102.8" y1="1609.56" x2="101.61" y2="1551.27" gradientTransform="matrix(1, 0, 0, -1, 0, 1622.96)" gradientUnits="userSpaceOnUse"><stop offset="0" stop-color="#3e93d0"/><stop offset="0.99" stop-color="#1b7cc1"/></linearGradient></defs><title>Ezugi_game_provider_footer</title><g id="Layer_2" data-name="Layer 2"><g id="Layer_1-2" data-name="Layer 1-2"><path d="M97.82,30.79l-.45,20.77A134.72,134.72,0,0,1,97.82,30.79Z" fill="#fff"/><path d="M159.3,56.86a.52.52,0,0,1-.51.52c-1.37,0-2.62.19-4.11.26a27.18,27.18,0,0,0-3.93.36.51.51,0,0,1-.46-.13h0a.52.52,0,0,1-.16-.38V54.67a.52.52,0,0,0-.82-.42,36.1,36.1,0,0,1-3.62,2.38,8.87,8.87,0,0,1-4.61,1.43c-4,0-7.43-2.34-7.43-8.5V38.39c0-3-.48-3.67-2-4l-1.29-.26a.52.52,0,0,1-.4-.47l0-.66a.51.51,0,0,1,.47-.55h0c1.7-.06,5.86-.18,7.54-.31a.51.51,0,0,1,.55.55c-.13,1.75-.13,4.25-.13,7.65V48c0,5.07,2.58,6.44,5.27,6.44a9.47,9.47,0,0,0,6.3-2.58.52.52,0,0,0,.17-.39V38.39c0-3-.54-3.73-2.52-4l-1.74-.28a.52.52,0,0,1-.44-.51V33a.51.51,0,0,1,.5-.52c1.92-.06,6.63-.19,8.36-.32a.51.51,0,0,1,.55.47s0,0,0,0V51.1c0,2.85.48,4.48,2.82,4.64l1.12,0a.52.52,0,0,1,.5.52Z" fill="#fff"/><path d="M128.74,50.87c-.73,1.93-1.57,4.09-2.34,6a.73.73,0,0,1-.68.46H107a.73.73,0,0,1-.65-.4l0-.06a.73.73,0,0,1,.06-.74c4.8-6.76,9.35-13.58,13.94-20.64a.73.73,0,0,0-.61-1.13h-4c-4.31,0-5.09.86-6.77,4l-.54,1a.73.73,0,0,1-.88.34l-.25-.08a.73.73,0,0,1-.46-.9c.56-1.82,1.19-3.76,1.63-5.76a.73.73,0,0,1,.71-.58h17.36a.73.73,0,0,1,.66.43h0a.73.73,0,0,1-.06.71c-4.59,6.8-9.08,13.64-13.67,20.76a.73.73,0,0,0,.61,1.13h4.6c4.54,0,5.75-1.19,8-4.59l0,0,.43-.76a.73.73,0,0,1,.95-.3l.34.16A.73.73,0,0,1,128.74,50.87Z" fill="#fff"/><path d="M185.3,56.6h0a.78.78,0,0,1,.7-.77c3.31-.33,5-.87,5-4.5V39.58c0-3.31-.16-4.41-3.13-5a.78.78,0,0,1-.64-.76v-.65a.78.78,0,0,1,.75-.78c1.3,0,4.05-.13,6.54-.31a.77.77,0,0,1,.83.71s0,0,0,.06V51.33c0,3.63.7,4.16,3.93,4.49a.78.78,0,0,1,.7.77h0a.78.78,0,0,1-.78.78H186.07A.78.78,0,0,1,185.3,56.6Z" fill="#fff"/><polygon points="61.11 24.31 101.83 13.38 100.34 71.66 55.12 63.09 61.11 24.31" fill="url(#linear-gradient)"/><polygon points="101.83 13.38 104.03 14.98 102.6 69.1 100.34 71.66 101.83 13.38" fill="url(#linear-gradient-2)"/><path d="M61.11,24.31l-.59,2.77c0,.13,0,.26,0,.39C60.51,44.35,74,58,91.73,58a33.64,33.64,0,0,0,9-1.22l1.11-43.43Z" fill="#fff" opacity="0.15" style="isolation:isolate"/><path d="M96.82,53.64c-.73,2.27-3,8.6-3.91,10.62l-33.67-4.9L59.35,58c6.2.4,6.79.05,7.21-4.15l2.07-20.55c.47-4.64-.09-4.72-5.7-3.8l.13-1.36,33.48-7.95c-.2,1.69-.38,6.22-.57,9.65l-2.26.64a10.38,10.38,0,0,0-1.78-5.16c-.91-1.21-2.92-1.19-8.4,0l-5.7,1.25c-2.3.5-2.47.7-2.64,2.31L73.83,41.58l6.82-.49c6.71-.48,7.15-1,8.55-5.38l2.19-.25L89.9,47.93H87.76c-.43-4.5-.9-4.84-7.29-4.54l-6.86.33L72.5,54.12c-.27,2.58,0,3.83,1.21,4.64s3.7,1.19,7.24,1.63c5.43.69,7.51.43,9.31-1.09a21.72,21.72,0,0,0,4.44-6Z" fill="#fff"/><path d="M184.66,33.5a1.06,1.06,0,0,1-1,1.06,3.18,3.18,0,0,0-2.61,1.13.54.54,0,0,0,0,.71,7.87,7.87,0,0,1,1.21,4.26c0,6.16-5.39,9.12-10.49,9.12a18,18,0,0,1-2.42-.18,1.52,1.52,0,0,0-1.23.36,3.23,3.23,0,0,0-1.21,1.93c0,1.08,1.08,1.76,3.78,1.76,2.22,0,4.31-.19,6.27,0,3.69.33,7.89,3.24,7.89,7.81,0,4.79-5.81,8.36-13.78,8.36-6.71,0-10.8-3.3-10.8-6.56,0-4,4.32-5.28,5.73-6.35a.45.45,0,0,0-.11-.78c-1.74-.69-3.14-.92-3.65-1.78-1.86-3.17,3.18-4,4.18-5a.45.45,0,0,0-.13-.73,8.18,8.18,0,0,1-4.71-7.39c0-6.44,6.11-9.46,10.73-9.46h.06a11.48,11.48,0,0,1,3.66.61,1.52,1.52,0,0,0,.49.08h7.06a1.06,1.06,0,0,1,1.06,1ZM165,61.44c0,3.14,3.1,5.84,7.53,5.84,5.49,0,7.85-2.27,8.25-4.39.49-2.56-.86-4-2.59-5a8.73,8.73,0,0,0-5-1.35c-5.58-.29-8.23,3.35-8.23,4.95Zm1.74-21.11c0,4.44,2.34,7.64,5.63,7.64,2.64-.06,5-2.28,5-6.79s-2.22-7.64-5.69-7.64c-2.52,0-4.91,2.39-4.91,6.79Z" fill="#fff"/><path d="M188.41,25.17a3.34,3.34,0,0,0,4.3,2.22,3.7,3.7,0,0,0,2.85-4.17,3.35,3.35,0,0,0-4.3-2.22A3.7,3.7,0,0,0,188.41,25.17Z" fill="#3d91cf"/></g></g></svg>