<?xml version="1.0" encoding="UTF-8"?>
<svg id="Layer_1" data-name="Layer 1" xmlns="http://www.w3.org/2000/svg" viewBox="0 0 255.12 85.04"><title>iSoftBet_game_provider_footer </title><path d="M68.47,33.35a9.45,9.45,0,0,0-1.67-5,5,5,0,0,0-4.16-1.83,5.14,5.14,0,0,0-3.78,1.4,4.87,4.87,0,0,0-1.4,3.58,6.12,6.12,0,0,0,1.63,4.36,33,33,0,0,0,5,4,40.43,40.43,0,0,1,3.46,2.45A18.43,18.43,0,0,1,70,44.84a11.29,11.29,0,0,1,1.91,3.27,11.15,11.15,0,0,1,.74,4.24,9.77,9.77,0,0,1-2.53,7.12C68.47,61.18,66.06,62,62.95,62a8.68,8.68,0,0,1-7-3,11.82,11.82,0,0,1-2.65-7.78h3.78a8.62,8.62,0,0,0,1.67,5.33,5.53,5.53,0,0,0,4.55,1.91,5.34,5.34,0,0,0,4.13-1.63,6.56,6.56,0,0,0,1.48-4.63,6.58,6.58,0,0,0-1.71-4.59,30,30,0,0,0-5.29-4.32Q60,42,58.67,40.9a23,23,0,0,1-2.45-2.34,9.4,9.4,0,0,1-1.83-3,9.68,9.68,0,0,1-.7-3.74,8.59,8.59,0,0,1,2.53-6.42A9.22,9.22,0,0,1,62.83,23a8.76,8.76,0,0,1,6.69,2.72c1.67,1.79,2.57,4.32,2.72,7.63Zm30.71,18.1A20.36,20.36,0,0,1,97,57.52,9.43,9.43,0,0,1,93.7,61,8.82,8.82,0,0,1,89.26,62,8.68,8.68,0,0,1,84.86,61a9.14,9.14,0,0,1-3.35-3.43,19.3,19.3,0,0,1-2.18-6.07,45.16,45.16,0,0,1-.78-8.91,45.58,45.58,0,0,1,.78-9,19.33,19.33,0,0,1,2.14-6.07A8.52,8.52,0,0,1,89.26,23a8.93,8.93,0,0,1,4.44,1.09A8.6,8.6,0,0,1,97,27.52a19.34,19.34,0,0,1,2.14,6.07,45.32,45.32,0,0,1,.78,9,48.34,48.34,0,0,1-.78,8.91ZM95.33,34.68a16.58,16.58,0,0,0-1.4-4.9,6,6,0,0,0-2.06-2.53,5.11,5.11,0,0,0-5.29,0,6,6,0,0,0-2.06,2.53,18.71,18.71,0,0,0-1.4,4.9,49.22,49.22,0,0,0-.51,7.86,49.23,49.23,0,0,0,.51,7.86,16.58,16.58,0,0,0,1.4,4.9,6,6,0,0,0,2.06,2.53,5.11,5.11,0,0,0,5.29,0,6,6,0,0,0,2.06-2.53,18.71,18.71,0,0,0,1.4-4.9,49.23,49.23,0,0,0,.51-7.86A49.22,49.22,0,0,0,95.33,34.68Zm11.4-11.13H123V27H110.82V39.93H120V43.4h-9.15V61.46h-4.09V23.54Zm41,0V27H140V61.5h-4.09V27H128.1v-3.5Z" fill="#fff"/><path d="M152.2,23.54h10.08a8.65,8.65,0,0,1,6.58,2.53,9.73,9.73,0,0,1,2.37,6.81,9.77,9.77,0,0,1-1.4,5.29,7.34,7.34,0,0,1-4.36,3.11v.12a8.27,8.27,0,0,1,5,3.39A11.12,11.12,0,0,1,172.13,51c0,7-4,10.51-12.18,10.51h-7.67v-38Zm4.09,16.31h2.3c3,0,5.18-.54,6.5-1.56s2-2.84,2-5.37q0-3.21-1.52-4.55c-1-.9-2.76-1.32-5.22-1.32h-4.09V39.85Zm0,18.18h4.09a8.33,8.33,0,0,0,5.68-1.71C167.3,55.19,168,53.4,168,51c0-2.57-.62-4.48-1.83-5.76s-3.11-1.91-5.76-1.91h-4.09Zm39.66-34.49V27H182.71V39.93h9.77V43.4h-9.77V58h13.86v3.46h-18V23.54h17.36Zm23.86,0V27H212V61.5h-4.09V27h-7.78v-3.5Zm-180,15.57V62h3.93V39.11a6.57,6.57,0,0,1-1.95.31A6.82,6.82,0,0,1,39.79,39.11Zm2.06-12.92a3.43,3.43,0,1,1-3.43,3.39A3.43,3.43,0,0,1,41.85,26.19Zm0-3.11a6.52,6.52,0,1,0,6.54,6.5A6.52,6.52,0,0,0,41.85,23.08Z" fill="#f5b41a"/></svg>