<?xml version="1.0" encoding="UTF-8"?>
<svg id="Layer_1" data-name="Layer 1" xmlns="http://www.w3.org/2000/svg" viewBox="0 0 255.12 85.04"><title>Playson_game_provider_footer</title><polygon points="185.85 21.08 185.85 35.37 201.56 28.23 185.85 21.08" fill="#eb008b"/><polygon points="201.56 28.23 201.56 42.52 217.26 35.37 201.56 28.23" fill="#00adee"/><polygon points="201.56 42.52 201.56 56.81 217.26 49.67 201.56 42.52" fill="#00b4a4"/><polygon points="217.26 35.37 217.26 49.67 232.97 42.52 217.26 35.37" fill="#ffe600"/><polygon points="185.85 35.37 185.85 49.67 201.56 42.52 185.85 35.37" fill="#ec1c24"/><polygon points="185.85 49.66 185.85 63.96 201.56 56.81 185.85 49.66" fill="#faaf40"/><path d="M39.1,26.58a3.63,3.63,0,0,1,1.45.29,4.1,4.1,0,0,1,1.19.77,3.41,3.41,0,0,1,1.09,2.53v5.58a3.41,3.41,0,0,1-1.09,2.53,4.1,4.1,0,0,1-1.19.77,3.65,3.65,0,0,1-1.45.29H25.55l-.3,0v7.15h-3.1V26.58Zm.63,3.59a.58.58,0,0,0-.19-.43.62.62,0,0,0-.44-.18H25.88a.62.62,0,0,0-.45.18.57.57,0,0,0-.19.43v5.58a.57.57,0,0,0,.19.43.62.62,0,0,0,.45.18H39.1a.62.62,0,0,0,.44-.18.57.57,0,0,0,.19-.43Z" fill="#fff"/><polygon points="44.33 26.52 47.43 26.52 47.43 43.44 65.01 43.44 65.01 46.42 44.33 46.42 44.33 26.52" fill="#fff"/><path d="M83.68,26.55a3.8,3.8,0,0,1,1.45.28,3.75,3.75,0,0,1,1.19.77,3.6,3.6,0,0,1,.8,1.15,3.41,3.41,0,0,1,.29,1.39V46.43h-3.1v-7H69.84v7h-3.1V30.14A3.4,3.4,0,0,1,67,28.74a3.6,3.6,0,0,1,.8-1.15A3.75,3.75,0,0,1,69,26.82a3.8,3.8,0,0,1,1.45-.28Zm.63,9.94V30.14a.57.57,0,0,0-.19-.43.62.62,0,0,0-.45-.18H70.47a.62.62,0,0,0-.45.18.57.57,0,0,0-.19.43v6.35Z" fill="#fff"/><polygon points="110.03 26.55 100.49 38.97 100.49 46.42 97.39 46.42 97.39 38.97 87.85 26.55 91.5 26.55 98.94 35.6 106.35 26.55 110.03 26.55" fill="#fff"/><path d="M130.94,31.3h-3.1V30.14a.57.57,0,0,0-.19-.43.62.62,0,0,0-.45-.18H114a.62.62,0,0,0-.45.18.57.57,0,0,0-.19.43v4.25a.57.57,0,0,0,.19.43A.62.62,0,0,0,114,35h13.22a3.8,3.8,0,0,1,1.45.28,3.76,3.76,0,0,1,1.19.77,3.59,3.59,0,0,1,.8,1.15,3.4,3.4,0,0,1,.29,1.39v4.25a3.4,3.4,0,0,1-.29,1.39,3.58,3.58,0,0,1-.8,1.15,3.76,3.76,0,0,1-2.64,1H114a3.76,3.76,0,0,1-2.64-1,3.59,3.59,0,0,1-.8-1.15,3.4,3.4,0,0,1-.29-1.39V41.68h3.1v1.16a.57.57,0,0,0,.19.43.62.62,0,0,0,.45.18h13.22a.62.62,0,0,0,.45-.18.57.57,0,0,0,.19-.43V38.58a.57.57,0,0,0-.19-.43.62.62,0,0,0-.45-.18H114a3.77,3.77,0,0,1-2.64-1,3.59,3.59,0,0,1-.8-1.15,3.41,3.41,0,0,1-.29-1.39V30.14a3.4,3.4,0,0,1,.29-1.39,3.6,3.6,0,0,1,.8-1.15,3.74,3.74,0,0,1,1.19-.77,3.8,3.8,0,0,1,1.45-.28h13.22a3.8,3.8,0,0,1,1.45.28,3.75,3.75,0,0,1,1.19.77,3.59,3.59,0,0,1,.8,1.15,3.4,3.4,0,0,1,.29,1.39Z" fill="#fff"/><path d="M149.76,26.55a3.77,3.77,0,0,1,2.64,1,3.59,3.59,0,0,1,.8,1.15,3.42,3.42,0,0,1,.29,1.39v12.7a3.42,3.42,0,0,1-.29,1.39,3.59,3.59,0,0,1-.8,1.15,3.76,3.76,0,0,1-2.64,1H136.54a3.76,3.76,0,0,1-2.64-1,3.6,3.6,0,0,1-.8-1.15,3.41,3.41,0,0,1-.29-1.39V30.14a3.41,3.41,0,0,1,.29-1.39,3.6,3.6,0,0,1,.8-1.15,3.76,3.76,0,0,1,1.19-.77,3.8,3.8,0,0,1,1.45-.28Zm0,16.9a.62.62,0,0,0,.45-.18.57.57,0,0,0,.19-.43V30.14a.57.57,0,0,0-.19-.43.62.62,0,0,0-.45-.18H136.54a.62.62,0,0,0-.45.18.57.57,0,0,0-.19.43v12.7a.57.57,0,0,0,.19.43.62.62,0,0,0,.45.18Z" fill="#fff"/><polygon points="173.09 26.55 176.19 26.55 176.19 46.42 172.51 46.42 158.61 30.52 158.61 46.42 155.5 46.42 155.5 26.55 159.18 26.55 173.09 42.45 173.09 26.55" fill="#fff"/><path d="M58.47,59.57v-.49a5.57,5.57,0,0,1-2.36.63c-1.63,0-2-.92-2-2.36V53.53h.78v3.83c0,1.29.32,1.74,1.38,1.74a5.81,5.81,0,0,0,2.22-.59v-5h.8v6Z" fill="#fff"/><path d="M65.18,59.57V55.74c0-1.29-.31-1.74-1.37-1.74a5.94,5.94,0,0,0-2.22.58v5h-.8v-6h.8V54a5.32,5.32,0,0,1,2.29-.65c1.72,0,2.11.82,2.11,2.37v3.83Z" fill="#fff"/><path d="M67.54,52.35V51h.82v1.38Zm0,7.22v-6h.81v6Z" fill="#fff"/><path d="M74,61.89V59.33a5.35,5.35,0,0,1-2,.38c-1.67,0-2.43-.77-2.43-2.9v-.45c0-2.34.93-3,3-3a17.11,17.11,0,0,1,2.24.14v8.38Zm0-7.82c-.47,0-1.11-.06-1.46-.06-1.47,0-2.14.37-2.14,2.35v.45c0,1.71.48,2.26,1.75,2.26A5.74,5.74,0,0,0,74,58.73Z" fill="#fff"/><path d="M80.71,59.57v-.49a5.57,5.57,0,0,1-2.36.63c-1.63,0-2-.92-2-2.36V53.53h.78v3.83c0,1.29.32,1.74,1.38,1.74a5.81,5.81,0,0,0,2.22-.59v-5h.8v6Z" fill="#fff"/><path d="M83.52,56.8v.13c0,1.38.42,2.15,2.23,2.15A17.82,17.82,0,0,0,88,58.91v.58a11.67,11.67,0,0,1-2.3.22c-2.27,0-3-.92-3-2.94v-.42c0-1.89.85-3,2.76-3s2.77,1.07,2.77,3.06v.37Zm3.9-.71c0-1.08-.33-2.08-1.94-2.08s-1.95,1-1.95,2.08v.1h3.9Z" fill="#fff"/><path d="M93.83,62a16.82,16.82,0,0,1-2.32-.19v-.53c.72.06,1.52.1,2.32.1,1.46,0,1.76-.45,1.76-1.59v-.3a6.88,6.88,0,0,1-1.59.22c-1.85,0-2.81-.73-2.81-2.78v-.78c0-1.9.86-2.78,3-2.78a20.76,20.76,0,0,1,2.24.16v6.26C96.39,61.23,95.87,62,93.83,62Zm1.76-7.91a12,12,0,0,0-1.45-.1c-1.6,0-2.16.65-2.16,2.16v.78c0,1.62.58,2.16,2,2.16a6.87,6.87,0,0,0,1.58-.21Z" fill="#fff"/><path d="M101.78,59.57v-.43a4.58,4.58,0,0,1-2.22.58c-1.3,0-2-.53-2-1.74v-.17c0-1.54,1.09-1.85,3-1.85h1.13v-.51c0-1.18-.28-1.46-1.76-1.46a17.71,17.71,0,0,0-1.95.12v-.53a10.91,10.91,0,0,1,2-.21c2.12,0,2.51.66,2.51,2.08v4.12Zm0-3h-1.13c-1.6,0-2.24.2-2.24,1.28V58c0,.83.51,1.12,1.35,1.12a4.46,4.46,0,0,0,2-.55Z" fill="#fff"/><path d="M111.51,59.57v-4c0-1-.09-1.52-1.16-1.52a4.2,4.2,0,0,0-1.87.57,4.32,4.32,0,0,1,.09,1v4h-.81v-4c0-1-.06-1.52-1.1-1.52a4.29,4.29,0,0,0-1.85.57v5H104v-6h.8V54a3.87,3.87,0,0,1,2-.63,1.53,1.53,0,0,1,1.48.68,4.2,4.2,0,0,1,2.14-.68c1.79,0,1.87,1.15,1.87,2.16v4Z" fill="#fff"/><path d="M113.86,52.35V51h.82v1.38Zm0,7.22v-6h.81v6Z" fill="#fff"/><path d="M120.65,59.57V55.74c0-1.29-.31-1.74-1.37-1.74a5.94,5.94,0,0,0-2.22.58v5h-.8v-6h.8V54a5.32,5.32,0,0,1,2.29-.65c1.72,0,2.11.82,2.11,2.37v3.83Z" fill="#fff"/><path d="M125.28,62a16.82,16.82,0,0,1-2.32-.19v-.53c.72.06,1.52.1,2.32.1,1.46,0,1.76-.45,1.76-1.59v-.3a6.88,6.88,0,0,1-1.59.22c-1.85,0-2.81-.73-2.81-2.78v-.78c0-1.9.86-2.78,3-2.78a20.77,20.77,0,0,1,2.24.16v6.26C127.84,61.23,127.32,62,125.28,62ZM127,54.09a12,12,0,0,0-1.45-.1c-1.6,0-2.16.65-2.16,2.16v.78c0,1.62.58,2.16,2,2.16a6.87,6.87,0,0,0,1.58-.21Z" fill="#fff"/><path d="M133.25,59.71a10.75,10.75,0,0,1-2.13-.22v-.57a19.77,19.77,0,0,0,2.11.17c1.25,0,1.64-.39,1.64-1s-.29-.83-1.49-1.28l-.48-.17c-1.27-.47-1.86-.95-1.86-1.8s.77-1.47,2.38-1.47a8.69,8.69,0,0,1,1.95.21v.56a17.44,17.44,0,0,0-1.91-.13c-1.1,0-1.6.18-1.6.83s.34.81,1.37,1.19l.48.18c1.48.57,2,1,2,1.87S135.13,59.71,133.25,59.71Z" fill="#fff"/><path d="M139.23,59.71c-1.89,0-2.77-1-2.77-2.85v-.65c0-1.86.88-2.85,2.77-2.85s2.77,1,2.77,2.85v.65C142,58.73,141.12,59.71,139.23,59.71Zm2-3.49c0-1.55-.59-2.2-2-2.2s-2,.66-2,2.2v.65c0,1.55.59,2.21,2,2.21s2-.67,2-2.21Z" fill="#fff"/><path d="M143.29,59.57V51h.8v8.6Z" fill="#fff"/><path d="M150,59.57v-.49a5.57,5.57,0,0,1-2.36.63c-1.63,0-2-.92-2-2.36V53.53h.78v3.83c0,1.29.32,1.74,1.38,1.74A5.81,5.81,0,0,0,150,58.5v-5h.8v6Z" fill="#fff"/><path d="M154.58,59.71c-1.13,0-1.51-.39-1.51-1.5V54.14l-1.45-.06v-.56h1.45V51.9h.8v1.62h1.91v.61h-1.91v4c0,.77.11.95.8.95.33,0,.82,0,1.11-.06v.51A6.73,6.73,0,0,1,154.58,59.71Z" fill="#fff"/><path d="M156.74,52.35V51h.82v1.38Zm0,7.22v-6h.81v6Z" fill="#fff"/><path d="M161.62,59.71c-1.89,0-2.77-1-2.77-2.85v-.65c0-1.86.88-2.85,2.77-2.85s2.77,1,2.77,2.85v.65C164.39,58.73,163.5,59.71,161.62,59.71Zm2-3.49c0-1.55-.59-2.2-2-2.2s-2,.66-2,2.2v.65c0,1.55.59,2.21,2,2.21s2-.67,2-2.21Z" fill="#fff"/><path d="M170,59.57V55.74c0-1.29-.31-1.74-1.37-1.74a5.94,5.94,0,0,0-2.22.58v5h-.8v-6h.8V54a5.32,5.32,0,0,1,2.29-.65c1.71,0,2.11.82,2.11,2.37v3.83Z" fill="#fff"/><path d="M174.15,59.71a10.75,10.75,0,0,1-2.13-.22v-.57a19.77,19.77,0,0,0,2.11.17c1.25,0,1.64-.39,1.64-1s-.29-.83-1.49-1.28l-.48-.17c-1.27-.47-1.86-.95-1.86-1.8s.77-1.47,2.38-1.47a8.69,8.69,0,0,1,1.95.21v.56a17.43,17.43,0,0,0-1.91-.13c-1.1,0-1.6.18-1.6.83s.34.81,1.37,1.19l.48.18c1.48.57,2,1,2,1.87S176,59.71,174.15,59.71Z" fill="#fff"/></svg>