<?xml version="1.0" encoding="UTF-8"?>
<svg id="Layer_1" data-name="Layer 1" xmlns="http://www.w3.org/2000/svg" viewBox="0 0 255.12 85.04"><title>Quickspin_game_provider_footer</title><path id="quickspin" d="M33.11,29.71c0-5.34,4.22-9.21,10-9.21h.17c5.77,0,10,3.87,10,9.21a2.84,2.84,0,1,1-5.68,0c0-2.41-2.15-3.53-4.3-3.53H43.1c-2.07,0-4.3,1-4.3,3.53a2.87,2.87,0,0,1-2.84,2.84A2.81,2.81,0,0,1,33.11,29.71ZM53.26,50.21a2.84,2.84,0,1,0-5.68,0c0,2.41-2.15,3.53-4.3,3.53H43.1c-2.07,0-4.3-1-4.3-3.53a2.84,2.84,0,1,0-5.68,0c0,5.34,4.22,9.21,10,9.21h.17a19.59,19.59,0,0,0,2.24-.17L48,64.15c.52.95,2.07,1.21,3.44.43h0c1.38-.69,2.15-2.07,1.64-3l-2.5-4.91A8.88,8.88,0,0,0,53.26,50.21ZM38.79,47.45V32.55a3.9,3.9,0,0,1-2.84,1.21,3.77,3.77,0,0,1-2.84-1.21v15a3.9,3.9,0,0,1,2.84-1.21A3.7,3.7,0,0,1,38.79,47.45Zm8.7-15v15a4,4,0,0,1,5.68,0V32.55a3.9,3.9,0,0,1-2.84,1.21A4,4,0,0,1,47.49,32.47Zm49.94.09a2.87,2.87,0,0,0,2.84-2.84c0-2.41,2.15-3.53,4.3-3.53h.17c2.07,0,4.3,1,4.3,3.53a2.84,2.84,0,0,0,5.68,0c0-5.34-4.22-9.21-10-9.21h-.17c-5.77,0-10,3.87-10,9.21A2.81,2.81,0,0,0,97.43,32.55ZM111.8,47.36A2.87,2.87,0,0,0,109,50.21c0,2.41-2.15,3.53-4.3,3.53h-.17c-2.07,0-4.3-1-4.3-3.53a2.84,2.84,0,1,0-5.68,0c0,5.34,4.22,9.21,10,9.21h.17c5.77,0,10-3.87,10-9.21A2.81,2.81,0,0,0,111.8,47.36Zm-11.54.09V32.55a3.9,3.9,0,0,1-2.84,1.21,3.77,3.77,0,0,1-2.84-1.21v15a3.9,3.9,0,0,1,2.84-1.21A3.83,3.83,0,0,1,100.27,47.45Zm44.34-14.9a2.87,2.87,0,0,0,2.84-2.84c0-2.41,2.15-3.53,4.3-3.53h.17c2.07,0,4.3,1,4.3,3.53a2.84,2.84,0,1,0,5.68,0c0-5.34-4.22-9.21-10-9.21h-.26c-5.77,0-10,3.87-10,9.21A2.83,2.83,0,0,0,144.61,32.55Zm2.15,1.12a3.74,3.74,0,0,1-3.19.34l11.28,15.41a4,4,0,0,1,1.72-2.76,3.59,3.59,0,0,1,3.1-.34L148.4,31.09A3.69,3.69,0,0,1,146.76,33.67ZM159,47.36a2.87,2.87,0,0,0-2.84,2.84c0,2.41-2.15,3.53-4.3,3.53h-.17c-2.07,0-4.3-1-4.3-3.53a2.84,2.84,0,0,0-5.68,0c0,5.34,4.22,9.21,10,9.21h.17c5.77,0,10-3.87,10-9.21A2.87,2.87,0,0,0,159,47.36Zm-83.52,0a2.87,2.87,0,0,0-2.84,2.84c0,2.41-2.15,3.53-4.3,3.53h-.17c-2.07,0-4.3-1-4.3-3.53a2.84,2.84,0,1,0-5.68,0c0,5.34,4.22,9.21,10,9.21h.17c5.77,0,10-3.87,10-9.21A2.87,2.87,0,0,0,75.47,47.36Zm0-26.86a2.87,2.87,0,0,0-2.84,2.84V47.28a4,4,0,0,1,5.68,0V23.43A2.89,2.89,0,0,0,75.47,20.5ZM63.93,47.28V23.43a2.84,2.84,0,1,0-5.68,0V47.36a3.9,3.9,0,0,1,2.84-1.21A4,4,0,0,1,63.93,47.28ZM89.33,34.1V23.43a2.84,2.84,0,0,0-5.68,0V46.24h0V56.58a2.87,2.87,0,0,0,2.84,2.84h0a2.87,2.87,0,0,0,2.84-2.84V45.9h0Zm106,0V23.43a2.84,2.84,0,1,0-5.68,0V46.24h0V56.58a2.87,2.87,0,0,0,2.84,2.84h0a2.87,2.87,0,0,0,2.84-2.84V45.9h0Zm10.33,4.22L204.53,36l-1.38-2.84L200,26.79V46.24h0V56.58a2.87,2.87,0,0,0,2.84,2.84h0a2.87,2.87,0,0,0,2.84-2.84V45.9h0V38.32Zm10.68,6.2h0L210.56,32.9l-1.38-2.76-3.87-7.75a2.88,2.88,0,1,0-5.17,2.5l3.79,7.75,1.38,2.84,5.94,12h0l5.08,10.25a3,3,0,0,0,4,1.55h0a3,3,0,0,0,1.21-4ZM222,45.9V23.43a2.84,2.84,0,1,0-5.68,0V41.94l1,2.15L222,53.48V45.9Zm-98.5-9.64-4.82,7.06c-.77,1-.26,2.67,1,3.53a2.73,2.73,0,0,0,3.7-.26l5-7.23h0l5.51-8,1.38-1.89,3.7-5.34c.77-1,.26-2.67-1-3.53a2.73,2.73,0,0,0-3.7.26l-3.7,5.34-1.38,2-5.68,8.09Zm12.74,13.52h0l-3.7-7.23-.86-1.72-1.29-2.5-1,1.55-2.58,3.79.77,1.46,3.79,7.49h0L134.62,59c.52.95,2.07,1.21,3.44.43h0c1.38-.69,2.15-2.07,1.64-3ZM123.94,33.59V23.17a2.84,2.84,0,1,0-5.68,0v18.6l4.3-6.2ZM119,47.79c-.26-.17-.52-.43-.77-.6v9.3a2.87,2.87,0,0,0,2.84,2.84h0a2.87,2.87,0,0,0,2.84-2.84V47.62a3.18,3.18,0,0,1-2.5,1A5.11,5.11,0,0,1,119,47.79Zm59.32-27.55h0l-3.87-.09h-6.11c-1.38,0-2.5,1.12-2.5,2.93S167,26,168.37,26h9.38c2,.17,2.93,2.93,2.93,5.34v.17c0,2.41-.86,5.51-2.93,5.68h-9.38c-1.38,0-2.5,1.12-2.5,2.93s1.12,2.93,2.5,2.93h10.07V43c4.22-.6,7.23-5.25,7.23-11.54v-.17C185.59,25.15,182.58,20.85,178.36,20.24Zm-6.8,24.11h-3.19a3.31,3.31,0,0,1-2.5-1v2.84h0V56.49a2.87,2.87,0,0,0,2.84,2.84h0a2.87,2.87,0,0,0,2.84-2.84V45.9h0V44.35Zm0-8.18v-9h-3.19a3.31,3.31,0,0,1-2.5-1v11a3.5,3.5,0,0,1,2.5-1Z" fill="#f26922"/></svg>