<?xml version="1.0" encoding="UTF-8"?>
<svg id="Layer_1" data-name="Layer 1" xmlns="http://www.w3.org/2000/svg" xmlns:xlink="http://www.w3.org/1999/xlink" viewBox="0 0 255.12 85.04"><defs><linearGradient id="linear-gradient" x1="2.62" y1="42.52" x2="44.31" y2="42.52" gradientUnits="userSpaceOnUse"><stop offset="0" stop-color="#00bcd5"/><stop offset="1" stop-color="#bb4ba1"/></linearGradient></defs><title>Spinomenal_game_provider_footer</title><path d="M68.77,55.86a8.3,8.3,0,0,1-2.8.43,6.11,6.11,0,0,1-6.42-4.72l1.25-.43A4.86,4.86,0,0,0,66,55a5.45,5.45,0,0,0,3.68-1.16A4.34,4.34,0,0,0,71,50.41a4.6,4.6,0,0,0-1.61-3.59,6.88,6.88,0,0,0-1.31-.88q-.88-.49-2.25-1.1a14.54,14.54,0,0,1-3.53-2,4.91,4.91,0,0,1,0-7.25,5.67,5.67,0,0,1,3.9-1.4q3.84,0,5.42,2.86l-1.19.52A4.13,4.13,0,0,0,69,36.07a5.14,5.14,0,0,0-2.77-.67,4.46,4.46,0,0,0-3,1,3.55,3.55,0,0,0,.06,5.51,16.35,16.35,0,0,0,3,1.64,22.94,22.94,0,0,1,2.47,1.26,8.78,8.78,0,0,1,1.67,1.26,5.82,5.82,0,0,1,1.77,4.32Q72.27,54.56,68.77,55.86Z" fill="#fff"/><path d="M93.49,54.37a6.56,6.56,0,0,1-9.81-.67V62H82.44V43.47h1.25v2.38a6.56,6.56,0,0,1,9.77-.7,6.62,6.62,0,0,1,0,9.23Zm-.91-8.31a5.26,5.26,0,1,0,1.55,3.71A5.07,5.07,0,0,0,92.58,46.06Z" fill="#fff"/><path d="M106,41.22a1.18,1.18,0,0,1-.7-.27,1.1,1.1,0,0,1-.3-.73q0-.82,1-1,.76,0,1,1A.89.89,0,0,1,106,41.22ZM105.34,56V43.47h1.25V56Z" fill="#fff"/><path d="M124.73,56V48.53q0-4-3.59-4a3.39,3.39,0,0,0-2.68,1,4,4,0,0,0-.94,2.83V56h-1.25V43.47h1.25V45q.85-1.67,3.62-1.67a4.67,4.67,0,0,1,3.59,1.34A5.29,5.29,0,0,1,126,48.4V56Z" fill="#fff"/><path d="M147.17,54.37a6.51,6.51,0,0,1-9.23-9.2,6.14,6.14,0,0,1,4.6-1.92,6.55,6.55,0,0,1,4.63,11.11ZM146.29,46a5,5,0,0,0-3.75-1.55,5,5,0,0,0-3.68,1.58,5.22,5.22,0,1,0,7.43,0Z" fill="#fff"/><path d="M173.48,56V47.37a2.92,2.92,0,0,0-.76-2,2.79,2.79,0,0,0-2.19-.85q-3,0-3,2.86V56h-1.25V47.37a2.6,2.6,0,0,0-.85-2,3.14,3.14,0,0,0-4.2,0,2.64,2.64,0,0,0-.85,2.07V56h-1.25V43.47h1.25v1.25a3.24,3.24,0,0,1,3-1.43,3.87,3.87,0,0,1,3.59,2,3.76,3.76,0,0,1,3.56-2,4.32,4.32,0,0,1,3,1.07,4,4,0,0,1,1.16,3V56Z" fill="#fff"/><path d="M186,49.5a5.76,5.76,0,0,0,1.37,4,5.13,5.13,0,0,0,3.93,1.52,6,6,0,0,0,2.31-.43A5.27,5.27,0,0,0,196,52.42l1.13.52a6.07,6.07,0,0,1-3.65,3,6.93,6.93,0,0,1-2.13.3,6.61,6.61,0,0,1-4.69-11.18,6.36,6.36,0,0,1,4.69-1.86A6.45,6.45,0,0,1,195.92,45a5.89,5.89,0,0,1,1.86,4.51Zm8.59-4a5.47,5.47,0,0,0-3.29-1,5,5,0,0,0-5.12,3.84h10.2A4.24,4.24,0,0,0,194.58,45.51Z" fill="#fff"/><path d="M216.14,56V48.53q0-4-3.59-4a3.39,3.39,0,0,0-2.68,1,4,4,0,0,0-.94,2.83V56h-1.25V43.47h1.25V45q.85-1.67,3.62-1.67a4.67,4.67,0,0,1,3.59,1.34,5.28,5.28,0,0,1,1.25,3.75V56Z" fill="#fff"/><path d="M239,56V53.89a6.49,6.49,0,1,1,0-8.22V43.47h1.25V56Zm-1.31-10a5.26,5.26,0,1,0,1.55,3.71A5.07,5.07,0,0,0,237.67,46.06Z" fill="#fff"/><path d="M251.28,56V33.51h1.22V56Z" fill="#fff"/><path d="M44.31,36.28S37.71,21,22.06,21H2.62V42.69S3.89,48.94,9,48.94H32.19v3H9.86s-5.06,0-7.23-3.26c0,0,5.11,15.37,20.84,15.37H44.31V42.69c0-3-1.72-6-6.78-6H14.74V32.94H36.8S41.59,33,44.31,36.28Z" fill="url(#linear-gradient)"/></svg>