<?xml version="1.0" encoding="UTF-8"?>
<svg id="Layer_1" data-name="Layer 1" xmlns="http://www.w3.org/2000/svg" viewBox="0 0 255.12 85.04"><title>Yggdrasil_game_provider_footer</title><g id="Group-3"><path id="Fill-1" d="M18.36,30.7c-.35-1-.7-2-1-3a27.21,27.21,0,0,1-.65-3.14c-.09-.59-.08-.61.49-.8a19.77,19.77,0,0,1,3.51-.89c.56-.08.58-.07.66.5a23.42,23.42,0,0,0,2,6.87c.12.25.18.65.44.66s.38-.41.5-.67a22.78,22.78,0,0,0,2-6.8c.08-.64.1-.66.75-.56a20,20,0,0,1,3.51.91c.52.18.51.2.43.77a28.15,28.15,0,0,1-1.42,5.53c-.07.2-.3.44-.08.63s.39,0,.58-.12a15.51,15.51,0,0,0,5-3.32l.2-.2c.53-.52.53-.52,1.12,0a19.2,19.2,0,0,1,2.45,2.37c.37.44.37.45,0,.85a20.49,20.49,0,0,1-10.14,5.84c-.18,0-.36.08-.54.13-.43.13-.46.22-.13.55a22.05,22.05,0,0,0,3.55,2.92c.4.27.41.26.88-.18a24.49,24.49,0,0,1,6.65-4.42c.72-.33,1.46-.61,2.2-.88.5-.19.59-.14.79.36A19.89,19.89,0,0,1,43.19,38c.11.53.11.56-.44.75a20.1,20.1,0,0,0-3.42,1.57,21.92,21.92,0,0,0-2,1.34c-.18.13-.47.24-.44.49s.39.29.61.36a22.69,22.69,0,0,0,5.13,1c1.31.1,1.06.06,1,1.18A16.29,16.29,0,0,1,43,47.8c-.16.54-.17.56-.73.52a26.84,26.84,0,0,1-5.62-1,28.09,28.09,0,0,1-12.1-7.2c-.67-.67-.55-.74-1.27,0a27.87,27.87,0,0,1-13,7.46,26.12,26.12,0,0,1-4.6.77c-.72.06-.71,0-.91-.64a18.63,18.63,0,0,1-.61-3.29c-.08-.74-.07-.76.71-.82a23,23,0,0,0,5-.89l.86-.28c.25-.09.27-.25.08-.41a10.28,10.28,0,0,0-.83-.63A20.88,20.88,0,0,0,5,38.8c-.62-.21-.62-.22-.48-.84a18.58,18.58,0,0,1,1.08-3.31c.26-.59.27-.61.88-.4a24.94,24.94,0,0,1,5.67,2.82,27.17,27.17,0,0,1,3.18,2.5c.44.4.44.4.94.07A21.08,21.08,0,0,0,19.49,37c.12-.11.23-.23.34-.35s.09-.34-.13-.42a3.48,3.48,0,0,0-.4-.11A20.53,20.53,0,0,1,9,30.34l-.19-.2a.35.35,0,0,1,0-.55,22.94,22.94,0,0,1,3-2.84c.22-.18.38-.07.54.09A18.15,18.15,0,0,0,14,28.45a15.27,15.27,0,0,0,3.85,2.24.49.49,0,0,0,.49,0" fill="#e6642b"/></g><path id="Fill-4" d="M23.81,62.2c-.58,0-1.16,0-1.74,0s-.59-.12-.59-.65c0-1.77,0-3.54,0-5.3a2.18,2.18,0,0,0-.5-1.46c-1.93-2.48-3.83-5-5.74-7.46-.49-.64-.48-.64.26-1a28.56,28.56,0,0,0,2.82-1.53c.69-.43.69-.42,1.17.2l3.86,5c.52.67.53.67,1,0l3.94-5.15c.4-.52.41-.53.95-.19a30.35,30.35,0,0,0,3.19,1.72c.48.23.49.3.17.72-2,2.59-3.95,5.18-5.94,7.75a1.92,1.92,0,0,0-.44,1.27c0,1.77,0,3.54,0,5.3,0,.64,0,.69-.64.73s-1.21,0-1.81,0h0" fill="#e6642b"/><path id="Fill-6" d="M93.52,45.27c0,1,0,2,0,3a1.43,1.43,0,0,1-.63,1.29c-3.85,2.92-9.16,3-12.4.94-3.07-1.91-4.29-4.76-4.22-8.28.11-6.11,5.53-9.75,10.86-9.06a10.87,10.87,0,0,1,5.15,1.92c.51.37.63.75.15,1.24-.16.16-.28.35-.43.52-.53.57-.84,1.47-1.6,1.68s-1.25-.62-1.89-.93a5.47,5.47,0,0,0-6.14.69,5.9,5.9,0,0,0-1.24,6.83,5.2,5.2,0,0,0,5.39,3,6.44,6.44,0,0,0,2.28-.58,1.19,1.19,0,0,0,.77-1c.19-1.49,0-1.76-1.53-1.79-2.94-.07-2.44.53-2.49-2.65,0-.66.08-1.05.89-1,2,0,4.05,0,6.08,0,.73,0,1,.29,1,1,0,1.07,0,2.14,0,3.21Z" fill="#fff"/><path id="Fill-8" d="M118.94,45.19c0,1,0,2,0,3a1.6,1.6,0,0,1-.71,1.42,11.62,11.62,0,0,1-12.13,1A9.36,9.36,0,0,1,101.95,40a9.49,9.49,0,0,1,10.47-6.86,10.7,10.7,0,0,1,5.16,1.9c.6.43.68.84.15,1.37-.16.16-.29.35-.43.52-.48.55-.87,1.3-1.48,1.58s-1.22-.59-1.86-.89a5.45,5.45,0,0,0-6.74,1.24,5.93,5.93,0,0,0,.06,7.48,6,6,0,0,0,6.84,1.18,2.15,2.15,0,0,0,.72-2.49.6.6,0,0,0-.53-.33c-.34,0-.68,0-1,0-.76-.1-1.8.41-2.21-.3s-.15-1.87-.13-2.82c0-.34.25-.49.56-.49l6.75,0c.49,0,.69.27.68.75,0,1.13,0,2.25,0,3.38Z" fill="#fff"/><path id="Fill-10" d="M208.13,33.27A9.92,9.92,0,0,1,214,34.9c.9.56.91.66.27,1.57-.48.68-.78,1.67-1.54,1.93s-1.34-.66-2.09-.89-1.27-.45-1.92-.61a2.78,2.78,0,0,0-2.12.33,1.33,1.33,0,0,0,0,2.42,12.28,12.28,0,0,0,2.21.79,20.28,20.28,0,0,1,4.11,1.48,4.48,4.48,0,0,1,2.4,4.46A4.88,4.88,0,0,1,212.73,51c-2.73,1.41-5.55,1.16-8.33.13a10.83,10.83,0,0,1-2.92-1.66c-.44-.35-.53-.68-.09-1.1.24-.23.44-.51.67-.76.41-.46.75-1.07,1.27-1.31.67-.31,1,.54,1.53.82a8.19,8.19,0,0,0,4,1.11,3.22,3.22,0,0,0,1.47-.31,1.35,1.35,0,0,0,.12-2.51,14.4,14.4,0,0,0-3.16-1.13c-.85-.27-1.74-.47-2.57-.81a4.39,4.39,0,0,1-3-4.09,5.15,5.15,0,0,1,2.49-5.16,6.64,6.64,0,0,1,3.92-.91" fill="#fff"/><path id="Fill-12" d="M53.26,34.5a26.16,26.16,0,0,1,4-.14c.64,0,.85.48,1.1.9.9,1.49,1.78,2,2.68,3.54.29.48.59.95.87,1.4.57,0,.65-.45.84-.75,1-1.68,2.08-3.34,3.06-5.05a1.6,1.6,0,0,1,1.58-1c1.11,0,2.23,0,3.28,0,.33.59-.05.87-.24,1.17-1.78,2.8-3.55,5.61-5.37,8.38a4.78,4.78,0,0,0-.89,3c.08,1.46,0,2.93,0,4.39,0,1.23,0,1.23-1.19,1.28-2.91.12-3.08.1-2.86-2.72.24-3-.58-4.62-2.38-7-1.44-1.93-2.63-4.06-3.91-6.1a2.22,2.22,0,0,1-.58-1.27" fill="#fff"/><path id="Fill-14" d="M237.83,42.37c0-2.53,0-5.06,0-7.59,0-1.33,0-1.33,1.26-1.36,2.85-.07,2.84-.07,2.85,2.81,0,3.43,0,6.86,0,10.29,0,1.3,0,1.31,1.27,1.32,2.19,0,4.39,0,6.58,0,1.17,0,1.2,0,1.2,1.24,0,3.05.32,2.52-2.44,2.54-3.15,0-6.3,0-9.45,0-1.26,0-1.28,0-1.29-1.32,0-2.64,0-5.29,0-7.93Z" fill="#fff"/><path id="Fill-16" d="M228.25,42.49c0,2.59,0,5.18,0,7.77,0,1.34,0,1.34-1.26,1.37-2.92.07-2.93.07-2.93-2.9q0-6.84,0-13.68c0-1.61,0-1.61,1.52-1.63,2.67,0,2.67,0,2.67,2.66q0,3.21,0,6.42" fill="#fff"/><path id="Fill-18" d="M162.6,41.88c-1.57.59-3.21.25-4.82.28-.43,0-.5-.38-.5-.73,0-.62,0-1.23,0-2,0-2.7-.42-2.23,2.5-2.28a7.93,7.93,0,0,1,2.66.3,2.28,2.28,0,0,1,1.69,2.07,2.35,2.35,0,0,1-1.52,2.37m2,3.42a6.36,6.36,0,0,1,.61-.44,6,6,0,0,0,2.95-6.76c-.52-2.67-2.26-4.14-5.37-4.53s-6-.08-8.94-.16c-.75,0-.77.47-.77,1q0,8.11,0,16.22c0,.69.18,1.05.95,1a16.07,16.07,0,0,1,2.19,0c.82.06,1.09-.28,1.06-1.08,0-1.24,0-2.48,0-3.72,0-.33,0-.67.39-.84a3,3,0,0,1,3.24,1c.89,1.3,1.77,2.61,2.66,3.91.25.37.46.75,1,.74,1.32,0,2.64,0,4.35,0l-4.32-6.32" fill="#fff"/><path id="Fill-20" d="M140.24,43.09A5.06,5.06,0,0,1,135,47.84c-.34,0-.68,0-1,0-2.44,0-2.11.25-2.13-2.18,0-2.25,0-4.5,0-6.75,0-2-.05-1.77,1.86-1.76a11.56,11.56,0,0,1,2,.14,5.24,5.24,0,0,1,4.46,5.81m-3.41-9.46c-2.74-.45-5.51-.12-8.26-.22-.74,0-.78.45-.78,1,0,5.4,0,10.81,0,16.21,0,.86.37,1,1.12,1,1.07,0,2.14,0,3.21,0h0c1.13,0,2.26.06,3.38,0a9.23,9.23,0,0,0,7.19-3.51,9,9,0,0,0-5.86-14.46" fill="#fff"/><path id="Fill-22" d="M182.75,43.86l2.19-5.28a41.56,41.56,0,0,1,2.14,5.28Zm11.33,6.32Q191,42.8,187.82,35.43c-1.13-2.64-.65-2-3.3-2.14a1.78,1.78,0,0,0-2,1.32C180.39,39.75,178.18,44.87,176,50a2.76,2.76,0,0,0-.39,1.64c1.08,0,2.1,0,3.1,0a1.1,1.1,0,0,0,1.23-.88c.26-.74.6-1.46.88-2.19a1.29,1.29,0,0,1,1.38-1c1.86,0,3.71,0,5.57,0a1.18,1.18,0,0,1,1.27.86c.29.79.62,1.57.94,2.35.17.42.36.82.94.81,1.17,0,2.33,0,3.45,0A1.9,1.9,0,0,0,194.08,50.18Z" fill="#fff"/></svg>