<svg width="14" height="19" viewBox="0 0 14 19" fill="none" xmlns="http://www.w3.org/2000/svg">
<path d="M7.00394 12.4085C7.3431 12.4085 7.62704 12.1054 7.62704 11.7519V3.10634L7.57972 1.8436L8.10817 2.44129L9.30704 3.80505C9.41747 3.93974 9.5831 4.00709 9.73296 4.00709C10.0563 4.00709 10.3087 3.75454 10.3087 3.40939C10.3087 3.23261 10.2377 3.09792 10.1194 2.97164L7.45352 0.227293C7.29577 0.0589278 7.16169 0 7.00394 0C6.83831 0 6.70423 0.0589278 6.54648 0.227293L3.88056 2.97164C3.76225 3.09792 3.69127 3.23261 3.69127 3.40939C3.69127 3.75454 3.92789 4.00709 4.25915 4.00709C4.40901 4.00709 4.58254 3.93974 4.69296 3.80505L5.89183 2.44129L6.42028 1.8436L6.37296 3.10634V11.7519C6.37296 12.1054 6.66479 12.4085 7.00394 12.4085ZM2.47662 19H11.5234C13.1718 19 14 18.1245 14 16.3903V7.98892C14 6.25476 13.1718 5.37926 11.5234 5.37926H9.32282V6.7346H11.4997C12.2806 6.7346 12.7301 7.18919 12.7301 8.06469V16.3146C12.7301 17.1901 12.2806 17.6447 11.4997 17.6447H2.49239C1.70366 17.6447 1.26986 17.1901 1.26986 16.3146V8.06469C1.26986 7.18919 1.70366 6.7346 2.49239 6.7346H4.67718V5.37926H2.47662C0.828169 5.37926 0 6.25476 0 7.98892V16.3903C0 18.1245 0.828169 19 2.47662 19Z" fill="#5794F7"/>
</svg>
